<svg width="54" height="54" viewBox="0 0 54 54" fill="none" xmlns="http://www.w3.org/2000/svg">
<rect width="54" height="54" rx="27" fill="#EF7C05"/>
<mask id="mask0_642_340" style="mask-type:alpha" maskUnits="userSpaceOnUse" x="0" y="0" width="54" height="54">
<circle cx="27" cy="27" r="27" fill="#D9D9D9"/>
</mask>
<g mask="url(#mask0_642_340)">
<path d="M37.9759 25.2765V23.313V21.3495C37.9759 21.2141 37.9759 21.1463 37.9759 21.0109C37.7051 20.1307 37.4343 19.9276 36.6218 19.6568C36.4864 19.6568 36.4187 19.5891 36.2833 19.5891H35.4031C34.7937 19.5891 34.3198 19.1151 34.3198 18.5735V17.6256C34.3198 17.5579 34.3198 17.4225 34.2521 17.3548C33.9812 16.4746 33.7781 16.2038 32.8979 15.9329C32.8302 15.9329 32.6948 15.9329 32.5594 15.9329H30.5959H26.9397H24.9085C24.8408 15.9329 24.7054 15.9329 24.6377 15.9329C23.7575 16.2038 23.5544 16.4746 23.2836 17.3548C23.2159 17.4225 23.2159 17.5579 23.2159 17.6256V19.5891V23.313V25.9535C23.2159 26.4952 22.7419 26.9691 22.1326 26.9691H21.2524C21.117 26.9691 21.0493 27.0368 20.9138 27.0368C20.1014 27.3077 19.8305 27.5785 19.5597 28.391C19.5597 28.5264 19.5597 28.5941 19.5597 28.7295V30.693V34.4169V36.3803C19.5597 36.4481 19.5597 36.5835 19.5597 36.6512C19.8305 37.5314 20.1014 37.8022 20.9138 38.0053C21.0493 38.073 21.117 38.073 21.2524 38.073H23.2159H26.9397H30.5959H32.5594C32.6948 38.073 32.8302 38.073 32.8979 38.0053C33.7781 37.8022 33.9812 37.5314 34.2521 36.6512C34.3198 36.5835 34.3198 36.4481 34.3198 36.3803V34.4169V30.693V28.0524C34.3198 27.5108 34.7937 26.9691 35.4031 26.9691H36.4187C37.4343 26.6983 37.7051 26.4952 37.9759 25.615C37.9759 25.4796 37.9759 25.4119 37.9759 25.2765ZM39.5332 19.5891H40.6165C41.2258 19.5891 41.6998 20.063 41.6998 20.6724V23.313V25.9535C41.6998 26.4952 41.2258 26.9691 40.6165 26.9691H39.7363C39.6009 26.9691 39.5332 27.0368 39.3978 27.0368C38.5176 27.3077 38.3145 27.5785 38.0436 28.391C38.0436 28.5264 37.9759 28.5941 37.9759 28.7295V30.693V34.4169V36.9897C37.9759 37.5991 37.502 38.073 36.8926 38.073H35.877C34.8614 38.3438 34.5906 38.547 34.3198 39.4949C34.3198 39.5626 34.3198 39.698 34.3198 39.7657V40.7136C34.3198 41.3229 33.8458 41.7969 33.2365 41.7969H30.5959H26.9397H23.2159H20.5753C20.0337 41.7969 19.5597 41.3229 19.5597 40.7136V39.7657C19.5597 39.698 19.492 39.5626 19.492 39.4949C19.2212 38.547 18.9504 38.3438 17.9348 38.073H18.0025H17.3931C16.4452 38.3438 16.1744 38.547 15.9036 39.4949C15.8358 39.5626 15.8358 39.698 15.8358 39.7657V41.7969V45.453V49.1769V52.8331V56.5569V59.1975C15.8358 59.7391 15.3619 60.2131 14.7525 60.2131H13.1953C12.6536 60.2131 12.1797 59.7391 12.1797 59.1975V56.5569V52.8331V49.1769V45.453V41.7969V38.073V35.4325C12.1797 34.8908 12.6536 34.4169 13.1953 34.4169H14.1432C14.2109 34.4169 14.3463 34.3491 14.414 34.3491C15.2942 34.0783 15.565 33.8075 15.7681 32.995C15.8358 32.8596 15.8358 32.7919 15.8358 32.6565V30.693V28.0524C15.8358 27.5108 16.3098 26.9691 16.9192 26.9691H18.0025C18.0025 26.9691 18.0025 26.9691 17.9348 26.9691C18.9504 26.6983 19.2212 26.4952 19.492 25.615C19.492 25.4796 19.5597 25.4119 19.5597 25.2765V23.313V19.5891V17.6256C19.5597 17.5579 19.492 17.4225 19.492 17.3548C19.2212 16.4069 18.9504 16.2038 17.9348 15.9329C18.0025 15.9329 18.0025 15.9329 18.0025 15.9329H16.9192C16.3098 15.9329 15.8358 15.459 15.8358 14.8496V13.2924C15.8358 12.683 16.3098 12.2091 16.9192 12.2091H18.4764C19.0181 12.2091 19.5597 12.683 19.5597 13.2924V14.2403C19.5597 14.308 19.5597 14.4434 19.5597 14.5111C19.8305 15.3913 20.1014 15.5944 20.9138 15.8652C21.0493 15.9329 21.117 15.9329 21.2524 15.9329H21.6586C22.6742 15.6621 22.8773 15.3913 23.1482 14.5111C23.2159 14.4434 23.2159 14.308 23.2159 14.1726V13.2924C23.2159 12.683 23.6898 12.2091 24.2992 12.2091H26.9397H30.5959H33.2365C33.8458 12.2091 34.3198 12.683 34.3198 13.2924V14.1726C34.3198 14.308 34.3198 14.4434 34.3198 14.5111C34.5906 15.3913 34.8614 15.6621 35.877 15.9329H36.8926C37.502 15.9329 37.9759 16.4069 37.9759 17.0162V17.8964C37.9759 18.0318 38.0436 18.0995 38.0436 18.1673C38.3145 19.1151 38.5853 19.3183 39.5332 19.5891Z" fill="#F4F4F4"/>
</g>
</svg>
