<svg width="27" height="27" viewBox="0 0 27 27" fill="none" xmlns="http://www.w3.org/2000/svg">
<g clip-path="url(#clip0_660_1089)">
<path fill-rule="evenodd" clip-rule="evenodd" d="M26.7135 13.3558C26.7135 20.7325 20.7335 26.7125 13.3567 26.7125C5.98004 26.7125 0 20.7325 0 13.3558C0 5.97906 5.98004 -0.000976562 13.3567 -0.000976562C20.7335 -0.000976562 26.7135 5.97906 26.7135 13.3558ZM8.94429 12.1322C7.60628 12.7164 6.23153 13.3167 4.97441 14.0091C4.318 14.4898 5.19042 14.8297 6.00892 15.1486C6.13904 15.1993 6.26776 15.2495 6.38881 15.2996C6.48954 15.3306 6.59194 15.3632 6.69574 15.3962C7.60605 15.6862 8.62105 16.0096 9.50483 15.5232C10.9566 14.6892 12.3266 13.7251 13.6956 12.7617C14.1441 12.446 14.5925 12.1305 15.0436 11.8196C15.0648 11.8061 15.0886 11.7906 15.1147 11.7737C15.499 11.5246 16.3633 10.9643 16.0436 11.7363C15.2876 12.5631 14.4778 13.2949 13.6637 14.0308C13.1149 14.5268 12.5642 15.0245 12.0266 15.5543C11.5584 15.9348 11.0721 16.6999 11.5964 17.2326C12.8041 18.078 14.0305 18.9029 15.2563 19.7273C15.6552 19.9956 16.054 20.2638 16.4521 20.5327C17.1267 21.0713 18.181 20.6356 18.3293 19.794C18.3953 19.4068 18.4615 19.0197 18.5278 18.6325C18.8937 16.4928 19.2598 14.3523 19.5832 12.2057C19.6272 11.8689 19.677 11.5322 19.7269 11.1954C19.8477 10.3789 19.9687 9.56139 20.0065 8.74051C19.9091 7.9213 18.9158 8.10145 18.363 8.28566C15.5218 9.36678 12.709 10.528 9.90731 11.7098C9.58992 11.8504 9.26819 11.9908 8.94429 12.1322Z" fill="white"/>
</g>
<defs>
<clipPath id="clip0_660_1089">
<rect width="26.7135" height="26.7135" fill="white"/>
</clipPath>
</defs>
</svg>
