<svg width="26" height="27" viewBox="0 0 26 27" fill="none" xmlns="http://www.w3.org/2000/svg">
<g clip-path="url(#clip0_660_1093)">
<mask id="mask0_660_1093" style="mask-type:luminance" maskUnits="userSpaceOnUse" x="0" y="0" width="26" height="27">
<path d="M25.5958 0H0V26.7135H25.5958V0Z" fill="white"/>
</mask>
<g mask="url(#mask0_660_1093)">
<path fill-rule="evenodd" clip-rule="evenodd" d="M1.79924 1.87781C0 3.75562 0 6.77791 0 12.8225V13.891C0 19.9356 0 22.9579 1.79924 24.8357C3.59849 26.7135 6.49432 26.7135 12.286 26.7135H13.3098C19.1015 26.7135 21.9973 26.7135 23.7966 24.8357C25.5958 22.9579 25.5958 19.9356 25.5958 13.891V12.8225C25.5958 6.77791 25.5958 3.75562 23.7966 1.87781C21.9973 0 19.1015 0 13.3098 0H12.286C6.49432 0 3.59849 0 1.79924 1.87781ZM4.31934 8.12542C4.45797 15.0709 7.7854 19.2449 13.6191 19.2449H13.9498V15.2712C16.0934 15.4939 17.7144 17.1301 18.3649 19.2449H21.3939C20.562 16.0838 18.3756 14.3363 17.0105 13.6684C18.3756 12.8448 20.2953 10.8413 20.7539 8.12542H18.0022C17.405 10.3293 15.6348 12.3328 13.9498 12.522V8.12542H11.1981V15.8278C9.49177 15.3826 7.3375 13.2232 7.24151 8.12542H4.31934Z" fill="white"/>
</g>
</g>
<defs>
<clipPath id="clip0_660_1093">
<rect width="25.5958" height="26.7135" rx="12.7979" fill="white"/>
</clipPath>
</defs>
</svg>
