<svg width="31" height="21" viewBox="0 0 31 21" fill="none" xmlns="http://www.w3.org/2000/svg">
<path d="M15.193 0.00892295C16.5684 0.00892295 17.9377 -0.0146395 19.3131 0.014814C21.0581 0.0501582 22.8031 0.114956 24.542 0.191535C25.263 0.226879 25.9962 0.244551 26.7111 0.380037C28.4137 0.698135 29.4256 1.71723 29.8921 3.32539C30.1405 4.17954 30.2314 5.05725 30.3102 5.93497C30.5223 8.29714 30.4798 10.6593 30.4193 13.0215C30.3829 14.4176 30.3223 15.8255 29.9588 17.1921C29.8073 17.7517 29.6316 18.3113 29.2983 18.8003C28.6924 19.6898 27.8199 20.1964 26.7536 20.3849C25.8386 20.5498 24.9116 20.5675 23.9846 20.6087C22.2699 20.6853 20.5552 20.7206 18.8405 20.7619C16.8107 20.8149 14.781 20.8031 12.7572 20.7854C11.1153 20.7678 9.4672 20.7324 7.82521 20.6676C6.4377 20.6146 5.04412 20.591 3.67479 20.3318C2.91741 20.1905 2.24486 19.8842 1.6632 19.3776C1.11789 18.8945 0.839173 18.2701 0.633166 17.6103C0.190859 16.1966 0.160564 14.7357 0.0696786 13.2748C-0.0333246 11.5665 -0.0030295 9.85818 0.0393836 8.15576C0.0757376 6.71843 0.142387 5.27521 0.451396 3.86144C0.633166 3.02496 0.881586 2.19437 1.50566 1.55229C2.27516 0.762933 3.25672 0.385928 4.36552 0.309349C5.69244 0.220989 7.02542 0.162081 8.35234 0.109065C10.6305 0.0148139 12.9148 -0.0146399 15.193 0.00892295ZM20.228 10.0938C20.2038 10.0231 20.1371 10.0113 20.0886 9.98777C18.6648 9.25733 17.2348 8.52688 15.8049 7.79643C14.6719 7.21914 13.5389 6.63596 12.4058 6.05278C12.0908 5.89373 12.0847 5.89962 12.0847 6.25307C12.0847 8.79196 12.0847 11.3309 12.0847 13.8756C12.0847 13.9228 12.0847 13.9758 12.0847 14.0229C12.0786 14.1761 12.1392 14.2232 12.2846 14.1466C12.4604 14.0524 12.6361 13.9581 12.8178 13.8639C15.2051 12.6621 17.5984 11.4546 19.9856 10.2529C20.0705 10.2057 20.1795 10.1881 20.228 10.0938Z" fill="white"/>
</svg>
