<svg width="581" height="319" viewBox="0 0 581 319" fill="none" xmlns="http://www.w3.org/2000/svg">
<path d="M1.696 71H2.656V79.4H1.696V71ZM3.316 72.356C2.876 72.788 2.656 73.34 2.656 74.012C2.656 74.676 2.876 75.224 3.316 75.656C3.764 76.088 4.308 76.304 4.948 76.304C5.588 76.304 6.128 76.088 6.568 75.656C7.016 75.224 7.24 74.676 7.24 74.012C7.24 73.34 7.016 72.788 6.568 72.356C6.128 71.924 5.588 71.708 4.948 71.708C4.308 71.708 3.764 71.924 3.316 72.356ZM3.052 76.328C2.484 75.712 2.2 74.94 2.2 74.012C2.2 73.076 2.484 72.304 3.052 71.696C3.62 71.088 4.32 70.784 5.152 70.784C6.008 70.784 6.728 71.088 7.312 71.696C7.904 72.304 8.2 73.076 8.2 74.012C8.2 74.94 7.904 75.712 7.312 76.328C6.728 76.936 6.008 77.24 5.152 77.24C4.32 77.24 3.62 76.936 3.052 76.328ZM14.3883 73.544C14.3403 72.984 14.1123 72.532 13.7043 72.188C13.2963 71.844 12.8043 71.672 12.2283 71.672C11.6763 71.672 11.2003 71.844 10.8003 72.188C10.4083 72.524 10.1763 72.976 10.1043 73.544H14.3883ZM10.1043 74.42C10.1763 74.988 10.4163 75.444 10.8243 75.788C11.2323 76.132 11.7163 76.304 12.2763 76.304C12.7083 76.304 13.1003 76.204 13.4523 76.004C13.8043 75.796 14.0683 75.512 14.2443 75.152L15.1323 75.5C14.8683 76.028 14.4803 76.448 13.9683 76.76C13.4643 77.064 12.9043 77.216 12.2883 77.216C11.3923 77.216 10.6363 76.912 10.0203 76.304C9.41234 75.688 9.10834 74.916 9.10834 73.988C9.10834 73.06 9.40834 72.292 10.0083 71.684C10.6083 71.068 11.3443 70.76 12.2163 70.76C13.0963 70.76 13.8403 71.06 14.4483 71.66C15.0563 72.252 15.3603 73 15.3603 73.904C15.3603 74.048 15.3403 74.22 15.3003 74.42H10.1043ZM25.1848 77H16.4968V71H17.4568V76.088H20.3608V71H21.3208V76.088H24.2248V71H25.1848V77ZM31.9749 77H31.0149V72.2L27.7149 77H26.5749V71H27.5349V75.68L30.8229 71H31.9749V77ZM38.0641 71V71.912H36.0241V77H35.0641V71.912H33.0241V71H38.0641ZM44.1657 73.544C44.1177 72.984 43.8897 72.532 43.4817 72.188C43.0737 71.844 42.5817 71.672 42.0057 71.672C41.4537 71.672 40.9777 71.844 40.5777 72.188C40.1857 72.524 39.9537 72.976 39.8817 73.544H44.1657ZM39.8817 74.42C39.9537 74.988 40.1937 75.444 40.6017 75.788C41.0097 76.132 41.4937 76.304 42.0537 76.304C42.4857 76.304 42.8777 76.204 43.2297 76.004C43.5817 75.796 43.8457 75.512 44.0217 75.152L44.9097 75.5C44.6457 76.028 44.2577 76.448 43.7457 76.76C43.2417 77.064 42.6817 77.216 42.0657 77.216C41.1697 77.216 40.4137 76.912 39.7977 76.304C39.1897 75.688 38.8857 74.916 38.8857 73.988C38.8857 73.06 39.1857 72.292 39.7857 71.684C40.3857 71.068 41.1217 70.76 41.9937 70.76C42.8737 70.76 43.6177 71.06 44.2257 71.66C44.8337 72.252 45.1377 73 45.1377 73.904C45.1377 74.048 45.1177 74.22 45.0777 74.42H39.8817ZM46.2381 76.064C46.5741 76.064 46.8341 75.96 47.0181 75.752C47.2021 75.536 47.2941 75.264 47.2941 74.936V71H51.5541V77H50.5941V71.936H48.2541V75.092C48.2541 75.612 48.0781 76.06 47.7261 76.436C47.3741 76.812 46.9181 77 46.3581 77H45.9861V76.064H46.2381ZM56.4584 74.312H53.8904V76.064H56.4584C56.7624 76.064 57.0144 75.984 57.2144 75.824C57.4144 75.656 57.5144 75.452 57.5144 75.212C57.5144 74.956 57.4144 74.744 57.2144 74.576C57.0144 74.4 56.7624 74.312 56.4584 74.312ZM56.5784 73.4C57.1144 73.4 57.5624 73.576 57.9224 73.928C58.2904 74.28 58.4744 74.712 58.4744 75.224C58.4744 75.728 58.2904 76.152 57.9224 76.496C57.5624 76.832 57.1144 77 56.5784 77H52.9304V71H53.8904V73.4H56.5784ZM59.6218 77V71H60.5818V73.532H64.3258V71H65.2858V77H64.3258V74.444H60.5818V77H59.6218ZM73.0848 77V71H74.0448V77H73.0848ZM70.0728 74.312H67.5888V76.064H70.0728C70.3768 76.064 70.6288 75.984 70.8288 75.824C71.0288 75.656 71.1288 75.452 71.1288 75.212C71.1288 74.956 71.0288 74.744 70.8288 74.576C70.6288 74.4 70.3768 74.312 70.0728 74.312ZM70.1928 73.4C70.7288 73.4 71.1768 73.576 71.5368 73.928C71.9048 74.28 72.0888 74.712 72.0888 75.224C72.0888 75.728 71.9048 76.152 71.5368 76.496C71.1768 76.832 70.7288 77 70.1928 77H66.6288V71H67.5888V73.4H70.1928ZM78.1544 70.088C77.6024 70.088 77.1344 69.908 76.7504 69.548C76.3664 69.18 76.1744 68.74 76.1744 68.228H76.9784C76.9784 68.548 77.0904 68.812 77.3144 69.02C77.5384 69.228 77.8224 69.332 78.1664 69.332C78.5184 69.332 78.8144 69.224 79.0544 69.008C79.3024 68.792 79.4264 68.532 79.4264 68.228H80.2304C80.2304 68.724 80.0224 69.16 79.6064 69.536C79.1984 69.904 78.7144 70.088 78.1544 70.088ZM80.8304 77H79.8704V72.2L76.5704 77H75.4304V71H76.3904V75.68L79.6784 71H80.8304V77ZM85.4499 71H86.4099V79.4H85.4499V71ZM87.0699 72.356C86.6299 72.788 86.4099 73.34 86.4099 74.012C86.4099 74.676 86.6299 75.224 87.0699 75.656C87.5179 76.088 88.0619 76.304 88.7019 76.304C89.3419 76.304 89.8819 76.088 90.3219 75.656C90.7699 75.224 90.9939 74.676 90.9939 74.012C90.9939 73.34 90.7699 72.788 90.3219 72.356C89.8819 71.924 89.3419 71.708 88.7019 71.708C88.0619 71.708 87.5179 71.924 87.0699 72.356ZM86.8059 76.328C86.2379 75.712 85.9539 74.94 85.9539 74.012C85.9539 73.076 86.2379 72.304 86.8059 71.696C87.3739 71.088 88.0739 70.784 88.9059 70.784C89.7619 70.784 90.4819 71.088 91.0659 71.696C91.6579 72.304 91.9539 73.076 91.9539 74.012C91.9539 74.94 91.6579 75.712 91.0659 76.328C90.4819 76.936 89.7619 77.24 88.9059 77.24C88.0739 77.24 87.3739 76.936 86.8059 76.328ZM93.1023 69.836C92.9743 69.708 92.9103 69.552 92.9103 69.368C92.9103 69.184 92.9743 69.032 93.1023 68.912C93.2303 68.784 93.3823 68.72 93.5583 68.72C93.7423 68.72 93.8943 68.784 94.0143 68.912C94.1423 69.032 94.2063 69.184 94.2063 69.368C94.2063 69.552 94.1423 69.708 94.0143 69.836C93.8943 69.956 93.7423 70.016 93.5583 70.016C93.3823 70.016 93.2303 69.956 93.1023 69.836ZM93.0783 77V71H94.0383V77H93.0783ZM95.4226 77V71H96.3826V77H95.4226ZM99.5986 77V73.448C99.5986 72.936 99.4546 72.532 99.1666 72.236C98.8866 71.94 98.5186 71.792 98.0626 71.792C97.5986 71.792 97.2026 71.956 96.8746 72.284C96.5466 72.604 96.3826 72.992 96.3826 73.448H95.8546C95.8546 72.744 96.0946 72.14 96.5746 71.636C97.0546 71.124 97.6386 70.868 98.3266 70.868C98.9586 70.868 99.4866 71.088 99.9106 71.528C100.343 71.968 100.559 72.54 100.559 73.244V77H99.5986ZM101.938 77V68H102.898V73.52H103.21L105.658 71H106.906L104.05 74L106.906 77H105.658L103.21 74.516H102.898V77H101.938Z" fill="#001806"/>
<rect width="264" height="51" rx="25.5" fill="#F6CFE2"/>
<path d="M109.344 24.82V26.206H98.022V24.82H109.344ZM109.344 28.78V30.166H98.022V28.78H109.344ZM104.304 34H102.702L107.724 21.4H109.344L104.304 34ZM99.624 34H98.022L103.044 21.4H104.664L99.624 34ZM115.492 21.868C115 21.868 114.604 22.024 114.304 22.336C114.016 22.648 113.872 23.068 113.872 23.596V25H116.788V26.332H113.872V34H112.432V26.332H110.362V25H112.432V23.29C112.432 22.534 112.714 21.88 113.278 21.328C113.842 20.776 114.514 20.5 115.294 20.5H116.428V21.868H115.492ZM126.473 23.974C126.137 23.506 125.705 23.152 125.177 22.912C124.661 22.66 124.079 22.534 123.431 22.534C122.291 22.534 121.361 22.99 120.641 23.902C119.921 24.814 119.513 26.026 119.417 27.538C119.765 26.866 120.281 26.338 120.965 25.954C121.661 25.558 122.417 25.36 123.233 25.36C124.469 25.36 125.501 25.792 126.329 26.656C127.169 27.508 127.589 28.564 127.589 29.824C127.589 31.108 127.145 32.182 126.257 33.046C125.381 33.898 124.277 34.324 122.945 34.324C122.033 34.324 121.199 34.12 120.443 33.712C119.699 33.292 119.129 32.716 118.733 31.984C118.229 31.036 117.971 29.824 117.959 28.348C117.971 26.164 118.487 24.412 119.507 23.092C120.539 21.76 121.883 21.094 123.539 21.094C124.367 21.094 125.123 21.262 125.807 21.598C126.491 21.934 127.025 22.396 127.409 22.984L126.473 23.974ZM119.597 29.734C119.597 30.598 119.927 31.342 120.587 31.966C121.259 32.578 122.063 32.884 122.999 32.884C123.911 32.884 124.661 32.596 125.249 32.02C125.849 31.432 126.149 30.7 126.149 29.824C126.149 28.948 125.843 28.228 125.231 27.664C124.631 27.088 123.857 26.8 122.909 26.8C121.961 26.8 121.169 27.082 120.533 27.646C119.897 28.198 119.585 28.894 119.597 29.734ZM131.375 27.016C130.727 27.652 130.403 28.474 130.403 29.482C130.403 30.49 130.727 31.318 131.375 31.966C132.023 32.602 132.815 32.92 133.751 32.92C134.423 32.92 135.029 32.758 135.569 32.434C136.109 32.11 136.523 31.654 136.811 31.066L138.125 31.66C137.729 32.476 137.141 33.124 136.361 33.604C135.581 34.084 134.711 34.324 133.751 34.324C132.407 34.324 131.273 33.868 130.349 32.956C129.425 32.044 128.963 30.886 128.963 29.482C128.963 28.078 129.425 26.92 130.349 26.008C131.273 25.096 132.407 24.64 133.751 24.64C134.723 24.64 135.605 24.886 136.397 25.378C137.189 25.87 137.777 26.542 138.161 27.394L136.847 27.988C136.571 27.376 136.157 26.902 135.605 26.566C135.053 26.218 134.435 26.044 133.751 26.044C132.815 26.044 132.023 26.368 131.375 27.016ZM144.25 21.868C143.758 21.868 143.362 22.024 143.062 22.336C142.774 22.648 142.63 23.068 142.63 23.596V25H145.546V26.332H142.63V34H141.19V26.332H139.12V25H141.19V23.29C141.19 22.534 141.472 21.88 142.036 21.328C142.6 20.776 143.272 20.5 144.052 20.5H145.186V21.868H144.25ZM154.057 28.816C153.985 27.976 153.643 27.298 153.031 26.782C152.419 26.266 151.681 26.008 150.817 26.008C149.989 26.008 149.275 26.266 148.675 26.782C148.087 27.286 147.739 27.964 147.631 28.816H154.057ZM147.631 30.13C147.739 30.982 148.099 31.666 148.711 32.182C149.323 32.698 150.049 32.956 150.889 32.956C151.537 32.956 152.125 32.806 152.653 32.506C153.181 32.194 153.577 31.768 153.841 31.228L155.173 31.75C154.777 32.542 154.195 33.172 153.427 33.64C152.671 34.096 151.831 34.324 150.907 34.324C149.563 34.324 148.429 33.868 147.505 32.956C146.593 32.032 146.137 30.874 146.137 29.482C146.137 28.09 146.587 26.938 147.487 26.026C148.387 25.102 149.491 24.64 150.799 24.64C152.119 24.64 153.235 25.09 154.147 25.99C155.059 26.878 155.515 28 155.515 29.356C155.515 29.572 155.485 29.83 155.425 30.13H147.631ZM165.788 25.468C165.788 25.9 165.692 26.332 165.5 26.764C165.308 27.196 165.032 27.604 164.672 27.988C164.324 28.372 164.006 28.69 163.718 28.942C163.43 29.194 163.094 29.47 162.71 29.77L158.912 32.614H165.788V34H157.004V32.308L161.63 28.87C161.99 28.594 162.242 28.396 162.386 28.276C162.542 28.156 162.77 27.958 163.07 27.682C163.382 27.406 163.61 27.172 163.754 26.98C163.898 26.788 164.03 26.554 164.15 26.278C164.282 26.002 164.348 25.732 164.348 25.468C164.348 24.64 164.06 23.962 163.484 23.434C162.908 22.906 162.206 22.642 161.378 22.642C159.818 22.642 158.78 23.512 158.264 25.252L156.86 24.82C157.184 23.752 157.724 22.882 158.48 22.21C159.236 21.538 160.202 21.202 161.378 21.202C162.602 21.202 163.64 21.604 164.492 22.408C165.356 23.212 165.788 24.232 165.788 25.468Z" fill="#EF7C05"/>
<path d="M319.696 78V72H320.824L323.176 75.96L325.528 72H326.656V78H325.696V73.392L323.512 77.112H322.852L320.656 73.392V78H319.696ZM329.431 73.344C328.991 73.768 328.771 74.316 328.771 74.988C328.771 75.66 328.991 76.212 329.431 76.644C329.879 77.068 330.423 77.28 331.063 77.28C331.703 77.28 332.243 77.068 332.683 76.644C333.131 76.212 333.355 75.66 333.355 74.988C333.355 74.316 333.131 73.768 332.683 73.344C332.243 72.912 331.703 72.696 331.063 72.696C330.423 72.696 329.879 72.912 329.431 73.344ZM328.747 77.304C328.123 76.696 327.811 75.924 327.811 74.988C327.811 74.052 328.123 73.28 328.747 72.672C329.379 72.064 330.151 71.76 331.063 71.76C331.975 71.76 332.743 72.064 333.367 72.672C333.999 73.28 334.315 74.052 334.315 74.988C334.315 75.924 333.999 76.696 333.367 77.304C332.743 77.912 331.975 78.216 331.063 78.216C330.151 78.216 329.379 77.912 328.747 77.304ZM335.469 72H336.429V80.4H335.469V72ZM337.089 73.356C336.649 73.788 336.429 74.34 336.429 75.012C336.429 75.676 336.649 76.224 337.089 76.656C337.537 77.088 338.081 77.304 338.721 77.304C339.361 77.304 339.901 77.088 340.341 76.656C340.789 76.224 341.013 75.676 341.013 75.012C341.013 74.34 340.789 73.788 340.341 73.356C339.901 72.924 339.361 72.708 338.721 72.708C338.081 72.708 337.537 72.924 337.089 73.356ZM336.825 77.328C336.257 76.712 335.973 75.94 335.973 75.012C335.973 74.076 336.257 73.304 336.825 72.696C337.393 72.088 338.093 71.784 338.925 71.784C339.781 71.784 340.501 72.088 341.085 72.696C341.677 73.304 341.973 74.076 341.973 75.012C341.973 75.94 341.677 76.712 341.085 77.328C340.501 77.936 339.781 78.24 338.925 78.24C338.093 78.24 337.393 77.936 336.825 77.328ZM343.122 78V72H344.082V74.52H344.394L346.842 72H348.09L345.234 75L348.09 78H346.842L344.394 75.516H344.082V78H343.122ZM350.514 73.344C350.074 73.768 349.854 74.316 349.854 74.988C349.854 75.66 350.074 76.212 350.514 76.644C350.962 77.068 351.506 77.28 352.146 77.28C352.786 77.28 353.326 77.068 353.766 76.644C354.214 76.212 354.438 75.66 354.438 74.988C354.438 74.316 354.214 73.768 353.766 73.344C353.326 72.912 352.786 72.696 352.146 72.696C351.506 72.696 350.962 72.912 350.514 73.344ZM349.83 77.304C349.206 76.696 348.894 75.924 348.894 74.988C348.894 74.052 349.206 73.28 349.83 72.672C350.462 72.064 351.234 71.76 352.146 71.76C353.058 71.76 353.826 72.064 354.45 72.672C355.082 73.28 355.398 74.052 355.398 74.988C355.398 75.924 355.082 76.696 354.45 77.304C353.826 77.912 353.058 78.216 352.146 78.216C351.234 78.216 350.462 77.912 349.83 77.304ZM359.923 72.876H357.511V74.568H360.031C360.303 74.568 360.531 74.496 360.715 74.352C360.899 74.2 360.991 74.012 360.991 73.788C360.991 73.524 360.887 73.308 360.679 73.14C360.479 72.964 360.227 72.876 359.923 72.876ZM360.043 75.372H357.511V77.124H360.043C360.347 77.124 360.599 77.044 360.799 76.884C361.007 76.716 361.111 76.512 361.111 76.272C361.111 76.008 361.007 75.792 360.799 75.624C360.599 75.456 360.347 75.372 360.043 75.372ZM360.163 78H356.551V72H360.043C360.587 72 361.039 72.16 361.399 72.48C361.767 72.792 361.951 73.188 361.951 73.668C361.951 73.932 361.879 74.176 361.735 74.4C361.599 74.616 361.407 74.784 361.159 74.904C361.439 75.04 361.659 75.236 361.819 75.492C361.987 75.748 362.071 76.036 362.071 76.356C362.071 76.82 361.887 77.212 361.519 77.532C361.159 77.844 360.707 78 360.163 78ZM363.208 78V72H364.168V74.532H367.912V72H368.872V78H367.912V75.444H364.168V78H363.208ZM376.671 78V72H377.631V78H376.671ZM373.659 75.312H371.175V77.064H373.659C373.963 77.064 374.215 76.984 374.415 76.824C374.615 76.656 374.715 76.452 374.715 76.212C374.715 75.956 374.615 75.744 374.415 75.576C374.215 75.4 373.963 75.312 373.659 75.312ZM373.779 74.4C374.315 74.4 374.763 74.576 375.123 74.928C375.491 75.28 375.675 75.712 375.675 76.224C375.675 76.728 375.491 77.152 375.123 77.496C374.763 77.832 374.315 78 373.779 78H370.215V72H371.175V74.4H373.779ZM381.74 71.088C381.188 71.088 380.72 70.908 380.336 70.548C379.952 70.18 379.76 69.74 379.76 69.228H380.564C380.564 69.548 380.676 69.812 380.9 70.02C381.124 70.228 381.408 70.332 381.752 70.332C382.104 70.332 382.4 70.224 382.64 70.008C382.888 69.792 383.012 69.532 383.012 69.228H383.816C383.816 69.724 383.608 70.16 383.192 70.536C382.784 70.904 382.3 71.088 381.74 71.088ZM384.416 78H383.456V73.2L380.156 78H379.016V72H379.976V76.68L383.264 72H384.416V78ZM390.416 73.344C389.976 73.768 389.756 74.316 389.756 74.988C389.756 75.66 389.976 76.212 390.416 76.644C390.864 77.068 391.408 77.28 392.048 77.28C392.688 77.28 393.228 77.068 393.668 76.644C394.116 76.212 394.34 75.66 394.34 74.988C394.34 74.316 394.116 73.768 393.668 73.344C393.228 72.912 392.688 72.696 392.048 72.696C391.408 72.696 390.864 72.912 390.416 73.344ZM389.732 77.304C389.108 76.696 388.796 75.924 388.796 74.988C388.796 74.052 389.108 73.28 389.732 72.672C390.364 72.064 391.136 71.76 392.048 71.76C392.96 71.76 393.728 72.064 394.352 72.672C394.984 73.28 395.3 74.052 395.3 74.988C395.3 75.924 394.984 76.696 394.352 77.304C393.728 77.912 392.96 78.216 392.048 78.216C391.136 78.216 390.364 77.912 389.732 77.304ZM396.454 78V72H397.414V78H396.454ZM399.31 72.864C398.782 72.864 398.33 73.02 397.954 73.332C397.586 73.644 397.402 74.016 397.402 74.448H396.886C396.886 73.784 397.114 73.196 397.57 72.684C398.026 72.164 398.574 71.904 399.214 71.904H399.55V72.864H399.31ZM404.028 75.228L402.312 75.432C401.504 75.528 401.1 75.836 401.1 76.356C401.1 76.628 401.212 76.848 401.436 77.016C401.66 77.176 401.96 77.256 402.336 77.256C402.848 77.256 403.256 77.104 403.56 76.8C403.872 76.496 404.028 76.096 404.028 75.6H404.448C404.448 76.328 404.224 76.932 403.776 77.412C403.328 77.892 402.768 78.132 402.096 78.132C401.528 78.132 401.056 77.972 400.68 77.652C400.312 77.324 400.128 76.904 400.128 76.392C400.136 75.896 400.312 75.492 400.656 75.18C401.008 74.86 401.492 74.664 402.108 74.592L404.028 74.376V74.136C404.028 73.768 403.884 73.448 403.596 73.176C403.308 72.904 402.956 72.768 402.54 72.768C402.164 72.768 401.832 72.868 401.544 73.068C401.256 73.268 401.068 73.528 400.98 73.848L400.092 73.56C400.244 73.056 400.54 72.648 400.98 72.336C401.42 72.024 401.92 71.868 402.48 71.868C403.16 71.868 403.748 72.084 404.244 72.516C404.74 72.94 404.988 73.448 404.988 74.04V78H404.028V75.228ZM406.368 78V72H407.328V78H406.368ZM410.544 78V74.448C410.544 73.936 410.4 73.532 410.112 73.236C409.832 72.94 409.464 72.792 409.008 72.792C408.544 72.792 408.148 72.956 407.82 73.284C407.492 73.604 407.328 73.992 407.328 74.448H406.8C406.8 73.744 407.04 73.14 407.52 72.636C408 72.124 408.584 71.868 409.272 71.868C409.904 71.868 410.432 72.088 410.856 72.528C411.288 72.968 411.504 73.54 411.504 74.244V78H410.544ZM417.408 72.636C417.936 73.196 418.2 73.904 418.2 74.76C418.2 75.616 417.936 76.328 417.408 76.896C416.888 77.456 416.244 77.736 415.476 77.736C414.684 77.736 414.012 77.456 413.46 76.896C412.916 76.328 412.644 75.62 412.644 74.772C412.644 73.916 412.916 73.204 413.46 72.636C414.012 72.068 414.684 71.784 415.476 71.784C416.244 71.784 416.888 72.068 417.408 72.636ZM417.108 76.236C417.508 75.852 417.708 75.364 417.708 74.772C417.708 74.18 417.508 73.696 417.108 73.32C416.716 72.936 416.232 72.744 415.656 72.744C415.08 72.744 414.592 72.936 414.192 73.32C413.8 73.696 413.604 74.18 413.604 74.772C413.604 75.364 413.8 75.852 414.192 76.236C414.592 76.612 415.08 76.8 415.656 76.8C416.232 76.8 416.716 76.612 417.108 76.236ZM417.708 78.12V72H418.668V78.12C418.668 78.896 418.384 79.528 417.816 80.016C417.256 80.504 416.552 80.748 415.704 80.748C415.056 80.748 414.468 80.58 413.94 80.244C413.42 79.908 413.032 79.448 412.776 78.864L413.616 78.396C413.8 78.82 414.076 79.156 414.444 79.404C414.812 79.652 415.224 79.776 415.68 79.776C416.256 79.776 416.736 79.62 417.12 79.308C417.512 78.996 417.708 78.6 417.708 78.12ZM425.095 74.544C425.047 73.984 424.819 73.532 424.411 73.188C424.003 72.844 423.511 72.672 422.935 72.672C422.383 72.672 421.907 72.844 421.507 73.188C421.115 73.524 420.883 73.976 420.811 74.544H425.095ZM420.811 75.42C420.883 75.988 421.123 76.444 421.531 76.788C421.939 77.132 422.423 77.304 422.983 77.304C423.415 77.304 423.807 77.204 424.159 77.004C424.511 76.796 424.775 76.512 424.951 76.152L425.839 76.5C425.575 77.028 425.187 77.448 424.675 77.76C424.171 78.064 423.611 78.216 422.995 78.216C422.099 78.216 421.343 77.912 420.727 77.304C420.119 76.688 419.815 75.916 419.815 74.988C419.815 74.06 420.115 73.292 420.715 72.684C421.315 72.068 422.051 71.76 422.923 71.76C423.803 71.76 424.547 72.06 425.155 72.66C425.763 73.252 426.067 74 426.067 74.904C426.067 75.048 426.047 75.22 426.007 75.42H420.811Z" fill="#001806"/>
<rect x="318" width="263" height="52" rx="26" fill="#EF7C05"/>
<path d="M424.844 25.32V26.706H413.522V25.32H424.844ZM424.844 29.28V30.666H413.522V29.28H424.844ZM419.804 34.5H418.202L423.224 21.9H424.844L419.804 34.5ZM415.124 34.5H413.522L418.544 21.9H420.164L415.124 34.5ZM433.944 29.316C433.872 28.476 433.53 27.798 432.918 27.282C432.306 26.766 431.568 26.508 430.704 26.508C429.876 26.508 429.162 26.766 428.562 27.282C427.974 27.786 427.626 28.464 427.518 29.316H433.944ZM427.518 30.63C427.626 31.482 427.986 32.166 428.598 32.682C429.21 33.198 429.936 33.456 430.776 33.456C431.424 33.456 432.012 33.306 432.54 33.006C433.068 32.694 433.464 32.268 433.728 31.728L435.06 32.25C434.664 33.042 434.082 33.672 433.314 34.14C432.558 34.596 431.718 34.824 430.794 34.824C429.45 34.824 428.316 34.368 427.392 33.456C426.48 32.532 426.024 31.374 426.024 29.982C426.024 28.59 426.474 27.438 427.374 26.526C428.274 25.602 429.378 25.14 430.686 25.14C432.006 25.14 433.122 25.59 434.034 26.49C434.946 27.378 435.402 28.5 435.402 29.856C435.402 30.072 435.372 30.33 435.312 30.63H427.518ZM441.363 22.368C440.871 22.368 440.475 22.524 440.175 22.836C439.887 23.148 439.743 23.568 439.743 24.096V25.5H442.659V26.832H439.743V34.5H438.303V26.832H436.233V25.5H438.303V23.79C438.303 23.034 438.585 22.38 439.149 21.828C439.713 21.276 440.385 21 441.165 21H442.299V22.368H441.363ZM447.556 34.5H445.954L450.58 23.286H443.686V21.9H452.02V23.466L447.556 34.5ZM455.612 27.516C454.964 28.152 454.64 28.974 454.64 29.982C454.64 30.99 454.964 31.818 455.612 32.466C456.26 33.102 457.052 33.42 457.988 33.42C458.66 33.42 459.266 33.258 459.806 32.934C460.346 32.61 460.76 32.154 461.048 31.566L462.362 32.16C461.966 32.976 461.378 33.624 460.598 34.104C459.818 34.584 458.948 34.824 457.988 34.824C456.644 34.824 455.51 34.368 454.586 33.456C453.662 32.544 453.2 31.386 453.2 29.982C453.2 28.578 453.662 27.42 454.586 26.508C455.51 25.596 456.644 25.14 457.988 25.14C458.96 25.14 459.842 25.386 460.634 25.878C461.426 26.37 462.014 27.042 462.398 27.894L461.084 28.488C460.808 27.876 460.394 27.402 459.842 27.066C459.29 26.718 458.672 26.544 457.988 26.544C457.052 26.544 456.26 26.868 455.612 27.516ZM465.187 28.686C465.187 30.054 465.547 31.182 466.267 32.07C466.987 32.946 467.863 33.384 468.895 33.384C469.927 33.384 470.803 32.946 471.523 32.07C472.243 31.182 472.603 30.054 472.603 28.686V27.732C472.603 26.364 472.243 25.242 471.523 24.366C470.803 23.478 469.927 23.034 468.895 23.034C467.863 23.034 466.987 23.478 466.267 24.366C465.547 25.242 465.187 26.364 465.187 27.732V28.686ZM463.747 28.686V27.732C463.747 25.956 464.245 24.492 465.241 23.34C466.237 22.176 467.455 21.594 468.895 21.594C470.335 21.594 471.553 22.176 472.549 23.34C473.545 24.492 474.043 25.956 474.043 27.732V28.686C474.043 30.462 473.545 31.932 472.549 33.096C471.553 34.248 470.335 34.824 468.895 34.824C467.455 34.824 466.231 34.248 465.223 33.096C464.227 31.932 463.735 30.462 463.747 28.686ZM477.038 27.12C477.494 26.688 478.01 26.346 478.586 26.094C479.174 25.842 479.756 25.716 480.332 25.716C481.448 25.716 482.396 26.16 483.176 27.048C483.956 27.924 484.346 28.992 484.346 30.252C484.346 31.548 483.92 32.616 483.068 33.456C482.228 34.284 481.154 34.698 479.846 34.698C478.766 34.698 477.83 34.404 477.038 33.816C476.246 33.228 475.706 32.424 475.418 31.404L476.822 30.954C476.99 31.674 477.338 32.238 477.866 32.646C478.394 33.054 479.042 33.258 479.81 33.258C480.722 33.258 481.466 32.976 482.042 32.412C482.618 31.836 482.906 31.092 482.906 30.18C482.906 29.28 482.636 28.542 482.096 27.966C481.568 27.378 480.896 27.084 480.08 27.084C479.54 27.084 479 27.216 478.46 27.48C477.932 27.744 477.458 28.116 477.038 28.596L475.598 28.146V21.9H483.986V23.286H477.038V27.12Z" fill="#F4F4F4"/>
<path d="M2.076 192.344C1.636 192.768 1.416 193.316 1.416 193.988C1.416 194.66 1.636 195.212 2.076 195.644C2.524 196.068 3.068 196.28 3.708 196.28C4.348 196.28 4.888 196.068 5.328 195.644C5.776 195.212 6 194.66 6 193.988C6 193.316 5.776 192.768 5.328 192.344C4.888 191.912 4.348 191.696 3.708 191.696C3.068 191.696 2.524 191.912 2.076 192.344ZM1.392 196.304C0.768 195.696 0.456 194.924 0.456 193.988C0.456 193.052 0.768 192.28 1.392 191.672C2.024 191.064 2.796 190.76 3.708 190.76C4.62 190.76 5.388 191.064 6.012 191.672C6.644 192.28 6.96 193.052 6.96 193.988C6.96 194.924 6.644 195.696 6.012 196.304C5.388 196.912 4.62 197.216 3.708 197.216C2.796 197.216 2.024 196.912 1.392 196.304ZM8.11397 191H9.07397V199.4H8.11397V191ZM9.73397 192.356C9.29397 192.788 9.07397 193.34 9.07397 194.012C9.07397 194.676 9.29397 195.224 9.73397 195.656C10.182 196.088 10.726 196.304 11.366 196.304C12.006 196.304 12.546 196.088 12.986 195.656C13.434 195.224 13.658 194.676 13.658 194.012C13.658 193.34 13.434 192.788 12.986 192.356C12.546 191.924 12.006 191.708 11.366 191.708C10.726 191.708 10.182 191.924 9.73397 192.356ZM9.46997 196.328C8.90197 195.712 8.61797 194.94 8.61797 194.012C8.61797 193.076 8.90197 192.304 9.46997 191.696C10.038 191.088 10.738 190.784 11.57 190.784C12.426 190.784 13.146 191.088 13.73 191.696C14.322 192.304 14.618 193.076 14.618 194.012C14.618 194.94 14.322 195.712 13.73 196.328C13.146 196.936 12.426 197.24 11.57 197.24C10.738 197.24 10.038 196.936 9.46997 196.328ZM19.4143 194.228L17.6983 194.432C16.8903 194.536 16.4863 194.844 16.4863 195.356C16.4863 195.628 16.5983 195.848 16.8223 196.016C17.0463 196.176 17.3463 196.256 17.7223 196.256C18.2343 196.256 18.6423 196.104 18.9463 195.8C19.2583 195.496 19.4143 195.096 19.4143 194.6H19.8343C19.8343 195.328 19.6103 195.932 19.1623 196.412C18.7143 196.892 18.1543 197.132 17.4823 197.132C16.9143 197.132 16.4423 196.972 16.0663 196.652C15.6983 196.324 15.5143 195.904 15.5143 195.392C15.5223 194.904 15.6983 194.5 16.0423 194.18C16.3943 193.86 16.8783 193.664 17.4943 193.592L19.4143 193.376V193.136C19.4143 192.768 19.2703 192.448 18.9823 192.176C18.7023 191.904 18.3583 191.768 17.9503 191.768C17.5823 191.768 17.2543 191.868 16.9663 192.068C16.6863 192.268 16.5103 192.528 16.4383 192.848L15.5263 192.56C15.6863 192.056 15.9823 191.648 16.4143 191.336C16.8543 191.024 17.3503 190.868 17.9023 190.868C18.5743 190.868 19.1543 191.084 19.6423 191.516C20.1303 191.94 20.3743 192.448 20.3743 193.04V197H19.4143V194.228ZM21.7546 197V191H22.7146V193.532H26.4586V191H27.4186V197H26.4586V194.444H22.7146V197H21.7546ZM32.2296 191H33.1896V193.532H33.7416L35.8056 191H36.9336L34.4856 194L36.9336 197H35.8056L33.7416 194.504H33.1896V197H32.2296V194.468H31.7016L29.6136 197H28.4856L30.9576 194L28.4856 191H29.6136L31.7016 193.496H32.2296V191ZM43.0602 193.544C43.0122 192.984 42.7842 192.532 42.3762 192.188C41.9682 191.844 41.4762 191.672 40.9002 191.672C40.3482 191.672 39.8722 191.844 39.4722 192.188C39.0802 192.524 38.8482 192.976 38.7762 193.544H43.0602ZM38.7762 194.42C38.8482 194.988 39.0882 195.444 39.4962 195.788C39.9042 196.132 40.3882 196.304 40.9482 196.304C41.3802 196.304 41.7722 196.204 42.1242 196.004C42.4762 195.796 42.7402 195.512 42.9162 195.152L43.8042 195.5C43.5402 196.028 43.1522 196.448 42.6402 196.76C42.1362 197.064 41.5762 197.216 40.9602 197.216C40.0642 197.216 39.3082 196.912 38.6922 196.304C38.0842 195.688 37.7802 194.916 37.7802 193.988C37.7802 193.06 38.0802 192.292 38.6802 191.684C39.2802 191.068 40.0162 190.76 40.8882 190.76C41.7682 190.76 42.5122 191.06 43.1202 191.66C43.7282 192.252 44.0322 193 44.0322 193.904C44.0322 194.048 44.0122 194.22 43.9722 194.42H38.7762ZM48.5407 191.876H46.1287V193.568H48.6487C48.9207 193.568 49.1487 193.496 49.3327 193.352C49.5167 193.2 49.6087 193.012 49.6087 192.788C49.6087 192.524 49.5047 192.308 49.2967 192.14C49.0967 191.964 48.8447 191.876 48.5407 191.876ZM48.6607 194.372H46.1287V196.124H48.6607C48.9647 196.124 49.2167 196.044 49.4167 195.884C49.6247 195.716 49.7287 195.512 49.7287 195.272C49.7287 195.008 49.6247 194.792 49.4167 194.624C49.2167 194.456 48.9647 194.372 48.6607 194.372ZM48.7807 197H45.1687V191H48.6607C49.2047 191 49.6567 191.16 50.0167 191.48C50.3847 191.792 50.5687 192.188 50.5687 192.668C50.5687 192.932 50.4967 193.176 50.3527 193.4C50.2167 193.616 50.0247 193.784 49.7767 193.904C50.0567 194.04 50.2767 194.236 50.4367 194.492C50.6047 194.748 50.6887 195.036 50.6887 195.356C50.6887 195.82 50.5047 196.212 50.1367 196.532C49.7767 196.844 49.3247 197 48.7807 197ZM55.4729 194.228L53.7569 194.432C52.9489 194.536 52.5449 194.844 52.5449 195.356C52.5449 195.628 52.6569 195.848 52.8809 196.016C53.1049 196.176 53.4049 196.256 53.7809 196.256C54.2929 196.256 54.7009 196.104 55.0049 195.8C55.3169 195.496 55.4729 195.096 55.4729 194.6H55.8929C55.8929 195.328 55.6689 195.932 55.2209 196.412C54.7729 196.892 54.2129 197.132 53.5409 197.132C52.9729 197.132 52.5009 196.972 52.1249 196.652C51.7569 196.324 51.5729 195.904 51.5729 195.392C51.5809 194.904 51.7569 194.5 52.1009 194.18C52.4529 193.86 52.9369 193.664 53.5529 193.592L55.4729 193.376V193.136C55.4729 192.768 55.3289 192.448 55.0409 192.176C54.7609 191.904 54.4169 191.768 54.0089 191.768C53.6409 191.768 53.3129 191.868 53.0249 192.068C52.7449 192.268 52.5689 192.528 52.4969 192.848L51.5849 192.56C51.7449 192.056 52.0409 191.648 52.4729 191.336C52.9129 191.024 53.4089 190.868 53.9609 190.868C54.6329 190.868 55.2129 191.084 55.7009 191.516C56.1889 191.94 56.4329 192.448 56.4329 193.04V197H55.4729V194.228ZM59.7572 193.928H61.9892V191.936H59.7572C59.4212 191.936 59.1372 192.032 58.9052 192.224C58.6812 192.408 58.5692 192.636 58.5692 192.908C58.5692 193.204 58.6812 193.448 58.9052 193.64C59.1372 193.832 59.4212 193.928 59.7572 193.928ZM60.4532 194.804L58.7492 197H57.5732L59.3492 194.744C58.8372 194.712 58.4132 194.52 58.0772 194.168C57.7412 193.816 57.5732 193.392 57.5732 192.896C57.5732 192.36 57.7692 191.912 58.1612 191.552C58.5532 191.184 59.0412 191 59.6252 191H62.9492V197H61.9892V194.804H60.4532ZM68.9432 192.344C68.5032 192.768 68.2832 193.316 68.2832 193.988C68.2832 194.66 68.5032 195.212 68.9432 195.644C69.3912 196.068 69.9352 196.28 70.5752 196.28C71.2152 196.28 71.7552 196.068 72.1952 195.644C72.6432 195.212 72.8672 194.66 72.8672 193.988C72.8672 193.316 72.6432 192.768 72.1952 192.344C71.7552 191.912 71.2152 191.696 70.5752 191.696C69.9352 191.696 69.3912 191.912 68.9432 192.344ZM68.2592 196.304C67.6352 195.696 67.3232 194.924 67.3232 193.988C67.3232 193.052 67.6352 192.28 68.2592 191.672C68.8912 191.064 69.6632 190.76 70.5752 190.76C71.4872 190.76 72.2552 191.064 72.8792 191.672C73.5112 192.28 73.8272 193.052 73.8272 193.988C73.8272 194.924 73.5112 195.696 72.8792 196.304C72.2552 196.912 71.4872 197.216 70.5752 197.216C69.6632 197.216 68.8912 196.912 68.2592 196.304ZM80.8372 188.552C80.5972 188.784 80.2812 188.96 79.8892 189.08C79.5052 189.2 79.0132 189.304 78.4132 189.392C77.6212 189.504 76.9892 189.844 76.5172 190.412C76.0532 190.98 75.7892 191.752 75.7252 192.728C75.9652 192.28 76.3172 191.924 76.7812 191.66C77.2532 191.396 77.7612 191.264 78.3052 191.264C79.1132 191.264 79.7892 191.548 80.3332 192.116C80.8772 192.676 81.1492 193.372 81.1492 194.204C81.1492 195.068 80.8572 195.788 80.2732 196.364C79.6892 196.932 78.9492 197.216 78.0532 197.216C77.4532 197.216 76.9012 197.08 76.3972 196.808C75.9012 196.528 75.5252 196.14 75.2692 195.644C74.9332 195.012 74.7652 194.204 74.7652 193.22C74.7652 191.828 75.0652 190.748 75.6652 189.98C76.2732 189.204 77.1412 188.724 78.2692 188.54C78.6372 188.476 78.9172 188.424 79.1092 188.384C79.3092 188.344 79.5252 188.28 79.7572 188.192C79.9892 188.104 80.1732 187.996 80.3092 187.868L80.8372 188.552ZM75.8452 194.144C75.8452 194.728 76.0652 195.228 76.5052 195.644C76.9452 196.052 77.4772 196.256 78.1012 196.256C78.7012 196.256 79.1972 196.064 79.5892 195.68C79.9892 195.288 80.1892 194.8 80.1892 194.216C80.1892 193.632 79.9852 193.152 79.5772 192.776C79.1772 192.392 78.6612 192.2 78.0292 192.2C77.4052 192.2 76.8852 192.388 76.4692 192.764C76.0532 193.132 75.8452 193.592 75.8452 194.144ZM85.6774 191.876H83.2654V193.568H85.7854C86.0574 193.568 86.2854 193.496 86.4694 193.352C86.6534 193.2 86.7454 193.012 86.7454 192.788C86.7454 192.524 86.6414 192.308 86.4334 192.14C86.2334 191.964 85.9814 191.876 85.6774 191.876ZM85.7974 194.372H83.2654V196.124H85.7974C86.1014 196.124 86.3534 196.044 86.5534 195.884C86.7614 195.716 86.8654 195.512 86.8654 195.272C86.8654 195.008 86.7614 194.792 86.5534 194.624C86.3534 194.456 86.1014 194.372 85.7974 194.372ZM85.9174 197H82.3054V191H85.7974C86.3414 191 86.7934 191.16 87.1534 191.48C87.5214 191.792 87.7054 192.188 87.7054 192.668C87.7054 192.932 87.6334 193.176 87.4894 193.4C87.3534 193.616 87.1614 193.784 86.9134 193.904C87.1934 194.04 87.4134 194.236 87.5734 194.492C87.7414 194.748 87.8254 195.036 87.8254 195.356C87.8254 195.82 87.6414 196.212 87.2734 196.532C86.9134 196.844 86.4614 197 85.9174 197ZM90.3416 192.344C89.9016 192.768 89.6816 193.316 89.6816 193.988C89.6816 194.66 89.9016 195.212 90.3416 195.644C90.7896 196.068 91.3336 196.28 91.9736 196.28C92.6136 196.28 93.1536 196.068 93.5936 195.644C94.0416 195.212 94.2656 194.66 94.2656 193.988C94.2656 193.316 94.0416 192.768 93.5936 192.344C93.1536 191.912 92.6136 191.696 91.9736 191.696C91.3336 191.696 90.7896 191.912 90.3416 192.344ZM89.6576 196.304C89.0336 195.696 88.7216 194.924 88.7216 193.988C88.7216 193.052 89.0336 192.28 89.6576 191.672C90.2896 191.064 91.0616 190.76 91.9736 190.76C92.8856 190.76 93.6536 191.064 94.2776 191.672C94.9096 192.28 95.2256 193.052 95.2256 193.988C95.2256 194.924 94.9096 195.696 94.2776 196.304C93.6536 196.912 92.8856 197.216 91.9736 197.216C91.0616 197.216 90.2896 196.912 89.6576 196.304ZM96.0316 196.088H102.596V198.392H101.636V197H96.9916V198.392H96.0316V196.088ZM96.3196 196.088C96.6956 196.096 96.9836 195.98 97.1836 195.74C97.3916 195.492 97.4956 195.184 97.4956 194.816V191H101.756V197H100.796V191.936H98.4556V194.984C98.4556 195.48 98.2676 195.912 97.8916 196.28C97.5156 196.64 97.0316 196.82 96.4396 196.82H96.0916V196.088H96.3196ZM103.622 197V191H104.582V193.52H104.894L107.342 191H108.59L105.734 194L108.59 197H107.342L104.894 194.516H104.582V197H103.622ZM113.282 194.228L111.566 194.432C110.758 194.536 110.354 194.844 110.354 195.356C110.354 195.628 110.466 195.848 110.69 196.016C110.914 196.176 111.214 196.256 111.59 196.256C112.102 196.256 112.51 196.104 112.814 195.8C113.126 195.496 113.282 195.096 113.282 194.6H113.702C113.702 195.328 113.478 195.932 113.03 196.412C112.582 196.892 112.022 197.132 111.35 197.132C110.782 197.132 110.31 196.972 109.934 196.652C109.566 196.324 109.382 195.904 109.382 195.392C109.39 194.904 109.566 194.5 109.91 194.18C110.262 193.86 110.746 193.664 111.362 193.592L113.282 193.376V193.136C113.282 192.768 113.138 192.448 112.85 192.176C112.57 191.904 112.226 191.768 111.818 191.768C111.45 191.768 111.122 191.868 110.834 192.068C110.554 192.268 110.378 192.528 110.306 192.848L109.394 192.56C109.554 192.056 109.85 191.648 110.282 191.336C110.722 191.024 111.218 190.868 111.77 190.868C112.442 190.868 113.022 191.084 113.51 191.516C113.998 191.94 114.242 192.448 114.242 193.04V197H113.282V194.228Z" fill="#001806"/>
<rect x="1" y="123" width="262" height="50" rx="25" fill="#F4F4F4"/>
<rect x="1" y="123" width="262" height="50" rx="25" stroke="#EF7C05" stroke-width="2"/>
<path d="M107.344 147.32V148.706H96.022V147.32H107.344ZM107.344 151.28V152.666H96.022V151.28H107.344ZM102.304 156.5H100.702L105.724 143.9H107.344L102.304 156.5ZM97.624 156.5H96.022L101.044 143.9H102.664L97.624 156.5ZM116.444 151.316C116.372 150.476 116.03 149.798 115.418 149.282C114.806 148.766 114.068 148.508 113.204 148.508C112.376 148.508 111.662 148.766 111.062 149.282C110.474 149.786 110.126 150.464 110.018 151.316H116.444ZM110.018 152.63C110.126 153.482 110.486 154.166 111.098 154.682C111.71 155.198 112.436 155.456 113.276 155.456C113.924 155.456 114.512 155.306 115.04 155.006C115.568 154.694 115.964 154.268 116.228 153.728L117.56 154.25C117.164 155.042 116.582 155.672 115.814 156.14C115.058 156.596 114.218 156.824 113.294 156.824C111.95 156.824 110.816 156.368 109.892 155.456C108.98 154.532 108.524 153.374 108.524 151.982C108.524 150.59 108.974 149.438 109.874 148.526C110.774 147.602 111.878 147.14 113.186 147.14C114.506 147.14 115.622 147.59 116.534 148.49C117.446 149.378 117.902 150.5 117.902 151.856C117.902 152.072 117.872 152.33 117.812 152.63H110.018ZM123.863 144.368C123.371 144.368 122.975 144.524 122.675 144.836C122.387 145.148 122.243 145.568 122.243 146.096V147.5H125.159V148.832H122.243V156.5H120.803V148.832H118.733V147.5H120.803V145.79C120.803 145.034 121.085 144.38 121.649 143.828C122.213 143.276 122.885 143 123.665 143H124.799V144.368H123.863ZM130.056 156.5H128.454L133.08 145.286H126.186V143.9H134.52V145.466L130.056 156.5ZM138.112 149.516C137.464 150.152 137.14 150.974 137.14 151.982C137.14 152.99 137.464 153.818 138.112 154.466C138.76 155.102 139.552 155.42 140.488 155.42C141.16 155.42 141.766 155.258 142.306 154.934C142.846 154.61 143.26 154.154 143.548 153.566L144.862 154.16C144.466 154.976 143.878 155.624 143.098 156.104C142.318 156.584 141.448 156.824 140.488 156.824C139.144 156.824 138.01 156.368 137.086 155.456C136.162 154.544 135.7 153.386 135.7 151.982C135.7 150.578 136.162 149.42 137.086 148.508C138.01 147.596 139.144 147.14 140.488 147.14C141.46 147.14 142.342 147.386 143.134 147.878C143.926 148.37 144.514 149.042 144.898 149.894L143.584 150.488C143.308 149.876 142.894 149.402 142.342 149.066C141.79 148.718 141.172 148.544 140.488 148.544C139.552 148.544 138.76 148.868 138.112 149.516ZM147.687 150.686C147.687 152.054 148.047 153.182 148.767 154.07C149.487 154.946 150.363 155.384 151.395 155.384C152.427 155.384 153.303 154.946 154.023 154.07C154.743 153.182 155.103 152.054 155.103 150.686V149.732C155.103 148.364 154.743 147.242 154.023 146.366C153.303 145.478 152.427 145.034 151.395 145.034C150.363 145.034 149.487 145.478 148.767 146.366C148.047 147.242 147.687 148.364 147.687 149.732V150.686ZM146.247 150.686V149.732C146.247 147.956 146.745 146.492 147.741 145.34C148.737 144.176 149.955 143.594 151.395 143.594C152.835 143.594 154.053 144.176 155.049 145.34C156.045 146.492 156.543 147.956 156.543 149.732V150.686C156.543 152.462 156.045 153.932 155.049 155.096C154.053 156.248 152.835 156.824 151.395 156.824C149.955 156.824 148.731 156.248 147.723 155.096C146.727 153.932 146.235 152.462 146.247 150.686ZM159.538 149.12C159.994 148.688 160.51 148.346 161.086 148.094C161.674 147.842 162.256 147.716 162.832 147.716C163.948 147.716 164.896 148.16 165.676 149.048C166.456 149.924 166.846 150.992 166.846 152.252C166.846 153.548 166.42 154.616 165.568 155.456C164.728 156.284 163.654 156.698 162.346 156.698C161.266 156.698 160.33 156.404 159.538 155.816C158.746 155.228 158.206 154.424 157.918 153.404L159.322 152.954C159.49 153.674 159.838 154.238 160.366 154.646C160.894 155.054 161.542 155.258 162.31 155.258C163.222 155.258 163.966 154.976 164.542 154.412C165.118 153.836 165.406 153.092 165.406 152.18C165.406 151.28 165.136 150.542 164.596 149.966C164.068 149.378 163.396 149.084 162.58 149.084C162.04 149.084 161.5 149.216 160.96 149.48C160.432 149.744 159.958 150.116 159.538 150.596L158.098 150.146V143.9H166.486V145.286H159.538V149.12Z" fill="#EF7C05"/>
<path d="M320.672 192.188C320.88 191.756 321.184 191.416 321.584 191.168C321.992 190.912 322.444 190.784 322.94 190.784C323.564 190.784 324.084 190.964 324.5 191.324C324.924 191.676 325.136 192.12 325.136 192.656C325.136 192.936 325.064 193.196 324.92 193.436C324.784 193.668 324.592 193.852 324.344 193.988C324.624 194.132 324.844 194.34 325.004 194.612C325.172 194.876 325.256 195.168 325.256 195.488C325.256 195.984 325.036 196.396 324.596 196.724C324.156 197.052 323.608 197.216 322.952 197.216C322.392 197.216 321.888 197.088 321.44 196.832C321 196.568 320.672 196.208 320.456 195.752L321.344 195.32C321.48 195.616 321.688 195.852 321.968 196.028C322.256 196.196 322.58 196.28 322.94 196.28C323.324 196.28 323.644 196.192 323.9 196.016C324.164 195.84 324.296 195.62 324.296 195.356C324.296 195.084 324.184 194.856 323.96 194.672C323.744 194.488 323.472 194.396 323.144 194.396H322.184V193.604H323.144C323.44 193.604 323.684 193.524 323.876 193.364C324.076 193.204 324.176 193.004 324.176 192.764C324.176 192.468 324.056 192.224 323.816 192.032C323.576 191.832 323.276 191.732 322.916 191.732C322.62 191.732 322.352 191.808 322.112 191.96C321.88 192.112 321.704 192.32 321.584 192.584L320.672 192.188ZM330.039 194.228L328.323 194.432C327.515 194.536 327.111 194.844 327.111 195.356C327.111 195.628 327.223 195.848 327.447 196.016C327.671 196.176 327.971 196.256 328.347 196.256C328.859 196.256 329.267 196.104 329.571 195.8C329.883 195.496 330.039 195.096 330.039 194.6H330.459C330.459 195.328 330.235 195.932 329.787 196.412C329.339 196.892 328.779 197.132 328.107 197.132C327.539 197.132 327.067 196.972 326.691 196.652C326.323 196.324 326.139 195.904 326.139 195.392C326.147 194.904 326.323 194.5 326.667 194.18C327.019 193.86 327.503 193.664 328.119 193.592L330.039 193.376V193.136C330.039 192.768 329.895 192.448 329.607 192.176C329.327 191.904 328.983 191.768 328.575 191.768C328.207 191.768 327.879 191.868 327.591 192.068C327.311 192.268 327.135 192.528 327.063 192.848L326.151 192.56C326.311 192.056 326.607 191.648 327.039 191.336C327.479 191.024 327.975 190.868 328.527 190.868C329.199 190.868 329.779 191.084 330.267 191.516C330.755 191.94 330.999 192.448 330.999 193.04V197H330.039V194.228ZM332.38 197V191H336.424V191.912H333.34V197H332.38ZM341.207 194.228L339.491 194.432C338.683 194.536 338.279 194.844 338.279 195.356C338.279 195.628 338.391 195.848 338.615 196.016C338.839 196.176 339.139 196.256 339.515 196.256C340.027 196.256 340.435 196.104 340.739 195.8C341.051 195.496 341.207 195.096 341.207 194.6H341.627C341.627 195.328 341.403 195.932 340.955 196.412C340.507 196.892 339.947 197.132 339.275 197.132C338.707 197.132 338.235 196.972 337.859 196.652C337.491 196.324 337.307 195.904 337.307 195.392C337.315 194.904 337.491 194.5 337.835 194.18C338.187 193.86 338.671 193.664 339.287 193.592L341.207 193.376V193.136C341.207 192.768 341.063 192.448 340.775 192.176C340.495 191.904 340.151 191.768 339.743 191.768C339.375 191.768 339.047 191.868 338.759 192.068C338.479 192.268 338.303 192.528 338.231 192.848L337.319 192.56C337.479 192.056 337.775 191.648 338.207 191.336C338.647 191.024 339.143 190.868 339.695 190.868C340.367 190.868 340.947 191.084 341.435 191.516C341.923 191.94 342.167 192.448 342.167 193.04V197H341.207V194.228ZM343.2 196.088H349.764V198.392H348.804V197H344.16V198.392H343.2V196.088ZM343.488 196.088C343.864 196.096 344.152 195.98 344.352 195.74C344.56 195.492 344.664 195.184 344.664 194.816V191H348.924V197H347.964V191.936H345.624V194.984C345.624 195.48 345.436 195.912 345.06 196.28C344.684 196.64 344.2 196.82 343.608 196.82H343.26V196.088H343.488ZM352.17 192.344C351.73 192.768 351.51 193.316 351.51 193.988C351.51 194.66 351.73 195.212 352.17 195.644C352.618 196.068 353.162 196.28 353.802 196.28C354.442 196.28 354.982 196.068 355.422 195.644C355.87 195.212 356.094 194.66 356.094 193.988C356.094 193.316 355.87 192.768 355.422 192.344C354.982 191.912 354.442 191.696 353.802 191.696C353.162 191.696 352.618 191.912 352.17 192.344ZM351.486 196.304C350.862 195.696 350.55 194.924 350.55 193.988C350.55 193.052 350.862 192.28 351.486 191.672C352.118 191.064 352.89 190.76 353.802 190.76C354.714 190.76 355.482 191.064 356.106 191.672C356.738 192.28 357.054 193.052 357.054 193.988C357.054 194.924 356.738 195.696 356.106 196.304C355.482 196.912 354.714 197.216 353.802 197.216C352.89 197.216 352.118 196.912 351.486 196.304ZM363.104 191V197H362.144V191H363.104ZM359.168 191V192.992C359.168 193.44 359.296 193.792 359.552 194.048C359.816 194.304 360.152 194.432 360.56 194.432C361 194.432 361.372 194.296 361.676 194.024C361.988 193.744 362.144 193.408 362.144 193.016H362.648C362.648 193.664 362.424 194.22 361.976 194.684C361.528 195.14 360.968 195.368 360.296 195.368C359.704 195.368 359.208 195.168 358.808 194.768C358.408 194.36 358.208 193.836 358.208 193.196V191H359.168ZM364.489 197V191H365.449V193.532H369.193V191H370.153V197H369.193V194.444H365.449V197H364.489ZM377.952 197V191H378.912V197H377.952ZM374.94 194.312H372.456V196.064H374.94C375.244 196.064 375.496 195.984 375.696 195.824C375.896 195.656 375.996 195.452 375.996 195.212C375.996 194.956 375.896 194.744 375.696 194.576C375.496 194.4 375.244 194.312 374.94 194.312ZM375.06 193.4C375.596 193.4 376.044 193.576 376.404 193.928C376.772 194.28 376.956 194.712 376.956 195.224C376.956 195.728 376.772 196.152 376.404 196.496C376.044 196.832 375.596 197 375.06 197H371.496V191H372.456V193.4H375.06ZM383.022 190.088C382.47 190.088 382.002 189.908 381.618 189.548C381.234 189.18 381.042 188.74 381.042 188.228H381.846C381.846 188.548 381.958 188.812 382.182 189.02C382.406 189.228 382.69 189.332 383.034 189.332C383.386 189.332 383.682 189.224 383.922 189.008C384.17 188.792 384.294 188.532 384.294 188.228H385.098C385.098 188.724 384.89 189.16 384.474 189.536C384.066 189.904 383.582 190.088 383.022 190.088ZM385.698 197H384.738V192.2L381.438 197H380.298V191H381.258V195.68L384.546 191H385.698V197ZM390.317 197V188H391.277V197H390.317ZM391.937 192.344C391.497 192.776 391.277 193.324 391.277 193.988C391.277 194.652 391.497 195.2 391.937 195.632C392.385 196.064 392.929 196.28 393.569 196.28C394.209 196.28 394.749 196.064 395.189 195.632C395.637 195.2 395.861 194.652 395.861 193.988C395.861 193.324 395.637 192.776 395.189 192.344C394.749 191.912 394.209 191.696 393.569 191.696C392.929 191.696 392.385 191.912 391.937 192.344ZM391.673 196.304C391.105 195.688 390.821 194.916 390.821 193.988C390.821 193.06 391.105 192.292 391.673 191.684C392.241 191.068 392.941 190.76 393.773 190.76C394.629 190.76 395.349 191.068 395.933 191.684C396.525 192.292 396.821 193.06 396.821 193.988C396.821 194.916 396.525 195.688 395.933 196.304C395.349 196.912 394.629 197.216 393.773 197.216C392.941 197.216 392.241 196.912 391.673 196.304ZM397.969 197V188H398.929V197H397.969ZM403.961 194.228L402.245 194.432C401.437 194.528 401.033 194.836 401.033 195.356C401.033 195.628 401.145 195.848 401.369 196.016C401.593 196.176 401.893 196.256 402.269 196.256C402.781 196.256 403.189 196.104 403.493 195.8C403.805 195.496 403.961 195.096 403.961 194.6H404.381C404.381 195.328 404.157 195.932 403.709 196.412C403.261 196.892 402.701 197.132 402.029 197.132C401.461 197.132 400.989 196.972 400.613 196.652C400.245 196.324 400.061 195.904 400.061 195.392C400.069 194.896 400.245 194.492 400.589 194.18C400.941 193.86 401.425 193.664 402.041 193.592L403.961 193.376V193.136C403.961 192.768 403.817 192.448 403.529 192.176C403.241 191.904 402.889 191.768 402.473 191.768C402.097 191.768 401.765 191.868 401.477 192.068C401.189 192.268 401.001 192.528 400.913 192.848L400.025 192.56C400.177 192.056 400.473 191.648 400.913 191.336C401.353 191.024 401.853 190.868 402.413 190.868C403.093 190.868 403.681 191.084 404.177 191.516C404.673 191.94 404.921 192.448 404.921 193.04V197H403.961V194.228ZM407.669 192.344C407.237 192.768 407.021 193.316 407.021 193.988C407.021 194.66 407.237 195.212 407.669 195.644C408.101 196.068 408.629 196.28 409.253 196.28C409.701 196.28 410.105 196.172 410.465 195.956C410.825 195.74 411.101 195.436 411.293 195.044L412.169 195.44C411.905 195.984 411.513 196.416 410.993 196.736C410.473 197.056 409.893 197.216 409.253 197.216C408.357 197.216 407.601 196.912 406.985 196.304C406.369 195.696 406.061 194.924 406.061 193.988C406.061 193.052 406.369 192.28 406.985 191.672C407.601 191.064 408.357 190.76 409.253 190.76C409.901 190.76 410.489 190.924 411.017 191.252C411.545 191.58 411.937 192.028 412.193 192.596L411.317 192.992C411.133 192.584 410.857 192.268 410.489 192.044C410.121 191.812 409.709 191.696 409.253 191.696C408.629 191.696 408.101 191.912 407.669 192.344ZM413.333 197V188H414.293V193.52H414.605L417.053 191H418.301L415.445 194L418.301 197H417.053L414.605 194.516H414.293V197H413.333Z" fill="#001806"/>
<rect x="318" y="122" width="263" height="52" rx="26" fill="#001806"/>
<path d="M423.344 147.32V148.706H412.022V147.32H423.344ZM423.344 151.28V152.666H412.022V151.28H423.344ZM418.304 156.5H416.702L421.724 143.9H423.344L418.304 156.5ZM413.624 156.5H412.022L417.044 143.9H418.664L413.624 156.5ZM425.964 150.686C425.964 152.054 426.324 153.182 427.044 154.07C427.764 154.946 428.64 155.384 429.672 155.384C430.704 155.384 431.58 154.946 432.3 154.07C433.02 153.182 433.38 152.054 433.38 150.686V149.732C433.38 148.364 433.02 147.242 432.3 146.366C431.58 145.478 430.704 145.034 429.672 145.034C428.64 145.034 427.764 145.478 427.044 146.366C426.324 147.242 425.964 148.364 425.964 149.732V150.686ZM424.524 150.686V149.732C424.524 147.956 425.022 146.492 426.018 145.34C427.014 144.176 428.232 143.594 429.672 143.594C431.112 143.594 432.33 144.176 433.326 145.34C434.322 146.492 434.82 147.956 434.82 149.732V150.686C434.82 152.462 434.322 153.932 433.326 155.096C432.33 156.248 431.112 156.824 429.672 156.824C428.232 156.824 427.008 156.248 426 155.096C425.004 153.932 424.512 152.462 424.524 150.686ZM437.636 150.686C437.636 152.054 437.996 153.182 438.716 154.07C439.436 154.946 440.312 155.384 441.344 155.384C442.376 155.384 443.252 154.946 443.972 154.07C444.692 153.182 445.052 152.054 445.052 150.686V149.732C445.052 148.364 444.692 147.242 443.972 146.366C443.252 145.478 442.376 145.034 441.344 145.034C440.312 145.034 439.436 145.478 438.716 146.366C437.996 147.242 437.636 148.364 437.636 149.732V150.686ZM436.196 150.686V149.732C436.196 147.956 436.694 146.492 437.69 145.34C438.686 144.176 439.904 143.594 441.344 143.594C442.784 143.594 444.002 144.176 444.998 145.34C445.994 146.492 446.492 147.956 446.492 149.732V150.686C446.492 152.462 445.994 153.932 444.998 155.096C444.002 156.248 442.784 156.824 441.344 156.824C439.904 156.824 438.68 156.248 437.672 155.096C436.676 153.932 436.184 152.462 436.196 150.686ZM452.836 143.9V156.5H451.396V145.592L448.57 147.788L447.706 146.636L451.324 143.9H452.836ZM455.987 153.098C455.987 153.758 456.299 154.304 456.923 154.736C457.547 155.168 458.321 155.384 459.245 155.384C460.169 155.384 460.943 155.168 461.567 154.736C462.191 154.304 462.503 153.758 462.503 153.098C462.503 152.402 462.185 151.826 461.549 151.37C460.925 150.914 460.157 150.686 459.245 150.686C458.333 150.686 457.559 150.914 456.923 151.37C456.299 151.826 455.987 152.402 455.987 153.098ZM454.907 147.086C454.907 146.066 455.321 145.226 456.149 144.566C456.989 143.906 458.021 143.576 459.245 143.576C460.469 143.576 461.495 143.906 462.323 144.566C463.163 145.226 463.583 146.066 463.583 147.086C463.583 147.71 463.397 148.28 463.025 148.796C462.653 149.312 462.143 149.714 461.495 150.002C462.251 150.302 462.845 150.734 463.277 151.298C463.721 151.862 463.943 152.504 463.943 153.224C463.943 154.256 463.487 155.114 462.575 155.798C461.675 156.482 460.565 156.824 459.245 156.824C457.925 156.824 456.809 156.482 455.897 155.798C454.997 155.114 454.547 154.256 454.547 153.224C454.547 152.504 454.763 151.862 455.195 151.298C455.639 150.734 456.239 150.302 456.995 150.002C456.347 149.714 455.837 149.312 455.465 148.796C455.093 148.28 454.907 147.71 454.907 147.086ZM457.175 148.76C457.739 149.156 458.429 149.354 459.245 149.354C460.061 149.354 460.745 149.156 461.297 148.76C461.861 148.352 462.143 147.83 462.143 147.194C462.143 146.57 461.861 146.054 461.297 145.646C460.745 145.226 460.061 145.016 459.245 145.016C458.429 145.016 457.739 145.226 457.175 145.646C456.623 146.054 456.347 146.57 456.347 147.194C456.347 147.83 456.623 148.352 457.175 148.76ZM466.745 150.686C466.745 152.054 467.105 153.182 467.825 154.07C468.545 154.946 469.421 155.384 470.453 155.384C471.485 155.384 472.361 154.946 473.081 154.07C473.801 153.182 474.161 152.054 474.161 150.686V149.732C474.161 148.364 473.801 147.242 473.081 146.366C472.361 145.478 471.485 145.034 470.453 145.034C469.421 145.034 468.545 145.478 467.825 146.366C467.105 147.242 466.745 148.364 466.745 149.732V150.686ZM465.305 150.686V149.732C465.305 147.956 465.803 146.492 466.799 145.34C467.795 144.176 469.013 143.594 470.453 143.594C471.893 143.594 473.111 144.176 474.107 145.34C475.103 146.492 475.601 147.956 475.601 149.732V150.686C475.601 152.462 475.103 153.932 474.107 155.096C473.111 156.248 471.893 156.824 470.453 156.824C469.013 156.824 467.789 156.248 466.781 155.096C465.785 153.932 465.293 152.462 465.305 150.686ZM485.473 146.474C485.137 146.006 484.705 145.652 484.177 145.412C483.661 145.16 483.079 145.034 482.431 145.034C481.291 145.034 480.361 145.49 479.641 146.402C478.921 147.314 478.513 148.526 478.417 150.038C478.765 149.366 479.281 148.838 479.965 148.454C480.661 148.058 481.417 147.86 482.233 147.86C483.469 147.86 484.501 148.292 485.329 149.156C486.169 150.008 486.589 151.064 486.589 152.324C486.589 153.608 486.145 154.682 485.257 155.546C484.381 156.398 483.277 156.824 481.945 156.824C481.033 156.824 480.199 156.62 479.443 156.212C478.699 155.792 478.129 155.216 477.733 154.484C477.229 153.536 476.971 152.324 476.959 150.848C476.971 148.664 477.487 146.912 478.507 145.592C479.539 144.26 480.883 143.594 482.539 143.594C483.367 143.594 484.123 143.762 484.807 144.098C485.491 144.434 486.025 144.896 486.409 145.484L485.473 146.474ZM478.597 152.234C478.597 153.098 478.927 153.842 479.587 154.466C480.259 155.078 481.063 155.384 481.999 155.384C482.911 155.384 483.661 155.096 484.249 154.52C484.849 153.932 485.149 153.2 485.149 152.324C485.149 151.448 484.843 150.728 484.231 150.164C483.631 149.588 482.857 149.3 481.909 149.3C480.961 149.3 480.169 149.582 479.533 150.146C478.897 150.698 478.585 151.394 478.597 152.234Z" fill="#F4F4F4"/>
<path d="M7.592 310V316H6.632V310H7.592ZM3.656 310V311.992C3.656 312.44 3.784 312.792 4.04 313.048C4.304 313.304 4.64 313.432 5.048 313.432C5.488 313.432 5.86 313.296 6.164 313.024C6.476 312.744 6.632 312.408 6.632 312.016H7.136C7.136 312.664 6.912 313.22 6.464 313.684C6.016 314.14 5.456 314.368 4.784 314.368C4.192 314.368 3.696 314.168 3.296 313.768C2.896 313.36 2.696 312.836 2.696 312.196V310H3.656ZM14.0173 312.544C13.9693 311.984 13.7413 311.532 13.3333 311.188C12.9253 310.844 12.4333 310.672 11.8573 310.672C11.3053 310.672 10.8293 310.844 10.4293 311.188C10.0373 311.524 9.80525 311.976 9.73325 312.544H14.0173ZM9.73325 313.42C9.80525 313.988 10.0453 314.444 10.4533 314.788C10.8613 315.132 11.3453 315.304 11.9053 315.304C12.3373 315.304 12.7293 315.204 13.0813 315.004C13.4333 314.796 13.6973 314.512 13.8733 314.152L14.7613 314.5C14.4973 315.028 14.1093 315.448 13.5973 315.76C13.0933 316.064 12.5333 316.216 11.9173 316.216C11.0213 316.216 10.2653 315.912 9.64925 315.304C9.04125 314.688 8.73725 313.916 8.73725 312.988C8.73725 312.06 9.03725 311.292 9.63725 310.684C10.2373 310.068 10.9733 309.76 11.8453 309.76C12.7253 309.76 13.4693 310.06 14.0773 310.66C14.6853 311.252 14.9893 312 14.9893 312.904C14.9893 313.048 14.9693 313.22 14.9293 313.42H9.73325ZM16.1257 310H17.0857V318.4H16.1257V310ZM17.7457 311.356C17.3057 311.788 17.0857 312.34 17.0857 313.012C17.0857 313.676 17.3057 314.224 17.7457 314.656C18.1937 315.088 18.7377 315.304 19.3777 315.304C20.0177 315.304 20.5577 315.088 20.9977 314.656C21.4457 314.224 21.6697 313.676 21.6697 313.012C21.6697 312.34 21.4457 311.788 20.9977 311.356C20.5577 310.924 20.0177 310.708 19.3777 310.708C18.7377 310.708 18.1937 310.924 17.7457 311.356ZM17.4817 315.328C16.9137 314.712 16.6297 313.94 16.6297 313.012C16.6297 312.076 16.9137 311.304 17.4817 310.696C18.0497 310.088 18.7497 309.784 19.5817 309.784C20.4377 309.784 21.1577 310.088 21.7417 310.696C22.3337 311.304 22.6297 312.076 22.6297 313.012C22.6297 313.94 22.3337 314.712 21.7417 315.328C21.1577 315.936 20.4377 316.24 19.5817 316.24C18.7497 316.24 18.0497 315.936 17.4817 315.328ZM23.778 316V310H24.738V312.532H28.482V310H29.442V316H28.482V313.444H24.738V316H23.778ZM34.469 313.228L32.753 313.432C31.945 313.536 31.541 313.844 31.541 314.356C31.541 314.628 31.653 314.848 31.877 315.016C32.101 315.176 32.401 315.256 32.777 315.256C33.289 315.256 33.697 315.104 34.001 314.8C34.313 314.496 34.469 314.096 34.469 313.6H34.889C34.889 314.328 34.665 314.932 34.217 315.412C33.769 315.892 33.209 316.132 32.537 316.132C31.969 316.132 31.497 315.972 31.121 315.652C30.753 315.324 30.569 314.904 30.569 314.392C30.577 313.904 30.753 313.5 31.097 313.18C31.449 312.86 31.933 312.664 32.549 312.592L34.469 312.376V312.136C34.469 311.768 34.325 311.448 34.037 311.176C33.757 310.904 33.413 310.768 33.005 310.768C32.637 310.768 32.309 310.868 32.021 311.068C31.741 311.268 31.565 311.528 31.493 311.848L30.581 311.56C30.741 311.056 31.037 310.648 31.469 310.336C31.909 310.024 32.405 309.868 32.957 309.868C33.629 309.868 34.209 310.084 34.697 310.516C35.185 310.94 35.429 311.448 35.429 312.04V316H34.469V313.228ZM38.7533 312.928H40.9853V310.936H38.7533C38.4173 310.936 38.1333 311.032 37.9013 311.224C37.6773 311.408 37.5653 311.636 37.5653 311.908C37.5653 312.204 37.6773 312.448 37.9013 312.64C38.1333 312.832 38.4173 312.928 38.7533 312.928ZM39.4493 313.804L37.7453 316H36.5693L38.3453 313.744C37.8333 313.712 37.4093 313.52 37.0733 313.168C36.7373 312.816 36.5693 312.392 36.5693 311.896C36.5693 311.36 36.7653 310.912 37.1573 310.552C37.5493 310.184 38.0373 310 38.6213 310H41.9453V316H40.9853V313.804H39.4493ZM47.9393 311.344C47.4993 311.768 47.2793 312.316 47.2793 312.988C47.2793 313.66 47.4993 314.212 47.9393 314.644C48.3873 315.068 48.9313 315.28 49.5713 315.28C50.2113 315.28 50.7513 315.068 51.1913 314.644C51.6393 314.212 51.8633 313.66 51.8633 312.988C51.8633 312.316 51.6393 311.768 51.1913 311.344C50.7513 310.912 50.2113 310.696 49.5713 310.696C48.9313 310.696 48.3873 310.912 47.9393 311.344ZM47.2553 315.304C46.6313 314.696 46.3193 313.924 46.3193 312.988C46.3193 312.052 46.6313 311.28 47.2553 310.672C47.8873 310.064 48.6593 309.76 49.5713 309.76C50.4833 309.76 51.2513 310.064 51.8753 310.672C52.5073 311.28 52.8233 312.052 52.8233 312.988C52.8233 313.924 52.5073 314.696 51.8753 315.304C51.2513 315.912 50.4833 316.216 49.5713 316.216C48.6593 316.216 47.8873 315.912 47.2553 315.304ZM59.8333 307.552C59.5933 307.784 59.2773 307.96 58.8853 308.08C58.5013 308.2 58.0093 308.304 57.4093 308.392C56.6173 308.504 55.9853 308.844 55.5133 309.412C55.0493 309.98 54.7853 310.752 54.7213 311.728C54.9613 311.28 55.3133 310.924 55.7773 310.66C56.2493 310.396 56.7573 310.264 57.3013 310.264C58.1093 310.264 58.7853 310.548 59.3293 311.116C59.8733 311.676 60.1453 312.372 60.1453 313.204C60.1453 314.068 59.8533 314.788 59.2693 315.364C58.6853 315.932 57.9453 316.216 57.0493 316.216C56.4493 316.216 55.8973 316.08 55.3933 315.808C54.8973 315.528 54.5213 315.14 54.2653 314.644C53.9293 314.012 53.7613 313.204 53.7613 312.22C53.7613 310.828 54.0613 309.748 54.6613 308.98C55.2693 308.204 56.1373 307.724 57.2653 307.54C57.6333 307.476 57.9133 307.424 58.1053 307.384C58.3053 307.344 58.5213 307.28 58.7533 307.192C58.9853 307.104 59.1693 306.996 59.3053 306.868L59.8333 307.552ZM54.8413 313.144C54.8413 313.728 55.0613 314.228 55.5013 314.644C55.9413 315.052 56.4733 315.256 57.0973 315.256C57.6973 315.256 58.1933 315.064 58.5853 314.68C58.9853 314.288 59.1853 313.8 59.1853 313.216C59.1853 312.632 58.9813 312.152 58.5733 311.776C58.1733 311.392 57.6573 311.2 57.0253 311.2C56.4013 311.2 55.8813 311.388 55.4653 311.764C55.0493 312.132 54.8413 312.592 54.8413 313.144ZM64.6735 310.876H62.2615V312.568H64.7815C65.0535 312.568 65.2815 312.496 65.4655 312.352C65.6495 312.2 65.7415 312.012 65.7415 311.788C65.7415 311.524 65.6375 311.308 65.4295 311.14C65.2295 310.964 64.9775 310.876 64.6735 310.876ZM64.7935 313.372H62.2615V315.124H64.7935C65.0975 315.124 65.3495 315.044 65.5495 314.884C65.7575 314.716 65.8615 314.512 65.8615 314.272C65.8615 314.008 65.7575 313.792 65.5495 313.624C65.3495 313.456 65.0975 313.372 64.7935 313.372ZM64.9135 316H61.3015V310H64.7935C65.3375 310 65.7895 310.16 66.1495 310.48C66.5175 310.792 66.7015 311.188 66.7015 311.668C66.7015 311.932 66.6295 312.176 66.4855 312.4C66.3495 312.616 66.1575 312.784 65.9095 312.904C66.1895 313.04 66.4095 313.236 66.5695 313.492C66.7375 313.748 66.8215 314.036 66.8215 314.356C66.8215 314.82 66.6375 315.212 66.2695 315.532C65.9095 315.844 65.4575 316 64.9135 316ZM69.3377 311.344C68.8977 311.768 68.6777 312.316 68.6777 312.988C68.6777 313.66 68.8977 314.212 69.3377 314.644C69.7857 315.068 70.3297 315.28 70.9697 315.28C71.6097 315.28 72.1497 315.068 72.5897 314.644C73.0377 314.212 73.2617 313.66 73.2617 312.988C73.2617 312.316 73.0377 311.768 72.5897 311.344C72.1497 310.912 71.6097 310.696 70.9697 310.696C70.3297 310.696 69.7857 310.912 69.3377 311.344ZM68.6537 315.304C68.0297 314.696 67.7177 313.924 67.7177 312.988C67.7177 312.052 68.0297 311.28 68.6537 310.672C69.2857 310.064 70.0577 309.76 70.9697 309.76C71.8817 309.76 72.6497 310.064 73.2737 310.672C73.9057 311.28 74.2217 312.052 74.2217 312.988C74.2217 313.924 73.9057 314.696 73.2737 315.304C72.6497 315.912 71.8817 316.216 70.9697 316.216C70.0577 316.216 69.2857 315.912 68.6537 315.304ZM75.0277 315.088H81.5917V317.392H80.6317V316H75.9877V317.392H75.0277V315.088ZM75.3157 315.088C75.6917 315.096 75.9797 314.98 76.1797 314.74C76.3877 314.492 76.4917 314.184 76.4917 313.816V310H80.7517V316H79.7917V310.936H77.4517V313.984C77.4517 314.48 77.2637 314.912 76.8877 315.28C76.5117 315.64 76.0277 315.82 75.4357 315.82H75.0877V315.088H75.3157ZM82.6179 316V310H83.5779V312.52H83.8899L86.3379 310H87.5859L84.7299 313L87.5859 316H86.3379L83.8899 313.516H83.5779V316H82.6179ZM92.2776 313.228L90.5616 313.432C89.7536 313.536 89.3496 313.844 89.3496 314.356C89.3496 314.628 89.4616 314.848 89.6856 315.016C89.9096 315.176 90.2096 315.256 90.5856 315.256C91.0976 315.256 91.5056 315.104 91.8096 314.8C92.1216 314.496 92.2776 314.096 92.2776 313.6H92.6976C92.6976 314.328 92.4736 314.932 92.0256 315.412C91.5776 315.892 91.0176 316.132 90.3456 316.132C89.7776 316.132 89.3056 315.972 88.9296 315.652C88.5616 315.324 88.3776 314.904 88.3776 314.392C88.3856 313.904 88.5616 313.5 88.9056 313.18C89.2576 312.86 89.7416 312.664 90.3576 312.592L92.2776 312.376V312.136C92.2776 311.768 92.1336 311.448 91.8456 311.176C91.5656 310.904 91.2216 310.768 90.8136 310.768C90.4456 310.768 90.1176 310.868 89.8296 311.068C89.5496 311.268 89.3736 311.528 89.3016 311.848L88.3896 311.56C88.5496 311.056 88.8456 310.648 89.2776 310.336C89.7176 310.024 90.2136 309.868 90.7656 309.868C91.4376 309.868 92.0176 310.084 92.5056 310.516C92.9936 310.94 93.2376 311.448 93.2376 312.04V316H92.2776V313.228Z" fill="#001806"/>
<rect x="1" y="242" width="261" height="50" rx="25" stroke="#001806" stroke-width="2"/>
<path d="M105.344 266.32V267.706H94.022V266.32H105.344ZM105.344 270.28V271.666H94.022V270.28H105.344ZM100.304 275.5H98.702L103.724 262.9H105.344L100.304 275.5ZM95.624 275.5H94.022L99.044 262.9H100.664L95.624 275.5ZM107.964 269.686C107.964 271.054 108.324 272.182 109.044 273.07C109.764 273.946 110.64 274.384 111.672 274.384C112.704 274.384 113.58 273.946 114.3 273.07C115.02 272.182 115.38 271.054 115.38 269.686V268.732C115.38 267.364 115.02 266.242 114.3 265.366C113.58 264.478 112.704 264.034 111.672 264.034C110.64 264.034 109.764 264.478 109.044 265.366C108.324 266.242 107.964 267.364 107.964 268.732V269.686ZM106.524 269.686V268.732C106.524 266.956 107.022 265.492 108.018 264.34C109.014 263.176 110.232 262.594 111.672 262.594C113.112 262.594 114.33 263.176 115.326 264.34C116.322 265.492 116.82 266.956 116.82 268.732V269.686C116.82 271.462 116.322 272.932 115.326 274.096C114.33 275.248 113.112 275.824 111.672 275.824C110.232 275.824 109.008 275.248 108 274.096C107.004 272.932 106.512 271.462 106.524 269.686ZM119.636 269.686C119.636 271.054 119.996 272.182 120.716 273.07C121.436 273.946 122.312 274.384 123.344 274.384C124.376 274.384 125.252 273.946 125.972 273.07C126.692 272.182 127.052 271.054 127.052 269.686V268.732C127.052 267.364 126.692 266.242 125.972 265.366C125.252 264.478 124.376 264.034 123.344 264.034C122.312 264.034 121.436 264.478 120.716 265.366C119.996 266.242 119.636 267.364 119.636 268.732V269.686ZM118.196 269.686V268.732C118.196 266.956 118.694 265.492 119.69 264.34C120.686 263.176 121.904 262.594 123.344 262.594C124.784 262.594 126.002 263.176 126.998 264.34C127.994 265.492 128.492 266.956 128.492 268.732V269.686C128.492 271.462 127.994 272.932 126.998 274.096C126.002 275.248 124.784 275.824 123.344 275.824C121.904 275.824 120.68 275.248 119.672 274.096C118.676 272.932 118.184 271.462 118.196 269.686ZM134.836 262.9V275.5H133.396V264.592L130.57 266.788L129.706 265.636L133.324 262.9H134.836ZM137.987 272.098C137.987 272.758 138.299 273.304 138.923 273.736C139.547 274.168 140.321 274.384 141.245 274.384C142.169 274.384 142.943 274.168 143.567 273.736C144.191 273.304 144.503 272.758 144.503 272.098C144.503 271.402 144.185 270.826 143.549 270.37C142.925 269.914 142.157 269.686 141.245 269.686C140.333 269.686 139.559 269.914 138.923 270.37C138.299 270.826 137.987 271.402 137.987 272.098ZM136.907 266.086C136.907 265.066 137.321 264.226 138.149 263.566C138.989 262.906 140.021 262.576 141.245 262.576C142.469 262.576 143.495 262.906 144.323 263.566C145.163 264.226 145.583 265.066 145.583 266.086C145.583 266.71 145.397 267.28 145.025 267.796C144.653 268.312 144.143 268.714 143.495 269.002C144.251 269.302 144.845 269.734 145.277 270.298C145.721 270.862 145.943 271.504 145.943 272.224C145.943 273.256 145.487 274.114 144.575 274.798C143.675 275.482 142.565 275.824 141.245 275.824C139.925 275.824 138.809 275.482 137.897 274.798C136.997 274.114 136.547 273.256 136.547 272.224C136.547 271.504 136.763 270.862 137.195 270.298C137.639 269.734 138.239 269.302 138.995 269.002C138.347 268.714 137.837 268.312 137.465 267.796C137.093 267.28 136.907 266.71 136.907 266.086ZM139.175 267.76C139.739 268.156 140.429 268.354 141.245 268.354C142.061 268.354 142.745 268.156 143.297 267.76C143.861 267.352 144.143 266.83 144.143 266.194C144.143 265.57 143.861 265.054 143.297 264.646C142.745 264.226 142.061 264.016 141.245 264.016C140.429 264.016 139.739 264.226 139.175 264.646C138.623 265.054 138.347 265.57 138.347 266.194C138.347 266.83 138.623 267.352 139.175 267.76ZM148.745 269.686C148.745 271.054 149.105 272.182 149.825 273.07C150.545 273.946 151.421 274.384 152.453 274.384C153.485 274.384 154.361 273.946 155.081 273.07C155.801 272.182 156.161 271.054 156.161 269.686V268.732C156.161 267.364 155.801 266.242 155.081 265.366C154.361 264.478 153.485 264.034 152.453 264.034C151.421 264.034 150.545 264.478 149.825 265.366C149.105 266.242 148.745 267.364 148.745 268.732V269.686ZM147.305 269.686V268.732C147.305 266.956 147.803 265.492 148.799 264.34C149.795 263.176 151.013 262.594 152.453 262.594C153.893 262.594 155.111 263.176 156.107 264.34C157.103 265.492 157.601 266.956 157.601 268.732V269.686C157.601 271.462 157.103 272.932 156.107 274.096C155.111 275.248 153.893 275.824 152.453 275.824C151.013 275.824 149.789 275.248 148.781 274.096C147.785 272.932 147.293 271.462 147.305 269.686ZM167.473 265.474C167.137 265.006 166.705 264.652 166.177 264.412C165.661 264.16 165.079 264.034 164.431 264.034C163.291 264.034 162.361 264.49 161.641 265.402C160.921 266.314 160.513 267.526 160.417 269.038C160.765 268.366 161.281 267.838 161.965 267.454C162.661 267.058 163.417 266.86 164.233 266.86C165.469 266.86 166.501 267.292 167.329 268.156C168.169 269.008 168.589 270.064 168.589 271.324C168.589 272.608 168.145 273.682 167.257 274.546C166.381 275.398 165.277 275.824 163.945 275.824C163.033 275.824 162.199 275.62 161.443 275.212C160.699 274.792 160.129 274.216 159.733 273.484C159.229 272.536 158.971 271.324 158.959 269.848C158.971 267.664 159.487 265.912 160.507 264.592C161.539 263.26 162.883 262.594 164.539 262.594C165.367 262.594 166.123 262.762 166.807 263.098C167.491 263.434 168.025 263.896 168.409 264.484L167.473 265.474ZM160.597 271.234C160.597 272.098 160.927 272.842 161.587 273.466C162.259 274.078 163.063 274.384 163.999 274.384C164.911 274.384 165.661 274.096 166.249 273.52C166.849 272.932 167.149 272.2 167.149 271.324C167.149 270.448 166.843 269.728 166.231 269.164C165.631 268.588 164.857 268.3 163.909 268.3C162.961 268.3 162.169 268.582 161.533 269.146C160.897 269.698 160.585 270.394 160.597 271.234Z" fill="#001806"/>
<path d="M324.856 310V316H323.896V310.912H320.656V316H319.696V310H324.856ZM326.235 310H327.195V318.4H326.235V310ZM327.855 311.356C327.415 311.788 327.195 312.34 327.195 313.012C327.195 313.676 327.415 314.224 327.855 314.656C328.303 315.088 328.847 315.304 329.487 315.304C330.127 315.304 330.667 315.088 331.107 314.656C331.555 314.224 331.779 313.676 331.779 313.012C331.779 312.34 331.555 311.788 331.107 311.356C330.667 310.924 330.127 310.708 329.487 310.708C328.847 310.708 328.303 310.924 327.855 311.356ZM327.591 315.328C327.023 314.712 326.739 313.94 326.739 313.012C326.739 312.076 327.023 311.304 327.591 310.696C328.159 310.088 328.859 309.784 329.691 309.784C330.547 309.784 331.267 310.088 331.851 310.696C332.443 311.304 332.739 312.076 332.739 313.012C332.739 313.94 332.443 314.712 331.851 315.328C331.267 315.936 330.547 316.24 329.691 316.24C328.859 316.24 328.159 315.936 327.591 315.328ZM339.287 316H338.327V311.2L335.027 316H333.887V310H334.847V314.68L338.135 310H339.287V316ZM342.617 312.928H344.849V310.936H342.617C342.281 310.936 341.997 311.032 341.765 311.224C341.541 311.408 341.429 311.636 341.429 311.908C341.429 312.204 341.541 312.448 341.765 312.64C341.997 312.832 342.281 312.928 342.617 312.928ZM343.313 313.804L341.609 316H340.433L342.209 313.744C341.697 313.712 341.273 313.52 340.937 313.168C340.601 312.816 340.433 312.392 340.433 311.896C340.433 311.36 340.629 310.912 341.021 310.552C341.413 310.184 341.901 310 342.485 310H345.809V316H344.849V313.804H343.313ZM351.892 310V310.912H349.852V316H348.892V310.912H346.852V310H351.892ZM352.954 316V310H353.914V312.532H357.658V310H358.618V316H357.658V313.444H353.914V316H352.954ZM366.417 316V310H367.377V316H366.417ZM363.405 313.312H360.921V315.064H363.405C363.709 315.064 363.961 314.984 364.161 314.824C364.361 314.656 364.461 314.452 364.461 314.212C364.461 313.956 364.361 313.744 364.161 313.576C363.961 313.4 363.709 313.312 363.405 313.312ZM363.525 312.4C364.061 312.4 364.509 312.576 364.869 312.928C365.237 313.28 365.421 313.712 365.421 314.224C365.421 314.728 365.237 315.152 364.869 315.496C364.509 315.832 364.061 316 363.525 316H359.961V310H360.921V312.4H363.525ZM371.486 309.088C370.934 309.088 370.466 308.908 370.082 308.548C369.698 308.18 369.506 307.74 369.506 307.228H370.31C370.31 307.548 370.422 307.812 370.646 308.02C370.87 308.228 371.154 308.332 371.498 308.332C371.85 308.332 372.146 308.224 372.386 308.008C372.634 307.792 372.758 307.532 372.758 307.228H373.562C373.562 307.724 373.354 308.16 372.938 308.536C372.53 308.904 372.046 309.088 371.486 309.088ZM374.162 316H373.202V311.2L369.902 316H368.762V310H369.722V314.68L373.01 310H374.162V316ZM386.558 310H387.59L385.718 316H384.494L383.018 311.344L381.59 316H380.366L378.458 310H379.49L380.99 314.98L382.562 310H383.486L385.07 314.98L386.558 310ZM388.661 316V307H389.621V316H388.661ZM392.837 316V312.448C392.837 311.936 392.693 311.532 392.405 311.236C392.125 310.94 391.757 310.792 391.301 310.792C390.837 310.792 390.441 310.956 390.113 311.284C389.785 311.604 389.621 311.992 389.621 312.448H389.093C389.093 311.744 389.333 311.14 389.813 310.636C390.293 310.124 390.877 309.868 391.565 309.868C392.197 309.868 392.725 310.088 393.149 310.528C393.581 310.968 393.797 311.54 393.797 312.244V316H392.837ZM395.176 308.836C395.048 308.708 394.984 308.552 394.984 308.368C394.984 308.184 395.048 308.032 395.176 307.912C395.304 307.784 395.456 307.72 395.632 307.72C395.816 307.72 395.968 307.784 396.088 307.912C396.216 308.032 396.28 308.184 396.28 308.368C396.28 308.552 396.216 308.708 396.088 308.836C395.968 308.956 395.816 309.016 395.632 309.016C395.456 309.016 395.304 308.956 395.176 308.836ZM395.152 316V310H396.112V316H395.152ZM400.269 315.088H401.037V316H400.137C399.553 316 399.093 315.852 398.757 315.556C398.421 315.26 398.253 314.86 398.253 314.356V310.888H397.149V310H398.253V308.248L399.213 308.056V310H401.037V310.888H399.213V314.14C399.213 314.772 399.565 315.088 400.269 315.088ZM406.966 312.544C406.918 311.984 406.69 311.532 406.282 311.188C405.874 310.844 405.382 310.672 404.806 310.672C404.254 310.672 403.778 310.844 403.378 311.188C402.986 311.524 402.754 311.976 402.682 312.544H406.966ZM402.682 313.42C402.754 313.988 402.994 314.444 403.402 314.788C403.81 315.132 404.294 315.304 404.854 315.304C405.286 315.304 405.678 315.204 406.03 315.004C406.382 314.796 406.646 314.512 406.822 314.152L407.71 314.5C407.446 315.028 407.058 315.448 406.546 315.76C406.042 316.064 405.482 316.216 404.866 316.216C403.97 316.216 403.214 315.912 402.598 315.304C401.99 314.688 401.686 313.916 401.686 312.988C401.686 312.06 401.986 311.292 402.586 310.684C403.186 310.068 403.922 309.76 404.794 309.76C405.674 309.76 406.418 310.06 407.026 310.66C407.634 311.252 407.938 312 407.938 312.904C407.938 313.048 407.918 313.22 407.878 313.42H402.682Z" fill="#001806"/>
<rect x="317" y="241" width="263" height="52" rx="26" fill="#F4F4F4"/>
<path d="M426.844 266.32V267.706H415.522V266.32H426.844ZM426.844 270.28V271.666H415.522V270.28H426.844ZM421.804 275.5H420.202L425.224 262.9H426.844L421.804 275.5ZM417.124 275.5H415.522L420.544 262.9H422.164L417.124 275.5ZM432.992 263.368C432.5 263.368 432.104 263.524 431.804 263.836C431.516 264.148 431.372 264.568 431.372 265.096V266.5H434.288V267.832H431.372V275.5H429.932V267.832H427.862V266.5H429.932V264.79C429.932 264.034 430.214 263.38 430.778 262.828C431.342 262.276 432.014 262 432.794 262H433.928V263.368H432.992ZM436.791 270.37H441.525V264.754L436.791 270.37ZM442.965 262.9V270.37H444.981V271.756H442.965V275.5H441.525V271.756H435.315V270.136L441.291 262.9H442.965ZM451.132 263.368C450.64 263.368 450.244 263.524 449.944 263.836C449.656 264.148 449.512 264.568 449.512 265.096V266.5H452.428V267.832H449.512V275.5H448.072V267.832H446.002V266.5H448.072V264.79C448.072 264.034 448.354 263.38 448.918 262.828C449.482 262.276 450.154 262 450.934 262H452.068V263.368H451.132ZM454.932 270.37H459.666V264.754L454.932 270.37ZM461.106 262.9V270.37H463.122V271.756H461.106V275.5H459.666V271.756H453.456V270.136L459.432 262.9H461.106ZM469.273 263.368C468.781 263.368 468.385 263.524 468.085 263.836C467.797 264.148 467.653 264.568 467.653 265.096V266.5H470.569V267.832H467.653V275.5H466.213V267.832H464.143V266.5H466.213V264.79C466.213 264.034 466.495 263.38 467.059 262.828C467.623 262.276 468.295 262 469.075 262H470.209V263.368H469.273ZM473.072 270.37H477.806V264.754L473.072 270.37ZM479.246 262.9V270.37H481.262V271.756H479.246V275.5H477.806V271.756H471.596V270.136L477.572 262.9H479.246Z" fill="#001806"/>
</svg>
