<svg width="324" height="196" viewBox="0 0 324 196" fill="none" xmlns="http://www.w3.org/2000/svg">
<path d="M58.2283 45.2509V40.8189V36.3868C58.2283 36.0811 58.2283 35.9283 58.2283 35.6226C57.617 33.6359 57.0057 33.1774 55.1717 32.566C54.866 32.566 54.7132 32.4132 54.4075 32.4132H52.4208C51.0453 32.4132 49.9755 31.3434 49.9755 30.1208V27.9811C49.9755 27.8283 49.9755 27.5226 49.8226 27.3698C49.2113 25.383 48.7528 24.7717 46.766 24.1604C46.6132 24.1604 46.3075 24.1604 46.0019 24.1604H41.5698H33.317H28.7321C28.5792 24.1604 28.2736 24.1604 28.1208 24.1604C26.134 24.7717 25.6755 25.383 25.0641 27.3698C24.9113 27.5226 24.9113 27.8283 24.9113 27.9811V32.4132V40.8189V46.7792C24.9113 48.0019 23.8415 49.0717 22.466 49.0717H20.4792C20.1736 49.0717 20.0208 49.2245 19.7151 49.2245C17.8811 49.8359 17.2698 50.4472 16.6585 52.2811C16.6585 52.5868 16.6585 52.7396 16.6585 53.0453V57.4774V65.883V70.3151C16.6585 70.4679 16.6585 70.7736 16.6585 70.9264C17.2698 72.9132 17.8811 73.5245 19.7151 73.983C20.0208 74.1358 20.1736 74.1358 20.4792 74.1358H24.9113H33.317H41.5698H46.0019C46.3075 74.1358 46.6132 74.1358 46.766 73.983C48.7528 73.5245 49.2113 72.9132 49.8226 70.9264C49.9755 70.7736 49.9755 70.4679 49.9755 70.3151V65.883V57.4774V51.517C49.9755 50.2943 51.0453 49.0717 52.4208 49.0717H54.7132C57.0057 48.4604 57.617 48.0019 58.2283 46.0151C58.2283 45.7094 58.2283 45.5566 58.2283 45.2509ZM61.7434 32.4132H64.1887C65.5641 32.4132 66.634 33.483 66.634 34.8585V40.8189V46.7792C66.634 48.0019 65.5641 49.0717 64.1887 49.0717H62.2019C61.8962 49.0717 61.7434 49.2245 61.4377 49.2245C59.4509 49.8359 58.9924 50.4472 58.3811 52.2811C58.3811 52.5868 58.2283 52.7396 58.2283 53.0453V57.4774V65.883V71.6906C58.2283 73.066 57.1585 74.1358 55.783 74.1358H53.4906C51.1981 74.7472 50.5868 75.2057 49.9755 77.3453C49.9755 77.4981 49.9755 77.8038 49.9755 77.9566V80.0962C49.9755 81.4717 48.9057 82.5415 47.5302 82.5415H41.5698H33.317H24.9113H18.9509C17.7283 82.5415 16.6585 81.4717 16.6585 80.0962V77.9566C16.6585 77.8038 16.5057 77.4981 16.5057 77.3453C15.8943 75.2057 15.283 74.7472 12.9906 74.1358H13.1434H11.7679C9.6283 74.7472 9.01698 75.2057 8.40566 77.3453C8.25283 77.4981 8.25283 77.8038 8.25283 77.9566V82.5415V90.7943V99.2V107.453V115.858V121.819C8.25283 123.042 7.18302 124.111 5.80755 124.111H2.29245C1.06981 124.111 0 123.042 0 121.819V115.858V107.453V99.2V90.7943V82.5415V74.1358V68.1755C0 66.9528 1.06981 65.883 2.29245 65.883H4.43208C4.58491 65.883 4.89057 65.7302 5.0434 65.7302C7.03019 65.1189 7.64151 64.5075 8.1 62.6736C8.25283 62.3679 8.25283 62.2151 8.25283 61.9094V57.4774V51.517C8.25283 50.2943 9.32264 49.0717 10.6981 49.0717H13.1434C13.1434 49.0717 13.1434 49.0717 12.9906 49.0717C15.283 48.4604 15.8943 48.0019 16.5057 46.0151C16.5057 45.7094 16.6585 45.5566 16.6585 45.2509V40.8189V32.4132V27.9811C16.6585 27.8283 16.5057 27.5226 16.5057 27.3698C15.8943 25.2302 15.283 24.7717 12.9906 24.1604C13.1434 24.1604 13.1434 24.1604 13.1434 24.1604H10.6981C9.32264 24.1604 8.25283 23.0906 8.25283 21.7151V18.2C8.25283 16.8245 9.32264 15.7547 10.6981 15.7547H14.2132C15.4358 15.7547 16.6585 16.8245 16.6585 18.2V20.3396C16.6585 20.4925 16.6585 20.7981 16.6585 20.9509C17.2698 22.9377 17.8811 23.3962 19.7151 24.0076C20.0208 24.1604 20.1736 24.1604 20.4792 24.1604H21.3962C23.6887 23.5491 24.1472 22.9377 24.7585 20.9509C24.9113 20.7981 24.9113 20.4925 24.9113 20.1868V18.2C24.9113 16.8245 25.9811 15.7547 27.3566 15.7547H33.317H41.5698H47.5302C48.9057 15.7547 49.9755 16.8245 49.9755 18.2V20.1868C49.9755 20.4925 49.9755 20.7981 49.9755 20.9509C50.5868 22.9377 51.1981 23.5491 53.4906 24.1604H55.783C57.1585 24.1604 58.2283 25.2302 58.2283 26.6057V28.5925C58.2283 28.8981 58.3811 29.0509 58.3811 29.2038C58.9924 31.3434 59.6038 31.8019 61.7434 32.4132ZM100.765 75.3585H109.171H113.603C113.756 75.3585 114.061 75.3585 114.214 75.2057C116.201 74.5943 116.812 74.1358 117.424 72.1491C117.424 71.9962 117.424 71.6906 117.424 71.5377V66.9528V58.7V54.2679C117.424 53.9623 117.424 53.8094 117.424 53.5038C116.812 51.517 116.201 51.0585 114.214 50.4472C114.061 50.2943 113.756 50.2943 113.603 50.2943H109.171H100.765H92.5124H87.9275C87.7747 50.2943 87.469 50.2943 87.3162 50.4472C85.3294 51.0585 84.7181 51.517 84.2596 53.5038C84.1067 53.8094 84.1067 53.9623 84.1067 54.2679V58.7V66.9528V71.5377C84.1067 71.6906 84.1067 71.9962 84.2596 72.1491C84.7181 74.1358 85.3294 74.5943 87.3162 75.2057C87.469 75.3585 87.7747 75.3585 87.9275 75.3585H92.5124H100.765ZM134.082 72.1491C134.082 71.9962 134.082 71.6906 134.082 71.5377V69.3981C134.082 68.0226 135.152 66.9528 136.527 66.9528H140.043C141.418 66.9528 142.488 68.0226 142.488 69.3981V72.9132C142.488 74.2887 141.418 75.3585 140.043 75.3585H137.597C135.458 75.9698 134.846 76.4283 134.235 78.5679C134.235 78.7208 134.082 79.0264 134.082 79.1792V81.3189C134.082 82.5415 133.012 83.6113 131.637 83.6113H128.275C126.899 83.6113 125.829 82.5415 125.829 81.3189V79.1792C125.829 79.0264 125.829 78.7208 125.677 78.5679C125.065 76.4283 124.454 75.9698 122.314 75.3585H120.939C118.799 75.9698 118.188 76.4283 117.577 78.5679C117.424 78.7208 117.424 79.0264 117.424 79.1792V81.3189C117.424 82.5415 116.354 83.6113 114.978 83.6113H109.171H100.765H92.5124H86.552C85.1766 83.6113 84.1067 82.5415 84.1067 81.3189V79.1792C84.1067 79.0264 84.1067 78.7208 83.9539 78.5679C83.3426 76.4283 82.8841 75.9698 80.5916 75.3585H78.1464C76.9237 75.3585 75.8539 74.2887 75.8539 72.9132V66.9528V58.7V52.7396C75.8539 51.3642 76.9237 50.2943 78.1464 50.2943H80.286C80.4388 50.2943 80.7445 50.2943 80.8973 50.2943C82.8841 49.683 83.4954 49.0717 83.9539 47.0849C84.1067 46.9321 84.1067 46.6264 84.1067 46.4736V44.4868C84.1067 43.1113 85.1766 42.0415 86.552 42.0415H92.5124H100.765H109.171H114.978C116.354 42.0415 117.424 43.1113 117.424 44.4868V46.4736C117.424 46.6264 117.424 46.9321 117.577 47.0849C118.188 49.0717 118.646 49.683 120.633 50.2943C120.939 50.2943 121.092 50.2943 121.397 50.2943H121.856C122.161 50.2943 122.314 50.2943 122.62 50.2943C124.607 49.683 125.065 49.0717 125.677 47.0849C125.829 46.9321 125.829 46.6264 125.829 46.4736V42.0415V33.6359V29.2038C125.829 28.8981 125.829 28.7453 125.677 28.4396C125.065 26.6057 124.607 25.9943 122.62 25.383C122.314 25.383 122.161 25.383 121.856 25.383H117.424H109.171H100.765H96.3332C96.0275 25.383 95.8747 25.383 95.569 25.383C93.735 25.9943 93.1237 26.6057 92.5124 28.4396C92.5124 28.7453 92.5124 28.8981 92.5124 29.2038V31.1906C92.5124 32.566 91.2898 33.6359 90.0671 33.6359H86.552C85.1766 33.6359 84.1067 32.566 84.1067 31.1906V27.6755C84.1067 26.4528 85.1766 25.383 86.552 25.383H88.5388C88.8445 25.383 88.9973 25.2302 89.303 25.2302C91.2898 24.6189 91.7483 24.1604 92.3596 22.1736C92.3596 21.8679 92.5124 21.7151 92.5124 21.4094V19.4226C92.5124 18.0472 93.5822 16.9774 94.8049 16.9774H100.765H109.171H117.424H123.384C124.76 16.9774 125.829 18.0472 125.829 19.4226V21.4094C125.829 21.7151 125.829 21.8679 125.829 22.1736C126.441 24.1604 127.052 24.6189 129.039 25.2302C129.192 25.2302 129.497 25.383 129.65 25.383H131.637C133.012 25.383 134.082 26.4528 134.082 27.6755V33.6359V42.0415V47.8491C134.082 49.2245 133.012 50.2943 131.637 50.2943H129.65C129.497 50.2943 129.192 50.2943 129.039 50.4472C127.052 51.0585 126.441 51.517 125.829 53.5038C125.829 53.8094 125.829 53.9623 125.829 54.2679V58.7V66.9528V71.5377C125.829 71.6906 125.829 71.9962 125.829 72.1491C126.441 74.1358 127.052 74.5943 129.039 75.2057C129.192 75.3585 129.497 75.3585 129.65 75.3585H130.261C130.567 75.3585 130.72 75.3585 131.026 75.2057C132.86 74.5943 133.471 74.1358 134.082 72.1491ZM205.198 25.383H207.491C208.866 25.383 209.936 26.4528 209.936 27.6755V31.1906C209.936 32.566 208.866 33.6359 207.491 33.6359H204.129C202.753 33.6359 201.683 32.566 201.683 31.1906V29.2038C201.683 28.8981 201.683 28.7453 201.53 28.4396C200.919 26.6057 200.461 25.9943 198.474 25.383C198.321 25.383 198.015 25.383 197.863 25.383H193.278H185.025H180.44C180.287 25.383 179.981 25.383 179.829 25.383C177.842 25.9943 177.383 26.6057 176.772 28.4396C176.619 28.7453 176.619 28.8981 176.619 29.2038V33.6359V42.0415V47.8491C176.619 49.2245 175.549 50.2943 174.174 50.2943H172.187C171.881 50.2943 171.729 50.2943 171.423 50.4472C169.589 51.0585 168.978 51.517 168.366 53.5038C168.366 53.6566 168.366 53.9623 168.366 54.2679V58.7V64.5075C168.366 65.883 167.144 66.9528 165.921 66.9528H163.781C163.629 66.9528 163.323 66.9528 163.17 67.1057C161.183 67.717 160.572 68.1755 160.113 70.1623C159.961 70.4679 159.961 70.6208 159.961 70.9264V75.3585V81.3189C159.961 82.5415 158.891 83.6113 157.515 83.6113H154C152.778 83.6113 151.708 82.5415 151.708 81.3189V75.3585V69.3981C151.708 68.0226 152.778 66.9528 154 66.9528H156.446C158.738 66.3415 159.197 65.883 159.808 63.7434C159.961 63.5906 159.961 63.2849 159.961 63.1321V58.7V52.7396C159.961 51.3642 161.03 50.2943 162.406 50.2943H164.393C164.698 50.2943 164.851 50.2943 165.157 50.2943C167.144 49.683 167.602 49.0717 168.213 47.0849C168.213 46.9321 168.366 46.6264 168.366 46.4736V42.0415V33.6359V29.2038C168.366 28.8981 168.213 28.7453 168.213 28.4396C167.602 26.6057 167.144 25.9943 165.157 25.383C164.851 25.383 164.698 25.383 164.393 25.383H162.406C161.03 25.383 159.961 24.1604 159.961 22.9377V19.4226C159.961 18.0472 161.03 16.9774 162.406 16.9774H165.921C167.144 16.9774 168.366 18.0472 168.366 19.4226V21.4094C168.366 21.7151 168.366 21.8679 168.366 22.1736C168.978 24.1604 169.589 24.6189 171.881 25.383H173.104C175.397 24.6189 176.008 24.1604 176.466 22.1736C176.619 21.8679 176.619 21.7151 176.619 21.4094V19.4226C176.619 18.0472 177.689 16.9774 179.064 16.9774H185.025H193.278H199.238C200.613 16.9774 201.683 18.0472 201.683 19.4226V21.4094C201.683 21.7151 201.683 21.8679 201.683 22.1736C202.295 24.1604 202.906 24.6189 205.198 25.383ZM233.22 75.3585H241.626H246.058C246.211 75.3585 246.516 75.3585 246.669 75.2057C248.656 74.5943 249.267 74.1358 249.879 72.1491C249.879 71.9962 249.879 71.6906 249.879 71.5377V66.9528V58.7V54.2679C249.879 53.9623 249.879 53.8094 249.879 53.5038C249.267 51.517 248.656 51.0585 246.669 50.4472C246.516 50.2943 246.211 50.2943 246.058 50.2943H241.626H233.22H224.967H220.382C220.229 50.2943 219.924 50.2943 219.771 50.4472C217.784 51.0585 217.173 51.517 216.714 53.5038C216.562 53.8094 216.562 53.9623 216.562 54.2679V58.7V66.9528V71.5377C216.562 71.6906 216.562 71.9962 216.714 72.1491C217.173 74.1358 217.784 74.5943 219.771 75.2057C219.924 75.3585 220.229 75.3585 220.382 75.3585H224.967H233.22ZM266.537 72.1491C266.537 71.9962 266.537 71.6906 266.537 71.5377V69.3981C266.537 68.0226 267.607 66.9528 268.982 66.9528H272.497C273.873 66.9528 274.943 68.0226 274.943 69.3981V72.9132C274.943 74.2887 273.873 75.3585 272.497 75.3585H270.052C267.912 75.9698 267.301 76.4283 266.69 78.5679C266.69 78.7208 266.537 79.0264 266.537 79.1792V81.3189C266.537 82.5415 265.467 83.6113 264.092 83.6113H260.729C259.354 83.6113 258.284 82.5415 258.284 81.3189V79.1792C258.284 79.0264 258.284 78.7208 258.131 78.5679C257.52 76.4283 256.909 75.9698 254.769 75.3585H253.394C251.254 75.9698 250.643 76.4283 250.031 78.5679C249.879 78.7208 249.879 79.0264 249.879 79.1792V81.3189C249.879 82.5415 248.809 83.6113 247.433 83.6113H241.626H233.22H224.967H219.007C217.631 83.6113 216.562 82.5415 216.562 81.3189V79.1792C216.562 79.0264 216.562 78.7208 216.409 78.5679C215.797 76.4283 215.339 75.9698 213.046 75.3585H210.601C209.379 75.3585 208.309 74.2887 208.309 72.9132V66.9528V58.7V52.7396C208.309 51.3642 209.379 50.2943 210.601 50.2943H212.741C212.894 50.2943 213.199 50.2943 213.352 50.2943C215.339 49.683 215.95 49.0717 216.409 47.0849C216.562 46.9321 216.562 46.6264 216.562 46.4736V44.4868C216.562 43.1113 217.631 42.0415 219.007 42.0415H224.967H233.22H241.626H247.433C248.809 42.0415 249.879 43.1113 249.879 44.4868V46.4736C249.879 46.6264 249.879 46.9321 250.031 47.0849C250.643 49.0717 251.101 49.683 253.088 50.2943C253.394 50.2943 253.546 50.2943 253.852 50.2943H254.311C254.616 50.2943 254.769 50.2943 255.075 50.2943C257.062 49.683 257.52 49.0717 258.131 47.0849C258.284 46.9321 258.284 46.6264 258.284 46.4736V42.0415V33.6359V29.2038C258.284 28.8981 258.284 28.7453 258.131 28.4396C257.52 26.6057 257.062 25.9943 255.075 25.383C254.769 25.383 254.616 25.383 254.311 25.383H249.879H241.626H233.22H228.788C228.482 25.383 228.329 25.383 228.024 25.383C226.19 25.9943 225.579 26.6057 224.967 28.4396C224.967 28.7453 224.967 28.8981 224.967 29.2038V31.1906C224.967 32.566 223.745 33.6359 222.522 33.6359H219.007C217.631 33.6359 216.562 32.566 216.562 31.1906V27.6755C216.562 26.4528 217.631 25.383 219.007 25.383H220.994C221.299 25.383 221.452 25.2302 221.758 25.2302C223.745 24.6189 224.203 24.1604 224.814 22.1736C224.814 21.8679 224.967 21.7151 224.967 21.4094V19.4226C224.967 18.0472 226.037 16.9774 227.26 16.9774H233.22H241.626H249.879H255.839C257.214 16.9774 258.284 18.0472 258.284 19.4226V21.4094C258.284 21.7151 258.284 21.8679 258.284 22.1736C258.896 24.1604 259.507 24.6189 261.494 25.2302C261.646 25.2302 261.952 25.383 262.105 25.383H264.092C265.467 25.383 266.537 26.4528 266.537 27.6755V33.6359V42.0415V47.8491C266.537 49.2245 265.467 50.2943 264.092 50.2943H262.105C261.952 50.2943 261.646 50.2943 261.494 50.4472C259.507 51.0585 258.896 51.517 258.284 53.5038C258.284 53.8094 258.284 53.9623 258.284 54.2679V58.7V66.9528V71.5377C258.284 71.6906 258.284 71.9962 258.284 72.1491C258.896 74.1358 259.507 74.5943 261.494 75.2057C261.646 75.3585 261.952 75.3585 262.105 75.3585H262.716C263.022 75.3585 263.175 75.3585 263.48 75.2057C265.314 74.5943 265.926 74.1358 266.537 72.1491Z" fill="#F6CFE2"/>
<path d="M92.1817 133.383H94.4741C95.8496 133.383 96.9194 134.453 96.9194 135.675V139.191C96.9194 140.566 95.8496 141.636 94.4741 141.636H91.1119C89.7364 141.636 88.6666 140.566 88.6666 139.191V137.204C88.6666 136.898 88.6666 136.745 88.5137 136.44C87.9024 134.606 87.4439 133.994 85.4571 133.383C85.3043 133.383 84.9986 133.383 84.8458 133.383H80.2609H72.0081H67.4232C67.2703 133.383 66.9647 133.383 66.8119 133.383C64.8251 133.994 64.3666 134.606 63.7553 136.44C63.6024 136.745 63.6024 136.898 63.6024 137.204V139.191C63.6024 140.566 62.5326 141.636 61.1571 141.636H59.1703C58.8647 141.636 58.7119 141.636 58.4062 141.789C56.5722 142.4 55.9609 142.858 55.3496 144.845C55.3496 144.998 55.3496 145.304 55.3496 145.457V146.068C55.3496 146.374 55.3496 146.526 55.3496 146.832C55.9609 148.819 56.5722 149.277 58.4062 149.889C58.7119 149.889 58.8647 150.042 59.1703 150.042H63.6024H72.0081H77.8156C79.1911 150.042 80.2609 151.111 80.2609 152.334V154.474C80.2609 154.626 80.2609 154.932 80.4137 155.085C81.0251 157.072 81.4836 157.683 83.4703 158.294C83.776 158.294 83.9288 158.294 84.2345 158.294H86.2213C87.5968 158.294 88.6666 159.364 88.6666 160.74V166.7V172.508C88.6666 173.883 87.5968 174.953 86.2213 174.953H84.0817C83.9288 174.953 83.6232 174.953 83.4703 175.106C81.4836 175.717 81.0251 176.175 80.4137 178.162C80.2609 178.468 80.2609 178.621 80.2609 178.926V180.913C80.2609 182.289 79.1911 183.358 77.8156 183.358H75.8288C75.5232 183.358 75.3703 183.358 75.0647 183.358C73.2307 183.97 72.6194 184.581 72.0081 186.568C72.0081 186.721 72.0081 187.026 72.0081 187.179V189.319C72.0081 190.542 70.9383 191.611 69.5628 191.611H63.6024H55.3496H49.3892C48.0137 191.611 46.9439 190.542 46.9439 189.319V187.179C46.9439 187.026 46.9439 186.721 46.7911 186.568C46.3326 184.581 45.7213 183.97 43.7345 183.358C43.5817 183.358 43.276 183.358 43.1232 183.358H40.9836C39.7609 183.358 38.6911 182.289 38.6911 180.913V177.398C38.6911 176.023 39.7609 174.953 40.9836 174.953H44.4987C45.8741 174.953 46.9439 176.023 46.9439 177.398V179.385C46.9439 179.691 46.9439 179.843 47.0968 180.149C47.7081 182.136 48.3194 182.747 50.459 183.358H55.3496H63.6024H68.493C70.6326 182.747 71.2439 182.136 71.8553 180.149C71.8553 179.843 72.0081 179.691 72.0081 179.385V177.398C72.0081 176.023 73.0779 174.953 74.4534 174.953H76.7458C79.0383 174.342 79.6496 173.883 80.2609 171.743C80.2609 171.591 80.2609 171.285 80.2609 171.132V166.7V162.268C80.2609 161.962 80.2609 161.657 80.2609 161.504C79.6496 159.517 79.0383 159.058 77.0515 158.447C76.8986 158.294 76.593 158.294 76.4402 158.294H72.0081H63.6024H57.642C56.4194 158.294 55.3496 157.225 55.3496 155.849V153.862C55.3496 153.557 55.1968 153.404 55.1968 153.098C54.5854 151.264 54.127 150.653 52.1402 150.042C51.8345 150.042 51.6817 150.042 51.376 150.042H49.3892C48.0137 150.042 46.9439 148.972 46.9439 147.596V144.081C46.9439 142.706 48.0137 141.636 49.3892 141.636H51.376C51.6817 141.636 51.8345 141.636 52.1402 141.483C54.127 141.025 54.5854 140.413 55.1968 138.426C55.1968 138.274 55.3496 137.968 55.3496 137.815V135.675C55.3496 134.453 56.4194 133.383 57.642 133.383H60.0873C62.3798 132.619 62.8383 132.16 63.4496 130.174C63.6024 129.868 63.6024 129.715 63.6024 129.409V127.423C63.6024 126.047 64.6722 124.977 66.0477 124.977H72.0081H80.2609H86.2213C87.5968 124.977 88.6666 126.047 88.6666 127.423V129.409C88.6666 129.715 88.6666 129.868 88.6666 130.174C89.2779 132.16 89.8892 132.619 92.1817 133.383ZM164.415 130.632C164.415 130.938 164.568 131.091 164.568 131.396C165.18 133.23 165.638 133.842 167.625 134.453C167.931 134.453 168.083 134.453 168.389 134.453H170.376C171.751 134.453 172.821 135.523 172.821 136.898V142.858V151.111V157.072C172.821 158.447 171.751 159.517 170.376 159.517H168.389C168.083 159.517 167.931 159.517 167.625 159.67C165.638 160.128 165.18 160.74 164.568 162.726C164.568 162.879 164.415 163.185 164.415 163.338V167.923V173.73C164.415 175.106 163.346 176.175 161.97 176.175H159.983C159.831 176.175 159.525 176.175 159.372 176.328C157.385 176.94 156.774 177.398 156.163 179.385C156.163 179.538 156.163 179.843 156.163 179.996V184.581V190.389C156.163 191.764 155.093 192.834 153.717 192.834H150.202C148.827 192.834 147.757 191.764 147.757 190.389V184.581V178.621C147.757 177.245 148.827 176.175 150.202 176.175H152.189C152.495 176.175 152.647 176.175 152.953 176.023C154.94 175.564 155.398 174.953 156.01 172.966C156.163 172.813 156.163 172.508 156.163 172.355V167.923V161.962C156.163 160.587 157.232 159.517 158.608 159.517H160.595C160.9 159.517 161.053 159.517 161.206 159.364C163.193 158.906 163.804 158.294 164.415 156.308C164.415 156.155 164.415 155.849 164.415 155.696V151.111V142.858V138.426C164.415 138.121 164.415 137.968 164.415 137.662C163.804 135.675 163.193 135.217 161.206 134.606C161.053 134.606 160.9 134.453 160.595 134.453H156.163H147.757H139.504H134.919C134.766 134.453 134.461 134.606 134.308 134.606C132.321 135.217 131.863 135.675 131.251 137.662C131.098 137.968 131.098 138.121 131.098 138.426V142.858V151.111V157.072C131.098 158.447 130.029 159.517 128.653 159.517H126.666C126.361 159.517 126.208 159.517 125.902 159.67C124.068 160.128 123.457 160.74 122.846 162.726C122.846 162.879 122.846 163.185 122.846 163.338V167.923V173.73C122.846 175.106 121.623 176.175 120.4 176.175H118.261C118.108 176.175 117.802 176.175 117.649 176.328C115.663 176.94 115.051 177.398 114.593 179.385C114.44 179.538 114.44 179.843 114.44 179.996V184.581V190.389C114.44 191.764 113.37 192.834 111.995 192.834H108.48C107.257 192.834 106.187 191.764 106.187 190.389V184.581V178.621C106.187 177.245 107.257 176.175 108.48 176.175H110.619C110.772 176.175 111.078 176.175 111.231 176.023C113.217 175.564 113.829 174.953 114.287 172.966C114.44 172.813 114.44 172.508 114.44 172.355V167.923V161.962C114.44 160.587 115.51 159.517 116.885 159.517H118.872C119.178 159.517 119.331 159.517 119.636 159.364C121.623 158.906 122.081 158.294 122.693 156.308C122.693 156.155 122.846 155.849 122.846 155.696V151.111V142.858V134.453V126.2V117.794V109.542V105.109C122.846 104.804 122.693 104.651 122.693 104.345C122.081 102.358 121.623 101.9 119.636 101.289C119.331 101.136 119.178 101.136 118.872 101.136H116.885C115.51 101.136 114.44 100.066 114.44 98.6906V95.3283C114.44 93.9528 115.51 92.883 116.885 92.883H118.872C119.178 92.883 119.331 92.7302 119.636 92.7302C121.623 92.1189 122.081 91.6604 122.693 89.6736C122.693 89.3679 122.846 89.2151 122.846 88.9094V86.9226C122.846 85.5472 123.915 84.4774 125.138 84.4774H128.653C130.029 84.4774 131.098 85.5472 131.098 86.9226V92.883V101.136V109.542V117.794V122.379C131.098 122.532 131.098 122.838 131.251 122.991C131.863 124.977 132.321 125.436 134.308 126.047C134.461 126.2 134.766 126.2 134.919 126.2H139.504H147.757H156.163H161.97C163.346 126.2 164.415 127.27 164.415 128.645V130.632ZM240.269 132.772V126.811C240.269 125.436 241.339 124.366 242.715 124.366H246.23C247.605 124.366 248.675 125.436 248.675 126.811V132.772V138.579C248.675 139.955 247.605 141.025 246.23 141.025H244.243C243.937 141.025 243.784 141.025 243.479 141.177C241.492 141.789 241.033 142.247 240.422 144.234C240.422 144.54 240.269 144.692 240.269 144.998V149.43V155.238C240.269 156.613 239.2 157.683 237.824 157.683H235.532C233.239 158.294 232.628 158.906 232.016 160.892C232.016 161.198 232.016 161.351 232.016 161.657V166.089V174.342V178.926C232.016 179.079 232.016 179.385 232.016 179.538C232.628 181.525 233.239 182.136 235.226 182.594C235.379 182.747 235.684 182.747 235.837 182.747H236.449C236.754 182.747 236.907 182.747 237.06 182.594C239.047 182.136 239.658 181.525 240.269 179.538C240.269 179.385 240.269 179.079 240.269 178.926V176.787C240.269 175.411 241.339 174.342 242.715 174.342H246.23C247.605 174.342 248.675 175.411 248.675 176.787V180.302C248.675 181.677 247.605 182.747 246.23 182.747H244.243C243.937 182.747 243.784 182.747 243.479 182.9C241.492 183.358 241.033 183.97 240.422 185.957C240.422 186.109 240.269 186.415 240.269 186.568V188.708C240.269 189.93 239.2 191 237.824 191H234.462C233.086 191 232.016 189.93 232.016 188.708V186.568C232.016 186.415 232.016 186.109 231.864 185.957C231.252 183.97 230.794 183.358 228.807 182.9C228.501 182.747 228.349 182.747 228.043 182.747H227.584C227.279 182.747 227.126 182.747 226.82 182.9C224.833 183.358 224.375 183.97 223.764 185.957C223.611 186.109 223.611 186.415 223.611 186.568V188.708C223.611 189.93 222.541 191 221.166 191H215.358H206.952H198.7H192.739C191.364 191 190.294 189.93 190.294 188.708V186.568C190.294 186.415 190.294 186.109 190.141 185.957C189.683 183.97 189.071 183.358 187.084 182.9C186.932 182.747 186.626 182.747 186.473 182.747H184.333C183.111 182.747 182.041 181.677 182.041 180.302V174.342V168.534C182.041 167.158 183.111 166.089 184.333 166.089H186.473C186.626 166.089 186.932 166.089 187.084 165.936C189.071 165.325 189.683 164.866 190.141 162.879C190.294 162.726 190.294 162.421 190.294 162.268V157.683V149.43V143.47C190.294 142.094 191.364 141.025 192.739 141.025H195.184C195.184 141.025 195.184 141.025 195.032 141.025C197.324 140.413 197.935 139.955 198.547 137.815C198.547 137.662 198.7 137.357 198.7 137.204V132.772V126.811C198.7 125.436 199.769 124.366 200.992 124.366H204.507C205.883 124.366 206.952 125.436 206.952 126.811V132.772V138.579C206.952 139.955 205.883 141.025 204.507 141.025H202.52C202.215 141.025 202.062 141.025 201.756 141.177C199.922 141.789 199.311 142.247 198.7 144.234C198.7 144.54 198.7 144.692 198.7 144.998V149.43V157.683V163.643C198.7 165.019 197.63 166.089 196.254 166.089H193.809C191.669 166.7 191.058 167.158 190.447 169.298C190.294 169.451 190.294 169.757 190.294 169.909V174.342V178.926C190.294 179.079 190.294 179.385 190.447 179.538C190.905 181.525 191.517 182.136 193.503 182.594C193.656 182.747 193.962 182.747 194.115 182.747H198.7H206.952H215.358H219.79C219.943 182.747 220.249 182.747 220.401 182.594C222.388 182.136 223 181.525 223.611 179.538C223.611 179.385 223.611 179.079 223.611 178.926V174.342V166.089V160.128C223.611 158.753 224.681 157.683 226.056 157.683H228.043C228.349 157.683 228.501 157.683 228.807 157.683C230.794 157.072 231.252 156.46 231.864 154.474C232.016 154.321 232.016 154.015 232.016 153.862V149.43V143.47C232.016 142.094 233.086 141.025 234.462 141.025H236.754C239.047 140.413 239.658 139.955 240.269 137.815C240.269 137.662 240.269 137.357 240.269 137.204V132.772ZM292.433 132.619C292.586 132.619 292.892 132.772 293.045 132.772H297.63H303.437C304.813 132.772 305.882 133.842 305.882 135.064V138.579C305.882 139.955 304.813 141.025 303.437 141.025H297.63H293.045C292.892 141.025 292.586 141.025 292.433 141.177C290.447 141.789 289.988 142.247 289.377 144.234C289.224 144.54 289.224 144.692 289.224 144.998V146.985C289.224 148.36 288.154 149.43 286.779 149.43H284.792C284.486 149.43 284.333 149.43 284.028 149.43C282.194 150.042 281.582 150.653 280.971 152.64C280.971 152.792 280.971 153.098 280.971 153.251V157.683V166.089V174.342V178.926C280.971 179.079 280.971 179.385 280.971 179.538C281.582 181.525 282.194 182.136 284.028 182.594C284.333 182.747 284.486 182.747 284.792 182.747H289.224H293.656C293.962 182.747 294.115 182.747 294.42 182.594C296.407 182.136 296.865 181.525 297.477 179.538C297.477 179.385 297.63 179.079 297.63 178.926V176.787C297.63 175.411 298.699 174.342 300.075 174.342H303.437C304.813 174.342 305.882 175.411 305.882 176.787V180.302C305.882 181.677 304.813 182.747 303.437 182.747H301.45C301.298 182.747 300.992 182.747 300.839 182.9C298.852 183.358 298.241 183.97 297.63 185.957C297.63 186.109 297.63 186.415 297.63 186.568V188.708C297.63 189.93 296.56 191 295.184 191H289.224H283.264C282.041 191 280.971 189.93 280.971 188.708V186.568C280.971 186.415 280.818 186.109 280.818 185.957C280.207 183.97 279.748 183.358 277.762 182.9C277.456 182.747 277.303 182.747 276.998 182.747H275.011C273.635 182.747 272.565 181.677 272.565 180.302V174.342V166.089V157.683V151.875C272.565 150.5 273.635 149.43 275.011 149.43H276.998C277.303 149.43 277.456 149.43 277.762 149.277C279.748 148.666 280.207 148.208 280.818 146.221C280.818 145.915 280.971 145.762 280.971 145.457V143.47C280.971 142.094 282.041 141.025 283.264 141.025H285.403C285.556 141.025 285.862 141.025 286.015 141.025C288.001 140.413 288.613 139.802 289.071 137.815C289.224 137.662 289.224 137.357 289.224 137.204V136.592C289.224 136.287 289.224 136.134 289.071 135.981C288.613 133.842 288.001 133.383 285.709 132.772H280.971H272.565H266.605C265.382 132.772 264.313 131.702 264.313 130.326V126.811C264.313 125.436 265.382 124.366 266.605 124.366H272.565H276.998C277.303 124.366 277.456 124.366 277.762 124.213C279.748 123.755 280.207 123.143 280.818 121.157C280.818 121.004 280.971 120.698 280.971 120.545V116.113V110.153C280.971 108.777 282.041 107.708 283.264 107.708H286.779C288.154 107.708 289.224 108.777 289.224 110.153V116.113V124.366V128.798C289.224 129.104 289.224 129.257 289.377 129.562C289.988 131.549 290.447 132.008 292.433 132.619Z" fill="#EF7C05"/>
</svg>
