<svg width="264" height="174" viewBox="0 0 264 174" fill="none" xmlns="http://www.w3.org/2000/svg">
<rect x="1" y="1" width="262" height="172" rx="24" stroke="#F6CFE2" stroke-width="2"/>
<path d="M46.696 133V127H47.824L50.176 130.96L52.528 127H53.656V133H52.696V128.392L50.512 132.112H49.852L47.656 128.392V133H46.696ZM56.4315 128.344C55.9915 128.768 55.7715 129.316 55.7715 129.988C55.7715 130.66 55.9915 131.212 56.4315 131.644C56.8795 132.068 57.4235 132.28 58.0635 132.28C58.7035 132.28 59.2435 132.068 59.6835 131.644C60.1315 131.212 60.3555 130.66 60.3555 129.988C60.3555 129.316 60.1315 128.768 59.6835 128.344C59.2435 127.912 58.7035 127.696 58.0635 127.696C57.4235 127.696 56.8795 127.912 56.4315 128.344ZM55.7475 132.304C55.1235 131.696 54.8115 130.924 54.8115 129.988C54.8115 129.052 55.1235 128.28 55.7475 127.672C56.3795 127.064 57.1515 126.76 58.0635 126.76C58.9755 126.76 59.7435 127.064 60.3675 127.672C60.9995 128.28 61.3155 129.052 61.3155 129.988C61.3155 130.924 60.9995 131.696 60.3675 132.304C59.7435 132.912 58.9755 133.216 58.0635 133.216C57.1515 133.216 56.3795 132.912 55.7475 132.304ZM65.9014 127H66.8614V129.532H67.4134L69.4774 127H70.6054L68.1574 130L70.6054 133H69.4774L67.4134 130.504H66.8614V133H65.9014V130.468H65.3734L63.2854 133H62.1574L64.6294 130L62.1574 127H63.2854L65.3734 129.496H65.9014V127ZM71.6921 133V127H72.6521V129.532H76.3961V127H77.3561V133H76.3961V130.444H72.6521V133H71.6921ZM80.1151 128.344C79.6751 128.768 79.4551 129.316 79.4551 129.988C79.4551 130.66 79.6751 131.212 80.1151 131.644C80.5631 132.068 81.1071 132.28 81.7471 132.28C82.3871 132.28 82.9271 132.068 83.3671 131.644C83.8151 131.212 84.0391 130.66 84.0391 129.988C84.0391 129.316 83.8151 128.768 83.3671 128.344C82.9271 127.912 82.3871 127.696 81.7471 127.696C81.1071 127.696 80.5631 127.912 80.1151 128.344ZM79.4311 132.304C78.8071 131.696 78.4951 130.924 78.4951 129.988C78.4951 129.052 78.8071 128.28 79.4311 127.672C80.0631 127.064 80.8351 126.76 81.7471 126.76C82.6591 126.76 83.4271 127.064 84.0511 127.672C84.6831 128.28 84.9991 129.052 84.9991 129.988C84.9991 130.924 84.6831 131.696 84.0511 132.304C83.4271 132.912 82.6591 133.216 81.7471 133.216C80.8351 133.216 80.0631 132.912 79.4311 132.304ZM94.5474 127V133H93.5874V127.912H90.3474V133H89.3874V127H94.5474ZM101.326 133H100.366V128.2L97.0665 133H95.9265V127H96.8865V131.68L100.174 127H101.326V133ZM104.08 128.344C103.648 128.768 103.432 129.316 103.432 129.988C103.432 130.66 103.648 131.212 104.08 131.644C104.512 132.068 105.04 132.28 105.664 132.28C106.112 132.28 106.516 132.172 106.876 131.956C107.236 131.74 107.512 131.436 107.704 131.044L108.58 131.44C108.316 131.984 107.924 132.416 107.404 132.736C106.884 133.056 106.304 133.216 105.664 133.216C104.768 133.216 104.012 132.912 103.396 132.304C102.78 131.696 102.472 130.924 102.472 129.988C102.472 129.052 102.78 128.28 103.396 127.672C104.012 127.064 104.768 126.76 105.664 126.76C106.312 126.76 106.9 126.924 107.428 127.252C107.956 127.58 108.348 128.028 108.604 128.596L107.728 128.992C107.544 128.584 107.268 128.268 106.9 128.044C106.532 127.812 106.12 127.696 105.664 127.696C105.04 127.696 104.512 127.912 104.08 128.344ZM113.391 130.228L111.675 130.432C110.867 130.536 110.463 130.844 110.463 131.356C110.463 131.628 110.575 131.848 110.799 132.016C111.023 132.176 111.323 132.256 111.699 132.256C112.211 132.256 112.619 132.104 112.923 131.8C113.235 131.496 113.391 131.096 113.391 130.6H113.811C113.811 131.328 113.587 131.932 113.139 132.412C112.691 132.892 112.131 133.132 111.459 133.132C110.891 133.132 110.419 132.972 110.043 132.652C109.675 132.324 109.491 131.904 109.491 131.392C109.499 130.904 109.675 130.5 110.019 130.18C110.371 129.86 110.855 129.664 111.471 129.592L113.391 129.376V129.136C113.391 128.768 113.247 128.448 112.959 128.176C112.679 127.904 112.335 127.768 111.927 127.768C111.559 127.768 111.231 127.868 110.943 128.068C110.663 128.268 110.487 128.528 110.415 128.848L109.503 128.56C109.663 128.056 109.959 127.648 110.391 127.336C110.831 127.024 111.327 126.868 111.879 126.868C112.551 126.868 113.131 127.084 113.619 127.516C114.107 127.94 114.351 128.448 114.351 129.04V133H113.391V130.228ZM120.435 127V127.912H118.395V133H117.435V127.912H115.395V127H120.435ZM125.025 130.312H122.457V132.064H125.025C125.329 132.064 125.581 131.984 125.781 131.824C125.981 131.656 126.081 131.452 126.081 131.212C126.081 130.956 125.981 130.744 125.781 130.576C125.581 130.4 125.329 130.312 125.025 130.312ZM125.145 129.4C125.681 129.4 126.129 129.576 126.489 129.928C126.857 130.28 127.041 130.712 127.041 131.224C127.041 131.728 126.857 132.152 126.489 132.496C126.129 132.832 125.681 133 125.145 133H121.497V127H122.457V129.4H125.145ZM134.795 127.876H132.383V129.568H134.903C135.175 129.568 135.403 129.496 135.587 129.352C135.771 129.2 135.863 129.012 135.863 128.788C135.863 128.524 135.759 128.308 135.551 128.14C135.351 127.964 135.099 127.876 134.795 127.876ZM134.915 130.372H132.383V132.124H134.915C135.219 132.124 135.471 132.044 135.671 131.884C135.879 131.716 135.983 131.512 135.983 131.272C135.983 131.008 135.879 130.792 135.671 130.624C135.471 130.456 135.219 130.372 134.915 130.372ZM135.035 133H131.423V127H134.915C135.459 127 135.911 127.16 136.271 127.48C136.639 127.792 136.823 128.188 136.823 128.668C136.823 128.932 136.751 129.176 136.607 129.4C136.471 129.616 136.279 129.784 136.031 129.904C136.311 130.04 136.531 130.236 136.691 130.492C136.859 130.748 136.943 131.036 136.943 131.356C136.943 131.82 136.759 132.212 136.391 132.532C136.031 132.844 135.579 133 135.035 133ZM142.693 128.344C142.253 128.768 142.033 129.316 142.033 129.988C142.033 130.66 142.253 131.212 142.693 131.644C143.141 132.068 143.685 132.28 144.325 132.28C144.965 132.28 145.505 132.068 145.945 131.644C146.393 131.212 146.617 130.66 146.617 129.988C146.617 129.316 146.393 128.768 145.945 128.344C145.505 127.912 144.965 127.696 144.325 127.696C143.685 127.696 143.141 127.912 142.693 128.344ZM142.009 132.304C141.385 131.696 141.073 130.924 141.073 129.988C141.073 129.052 141.385 128.28 142.009 127.672C142.641 127.064 143.413 126.76 144.325 126.76C145.237 126.76 146.005 127.064 146.629 127.672C147.261 128.28 147.577 129.052 147.577 129.988C147.577 130.924 147.261 131.696 146.629 132.304C146.005 132.912 145.237 133.216 144.325 133.216C143.413 133.216 142.641 132.912 142.009 132.304ZM148.383 132.088H154.947V134.392H153.987V133H149.343V134.392H148.383V132.088ZM148.671 132.088C149.047 132.096 149.335 131.98 149.535 131.74C149.743 131.492 149.847 131.184 149.847 130.816V127H154.107V133H153.147V127.936H150.807V130.984C150.807 131.48 150.619 131.912 150.243 132.28C149.867 132.64 149.383 132.82 148.791 132.82H148.443V132.088H148.671ZM155.973 133V127H156.933V129.532H160.677V127H161.637V133H160.677V130.444H156.933V133H155.973ZM167.564 127H168.632L165.14 135.4H164.072L165.08 132.784L162.692 127H163.76L165.656 131.704L167.564 127ZM48.064 145.344C47.632 145.768 47.416 146.316 47.416 146.988C47.416 147.66 47.632 148.212 48.064 148.644C48.496 149.068 49.024 149.28 49.648 149.28C50.096 149.28 50.5 149.172 50.86 148.956C51.22 148.74 51.496 148.436 51.688 148.044L52.564 148.44C52.3 148.984 51.908 149.416 51.388 149.736C50.868 150.056 50.288 150.216 49.648 150.216C48.752 150.216 47.996 149.912 47.38 149.304C46.764 148.696 46.456 147.924 46.456 146.988C46.456 146.052 46.764 145.28 47.38 144.672C47.996 144.064 48.752 143.76 49.648 143.76C50.296 143.76 50.884 143.924 51.412 144.252C51.94 144.58 52.332 145.028 52.588 145.596L51.712 145.992C51.528 145.584 51.252 145.268 50.884 145.044C50.516 144.812 50.104 144.696 49.648 144.696C49.024 144.696 48.496 144.912 48.064 145.344ZM58.4313 144V144.912H56.3913V150H55.4313V144.912H53.3913V144H58.4313ZM59.4929 144H60.4529V152.4H59.4929V144ZM61.1129 145.356C60.6729 145.788 60.4529 146.34 60.4529 147.012C60.4529 147.676 60.6729 148.224 61.1129 148.656C61.5609 149.088 62.1049 149.304 62.7449 149.304C63.3849 149.304 63.9249 149.088 64.3649 148.656C64.8129 148.224 65.0369 147.676 65.0369 147.012C65.0369 146.34 64.8129 145.788 64.3649 145.356C63.9249 144.924 63.3849 144.708 62.7449 144.708C62.1049 144.708 61.5609 144.924 61.1129 145.356ZM60.8489 149.328C60.2809 148.712 59.9969 147.94 59.9969 147.012C59.9969 146.076 60.2809 145.304 60.8489 144.696C61.4169 144.088 62.1169 143.784 62.9489 143.784C63.8049 143.784 64.5249 144.088 65.1089 144.696C65.7009 145.304 65.9969 146.076 65.9969 147.012C65.9969 147.94 65.7009 148.712 65.1089 149.328C64.5249 149.936 63.8049 150.24 62.9489 150.24C62.1169 150.24 61.4169 149.936 60.8489 149.328ZM68.5252 145.344C68.0852 145.768 67.8652 146.316 67.8652 146.988C67.8652 147.66 68.0852 148.212 68.5252 148.644C68.9732 149.068 69.5172 149.28 70.1572 149.28C70.7972 149.28 71.3372 149.068 71.7772 148.644C72.2252 148.212 72.4492 147.66 72.4492 146.988C72.4492 146.316 72.2252 145.768 71.7772 145.344C71.3372 144.912 70.7972 144.696 70.1572 144.696C69.5172 144.696 68.9732 144.912 68.5252 145.344ZM67.8412 149.304C67.2172 148.696 66.9052 147.924 66.9052 146.988C66.9052 146.052 67.2172 145.28 67.8412 144.672C68.4732 144.064 69.2452 143.76 70.1572 143.76C71.0692 143.76 71.8372 144.064 72.4612 144.672C73.0932 145.28 73.4092 146.052 73.4092 146.988C73.4092 147.924 73.0932 148.696 72.4612 149.304C71.8372 149.912 71.0692 150.216 70.1572 150.216C69.2452 150.216 68.4732 149.912 67.8412 149.304ZM79.4592 144V150H78.4992V144H79.4592ZM75.5232 144V145.992C75.5232 146.44 75.6512 146.792 75.9072 147.048C76.1712 147.304 76.5072 147.432 76.9152 147.432C77.3552 147.432 77.7272 147.296 78.0312 147.024C78.3432 146.744 78.4992 146.408 78.4992 146.016H79.0032C79.0032 146.664 78.7792 147.22 78.3312 147.684C77.8832 148.14 77.3232 148.368 76.6512 148.368C76.0592 148.368 75.5632 148.168 75.1632 147.768C74.7632 147.36 74.5632 146.836 74.5632 146.196V144H75.5232ZM80.8444 150V144H81.8044V146.52H82.1164L84.5644 144H85.8124L82.9564 147L85.8124 150H84.5644L82.1164 147.516H81.8044V150H80.8444ZM91.4042 144H92.4722L88.9802 152.4H87.9122L88.9202 149.784L86.5322 144H87.6002L89.4962 148.704L91.4042 144ZM102.159 150H101.199V145.2L97.8985 150H96.7585V144H97.7185V148.68L101.007 144H102.159V150ZM108.158 145.344C107.718 145.768 107.498 146.316 107.498 146.988C107.498 147.66 107.718 148.212 108.158 148.644C108.606 149.068 109.15 149.28 109.79 149.28C110.43 149.28 110.97 149.068 111.41 148.644C111.858 148.212 112.082 147.66 112.082 146.988C112.082 146.316 111.858 145.768 111.41 145.344C110.97 144.912 110.43 144.696 109.79 144.696C109.15 144.696 108.606 144.912 108.158 145.344ZM107.474 149.304C106.85 148.696 106.538 147.924 106.538 146.988C106.538 146.052 106.85 145.28 107.474 144.672C108.106 144.064 108.878 143.76 109.79 143.76C110.702 143.76 111.47 144.064 112.094 144.672C112.726 145.28 113.042 146.052 113.042 146.988C113.042 147.924 112.726 148.696 112.094 149.304C111.47 149.912 110.702 150.216 109.79 150.216C108.878 150.216 108.106 149.912 107.474 149.304ZM113.848 149.088H120.412V151.392H119.452V150H114.808V151.392H113.848V149.088ZM114.136 149.088C114.512 149.096 114.8 148.98 115 148.74C115.208 148.492 115.312 148.184 115.312 147.816V144H119.572V150H118.612V144.936H116.272V147.984C116.272 148.48 116.084 148.912 115.708 149.28C115.332 149.64 114.848 149.82 114.256 149.82H113.908V149.088H114.136ZM121.438 150V144H122.398V146.532H126.142V144H127.102V150H126.142V147.444H122.398V150H121.438ZM133.881 150H132.921V145.2L129.621 150H128.481V144H129.441V148.68L132.729 144H133.881V150ZM135.266 150V144H136.394L138.746 147.96L141.098 144H142.226V150H141.266V145.392L139.082 149.112H138.422L136.226 145.392V150H135.266ZM146.856 150V144H147.816V149.088H151.344V144H152.304V149.088H153.048V151.392H152.088V150H146.856ZM157.47 144.876H155.058V146.568H157.578C157.85 146.568 158.078 146.496 158.262 146.352C158.446 146.2 158.538 146.012 158.538 145.788C158.538 145.524 158.434 145.308 158.226 145.14C158.026 144.964 157.774 144.876 157.47 144.876ZM157.59 147.372H155.058V149.124H157.59C157.894 149.124 158.146 149.044 158.346 148.884C158.554 148.716 158.658 148.512 158.658 148.272C158.658 148.008 158.554 147.792 158.346 147.624C158.146 147.456 157.894 147.372 157.59 147.372ZM157.71 150H154.098V144H157.59C158.134 144 158.586 144.16 158.946 144.48C159.314 144.792 159.498 145.188 159.498 145.668C159.498 145.932 159.426 146.176 159.282 146.4C159.146 146.616 158.954 146.784 158.706 146.904C158.986 147.04 159.206 147.236 159.366 147.492C159.534 147.748 159.618 148.036 159.618 148.356C159.618 148.82 159.434 149.212 159.066 149.532C158.706 149.844 158.254 150 157.71 150ZM165.795 146.544C165.747 145.984 165.519 145.532 165.111 145.188C164.703 144.844 164.211 144.672 163.635 144.672C163.083 144.672 162.607 144.844 162.207 145.188C161.815 145.524 161.583 145.976 161.511 146.544H165.795ZM161.511 147.42C161.583 147.988 161.823 148.444 162.231 148.788C162.639 149.132 163.123 149.304 163.683 149.304C164.115 149.304 164.507 149.204 164.859 149.004C165.211 148.796 165.475 148.512 165.651 148.152L166.539 148.5C166.275 149.028 165.887 149.448 165.375 149.76C164.871 150.064 164.311 150.216 163.695 150.216C162.799 150.216 162.043 149.912 161.427 149.304C160.819 148.688 160.515 147.916 160.515 146.988C160.515 146.06 160.815 145.292 161.415 144.684C162.015 144.068 162.751 143.76 163.623 143.76C164.503 143.76 165.247 144.06 165.855 144.66C166.463 145.252 166.767 146 166.767 146.904C166.767 147.048 166.747 147.22 166.707 147.42H161.511ZM172.607 144V144.912H170.567V150H169.607V144.912H167.567V144H172.607ZM175.049 145.344C174.609 145.768 174.389 146.316 174.389 146.988C174.389 147.66 174.609 148.212 175.049 148.644C175.497 149.068 176.041 149.28 176.681 149.28C177.321 149.28 177.861 149.068 178.301 148.644C178.749 148.212 178.973 147.66 178.973 146.988C178.973 146.316 178.749 145.768 178.301 145.344C177.861 144.912 177.321 144.696 176.681 144.696C176.041 144.696 175.497 144.912 175.049 145.344ZM174.365 149.304C173.741 148.696 173.429 147.924 173.429 146.988C173.429 146.052 173.741 145.28 174.365 144.672C174.997 144.064 175.769 143.76 176.681 143.76C177.593 143.76 178.361 144.064 178.985 144.672C179.617 145.28 179.933 146.052 179.933 146.988C179.933 147.924 179.617 148.696 178.985 149.304C178.361 149.912 177.593 150.216 176.681 150.216C175.769 150.216 174.997 149.912 174.365 149.304ZM181.087 150V144H182.215L184.567 147.96L186.919 144H188.047V150H187.087V145.392L184.903 149.112H184.243L182.047 145.392V150H181.087Z" fill="#001806"/>
<path d="M64.288 55.4838V54.0918V52.6998C64.288 52.6038 64.288 52.5558 64.288 52.4598C64.096 51.8358 63.904 51.6918 63.328 51.4998C63.232 51.4998 63.184 51.4518 63.088 51.4518H62.464C62.032 51.4518 61.696 51.1158 61.696 50.7318V50.0598C61.696 50.0118 61.696 49.9158 61.648 49.8678C61.456 49.2438 61.312 49.0518 60.688 48.8598C60.64 48.8598 60.544 48.8598 60.448 48.8598H59.056H56.464H55.024C54.976 48.8598 54.88 48.8598 54.832 48.8598C54.208 49.0518 54.064 49.2438 53.872 49.8678C53.824 49.9158 53.824 50.0118 53.824 50.0598V51.4518V54.0918V55.9638C53.824 56.3478 53.488 56.6838 53.056 56.6838H52.432C52.336 56.6838 52.288 56.7318 52.192 56.7318C51.616 56.9238 51.424 57.1158 51.232 57.6918C51.232 57.7878 51.232 57.8358 51.232 57.9318V59.3238V61.9638V63.3558C51.232 63.4038 51.232 63.4998 51.232 63.5478C51.424 64.1718 51.616 64.3638 52.192 64.5078C52.288 64.5558 52.336 64.5558 52.432 64.5558H53.824H56.464H59.056H60.448C60.544 64.5558 60.64 64.5558 60.688 64.5078C61.312 64.3638 61.456 64.1718 61.648 63.5478C61.696 63.4998 61.696 63.4038 61.696 63.3558V61.9638V59.3238V57.4518C61.696 57.0678 62.032 56.6838 62.464 56.6838H63.184C63.904 56.4918 64.096 56.3478 64.288 55.7238C64.288 55.6278 64.288 55.5798 64.288 55.4838ZM65.392 51.4518H66.16C66.592 51.4518 66.928 51.7878 66.928 52.2198V54.0918V55.9638C66.928 56.3478 66.592 56.6838 66.16 56.6838H65.536C65.44 56.6838 65.392 56.7318 65.296 56.7318C64.672 56.9238 64.528 57.1158 64.336 57.6918C64.336 57.7878 64.288 57.8358 64.288 57.9318V59.3238V61.9638V63.7878C64.288 64.2198 63.952 64.5558 63.52 64.5558H62.8C62.08 64.7478 61.888 64.8918 61.696 65.5638C61.696 65.6118 61.696 65.7078 61.696 65.7558V66.4278C61.696 66.8598 61.36 67.1958 60.928 67.1958H59.056H56.464H53.824H51.952C51.568 67.1958 51.232 66.8598 51.232 66.4278V65.7558C51.232 65.7078 51.184 65.6118 51.184 65.5638C50.992 64.8918 50.8 64.7478 50.08 64.5558H50.128H49.696C49.024 64.7478 48.832 64.8918 48.64 65.5638C48.592 65.6118 48.592 65.7078 48.592 65.7558V67.1958V69.7878V72.4278V75.0198V77.6598V79.5318C48.592 79.9158 48.256 80.2518 47.824 80.2518H46.72C46.336 80.2518 46 79.9158 46 79.5318V77.6598V75.0198V72.4278V69.7878V67.1958V64.5558V62.6838C46 62.2998 46.336 61.9638 46.72 61.9638H47.392C47.44 61.9638 47.536 61.9158 47.584 61.9158C48.208 61.7238 48.4 61.5318 48.544 60.9558C48.592 60.8598 48.592 60.8118 48.592 60.7158V59.3238V57.4518C48.592 57.0678 48.928 56.6838 49.36 56.6838H50.128C50.128 56.6838 50.128 56.6838 50.08 56.6838C50.8 56.4918 50.992 56.3478 51.184 55.7238C51.184 55.6278 51.232 55.5798 51.232 55.4838V54.0918V51.4518V50.0598C51.232 50.0118 51.184 49.9158 51.184 49.8678C50.992 49.1958 50.8 49.0518 50.08 48.8598C50.128 48.8598 50.128 48.8598 50.128 48.8598H49.36C48.928 48.8598 48.592 48.5238 48.592 48.0918V46.9878C48.592 46.5558 48.928 46.2198 49.36 46.2198H50.464C50.848 46.2198 51.232 46.5558 51.232 46.9878V47.6598C51.232 47.7078 51.232 47.8038 51.232 47.8518C51.424 48.4758 51.616 48.6198 52.192 48.8118C52.288 48.8598 52.336 48.8598 52.432 48.8598H52.72C53.44 48.6678 53.584 48.4758 53.776 47.8518C53.824 47.8038 53.824 47.7078 53.824 47.6118V46.9878C53.824 46.5558 54.16 46.2198 54.592 46.2198H56.464H59.056H60.928C61.36 46.2198 61.696 46.5558 61.696 46.9878V47.6118C61.696 47.7078 61.696 47.8038 61.696 47.8518C61.888 48.4758 62.08 48.6678 62.8 48.8598H63.52C63.952 48.8598 64.288 49.1958 64.288 49.6278V50.2518C64.288 50.3478 64.336 50.3958 64.336 50.4438C64.528 51.1158 64.72 51.2598 65.392 51.4518ZM77.6477 64.9398H80.2878H81.6797C81.7278 64.9398 81.8237 64.9398 81.8718 64.8918C82.4957 64.6998 82.6877 64.5558 82.8798 63.9318C82.8798 63.8838 82.8798 63.7878 82.8798 63.7398V62.2998V59.7078V58.3158C82.8798 58.2198 82.8798 58.1718 82.8798 58.0758C82.6877 57.4518 82.4957 57.3078 81.8718 57.1158C81.8237 57.0678 81.7278 57.0678 81.6797 57.0678H80.2878H77.6477H75.0557H73.6157C73.5677 57.0678 73.4717 57.0678 73.4237 57.1158C72.7997 57.3078 72.6077 57.4518 72.4637 58.0758C72.4157 58.1718 72.4157 58.2198 72.4157 58.3158V59.7078V62.2998V63.7398C72.4157 63.7878 72.4157 63.8838 72.4637 63.9318C72.6077 64.5558 72.7997 64.6998 73.4237 64.8918C73.4717 64.9398 73.5677 64.9398 73.6157 64.9398H75.0557H77.6477ZM88.1118 63.9318C88.1118 63.8838 88.1118 63.7878 88.1118 63.7398V63.0678C88.1118 62.6358 88.4478 62.2998 88.8798 62.2998H89.9838C90.4158 62.2998 90.7518 62.6358 90.7518 63.0678V64.1718C90.7518 64.6038 90.4158 64.9398 89.9838 64.9398H89.2158C88.5438 65.1318 88.3517 65.2758 88.1598 65.9478C88.1598 65.9958 88.1118 66.0918 88.1118 66.1398V66.8118C88.1118 67.1958 87.7758 67.5318 87.3438 67.5318H86.2878C85.8558 67.5318 85.5198 67.1958 85.5198 66.8118V66.1398C85.5198 66.0918 85.5198 65.9958 85.4717 65.9478C85.2798 65.2758 85.0878 65.1318 84.4158 64.9398H83.9838C83.3118 65.1318 83.1198 65.2758 82.9277 65.9478C82.8798 65.9958 82.8798 66.0918 82.8798 66.1398V66.8118C82.8798 67.1958 82.5438 67.5318 82.1118 67.5318H80.2878H77.6477H75.0557H73.1837C72.7517 67.5318 72.4157 67.1958 72.4157 66.8118V66.1398C72.4157 66.0918 72.4157 65.9958 72.3677 65.9478C72.1757 65.2758 72.0317 65.1318 71.3117 64.9398H70.5437C70.1597 64.9398 69.8237 64.6038 69.8237 64.1718V62.2998V59.7078V57.8358C69.8237 57.4038 70.1597 57.0678 70.5437 57.0678H71.2157C71.2637 57.0678 71.3597 57.0678 71.4077 57.0678C72.0317 56.8758 72.2237 56.6838 72.3677 56.0598C72.4157 56.0118 72.4157 55.9158 72.4157 55.8678V55.2438C72.4157 54.8118 72.7517 54.4758 73.1837 54.4758H75.0557H77.6477H80.2878H82.1118C82.5438 54.4758 82.8798 54.8118 82.8798 55.2438V55.8678C82.8798 55.9158 82.8798 56.0118 82.9277 56.0598C83.1198 56.6838 83.2637 56.8758 83.8878 57.0678C83.9838 57.0678 84.0317 57.0678 84.1277 57.0678H84.2718C84.3677 57.0678 84.4158 57.0678 84.5118 57.0678C85.1357 56.8758 85.2798 56.6838 85.4717 56.0598C85.5198 56.0118 85.5198 55.9158 85.5198 55.8678V54.4758V51.8358V50.4438C85.5198 50.3478 85.5198 50.2998 85.4717 50.2038C85.2798 49.6278 85.1357 49.4358 84.5118 49.2438C84.4158 49.2438 84.3677 49.2438 84.2718 49.2438H82.8798H80.2878H77.6477H76.2557C76.1597 49.2438 76.1118 49.2438 76.0157 49.2438C75.4397 49.4358 75.2477 49.6278 75.0557 50.2038C75.0557 50.2998 75.0557 50.3478 75.0557 50.4438V51.0678C75.0557 51.4998 74.6717 51.8358 74.2877 51.8358H73.1837C72.7517 51.8358 72.4157 51.4998 72.4157 51.0678V49.9638C72.4157 49.5798 72.7517 49.2438 73.1837 49.2438H73.8077C73.9037 49.2438 73.9517 49.1958 74.0477 49.1958C74.6717 49.0038 74.8157 48.8598 75.0077 48.2358C75.0077 48.1398 75.0557 48.0918 75.0557 47.9958V47.3718C75.0557 46.9398 75.3917 46.6038 75.7757 46.6038H77.6477H80.2878H82.8798H84.7518C85.1838 46.6038 85.5198 46.9398 85.5198 47.3718V47.9958C85.5198 48.0918 85.5198 48.1398 85.5198 48.2358C85.7118 48.8598 85.9037 49.0038 86.5278 49.1958C86.5757 49.1958 86.6718 49.2438 86.7198 49.2438H87.3438C87.7758 49.2438 88.1118 49.5798 88.1118 49.9638V51.8358V54.4758V56.2998C88.1118 56.7318 87.7758 57.0678 87.3438 57.0678H86.7198C86.6718 57.0678 86.5757 57.0678 86.5278 57.1158C85.9037 57.3078 85.7118 57.4518 85.5198 58.0758C85.5198 58.1718 85.5198 58.2198 85.5198 58.3158V59.7078V62.2998V63.7398C85.5198 63.7878 85.5198 63.8838 85.5198 63.9318C85.7118 64.5558 85.9037 64.6998 86.5278 64.8918C86.5757 64.9398 86.6718 64.9398 86.7198 64.9398H86.9117C87.0078 64.9398 87.0558 64.9398 87.1518 64.8918C87.7278 64.6998 87.9197 64.5558 88.1118 63.9318ZM110.448 49.2438H111.167C111.599 49.2438 111.935 49.5798 111.935 49.9638V51.0678C111.935 51.4998 111.599 51.8358 111.167 51.8358H110.112C109.68 51.8358 109.344 51.4998 109.344 51.0678V50.4438C109.344 50.3478 109.344 50.2998 109.295 50.2038C109.104 49.6278 108.959 49.4358 108.336 49.2438C108.287 49.2438 108.191 49.2438 108.143 49.2438H106.703H104.111H102.671C102.623 49.2438 102.527 49.2438 102.479 49.2438C101.855 49.4358 101.711 49.6278 101.519 50.2038C101.471 50.2998 101.471 50.3478 101.471 50.4438V51.8358V54.4758V56.2998C101.471 56.7318 101.135 57.0678 100.703 57.0678H100.079C99.9835 57.0678 99.9355 57.0678 99.8395 57.1158C99.2635 57.3078 99.0715 57.4518 98.8795 58.0758C98.8795 58.1238 98.8795 58.2198 98.8795 58.3158V59.7078V61.5318C98.8795 61.9638 98.4955 62.2998 98.1115 62.2998H97.4395C97.3915 62.2998 97.2955 62.2998 97.2475 62.3478C96.6235 62.5398 96.4315 62.6838 96.2875 63.3078C96.2395 63.4038 96.2395 63.4518 96.2395 63.5478V64.9398V66.8118C96.2395 67.1958 95.9035 67.5318 95.4715 67.5318H94.3675C93.9835 67.5318 93.6475 67.1958 93.6475 66.8118V64.9398V63.0678C93.6475 62.6358 93.9835 62.2998 94.3675 62.2998H95.1355C95.8555 62.1078 95.9995 61.9638 96.1915 61.2918C96.2395 61.2438 96.2395 61.1478 96.2395 61.0998V59.7078V57.8358C96.2395 57.4038 96.5755 57.0678 97.0075 57.0678H97.6315C97.7275 57.0678 97.7755 57.0678 97.8715 57.0678C98.4955 56.8758 98.6395 56.6838 98.8315 56.0598C98.8315 56.0118 98.8795 55.9158 98.8795 55.8678V54.4758V51.8358V50.4438C98.8795 50.3478 98.8315 50.2998 98.8315 50.2038C98.6395 49.6278 98.4955 49.4358 97.8715 49.2438C97.7755 49.2438 97.7275 49.2438 97.6315 49.2438H97.0075C96.5755 49.2438 96.2395 48.8598 96.2395 48.4758V47.3718C96.2395 46.9398 96.5755 46.6038 97.0075 46.6038H98.1115C98.4955 46.6038 98.8795 46.9398 98.8795 47.3718V47.9958C98.8795 48.0918 98.8795 48.1398 98.8795 48.2358C99.0715 48.8598 99.2635 49.0038 99.9835 49.2438H100.367C101.087 49.0038 101.279 48.8598 101.423 48.2358C101.471 48.1398 101.471 48.0918 101.471 47.9958V47.3718C101.471 46.9398 101.807 46.6038 102.239 46.6038H104.111H106.703H108.576C109.008 46.6038 109.344 46.9398 109.344 47.3718V47.9958C109.344 48.0918 109.344 48.1398 109.344 48.2358C109.536 48.8598 109.727 49.0038 110.448 49.2438ZM119.248 64.9398H121.888H123.28C123.328 64.9398 123.424 64.9398 123.472 64.8918C124.096 64.6998 124.288 64.5558 124.48 63.9318C124.48 63.8838 124.48 63.7878 124.48 63.7398V62.2998V59.7078V58.3158C124.48 58.2198 124.48 58.1718 124.48 58.0758C124.288 57.4518 124.096 57.3078 123.472 57.1158C123.424 57.0678 123.328 57.0678 123.28 57.0678H121.888H119.248H116.656H115.216C115.168 57.0678 115.072 57.0678 115.024 57.1158C114.4 57.3078 114.208 57.4518 114.064 58.0758C114.016 58.1718 114.016 58.2198 114.016 58.3158V59.7078V62.2998V63.7398C114.016 63.7878 114.016 63.8838 114.064 63.9318C114.208 64.5558 114.4 64.6998 115.024 64.8918C115.072 64.9398 115.168 64.9398 115.216 64.9398H116.656H119.248ZM129.712 63.9318C129.712 63.8838 129.712 63.7878 129.712 63.7398V63.0678C129.712 62.6358 130.048 62.2998 130.48 62.2998H131.584C132.016 62.2998 132.352 62.6358 132.352 63.0678V64.1718C132.352 64.6038 132.016 64.9398 131.584 64.9398H130.816C130.144 65.1318 129.952 65.2758 129.76 65.9478C129.76 65.9958 129.712 66.0918 129.712 66.1398V66.8118C129.712 67.1958 129.376 67.5318 128.944 67.5318H127.888C127.456 67.5318 127.12 67.1958 127.12 66.8118V66.1398C127.12 66.0918 127.12 65.9958 127.072 65.9478C126.88 65.2758 126.688 65.1318 126.016 64.9398H125.584C124.912 65.1318 124.72 65.2758 124.528 65.9478C124.48 65.9958 124.48 66.0918 124.48 66.1398V66.8118C124.48 67.1958 124.144 67.5318 123.712 67.5318H121.888H119.248H116.656H114.784C114.352 67.5318 114.016 67.1958 114.016 66.8118V66.1398C114.016 66.0918 114.016 65.9958 113.968 65.9478C113.776 65.2758 113.632 65.1318 112.912 64.9398H112.144C111.76 64.9398 111.424 64.6038 111.424 64.1718V62.2998V59.7078V57.8358C111.424 57.4038 111.76 57.0678 112.144 57.0678H112.816C112.864 57.0678 112.96 57.0678 113.008 57.0678C113.632 56.8758 113.824 56.6838 113.968 56.0598C114.016 56.0118 114.016 55.9158 114.016 55.8678V55.2438C114.016 54.8118 114.352 54.4758 114.784 54.4758H116.656H119.248H121.888H123.712C124.144 54.4758 124.48 54.8118 124.48 55.2438V55.8678C124.48 55.9158 124.48 56.0118 124.528 56.0598C124.72 56.6838 124.864 56.8758 125.488 57.0678C125.584 57.0678 125.632 57.0678 125.728 57.0678H125.872C125.968 57.0678 126.016 57.0678 126.112 57.0678C126.736 56.8758 126.88 56.6838 127.072 56.0598C127.12 56.0118 127.12 55.9158 127.12 55.8678V54.4758V51.8358V50.4438C127.12 50.3478 127.12 50.2998 127.072 50.2038C126.88 49.6278 126.736 49.4358 126.112 49.2438C126.016 49.2438 125.968 49.2438 125.872 49.2438H124.48H121.888H119.248H117.856C117.76 49.2438 117.712 49.2438 117.616 49.2438C117.04 49.4358 116.848 49.6278 116.656 50.2038C116.656 50.2998 116.656 50.3478 116.656 50.4438V51.0678C116.656 51.4998 116.272 51.8358 115.888 51.8358H114.784C114.352 51.8358 114.016 51.4998 114.016 51.0678V49.9638C114.016 49.5798 114.352 49.2438 114.784 49.2438H115.408C115.504 49.2438 115.552 49.1958 115.648 49.1958C116.272 49.0038 116.416 48.8598 116.608 48.2358C116.608 48.1398 116.656 48.0918 116.656 47.9958V47.3718C116.656 46.9398 116.992 46.6038 117.376 46.6038H119.248H121.888H124.48H126.352C126.784 46.6038 127.12 46.9398 127.12 47.3718V47.9958C127.12 48.0918 127.12 48.1398 127.12 48.2358C127.312 48.8598 127.504 49.0038 128.128 49.1958C128.176 49.1958 128.272 49.2438 128.32 49.2438H128.944C129.376 49.2438 129.712 49.5798 129.712 49.9638V51.8358V54.4758V56.2998C129.712 56.7318 129.376 57.0678 128.944 57.0678H128.32C128.272 57.0678 128.176 57.0678 128.128 57.1158C127.504 57.3078 127.312 57.4518 127.12 58.0758C127.12 58.1718 127.12 58.2198 127.12 58.3158V59.7078V62.2998V63.7398C127.12 63.7878 127.12 63.8838 127.12 63.9318C127.312 64.5558 127.504 64.6998 128.128 64.8918C128.176 64.9398 128.272 64.9398 128.32 64.9398H128.512C128.608 64.9398 128.656 64.9398 128.752 64.8918C129.328 64.6998 129.52 64.5558 129.712 63.9318ZM152.048 49.2438H152.768C153.2 49.2438 153.536 49.5798 153.536 49.9638V51.0678C153.536 51.4998 153.2 51.8358 152.768 51.8358H151.712C151.28 51.8358 150.944 51.4998 150.944 51.0678V50.4438C150.944 50.3478 150.944 50.2998 150.896 50.2038C150.704 49.6278 150.56 49.4358 149.936 49.2438C149.888 49.2438 149.792 49.2438 149.744 49.2438H148.304H145.712H144.272C144.224 49.2438 144.128 49.2438 144.08 49.2438C143.456 49.4358 143.312 49.6278 143.12 50.2038C143.072 50.2998 143.072 50.3478 143.072 50.4438V51.0678C143.072 51.4998 142.736 51.8358 142.304 51.8358H141.68C141.584 51.8358 141.536 51.8358 141.44 51.8838C140.864 52.0758 140.672 52.2198 140.48 52.8438C140.48 52.8918 140.48 52.9878 140.48 53.0358V53.2278C140.48 53.3238 140.48 53.3718 140.48 53.4678C140.672 54.0918 140.864 54.2358 141.44 54.4278C141.536 54.4278 141.584 54.4758 141.68 54.4758H143.072H145.712H147.536C147.968 54.4758 148.304 54.8118 148.304 55.1958V55.8678C148.304 55.9158 148.304 56.0118 148.352 56.0598C148.544 56.6838 148.688 56.8758 149.312 57.0678C149.408 57.0678 149.456 57.0678 149.552 57.0678H150.176C150.608 57.0678 150.944 57.4038 150.944 57.8358V59.7078V61.5318C150.944 61.9638 150.608 62.2998 150.176 62.2998H149.504C149.456 62.2998 149.36 62.2998 149.312 62.3478C148.688 62.5398 148.544 62.6838 148.352 63.3078C148.304 63.4038 148.304 63.4518 148.304 63.5478V64.1718C148.304 64.6038 147.968 64.9398 147.536 64.9398H146.912C146.816 64.9398 146.768 64.9398 146.672 64.9398C146.096 65.1318 145.904 65.3238 145.712 65.9478C145.712 65.9958 145.712 66.0918 145.712 66.1398V66.8118C145.712 67.1958 145.376 67.5318 144.944 67.5318H143.072H140.48H138.608C138.176 67.5318 137.84 67.1958 137.84 66.8118V66.1398C137.84 66.0918 137.84 65.9958 137.792 65.9478C137.648 65.3238 137.456 65.1318 136.832 64.9398C136.784 64.9398 136.688 64.9398 136.64 64.9398H135.968C135.584 64.9398 135.248 64.6038 135.248 64.1718V63.0678C135.248 62.6358 135.584 62.2998 135.968 62.2998H137.072C137.504 62.2998 137.84 62.6358 137.84 63.0678V63.6918C137.84 63.7878 137.84 63.8358 137.888 63.9318C138.08 64.5558 138.272 64.7478 138.944 64.9398H140.48H143.072H144.608C145.28 64.7478 145.472 64.5558 145.664 63.9318C145.664 63.8358 145.712 63.7878 145.712 63.6918V63.0678C145.712 62.6358 146.048 62.2998 146.48 62.2998H147.2C147.92 62.1078 148.112 61.9638 148.304 61.2918C148.304 61.2438 148.304 61.1478 148.304 61.0998V59.7078V58.3158C148.304 58.2198 148.304 58.1238 148.304 58.0758C148.112 57.4518 147.92 57.3078 147.296 57.1158C147.248 57.0678 147.152 57.0678 147.104 57.0678H145.712H143.072H141.2C140.816 57.0678 140.48 56.7318 140.48 56.2998V55.6758C140.48 55.5798 140.432 55.5318 140.432 55.4358C140.24 54.8598 140.096 54.6678 139.472 54.4758C139.376 54.4758 139.328 54.4758 139.232 54.4758H138.608C138.176 54.4758 137.84 54.1398 137.84 53.7078V52.6038C137.84 52.1718 138.176 51.8358 138.608 51.8358H139.232C139.328 51.8358 139.376 51.8358 139.472 51.7878C140.096 51.6438 140.24 51.4518 140.432 50.8278C140.432 50.7798 140.48 50.6838 140.48 50.6358V49.9638C140.48 49.5798 140.816 49.2438 141.2 49.2438H141.968C142.688 49.0038 142.832 48.8598 143.024 48.2358C143.072 48.1398 143.072 48.0918 143.072 47.9958V47.3718C143.072 46.9398 143.408 46.6038 143.84 46.6038H145.712H148.304H150.176C150.608 46.6038 150.944 46.9398 150.944 47.3718V47.9958C150.944 48.0918 150.944 48.1398 150.944 48.2358C151.136 48.8598 151.328 49.0038 152.048 49.2438ZM174.735 48.3798C174.735 48.4758 174.783 48.5238 174.783 48.6198C174.975 49.1958 175.119 49.3878 175.743 49.5798C175.839 49.5798 175.887 49.5798 175.983 49.5798H176.607C177.039 49.5798 177.375 49.9158 177.375 50.3478V52.2198V54.8118V56.6838C177.375 57.1158 177.039 57.4518 176.607 57.4518H175.983C175.887 57.4518 175.839 57.4518 175.743 57.4998C175.119 57.6438 174.975 57.8358 174.783 58.4598C174.783 58.5078 174.735 58.6038 174.735 58.6518V60.0918V61.9158C174.735 62.3478 174.399 62.6838 173.967 62.6838H173.343C173.295 62.6838 173.199 62.6838 173.151 62.7318C172.527 62.9238 172.335 63.0678 172.143 63.6918C172.143 63.7398 172.143 63.8358 172.143 63.8838V65.3238V67.1478C172.143 67.5798 171.807 67.9158 171.375 67.9158H170.271C169.839 67.9158 169.503 67.5798 169.503 67.1478V65.3238V63.4518C169.503 63.0198 169.839 62.6838 170.271 62.6838H170.895C170.991 62.6838 171.039 62.6838 171.135 62.6358C171.759 62.4918 171.903 62.2998 172.095 61.6758C172.143 61.6278 172.143 61.5318 172.143 61.4838V60.0918V58.2198C172.143 57.7878 172.479 57.4518 172.911 57.4518H173.535C173.631 57.4518 173.679 57.4518 173.727 57.4038C174.351 57.2598 174.543 57.0678 174.735 56.4438C174.735 56.3958 174.735 56.2998 174.735 56.2518V54.8118V52.2198V50.8278C174.735 50.7318 174.735 50.6838 174.735 50.5878C174.543 49.9638 174.351 49.8198 173.727 49.6278C173.679 49.6278 173.631 49.5798 173.535 49.5798H172.143H169.503H166.911H165.471C165.423 49.5798 165.327 49.6278 165.279 49.6278C164.655 49.8198 164.511 49.9638 164.319 50.5878C164.271 50.6838 164.271 50.7318 164.271 50.8278V52.2198V54.8118V56.6838C164.271 57.1158 163.935 57.4518 163.503 57.4518H162.879C162.783 57.4518 162.735 57.4518 162.639 57.4998C162.063 57.6438 161.871 57.8358 161.679 58.4598C161.679 58.5078 161.679 58.6038 161.679 58.6518V60.0918V61.9158C161.679 62.3478 161.295 62.6838 160.911 62.6838H160.239C160.191 62.6838 160.095 62.6838 160.047 62.7318C159.423 62.9238 159.231 63.0678 159.087 63.6918C159.039 63.7398 159.039 63.8358 159.039 63.8838V65.3238V67.1478C159.039 67.5798 158.703 67.9158 158.271 67.9158H157.167C156.783 67.9158 156.447 67.5798 156.447 67.1478V65.3238V63.4518C156.447 63.0198 156.783 62.6838 157.167 62.6838H157.839C157.887 62.6838 157.983 62.6838 158.031 62.6358C158.655 62.4918 158.847 62.2998 158.991 61.6758C159.039 61.6278 159.039 61.5318 159.039 61.4838V60.0918V58.2198C159.039 57.7878 159.375 57.4518 159.807 57.4518H160.431C160.527 57.4518 160.575 57.4518 160.671 57.4038C161.295 57.2598 161.439 57.0678 161.631 56.4438C161.631 56.3958 161.679 56.2998 161.679 56.2518V54.8118V52.2198V49.5798V46.9878V44.3478V41.7558V40.3638C161.679 40.2678 161.631 40.2198 161.631 40.1238C161.439 39.4998 161.295 39.3558 160.671 39.1638C160.575 39.1158 160.527 39.1158 160.431 39.1158H159.807C159.375 39.1158 159.039 38.7798 159.039 38.3478V37.2918C159.039 36.8598 159.375 36.5238 159.807 36.5238H160.431C160.527 36.5238 160.575 36.4758 160.671 36.4758C161.295 36.2838 161.439 36.1398 161.631 35.5158C161.631 35.4198 161.679 35.3718 161.679 35.2758V34.6518C161.679 34.2198 162.015 33.8838 162.399 33.8838H163.503C163.935 33.8838 164.271 34.2198 164.271 34.6518V36.5238V39.1158V41.7558V44.3478V45.7878C164.271 45.8358 164.271 45.9318 164.319 45.9798C164.511 46.6038 164.655 46.7478 165.279 46.9398C165.327 46.9878 165.423 46.9878 165.471 46.9878H166.911H169.503H172.143H173.967C174.399 46.9878 174.735 47.3238 174.735 47.7558V48.3798ZM198.559 49.0518V47.1798C198.559 46.7478 198.895 46.4118 199.327 46.4118H200.431C200.863 46.4118 201.199 46.7478 201.199 47.1798V49.0518V50.8758C201.199 51.3078 200.863 51.6438 200.431 51.6438H199.807C199.711 51.6438 199.663 51.6438 199.567 51.6918C198.943 51.8838 198.799 52.0278 198.607 52.6518C198.607 52.7478 198.559 52.7958 198.559 52.8918V54.2838V56.1078C198.559 56.5398 198.223 56.8758 197.791 56.8758H197.071C196.351 57.0678 196.159 57.2598 195.967 57.8838C195.967 57.9798 195.967 58.0278 195.967 58.1238V59.5158V62.1078V63.5478C195.967 63.5958 195.967 63.6918 195.967 63.7398C196.159 64.3638 196.351 64.5558 196.975 64.6998C197.023 64.7478 197.119 64.7478 197.167 64.7478H197.359C197.455 64.7478 197.503 64.7478 197.551 64.6998C198.175 64.5558 198.367 64.3638 198.559 63.7398C198.559 63.6918 198.559 63.5958 198.559 63.5478V62.8758C198.559 62.4438 198.895 62.1078 199.327 62.1078H200.431C200.863 62.1078 201.199 62.4438 201.199 62.8758V63.9798C201.199 64.4118 200.863 64.7478 200.431 64.7478H199.807C199.711 64.7478 199.663 64.7478 199.567 64.7958C198.943 64.9398 198.799 65.1318 198.607 65.7558C198.607 65.8038 198.559 65.8998 198.559 65.9478V66.6198C198.559 67.0038 198.223 67.3398 197.791 67.3398H196.735C196.303 67.3398 195.967 67.0038 195.967 66.6198V65.9478C195.967 65.8998 195.967 65.8038 195.919 65.7558C195.727 65.1318 195.583 64.9398 194.959 64.7958C194.863 64.7478 194.815 64.7478 194.719 64.7478H194.575C194.479 64.7478 194.431 64.7478 194.335 64.7958C193.711 64.9398 193.567 65.1318 193.375 65.7558C193.327 65.8038 193.327 65.8998 193.327 65.9478V66.6198C193.327 67.0038 192.991 67.3398 192.559 67.3398H190.735H188.095H185.503H183.631C183.199 67.3398 182.863 67.0038 182.863 66.6198V65.9478C182.863 65.8998 182.863 65.8038 182.815 65.7558C182.671 65.1318 182.479 64.9398 181.855 64.7958C181.807 64.7478 181.711 64.7478 181.663 64.7478H180.991C180.607 64.7478 180.271 64.4118 180.271 63.9798V62.1078V60.2838C180.271 59.8518 180.607 59.5158 180.991 59.5158H181.663C181.711 59.5158 181.807 59.5158 181.855 59.4678C182.479 59.2758 182.671 59.1318 182.815 58.5078C182.863 58.4598 182.863 58.3638 182.863 58.3158V56.8758V54.2838V52.4118C182.863 51.9798 183.199 51.6438 183.631 51.6438H184.399C184.399 51.6438 184.399 51.6438 184.351 51.6438C185.071 51.4518 185.263 51.3078 185.455 50.6358C185.455 50.5878 185.503 50.4918 185.503 50.4438V49.0518V47.1798C185.503 46.7478 185.839 46.4118 186.223 46.4118H187.327C187.759 46.4118 188.095 46.7478 188.095 47.1798V49.0518V50.8758C188.095 51.3078 187.759 51.6438 187.327 51.6438H186.703C186.607 51.6438 186.559 51.6438 186.463 51.6918C185.887 51.8838 185.695 52.0278 185.503 52.6518C185.503 52.7478 185.503 52.7958 185.503 52.8918V54.2838V56.8758V58.7478C185.503 59.1798 185.167 59.5158 184.735 59.5158H183.967C183.295 59.7078 183.103 59.8518 182.911 60.5238C182.863 60.5718 182.863 60.6678 182.863 60.7158V62.1078V63.5478C182.863 63.5958 182.863 63.6918 182.911 63.7398C183.055 64.3638 183.247 64.5558 183.871 64.6998C183.919 64.7478 184.015 64.7478 184.063 64.7478H185.503H188.095H190.735H192.127C192.175 64.7478 192.271 64.7478 192.319 64.6998C192.943 64.5558 193.135 64.3638 193.327 63.7398C193.327 63.6918 193.327 63.5958 193.327 63.5478V62.1078V59.5158V57.6438C193.327 57.2118 193.663 56.8758 194.095 56.8758H194.719C194.815 56.8758 194.863 56.8758 194.959 56.8758C195.583 56.6838 195.727 56.4918 195.919 55.8678C195.967 55.8198 195.967 55.7238 195.967 55.6758V54.2838V52.4118C195.967 51.9798 196.303 51.6438 196.735 51.6438H197.455C198.175 51.4518 198.367 51.3078 198.559 50.6358C198.559 50.5878 198.559 50.4918 198.559 50.4438V49.0518ZM214.942 49.0038C214.99 49.0038 215.086 49.0518 215.134 49.0518H216.574H218.398C218.83 49.0518 219.166 49.3878 219.166 49.7718V50.8758C219.166 51.3078 218.83 51.6438 218.398 51.6438H216.574H215.134C215.086 51.6438 214.99 51.6438 214.942 51.6918C214.318 51.8838 214.174 52.0278 213.982 52.6518C213.934 52.7478 213.934 52.7958 213.934 52.8918V53.5158C213.934 53.9478 213.598 54.2838 213.166 54.2838H212.542C212.446 54.2838 212.398 54.2838 212.302 54.2838C211.726 54.4758 211.534 54.6678 211.342 55.2918C211.342 55.3398 211.342 55.4358 211.342 55.4838V56.8758V59.5158V62.1078V63.5478C211.342 63.5958 211.342 63.6918 211.342 63.7398C211.534 64.3638 211.726 64.5558 212.302 64.6998C212.398 64.7478 212.446 64.7478 212.542 64.7478H213.934H215.326C215.422 64.7478 215.47 64.7478 215.566 64.6998C216.19 64.5558 216.334 64.3638 216.526 63.7398C216.526 63.6918 216.574 63.5958 216.574 63.5478V62.8758C216.574 62.4438 216.91 62.1078 217.342 62.1078H218.398C218.83 62.1078 219.166 62.4438 219.166 62.8758V63.9798C219.166 64.4118 218.83 64.7478 218.398 64.7478H217.774C217.726 64.7478 217.63 64.7478 217.582 64.7958C216.958 64.9398 216.766 65.1318 216.574 65.7558C216.574 65.8038 216.574 65.8998 216.574 65.9478V66.6198C216.574 67.0038 216.238 67.3398 215.806 67.3398H213.934H212.062C211.678 67.3398 211.342 67.0038 211.342 66.6198V65.9478C211.342 65.8998 211.294 65.8038 211.294 65.7558C211.102 65.1318 210.958 64.9398 210.334 64.7958C210.238 64.7478 210.19 64.7478 210.094 64.7478H209.47C209.038 64.7478 208.702 64.4118 208.702 63.9798V62.1078V59.5158V56.8758V55.0518C208.702 54.6198 209.038 54.2838 209.47 54.2838H210.094C210.19 54.2838 210.238 54.2838 210.334 54.2358C210.958 54.0438 211.102 53.8998 211.294 53.2758C211.294 53.1798 211.342 53.1318 211.342 53.0358V52.4118C211.342 51.9798 211.678 51.6438 212.062 51.6438H212.734C212.782 51.6438 212.878 51.6438 212.926 51.6438C213.55 51.4518 213.742 51.2598 213.886 50.6358C213.934 50.5878 213.934 50.4918 213.934 50.4438V50.2518C213.934 50.1558 213.934 50.1078 213.886 50.0598C213.742 49.3878 213.55 49.2438 212.83 49.0518H211.342H208.702H206.83C206.446 49.0518 206.11 48.7158 206.11 48.2838V47.1798C206.11 46.7478 206.446 46.4118 206.83 46.4118H208.702H210.094C210.19 46.4118 210.238 46.4118 210.334 46.3638C210.958 46.2198 211.102 46.0278 211.294 45.4038C211.294 45.3558 211.342 45.2598 211.342 45.2118V43.8198V41.9478C211.342 41.5158 211.678 41.1798 212.062 41.1798H213.166C213.598 41.1798 213.934 41.5158 213.934 41.9478V43.8198V46.4118V47.8038C213.934 47.8998 213.934 47.9478 213.982 48.0438C214.174 48.6678 214.318 48.8118 214.942 49.0038Z" fill="#EF7C05"/>
</svg>
