<svg width="10" height="10" viewBox="0 0 10 10" fill="none" xmlns="http://www.w3.org/2000/svg">
<g clip-path="url(#clip0_413_9860)">
<path d="M9.77846 0.229079C9.70829 0.158765 9.62494 0.10298 9.53319 0.0649176C9.44143 0.0268555 9.34307 0.00726354 9.24373 0.00726354C9.14439 0.00726354 9.04603 0.0268555 8.95427 0.0649176C8.86251 0.10298 8.77916 0.158765 8.70899 0.229079L4.99998 3.93051L1.29097 0.221494C1.22074 0.151272 1.13738 0.0955685 1.04563 0.0575644C0.953876 0.0195603 0.855539 7.39913e-10 0.75623 0C0.65692 -7.39914e-10 0.558583 0.0195603 0.466833 0.0575644C0.375083 0.0955685 0.291717 0.151272 0.221494 0.221494C0.151272 0.291717 0.0955685 0.375083 0.0575644 0.466833C0.0195603 0.558583 -7.39913e-10 0.65692 0 0.75623C7.39914e-10 0.855539 0.0195603 0.953876 0.0575644 1.04563C0.0955685 1.13738 0.151272 1.22074 0.221494 1.29097L3.93051 4.99998L0.221494 8.70899C0.151272 8.77922 0.0955685 8.86258 0.0575644 8.95433C0.0195603 9.04608 0 9.14442 0 9.24373C0 9.34304 0.0195603 9.44138 0.0575644 9.53313C0.0955685 9.62488 0.151272 9.70824 0.221494 9.77846C0.291717 9.84869 0.375083 9.90439 0.466833 9.94239C0.558583 9.9804 0.65692 9.99996 0.75623 9.99996C0.855539 9.99996 0.953876 9.9804 1.04563 9.94239C1.13738 9.90439 1.22074 9.84869 1.29097 9.77846L4.99998 6.06945L8.70899 9.77846C8.77922 9.84869 8.86258 9.90439 8.95433 9.94239C9.04608 9.9804 9.14442 9.99996 9.24373 9.99996C9.34304 9.99996 9.44138 9.9804 9.53313 9.94239C9.62488 9.90439 9.70824 9.84869 9.77846 9.77846C9.84869 9.70824 9.90439 9.62488 9.94239 9.53313C9.9804 9.44138 9.99996 9.34304 9.99996 9.24373C9.99996 9.14442 9.9804 9.04608 9.94239 8.95433C9.90439 8.86258 9.84869 8.77922 9.77846 8.70899L6.06945 4.99998L9.77846 1.29097C10.0667 1.00274 10.0667 0.517306 9.77846 0.229079Z" fill="#FAFAFA"/>
</g>
<defs>
<clipPath id="clip0_413_9860">
<rect width="10" height="10" fill="white"/>
</clipPath>
</defs>
</svg>
