<svg width="14" height="14" viewBox="0 0 14 14" fill="none" xmlns="http://www.w3.org/2000/svg">
<g clip-path="url(#clip0_413_9854)">
<path d="M5 0.9C4.39249 0.9 3.9 1.39249 3.9 2V3C3.9 3.49706 3.49706 3.9 3 3.9H2C1.39249 3.9 0.9 4.39249 0.9 5V12C0.9 12.6075 1.39249 13.1 2 13.1H9C9.60751 13.1 10.1 12.6075 10.1 12V11C10.1 10.5029 10.5029 10.1 11 10.1H12C12.6075 10.1 13.1 9.60751 13.1 9V2C13.1 1.39249 12.6075 0.9 12 0.9H5ZM6 3.9C5.50294 3.9 5.1 3.49706 5.1 3C5.1 2.50294 5.50294 2.1 6 2.1H11C11.4971 2.1 11.9 2.50294 11.9 3V8C11.9 8.49706 11.4971 8.9 11 8.9C10.5029 8.9 10.1 8.49706 10.1 8V5C10.1 4.39249 9.60751 3.9 9 3.9H6ZM8 5.1C8.49706 5.1 8.9 5.50294 8.9 6V11C8.9 11.4971 8.49706 11.9 8 11.9H3C2.50294 11.9 2.1 11.4971 2.1 11V6C2.1 5.50294 2.50294 5.1 3 5.1H8Z" fill="#FAFAFA" stroke="#FAFAFA" stroke-width="0.2"/>
</g>
<defs>
<clipPath id="clip0_413_9854">
<rect width="14" height="14" fill="white"/>
</clipPath>
</defs>
</svg>
