<svg width="22" height="24" viewBox="0 0 22 24" fill="none" xmlns="http://www.w3.org/2000/svg">
<path d="M1.48236 10.878C8.25226 8.27609 17.0125 5.10391 18.2221 4.66476C21.394 3.51571 22.3674 3.7357 21.8821 6.28089C21.5335 8.11025 20.5282 14.1661 19.7262 17.9356C19.2507 20.1711 18.1834 20.436 16.5059 19.4688C15.6992 19.0035 11.6266 16.6503 10.7423 16.0978C9.93554 15.5944 8.82271 14.9885 10.2183 13.7955C10.7152 13.3707 13.9704 10.6546 16.5069 8.54093C16.8391 8.2634 16.4217 7.80733 16.0381 8.02986C12.6193 10.0107 7.87938 12.7598 7.276 13.1177C6.36463 13.6584 5.48909 13.9063 3.91817 13.512C2.73077 13.2142 1.57146 12.8588 1.12013 12.7234C-0.618348 12.2022 -0.205761 11.527 1.48236 10.878Z" fill="#FAFAFA"/>
</svg>
