<svg width="22" height="22" viewBox="0 0 22 22" fill="none" xmlns="http://www.w3.org/2000/svg">
<path d="M10.9702 3.00686C11.9633 3.00686 12.952 2.98874 13.9451 3.0114C15.2051 3.03858 16.4651 3.08843 17.7207 3.14733C18.2413 3.17452 18.7707 3.18811 19.2869 3.29233C20.5163 3.53702 21.2469 4.32092 21.5838 5.55795C21.7632 6.21498 21.8288 6.89013 21.8857 7.56529C22.0388 9.38231 22.0082 11.1993 21.9644 13.0164C21.9382 14.0903 21.8944 15.1732 21.6319 16.2245C21.5225 16.6549 21.3957 17.0854 21.155 17.4615C20.7175 18.1457 20.0876 18.5354 19.3176 18.6804C18.6569 18.8073 17.9876 18.8209 17.3182 18.8526C16.0801 18.9115 14.842 18.9387 13.6039 18.9704C12.1383 19.0112 10.6727 19.0021 9.21144 18.9885C8.02583 18.9749 6.83585 18.9477 5.65024 18.8979C4.64838 18.8571 3.64214 18.839 2.6534 18.6396C2.10654 18.5309 1.62092 18.2952 1.20092 17.9056C0.807177 17.534 0.60593 17.0537 0.457182 16.5462C0.137811 15.4587 0.115936 14.3349 0.0503118 13.2112C-0.0240622 11.8971 -0.00218747 10.5831 0.0284371 9.27356C0.0546868 8.16794 0.102811 7.05779 0.325933 5.97029C0.457182 5.32686 0.636554 4.68795 1.08717 4.19405C1.64279 3.58686 2.35153 3.29686 3.15215 3.23796C4.11026 3.16999 5.07275 3.12468 6.03086 3.08389C7.67584 3.0114 9.32519 2.98874 10.9702 3.00686ZM14.6057 10.7643C14.5882 10.71 14.5401 10.7009 14.5051 10.6828C13.477 10.1209 12.4445 9.55903 11.412 8.99716C10.5939 8.55309 9.77581 8.1045 8.9577 7.65591C8.7302 7.53357 8.72583 7.5381 8.72583 7.80997C8.72583 9.76293 8.72583 11.7159 8.72583 13.6734C8.72583 13.7096 8.72583 13.7504 8.72583 13.7867C8.72145 13.9045 8.7652 13.9407 8.8702 13.8818C8.99707 13.8093 9.12394 13.7368 9.25519 13.6643C10.9789 12.74 12.707 11.8111 14.4308 10.8867C14.492 10.8504 14.5707 10.8368 14.6057 10.7643Z" fill="#FAFAFA"/>
</svg>
