<svg width="22" height="19" viewBox="0 0 22 19" fill="none" xmlns="http://www.w3.org/2000/svg">
<path d="M0.946128 18.078C0.775497 18.078 0.637042 17.94 0.636575 17.7693L0.588741 0.310402C0.588272 0.13911 0.727001 0 0.898294 0H2.38331C2.55427 0 2.69286 0.138592 2.69286 0.309554V15.8369C2.69286 16.0078 2.83146 16.1464 3.00242 16.1464H5.33026C5.50122 16.1464 5.63982 16.0078 5.63982 15.8369V0.309555C5.63982 0.138592 5.77841 0 5.94937 0H7.16283C7.33379 0 7.47238 0.138592 7.47238 0.309554V15.8369C7.47238 16.0078 7.61097 16.1464 7.78194 16.1464L18.8492 16.1464C19.0201 16.1464 19.1587 16.0078 19.1587 15.8369V0.309573C19.1587 0.138611 19.2973 1.99578e-05 19.4683 1.99578e-05H20.9294C21.1003 1.99578e-05 21.2389 0.138612 21.2389 0.309574V17.7685C21.2389 17.9395 21.1003 18.0781 20.9294 18.0781L6.55611 18.078H0.946128Z" fill="#0D0D0D"/>
</svg>
