<svg width="794" height="261" viewBox="0 0 794 261" fill="none" xmlns="http://www.w3.org/2000/svg">
<rect y="0.850586" width="29.588" height="259.413" rx="2.27955" fill="#F4762E" fill-opacity="0.5"/>
<rect x="33.2354" y="0.850586" width="29.588" height="259.413" rx="2.27955" fill="#F4762E" fill-opacity="0.5"/>
<rect x="66.4707" y="0.850586" width="29.588" height="259.413" rx="2.27955" fill="#F4762E" fill-opacity="0.5"/>
<rect x="99.7058" y="0.850586" width="29.588" height="259.413" rx="2.27955" fill="#F4762E" fill-opacity="0.5"/>
<rect x="132.941" y="0.850586" width="29.588" height="259.413" rx="2.27955" fill="#F4762E" fill-opacity="0.5"/>
<rect x="166.177" y="0.850586" width="29.588" height="259.413" rx="2.27955" fill="#F4762E" fill-opacity="0.5"/>
<rect x="199.412" y="0.850586" width="29.588" height="259.413" rx="2.27955" fill="#F4762E" fill-opacity="0.5"/>
<rect x="232.647" y="0.850586" width="29.588" height="259.413" rx="2.27955" fill="#F4762E" fill-opacity="0.5"/>
<rect x="265.882" y="0.850586" width="29.588" height="259.413" rx="2.27955" fill="#F4762E" fill-opacity="0.5"/>
<rect x="299.118" y="0.850586" width="29.588" height="259.413" rx="2.27955" fill="#F4762E" fill-opacity="0.5"/>
<rect x="332.353" y="0.850586" width="29.588" height="259.413" rx="2.27955" fill="#F4762E" fill-opacity="0.5"/>
<rect x="365.588" y="0.850586" width="29.588" height="259.413" rx="2.27955" fill="#F4762E" fill-opacity="0.5"/>
<rect x="398.824" y="0.850586" width="29.588" height="259.413" rx="2.27955" fill="#F4762E" fill-opacity="0.5"/>
<rect x="432.059" y="0.850586" width="29.588" height="259.413" rx="2.27955" fill="#F4762E" fill-opacity="0.5"/>
<rect x="465.294" y="0.850586" width="29.588" height="259.413" rx="2.27955" fill="#F4762E" fill-opacity="0.5"/>
<rect x="498.53" y="0.850586" width="29.588" height="259.413" rx="2.27955" fill="#F4762E" fill-opacity="0.5"/>
<rect x="531.765" y="0.850586" width="29.588" height="259.413" rx="2.27955" fill="#F4762E" fill-opacity="0.5"/>
<rect x="565" y="0.850586" width="29.588" height="259.413" rx="2.27955" fill="#F4762E" fill-opacity="0.5"/>
<rect x="598.236" y="0.850586" width="29.588" height="259.413" rx="2.27955" fill="#F4762E" fill-opacity="0.5"/>
<rect x="631.471" y="0.850586" width="29.588" height="259.413" rx="2.27955" fill="#F4762E" fill-opacity="0.5"/>
<rect x="664.706" y="0.850586" width="29.588" height="259.413" rx="2.27955" fill="#F4762E" fill-opacity="0.5"/>
<rect x="697.941" y="0.850586" width="29.588" height="259.413" rx="2.27955" fill="#F4762E" fill-opacity="0.5"/>
<rect x="731.177" y="0.850586" width="29.588" height="259.413" rx="2.27955" fill="#F4762E" fill-opacity="0.5"/>
<rect x="764.412" y="0.850586" width="29.588" height="259.413" rx="2.27955" fill="#F4762E" fill-opacity="0.5"/>
</svg>
