<svg width="209" height="130" viewBox="0 0 209 130" fill="none" xmlns="http://www.w3.org/2000/svg">
<path d="M0.547994 37.5368C0.245345 37.5368 0 37.2915 0 36.9888L0 6.08193C0 5.77928 0.245345 5.53394 0.547994 5.53394L33.5078 5.53394C33.8104 5.53394 34.0557 5.77928 34.0557 6.08193V36.9888C34.0557 37.2915 33.8104 37.5368 33.5078 37.5368H30.6582C30.3555 37.5368 30.1102 37.2915 30.1102 36.9888V9.67677C30.1102 9.37412 29.8648 9.12878 29.5622 9.12878H4.49355C4.1909 9.12878 3.94556 9.37412 3.94556 9.67677V36.9888C3.94556 37.2915 3.70021 37.5368 3.39756 37.5368H0.547994ZM41.3598 37.5368C40.746 37.5368 40.483 37.1422 40.6145 36.5723L48.5056 6.27921C48.6371 5.79697 48.944 5.53394 49.4701 5.53394H53.1964C53.7225 5.53394 54.0294 5.79697 54.1609 6.27921L62.0082 36.5723C62.1397 37.1422 61.8767 37.5368 61.2629 37.5368H59.0709C58.5449 37.5368 58.238 37.2738 58.1065 36.7915L56.1775 29.0319L46.489 29.0319L44.5601 36.7915C44.4285 37.2738 44.1217 37.5368 43.5956 37.5368H41.3598ZM47.2781 25.7001L55.3446 25.7001L52.8896 15.8362C52.4073 13.9511 52.0566 12.3291 51.7936 11.1016C51.6182 10.2686 51.0045 10.2686 50.8291 11.1016C50.5661 12.3291 50.2154 13.9511 49.7331 15.7924L47.2781 25.7001ZM69.3562 37.5368C68.7863 37.5368 68.4795 37.2299 68.4795 36.66V6.41072C68.4795 5.84081 68.7863 5.53394 69.3562 5.53394H84.1568C90.119 5.53394 93.9331 9.21645 93.9331 14.9594C93.9331 20.7024 90.119 24.3849 84.1568 24.3849H72.425V36.66C72.425 37.2299 72.1181 37.5368 71.5482 37.5368H69.3562ZM72.425 20.8339L84.1568 20.8339C87.6202 20.8339 89.856 18.5543 89.856 14.9594C89.856 11.3646 87.6202 9.08494 84.1568 9.08494L73.3018 9.08494C72.7319 9.08494 72.425 9.39181 72.425 9.96173V20.8339ZM93.9331 37.5368C93.3193 37.5368 93.0563 37.1422 93.1878 36.5723L101.079 6.27921C101.21 5.79697 101.517 5.53394 102.043 5.53394H105.77C106.296 5.53394 106.603 5.79697 106.734 6.27921L114.581 36.5723C114.713 37.1422 114.45 37.5368 113.836 37.5368H111.644C111.118 37.5368 110.811 37.2738 110.68 36.7915L108.751 29.0319H99.0623L97.1333 36.7915C97.0018 37.2738 96.6949 37.5368 96.1689 37.5368H93.9331ZM99.8514 25.7001H107.918L105.463 15.8362C104.981 13.9511 104.63 12.3291 104.367 11.1016C104.191 10.2686 103.578 10.2686 103.402 11.1016C103.139 12.3291 102.789 13.9511 102.306 15.7924L99.8514 25.7001ZM120.284 37.5368C119.982 37.5368 119.737 37.2924 119.736 36.9903L119.651 6.08343C119.65 5.7802 119.896 5.53394 120.199 5.53394L122.828 5.53394C123.131 5.53394 123.376 5.77928 123.376 6.08193V33.5693C123.376 33.872 123.621 34.1173 123.924 34.1173H128.045C128.348 34.1173 128.593 33.872 128.593 33.5693V6.08193C128.593 5.77928 128.838 5.53394 129.141 5.53394H131.289C131.592 5.53394 131.837 5.77928 131.837 6.08193V33.5693C131.837 33.872 132.082 34.1173 132.385 34.1173L151.977 34.1173C152.28 34.1173 152.525 33.872 152.525 33.5693V6.08196C152.525 5.77932 152.77 5.53397 153.073 5.53397H155.66C155.962 5.53397 156.208 5.77932 156.208 6.08196V36.9888C156.208 37.2915 155.962 37.5368 155.66 37.5368L130.215 37.5368H120.284ZM167.997 37.5368C167.611 37.5368 167.346 37.1484 167.487 36.789L170.359 29.4524C170.41 29.3231 170.41 29.1794 170.358 29.0503L161.311 6.28435C161.168 5.92456 161.433 5.53397 161.82 5.53397H164.926C165.156 5.53397 165.362 5.67741 165.441 5.89319L171.052 21.1847C171.213 21.6215 171.362 22.0542 171.498 22.4729C171.693 23.0715 173.041 23.0505 173.212 22.4449C173.328 22.0349 173.455 21.6118 173.595 21.1847L178.514 5.91394C178.587 5.68749 178.797 5.53397 179.035 5.53397H182.153C182.532 5.53397 182.797 5.91058 182.668 6.26771L171.533 37.1746C171.455 37.3919 171.249 37.5368 171.018 37.5368H167.997ZM197.163 37.5368C196.593 37.5368 196.287 37.2299 196.287 36.66V9.12881H188.395C187.826 9.12881 187.519 8.82194 187.519 8.25202V6.41076C187.519 5.84085 187.826 5.53397 188.395 5.53397L208.123 5.53397C208.693 5.53397 209 5.84085 209 6.41076V8.25202C209 8.82194 208.693 9.12881 208.123 9.12881H200.232V36.66C200.232 37.2299 199.925 37.5368 199.355 37.5368H197.163Z" fill="#F4762E"/>
<path d="M0.547994 86.8506C0.245345 86.8506 0 86.6053 0 86.3026L0 55.3958C0 55.0931 0.245345 54.8478 0.547994 54.8478H33.5078C33.8104 54.8478 34.0557 55.0931 34.0557 55.3958V86.3026C34.0557 86.6053 33.8104 86.8506 33.5078 86.8506H30.6582C30.3555 86.8506 30.1102 86.6053 30.1102 86.3026V58.9906C30.1102 58.688 29.8648 58.4426 29.5622 58.4426H4.49355C4.1909 58.4426 3.94556 58.688 3.94556 58.9906V86.3026C3.94556 86.6053 3.70021 86.8506 3.39756 86.8506H0.547994ZM41.3598 86.8506C40.746 86.8506 40.483 86.4561 40.6145 85.8862L48.5056 55.593C48.6371 55.1108 48.944 54.8478 49.4701 54.8478H53.1964C53.7225 54.8478 54.0294 55.1108 54.1609 55.593L62.0082 85.8862C62.1397 86.4561 61.8767 86.8506 61.2629 86.8506H59.0709C58.5449 86.8506 58.238 86.5876 58.1065 86.1054L56.1775 78.3458H46.489L44.5601 86.1054C44.4285 86.5876 44.1217 86.8506 43.5956 86.8506H41.3598ZM47.2781 75.014H55.3446L52.8896 65.1501C52.4073 63.265 52.0566 61.6429 51.7936 60.4154C51.6182 59.5824 51.0045 59.5824 50.8291 60.4154C50.5661 61.6429 50.2154 63.265 49.7331 65.1062L47.2781 75.014ZM69.3562 86.8506C68.7863 86.8506 68.4795 86.5438 68.4795 85.9739V55.7246C68.4795 55.1547 68.7863 54.8478 69.3562 54.8478H84.1568C90.119 54.8478 93.9331 58.5303 93.9331 64.2733C93.9331 70.0162 90.119 73.6988 84.1568 73.6988H72.425V85.9739C72.425 86.5438 72.1181 86.8506 71.5482 86.8506H69.3562ZM72.425 70.1478H84.1568C87.6202 70.1478 89.856 67.8681 89.856 64.2733C89.856 60.6784 87.6202 58.3988 84.1568 58.3988H73.3018C72.7319 58.3988 72.425 58.7057 72.425 59.2756V70.1478ZM93.9331 86.8506C93.3193 86.8506 93.0563 86.4561 93.1878 85.8862L101.079 55.593C101.21 55.1108 101.517 54.8478 102.043 54.8478H105.77C106.296 54.8478 106.603 55.1108 106.734 55.593L114.581 85.8862C114.713 86.4561 114.45 86.8506 113.836 86.8506H111.644C111.118 86.8506 110.811 86.5876 110.68 86.1054L108.751 78.3458H99.0623L97.1333 86.1054C97.0018 86.5876 96.6949 86.8506 96.1689 86.8506H93.9331ZM99.8514 75.014H107.918L105.463 65.1501C104.981 63.265 104.63 61.6429 104.367 60.4154C104.191 59.5824 103.578 59.5824 103.402 60.4154C103.139 61.6429 102.789 63.265 102.306 65.1062L99.8514 75.014ZM120.284 86.8506C119.982 86.8506 119.737 86.6062 119.736 86.3041L119.651 55.3973C119.65 55.094 119.896 54.8478 120.199 54.8478H122.828C123.131 54.8478 123.376 55.0931 123.376 55.3958V82.8832C123.376 83.1858 123.621 83.4312 123.924 83.4312H128.045C128.348 83.4312 128.593 83.1858 128.593 82.8832V55.3958C128.593 55.0931 128.838 54.8478 129.141 54.8478H131.289C131.592 54.8478 131.837 55.0931 131.837 55.3958V82.8832C131.837 83.1858 132.082 83.4312 132.385 83.4312L151.977 83.4312C152.28 83.4312 152.525 83.1858 152.525 82.8832V55.3958C152.525 55.0932 152.77 54.8478 153.073 54.8478H155.66C155.962 54.8478 156.208 55.0932 156.208 55.3958V86.3027C156.208 86.6053 155.962 86.8507 155.66 86.8507L130.215 86.8506H120.284ZM167.997 86.8507C167.611 86.8507 167.346 86.4623 167.487 86.1029L170.359 78.7663C170.41 78.6369 170.41 78.4932 170.358 78.3641L161.311 55.5982C161.168 55.2384 161.433 54.8478 161.82 54.8478H164.926C165.156 54.8478 165.362 54.9913 165.441 55.207L171.052 70.4985C171.213 70.9353 171.362 71.368 171.498 71.7868C171.693 72.3853 173.041 72.3644 173.212 71.7588C173.328 71.3487 173.455 70.9256 173.595 70.4985L178.514 55.2278C178.587 55.0013 178.797 54.8478 179.035 54.8478H182.153C182.532 54.8478 182.797 55.2244 182.668 55.5815L171.533 86.4884C171.455 86.7058 171.249 86.8507 171.018 86.8507H167.997ZM197.163 86.8507C196.593 86.8507 196.287 86.5438 196.287 85.9739V58.4427H188.395C187.826 58.4427 187.519 58.1358 187.519 57.5659V55.7246C187.519 55.1547 187.826 54.8478 188.395 54.8478H208.123C208.693 54.8478 209 55.1547 209 55.7246V57.5659C209 58.1358 208.693 58.4427 208.123 58.4427H200.232V85.9739C200.232 86.5438 199.925 86.8507 199.355 86.8507H197.163Z" fill="#0D0D0D"/>
<path d="M0.547994 86.8506C0.245345 86.8506 0 86.6053 0 86.3026L0 55.3958C0 55.0931 0.245345 54.8478 0.547994 54.8478H33.5078C33.8104 54.8478 34.0557 55.0931 34.0557 55.3958V86.3026C34.0557 86.6053 33.8104 86.8506 33.5078 86.8506H30.6582C30.3555 86.8506 30.1102 86.6053 30.1102 86.3026V58.9906C30.1102 58.688 29.8648 58.4426 29.5622 58.4426H4.49355C4.1909 58.4426 3.94556 58.688 3.94556 58.9906V86.3026C3.94556 86.6053 3.70021 86.8506 3.39756 86.8506H0.547994ZM41.3598 86.8506C40.746 86.8506 40.483 86.4561 40.6145 85.8862L48.5056 55.593C48.6371 55.1108 48.944 54.8478 49.4701 54.8478H53.1964C53.7225 54.8478 54.0294 55.1108 54.1609 55.593L62.0082 85.8862C62.1397 86.4561 61.8767 86.8506 61.2629 86.8506H59.0709C58.5449 86.8506 58.238 86.5876 58.1065 86.1054L56.1775 78.3458H46.489L44.5601 86.1054C44.4285 86.5876 44.1217 86.8506 43.5956 86.8506H41.3598ZM47.2781 75.014H55.3446L52.8896 65.1501C52.4073 63.265 52.0566 61.6429 51.7936 60.4154C51.6182 59.5824 51.0045 59.5824 50.8291 60.4154C50.5661 61.6429 50.2154 63.265 49.7331 65.1062L47.2781 75.014ZM69.3562 86.8506C68.7863 86.8506 68.4795 86.5438 68.4795 85.9739V55.7246C68.4795 55.1547 68.7863 54.8478 69.3562 54.8478H84.1568C90.119 54.8478 93.9331 58.5303 93.9331 64.2733C93.9331 70.0162 90.119 73.6988 84.1568 73.6988H72.425V85.9739C72.425 86.5438 72.1181 86.8506 71.5482 86.8506H69.3562ZM72.425 70.1478H84.1568C87.6202 70.1478 89.856 67.8681 89.856 64.2733C89.856 60.6784 87.6202 58.3988 84.1568 58.3988H73.3018C72.7319 58.3988 72.425 58.7057 72.425 59.2756V70.1478ZM93.9331 86.8506C93.3193 86.8506 93.0563 86.4561 93.1878 85.8862L101.079 55.593C101.21 55.1108 101.517 54.8478 102.043 54.8478H105.77C106.296 54.8478 106.603 55.1108 106.734 55.593L114.581 85.8862C114.713 86.4561 114.45 86.8506 113.836 86.8506H111.644C111.118 86.8506 110.811 86.5876 110.68 86.1054L108.751 78.3458H99.0623L97.1333 86.1054C97.0018 86.5876 96.6949 86.8506 96.1689 86.8506H93.9331ZM99.8514 75.014H107.918L105.463 65.1501C104.981 63.265 104.63 61.6429 104.367 60.4154C104.191 59.5824 103.578 59.5824 103.402 60.4154C103.139 61.6429 102.789 63.265 102.306 65.1062L99.8514 75.014ZM120.284 86.8506C119.982 86.8506 119.737 86.6062 119.736 86.3041L119.651 55.3973C119.65 55.094 119.896 54.8478 120.199 54.8478H122.828C123.131 54.8478 123.376 55.0931 123.376 55.3958V82.8832C123.376 83.1858 123.621 83.4312 123.924 83.4312H128.045C128.348 83.4312 128.593 83.1858 128.593 82.8832V55.3958C128.593 55.0931 128.838 54.8478 129.141 54.8478H131.289C131.592 54.8478 131.837 55.0931 131.837 55.3958V82.8832C131.837 83.1858 132.082 83.4312 132.385 83.4312L151.977 83.4312C152.28 83.4312 152.525 83.1858 152.525 82.8832V55.3958C152.525 55.0932 152.77 54.8478 153.073 54.8478H155.66C155.962 54.8478 156.208 55.0932 156.208 55.3958V86.3027C156.208 86.6053 155.962 86.8507 155.66 86.8507L130.215 86.8506H120.284ZM167.997 86.8507C167.611 86.8507 167.346 86.4623 167.487 86.1029L170.359 78.7663C170.41 78.6369 170.41 78.4932 170.358 78.3641L161.311 55.5982C161.168 55.2384 161.433 54.8478 161.82 54.8478H164.926C165.156 54.8478 165.362 54.9913 165.441 55.207L171.052 70.4985C171.213 70.9353 171.362 71.368 171.498 71.7868C171.693 72.3853 173.041 72.3644 173.212 71.7588C173.328 71.3487 173.455 70.9256 173.595 70.4985L178.514 55.2278C178.587 55.0013 178.797 54.8478 179.035 54.8478H182.153C182.532 54.8478 182.797 55.2244 182.668 55.5815L171.533 86.4884C171.455 86.7058 171.249 86.8507 171.018 86.8507H167.997ZM197.163 86.8507C196.593 86.8507 196.287 86.5438 196.287 85.9739V58.4427H188.395C187.826 58.4427 187.519 58.1358 187.519 57.5659V55.7246C187.519 55.1547 187.826 54.8478 188.395 54.8478H208.123C208.693 54.8478 209 55.1547 209 55.7246V57.5659C209 58.1358 208.693 58.4427 208.123 58.4427H200.232V85.9739C200.232 86.5438 199.925 86.8507 199.355 86.8507H197.163Z" fill="black" fill-opacity="0.2"/>
<path d="M0.547994 86.8506C0.245345 86.8506 0 86.6053 0 86.3026L0 55.3958C0 55.0931 0.245345 54.8478 0.547994 54.8478H33.5078C33.8104 54.8478 34.0557 55.0931 34.0557 55.3958V86.3026C34.0557 86.6053 33.8104 86.8506 33.5078 86.8506H30.6582C30.3555 86.8506 30.1102 86.6053 30.1102 86.3026V58.9906C30.1102 58.688 29.8648 58.4426 29.5622 58.4426H4.49355C4.1909 58.4426 3.94556 58.688 3.94556 58.9906V86.3026C3.94556 86.6053 3.70021 86.8506 3.39756 86.8506H0.547994ZM41.3598 86.8506C40.746 86.8506 40.483 86.4561 40.6145 85.8862L48.5056 55.593C48.6371 55.1108 48.944 54.8478 49.4701 54.8478H53.1964C53.7225 54.8478 54.0294 55.1108 54.1609 55.593L62.0082 85.8862C62.1397 86.4561 61.8767 86.8506 61.2629 86.8506H59.0709C58.5449 86.8506 58.238 86.5876 58.1065 86.1054L56.1775 78.3458H46.489L44.5601 86.1054C44.4285 86.5876 44.1217 86.8506 43.5956 86.8506H41.3598ZM47.2781 75.014H55.3446L52.8896 65.1501C52.4073 63.265 52.0566 61.6429 51.7936 60.4154C51.6182 59.5824 51.0045 59.5824 50.8291 60.4154C50.5661 61.6429 50.2154 63.265 49.7331 65.1062L47.2781 75.014ZM69.3562 86.8506C68.7863 86.8506 68.4795 86.5438 68.4795 85.9739V55.7246C68.4795 55.1547 68.7863 54.8478 69.3562 54.8478H84.1568C90.119 54.8478 93.9331 58.5303 93.9331 64.2733C93.9331 70.0162 90.119 73.6988 84.1568 73.6988H72.425V85.9739C72.425 86.5438 72.1181 86.8506 71.5482 86.8506H69.3562ZM72.425 70.1478H84.1568C87.6202 70.1478 89.856 67.8681 89.856 64.2733C89.856 60.6784 87.6202 58.3988 84.1568 58.3988H73.3018C72.7319 58.3988 72.425 58.7057 72.425 59.2756V70.1478ZM93.9331 86.8506C93.3193 86.8506 93.0563 86.4561 93.1878 85.8862L101.079 55.593C101.21 55.1108 101.517 54.8478 102.043 54.8478H105.77C106.296 54.8478 106.603 55.1108 106.734 55.593L114.581 85.8862C114.713 86.4561 114.45 86.8506 113.836 86.8506H111.644C111.118 86.8506 110.811 86.5876 110.68 86.1054L108.751 78.3458H99.0623L97.1333 86.1054C97.0018 86.5876 96.6949 86.8506 96.1689 86.8506H93.9331ZM99.8514 75.014H107.918L105.463 65.1501C104.981 63.265 104.63 61.6429 104.367 60.4154C104.191 59.5824 103.578 59.5824 103.402 60.4154C103.139 61.6429 102.789 63.265 102.306 65.1062L99.8514 75.014ZM120.284 86.8506C119.982 86.8506 119.737 86.6062 119.736 86.3041L119.651 55.3973C119.65 55.094 119.896 54.8478 120.199 54.8478H122.828C123.131 54.8478 123.376 55.0931 123.376 55.3958V82.8832C123.376 83.1858 123.621 83.4312 123.924 83.4312H128.045C128.348 83.4312 128.593 83.1858 128.593 82.8832V55.3958C128.593 55.0931 128.838 54.8478 129.141 54.8478H131.289C131.592 54.8478 131.837 55.0931 131.837 55.3958V82.8832C131.837 83.1858 132.082 83.4312 132.385 83.4312L151.977 83.4312C152.28 83.4312 152.525 83.1858 152.525 82.8832V55.3958C152.525 55.0932 152.77 54.8478 153.073 54.8478H155.66C155.962 54.8478 156.208 55.0932 156.208 55.3958V86.3027C156.208 86.6053 155.962 86.8507 155.66 86.8507L130.215 86.8506H120.284ZM167.997 86.8507C167.611 86.8507 167.346 86.4623 167.487 86.1029L170.359 78.7663C170.41 78.6369 170.41 78.4932 170.358 78.3641L161.311 55.5982C161.168 55.2384 161.433 54.8478 161.82 54.8478H164.926C165.156 54.8478 165.362 54.9913 165.441 55.207L171.052 70.4985C171.213 70.9353 171.362 71.368 171.498 71.7868C171.693 72.3853 173.041 72.3644 173.212 71.7588C173.328 71.3487 173.455 70.9256 173.595 70.4985L178.514 55.2278C178.587 55.0013 178.797 54.8478 179.035 54.8478H182.153C182.532 54.8478 182.797 55.2244 182.668 55.5815L171.533 86.4884C171.455 86.7058 171.249 86.8507 171.018 86.8507H167.997ZM197.163 86.8507C196.593 86.8507 196.287 86.5438 196.287 85.9739V58.4427H188.395C187.826 58.4427 187.519 58.1358 187.519 57.5659V55.7246C187.519 55.1547 187.826 54.8478 188.395 54.8478H208.123C208.693 54.8478 209 55.1547 209 55.7246V57.5659C209 58.1358 208.693 58.4427 208.123 58.4427H200.232V85.9739C200.232 86.5438 199.925 86.8507 199.355 86.8507H197.163Z" fill="black" fill-opacity="0.2"/>
<rect x="91" y="102.851" width="27" height="27" rx="13.5" fill="#70E691"/>
<path d="M97 113.574L103.316 121.864L112 108.838" stroke="#FAFAFA" stroke-width="2.36842"/>
</svg>
