<svg width="264" height="295" viewBox="0 0 264 295" fill="none" xmlns="http://www.w3.org/2000/svg">
<rect x="1" y="1" width="262" height="293" rx="24" stroke="#001806" stroke-width="2"/>
<path d="M46.696 251V245H47.656V247.532H51.4V245H52.36V251H51.4V248.444H47.656V251H46.696ZM58.779 247.544C58.731 246.984 58.503 246.532 58.095 246.188C57.687 245.844 57.195 245.672 56.619 245.672C56.067 245.672 55.591 245.844 55.191 246.188C54.799 246.524 54.567 246.976 54.495 247.544H58.779ZM54.495 248.42C54.567 248.988 54.807 249.444 55.215 249.788C55.623 250.132 56.107 250.304 56.667 250.304C57.099 250.304 57.491 250.204 57.843 250.004C58.195 249.796 58.459 249.512 58.635 249.152L59.523 249.5C59.259 250.028 58.871 250.448 58.359 250.76C57.855 251.064 57.295 251.216 56.679 251.216C55.783 251.216 55.027 250.912 54.411 250.304C53.803 249.688 53.499 248.916 53.499 247.988C53.499 247.06 53.799 246.292 54.399 245.684C54.999 245.068 55.735 244.76 56.607 244.76C57.487 244.76 58.231 245.06 58.839 245.66C59.447 246.252 59.751 247 59.751 247.904C59.751 248.048 59.731 248.22 59.691 248.42H54.495ZM60.8514 250.064C61.1874 250.064 61.4474 249.96 61.6314 249.752C61.8154 249.536 61.9074 249.264 61.9074 248.936V245H66.1674V251H65.2074V245.936H62.8674V249.092C62.8674 249.612 62.6914 250.06 62.3394 250.436C61.9874 250.812 61.5314 251 60.9714 251H60.5994V250.064H60.8514ZM71.0717 248.312H68.5037V250.064H71.0717C71.3757 250.064 71.6277 249.984 71.8277 249.824C72.0277 249.656 72.1277 249.452 72.1277 249.212C72.1277 248.956 72.0277 248.744 71.8277 248.576C71.6277 248.4 71.3757 248.312 71.0717 248.312ZM71.1917 247.4C71.7277 247.4 72.1757 247.576 72.5357 247.928C72.9037 248.28 73.0877 248.712 73.0877 249.224C73.0877 249.728 72.9037 250.152 72.5357 250.496C72.1757 250.832 71.7277 251 71.1917 251H67.5437V245H68.5037V247.4H71.1917ZM74.2111 246.188C74.4191 245.756 74.7231 245.416 75.1231 245.168C75.5311 244.912 75.9831 244.784 76.4791 244.784C77.1031 244.784 77.6231 244.964 78.0391 245.324C78.4631 245.676 78.6751 246.12 78.6751 246.656C78.6751 246.936 78.6031 247.196 78.4591 247.436C78.3231 247.668 78.1311 247.852 77.8831 247.988C78.1631 248.132 78.3831 248.34 78.5431 248.612C78.7111 248.876 78.7951 249.168 78.7951 249.488C78.7951 249.984 78.5751 250.396 78.1351 250.724C77.6951 251.052 77.1471 251.216 76.4911 251.216C75.9311 251.216 75.4271 251.088 74.9791 250.832C74.5391 250.568 74.2111 250.208 73.9951 249.752L74.8831 249.32C75.0191 249.616 75.2271 249.852 75.5071 250.028C75.7951 250.196 76.1191 250.28 76.4791 250.28C76.8631 250.28 77.1831 250.192 77.4391 250.016C77.7031 249.84 77.8351 249.62 77.8351 249.356C77.8351 249.084 77.7231 248.856 77.4991 248.672C77.2831 248.488 77.0111 248.396 76.6831 248.396H75.7231V247.604H76.6831C76.9791 247.604 77.2231 247.524 77.4151 247.364C77.6151 247.204 77.7151 247.004 77.7151 246.764C77.7151 246.468 77.5951 246.224 77.3551 246.032C77.1151 245.832 76.8151 245.732 76.4551 245.732C76.1591 245.732 75.8911 245.808 75.6511 245.96C75.4191 246.112 75.2431 246.32 75.1231 246.584L74.2111 246.188ZM81.8744 247.928H84.1064V245.936H81.8744C81.5384 245.936 81.2544 246.032 81.0224 246.224C80.7984 246.408 80.6864 246.636 80.6864 246.908C80.6864 247.204 80.7984 247.448 81.0224 247.64C81.2544 247.832 81.5384 247.928 81.8744 247.928ZM82.5704 248.804L80.8664 251H79.6904L81.4664 248.744C80.9544 248.712 80.5304 248.52 80.1944 248.168C79.8584 247.816 79.6904 247.392 79.6904 246.896C79.6904 246.36 79.8864 245.912 80.2784 245.552C80.6704 245.184 81.1584 245 81.7424 245H85.0664V251H84.1064V248.804H82.5704ZM93.0524 245.876H90.6404V247.568H93.1604C93.4324 247.568 93.6604 247.496 93.8444 247.352C94.0284 247.2 94.1204 247.012 94.1204 246.788C94.1204 246.524 94.0164 246.308 93.8084 246.14C93.6084 245.964 93.3564 245.876 93.0524 245.876ZM93.1724 248.372H90.6404V250.124H93.1724C93.4764 250.124 93.7284 250.044 93.9284 249.884C94.1364 249.716 94.2404 249.512 94.2404 249.272C94.2404 249.008 94.1364 248.792 93.9284 248.624C93.7284 248.456 93.4764 248.372 93.1724 248.372ZM93.2924 251H89.6804V245H93.1724C93.7164 245 94.1684 245.16 94.5284 245.48C94.8964 245.792 95.0804 246.188 95.0804 246.668C95.0804 246.932 95.0084 247.176 94.8644 247.4C94.7284 247.616 94.5364 247.784 94.2884 247.904C94.5684 248.04 94.7884 248.236 94.9484 248.492C95.1164 248.748 95.2004 249.036 95.2004 249.356C95.2004 249.82 95.0164 250.212 94.6484 250.532C94.2884 250.844 93.8364 251 93.2924 251ZM96.3366 245H97.2966V253.4H96.3366V245ZM97.9566 246.356C97.5166 246.788 97.2966 247.34 97.2966 248.012C97.2966 248.676 97.5166 249.224 97.9566 249.656C98.4046 250.088 98.9486 250.304 99.5886 250.304C100.229 250.304 100.769 250.088 101.209 249.656C101.657 249.224 101.881 248.676 101.881 248.012C101.881 247.34 101.657 246.788 101.209 246.356C100.769 245.924 100.229 245.708 99.5886 245.708C98.9486 245.708 98.4046 245.924 97.9566 246.356ZM97.6926 250.328C97.1246 249.712 96.8406 248.94 96.8406 248.012C96.8406 247.076 97.1246 246.304 97.6926 245.696C98.2606 245.088 98.9606 244.784 99.7926 244.784C100.649 244.784 101.369 245.088 101.953 245.696C102.545 246.304 102.841 247.076 102.841 248.012C102.841 248.94 102.545 249.712 101.953 250.328C101.369 250.936 100.649 251.24 99.7926 251.24C98.9606 251.24 98.2606 250.936 97.6926 250.328ZM107.637 248.228L105.921 248.432C105.113 248.536 104.709 248.844 104.709 249.356C104.709 249.628 104.821 249.848 105.045 250.016C105.269 250.176 105.569 250.256 105.945 250.256C106.457 250.256 106.865 250.104 107.169 249.8C107.481 249.496 107.637 249.096 107.637 248.6H108.057C108.057 249.328 107.833 249.932 107.385 250.412C106.937 250.892 106.377 251.132 105.705 251.132C105.137 251.132 104.665 250.972 104.289 250.652C103.921 250.324 103.737 249.904 103.737 249.392C103.745 248.904 103.921 248.5 104.265 248.18C104.617 247.86 105.101 247.664 105.717 247.592L107.637 247.376V247.136C107.637 246.768 107.493 246.448 107.205 246.176C106.925 245.904 106.581 245.768 106.173 245.768C105.805 245.768 105.477 245.868 105.189 246.068C104.909 246.268 104.733 246.528 104.661 246.848L103.749 246.56C103.909 246.056 104.205 245.648 104.637 245.336C105.077 245.024 105.573 244.868 106.125 244.868C106.797 244.868 107.377 245.084 107.865 245.516C108.353 245.94 108.597 246.448 108.597 247.04V251H107.637V248.228ZM118.665 250.088H119.529V252.392H118.569V251H109.977V245H110.937V250.088H113.841V245H114.801V250.088H117.705V245H118.665V250.088ZM124.289 248.228L122.573 248.432C121.765 248.536 121.361 248.844 121.361 249.356C121.361 249.628 121.473 249.848 121.697 250.016C121.921 250.176 122.221 250.256 122.597 250.256C123.109 250.256 123.517 250.104 123.821 249.8C124.133 249.496 124.289 249.096 124.289 248.6H124.709C124.709 249.328 124.485 249.932 124.037 250.412C123.589 250.892 123.029 251.132 122.357 251.132C121.789 251.132 121.317 250.972 120.941 250.652C120.573 250.324 120.389 249.904 120.389 249.392C120.397 248.904 120.573 248.5 120.917 248.18C121.269 247.86 121.753 247.664 122.369 247.592L124.289 247.376V247.136C124.289 246.768 124.145 246.448 123.857 246.176C123.577 245.904 123.233 245.768 122.825 245.768C122.457 245.768 122.129 245.868 121.841 246.068C121.561 246.268 121.385 246.528 121.313 246.848L120.401 246.56C120.561 246.056 120.857 245.648 121.289 245.336C121.729 245.024 122.225 244.868 122.777 244.868C123.449 244.868 124.029 245.084 124.517 245.516C125.005 245.94 125.249 246.448 125.249 247.04V251H124.289V248.228ZM131.334 245V245.912H129.294V251H128.334V245.912H126.294V245H131.334ZM135.923 248.312H133.355V250.064H135.923C136.227 250.064 136.479 249.984 136.679 249.824C136.879 249.656 136.979 249.452 136.979 249.212C136.979 248.956 136.879 248.744 136.679 248.576C136.479 248.4 136.227 248.312 135.923 248.312ZM136.043 247.4C136.579 247.4 137.027 247.576 137.387 247.928C137.755 248.28 137.939 248.712 137.939 249.224C137.939 249.728 137.755 250.152 137.387 250.496C137.027 250.832 136.579 251 136.043 251H132.395V245H133.355V247.4H136.043ZM142.285 250.064C142.621 250.064 142.881 249.96 143.065 249.752C143.249 249.536 143.341 249.264 143.341 248.936V245H147.601V251H146.641V245.936H144.301V249.092C144.301 249.612 144.125 250.06 143.773 250.436C143.421 250.812 142.965 251 142.405 251H142.033V250.064H142.285ZM150.357 246.344C149.917 246.768 149.697 247.316 149.697 247.988C149.697 248.66 149.917 249.212 150.357 249.644C150.805 250.068 151.349 250.28 151.989 250.28C152.629 250.28 153.169 250.068 153.609 249.644C154.057 249.212 154.281 248.66 154.281 247.988C154.281 247.316 154.057 246.768 153.609 246.344C153.169 245.912 152.629 245.696 151.989 245.696C151.349 245.696 150.805 245.912 150.357 246.344ZM149.673 250.304C149.049 249.696 148.737 248.924 148.737 247.988C148.737 247.052 149.049 246.28 149.673 245.672C150.305 245.064 151.077 244.76 151.989 244.76C152.901 244.76 153.669 245.064 154.293 245.672C154.925 246.28 155.241 247.052 155.241 247.988C155.241 248.924 154.925 249.696 154.293 250.304C153.669 250.912 152.901 251.216 151.989 251.216C151.077 251.216 150.305 250.912 149.673 250.304ZM156.395 251V245H160.439V245.912H157.355V251H156.395ZM162.955 246.344C162.515 246.768 162.295 247.316 162.295 247.988C162.295 248.66 162.515 249.212 162.955 249.644C163.403 250.068 163.947 250.28 164.587 250.28C165.227 250.28 165.767 250.068 166.207 249.644C166.655 249.212 166.879 248.66 166.879 247.988C166.879 247.316 166.655 246.768 166.207 246.344C165.767 245.912 165.227 245.696 164.587 245.696C163.947 245.696 163.403 245.912 162.955 246.344ZM162.271 250.304C161.647 249.696 161.335 248.924 161.335 247.988C161.335 247.052 161.647 246.28 162.271 245.672C162.903 245.064 163.675 244.76 164.587 244.76C165.499 244.76 166.267 245.064 166.891 245.672C167.523 246.28 167.839 247.052 167.839 247.988C167.839 248.924 167.523 249.696 166.891 250.304C166.267 250.912 165.499 251.216 164.587 251.216C163.675 251.216 162.903 250.912 162.271 250.304ZM52.096 268H51.136V263.2L47.836 268H46.696V262H47.656V266.68L50.944 262H52.096V268ZM60.0875 262.876H57.6755V264.568H60.1955C60.4675 264.568 60.6955 264.496 60.8795 264.352C61.0635 264.2 61.1555 264.012 61.1555 263.788C61.1555 263.524 61.0515 263.308 60.8435 263.14C60.6435 262.964 60.3915 262.876 60.0875 262.876ZM60.2075 265.372H57.6755V267.124H60.2075C60.5115 267.124 60.7635 267.044 60.9635 266.884C61.1715 266.716 61.2755 266.512 61.2755 266.272C61.2755 266.008 61.1715 265.792 60.9635 265.624C60.7635 265.456 60.5115 265.372 60.2075 265.372ZM60.3275 268H56.7155V262H60.2075C60.7515 262 61.2035 262.16 61.5635 262.48C61.9315 262.792 62.1155 263.188 62.1155 263.668C62.1155 263.932 62.0435 264.176 61.8995 264.4C61.7635 264.616 61.5715 264.784 61.3235 264.904C61.6035 265.04 61.8235 265.236 61.9835 265.492C62.1515 265.748 62.2355 266.036 62.2355 266.356C62.2355 266.82 62.0515 267.212 61.6835 267.532C61.3235 267.844 60.8715 268 60.3275 268ZM64.7518 263.344C64.3118 263.768 64.0918 264.316 64.0918 264.988C64.0918 265.66 64.3118 266.212 64.7518 266.644C65.1998 267.068 65.7438 267.28 66.3838 267.28C67.0238 267.28 67.5638 267.068 68.0038 266.644C68.4518 266.212 68.6758 265.66 68.6758 264.988C68.6758 264.316 68.4518 263.768 68.0038 263.344C67.5638 262.912 67.0238 262.696 66.3838 262.696C65.7438 262.696 65.1998 262.912 64.7518 263.344ZM64.0678 267.304C63.4438 266.696 63.1318 265.924 63.1318 264.988C63.1318 264.052 63.4438 263.28 64.0678 262.672C64.6998 262.064 65.4718 261.76 66.3838 261.76C67.2958 261.76 68.0638 262.064 68.6878 262.672C69.3198 263.28 69.6358 264.052 69.6358 264.988C69.6358 265.924 69.3198 266.696 68.6878 267.304C68.0638 267.912 67.2958 268.216 66.3838 268.216C65.4718 268.216 64.6998 267.912 64.0678 267.304ZM70.4418 267.088H77.0058V269.392H76.0458V268H71.4018V269.392H70.4418V267.088ZM70.7298 267.088C71.1058 267.096 71.3938 266.98 71.5938 266.74C71.8018 266.492 71.9058 266.184 71.9058 265.816V262H76.1658V268H75.2058V262.936H72.8658V265.984C72.8658 266.48 72.6778 266.912 72.3018 267.28C71.9258 267.64 71.4418 267.82 70.8498 267.82H70.5018V267.088H70.7298ZM79.4119 263.344C78.9719 263.768 78.7519 264.316 78.7519 264.988C78.7519 265.66 78.9719 266.212 79.4119 266.644C79.8599 267.068 80.4039 267.28 81.0439 267.28C81.6839 267.28 82.2239 267.068 82.6639 266.644C83.1119 266.212 83.3359 265.66 83.3359 264.988C83.3359 264.316 83.1119 263.768 82.6639 263.344C82.2239 262.912 81.6839 262.696 81.0439 262.696C80.4039 262.696 79.8599 262.912 79.4119 263.344ZM78.7279 267.304C78.1039 266.696 77.7919 265.924 77.7919 264.988C77.7919 264.052 78.1039 263.28 78.7279 262.672C79.3599 262.064 80.1319 261.76 81.0439 261.76C81.9559 261.76 82.7239 262.064 83.3479 262.672C83.9799 263.28 84.2959 264.052 84.2959 264.988C84.2959 265.924 83.9799 266.696 83.3479 267.304C82.7239 267.912 81.9559 268.216 81.0439 268.216C80.1319 268.216 79.3599 267.912 78.7279 267.304ZM90.8499 268H89.8899V263.2L86.5899 268H85.4499V262H86.4099V266.68L89.6979 262H90.8499V268ZM92.2111 263.188C92.4191 262.756 92.7231 262.416 93.1231 262.168C93.5311 261.912 93.9831 261.784 94.4791 261.784C95.1031 261.784 95.6231 261.964 96.0391 262.324C96.4631 262.676 96.6751 263.12 96.6751 263.656C96.6751 263.936 96.6031 264.196 96.4591 264.436C96.3231 264.668 96.1311 264.852 95.8831 264.988C96.1631 265.132 96.3831 265.34 96.5431 265.612C96.7111 265.876 96.7951 266.168 96.7951 266.488C96.7951 266.984 96.5751 267.396 96.1351 267.724C95.6951 268.052 95.1471 268.216 94.4911 268.216C93.9311 268.216 93.4271 268.088 92.9791 267.832C92.5391 267.568 92.2111 267.208 91.9951 266.752L92.8831 266.32C93.0191 266.616 93.2271 266.852 93.5071 267.028C93.7951 267.196 94.1191 267.28 94.4791 267.28C94.8631 267.28 95.1831 267.192 95.4391 267.016C95.7031 266.84 95.8351 266.62 95.8351 266.356C95.8351 266.084 95.7231 265.856 95.4991 265.672C95.2831 265.488 95.0111 265.396 94.6831 265.396H93.7231V264.604H94.6831C94.9791 264.604 95.2231 264.524 95.4151 264.364C95.6151 264.204 95.7151 264.004 95.7151 263.764C95.7151 263.468 95.5951 263.224 95.3551 263.032C95.1151 262.832 94.8151 262.732 94.4551 262.732C94.1591 262.732 93.8911 262.808 93.6511 262.96C93.4191 263.112 93.2431 263.32 93.1231 263.584L92.2111 263.188ZM97.9304 268V262H99.0584L101.41 265.96L103.762 262H104.89V268H103.93V263.392L101.746 267.112H101.086L98.8904 263.392V268H97.9304ZM111.326 264.544C111.278 263.984 111.05 263.532 110.642 263.188C110.234 262.844 109.742 262.672 109.166 262.672C108.614 262.672 108.138 262.844 107.738 263.188C107.346 263.524 107.114 263.976 107.042 264.544H111.326ZM107.042 265.42C107.114 265.988 107.354 266.444 107.762 266.788C108.17 267.132 108.654 267.304 109.214 267.304C109.646 267.304 110.038 267.204 110.39 267.004C110.742 266.796 111.006 266.512 111.182 266.152L112.07 266.5C111.806 267.028 111.418 267.448 110.906 267.76C110.402 268.064 109.842 268.216 109.226 268.216C108.33 268.216 107.574 267.912 106.958 267.304C106.35 266.688 106.046 265.916 106.046 264.988C106.046 264.06 106.346 263.292 106.946 262.684C107.546 262.068 108.282 261.76 109.154 261.76C110.034 261.76 110.778 262.06 111.386 262.66C111.994 263.252 112.298 264 112.298 264.904C112.298 265.048 112.278 265.22 112.238 265.42H107.042ZM113.434 268V262H114.394V264.532H118.138V262H119.098V268H118.138V265.444H114.394V268H113.434ZM122.421 264.928H124.653V262.936H122.421C122.085 262.936 121.801 263.032 121.569 263.224C121.345 263.408 121.233 263.636 121.233 263.908C121.233 264.204 121.345 264.448 121.569 264.64C121.801 264.832 122.085 264.928 122.421 264.928ZM123.117 265.804L121.413 268H120.237L122.013 265.744C121.501 265.712 121.077 265.52 120.741 265.168C120.405 264.816 120.237 264.392 120.237 263.896C120.237 263.36 120.433 262.912 120.825 262.552C121.217 262.184 121.705 262 122.289 262H125.613V268H124.653V265.804H123.117ZM131.697 262V262.912H129.657V268H128.697V262.912H126.657V262H131.697ZM136.287 265.312H133.719V267.064H136.287C136.591 267.064 136.843 266.984 137.043 266.824C137.243 266.656 137.343 266.452 137.343 266.212C137.343 265.956 137.243 265.744 137.043 265.576C136.843 265.4 136.591 265.312 136.287 265.312ZM136.407 264.4C136.943 264.4 137.391 264.576 137.751 264.928C138.119 265.28 138.303 265.712 138.303 266.224C138.303 266.728 138.119 267.152 137.751 267.496C137.391 267.832 136.943 268 136.407 268H132.759V262H133.719V264.4H136.407ZM147.724 264.544C147.676 263.984 147.448 263.532 147.04 263.188C146.632 262.844 146.14 262.672 145.564 262.672C145.012 262.672 144.536 262.844 144.136 263.188C143.744 263.524 143.512 263.976 143.44 264.544H147.724ZM143.44 265.42C143.512 265.988 143.752 266.444 144.16 266.788C144.568 267.132 145.052 267.304 145.612 267.304C146.044 267.304 146.436 267.204 146.788 267.004C147.14 266.796 147.404 266.512 147.58 266.152L148.468 266.5C148.204 267.028 147.816 267.448 147.304 267.76C146.8 268.064 146.24 268.216 145.624 268.216C144.728 268.216 143.972 267.912 143.356 267.304C142.748 266.688 142.444 265.916 142.444 264.988C142.444 264.06 142.744 263.292 143.344 262.684C143.944 262.068 144.68 261.76 145.552 261.76C146.432 261.76 147.176 262.06 147.784 262.66C148.392 263.252 148.696 264 148.696 264.904C148.696 265.048 148.676 265.22 148.636 265.42H143.44ZM149.833 268V262H153.877V262.912H150.793V268H149.833ZM156.392 263.344C155.952 263.768 155.732 264.316 155.732 264.988C155.732 265.66 155.952 266.212 156.392 266.644C156.84 267.068 157.384 267.28 158.024 267.28C158.664 267.28 159.204 267.068 159.644 266.644C160.092 266.212 160.316 265.66 160.316 264.988C160.316 264.316 160.092 263.768 159.644 263.344C159.204 262.912 158.664 262.696 158.024 262.696C157.384 262.696 156.84 262.912 156.392 263.344ZM155.708 267.304C155.084 266.696 154.772 265.924 154.772 264.988C154.772 264.052 155.084 263.28 155.708 262.672C156.34 262.064 157.112 261.76 158.024 261.76C158.936 261.76 159.704 262.064 160.328 262.672C160.96 263.28 161.276 264.052 161.276 264.988C161.276 265.924 160.96 266.696 160.328 267.304C159.704 267.912 158.936 268.216 158.024 268.216C157.112 268.216 156.34 267.912 155.708 267.304Z" fill="#001806"/>
<path d="M69.8703 170.288V168.851V167.415C69.8703 167.316 69.8703 167.267 69.8703 167.167C69.6722 166.524 69.4741 166.375 68.8797 166.177C68.7807 166.177 68.7311 166.127 68.6321 166.127H67.9882C67.5425 166.127 67.1958 165.781 67.1958 165.384V164.691C67.1958 164.642 67.1958 164.542 67.1462 164.493C66.9481 163.849 66.7995 163.651 66.1557 163.453C66.1061 163.453 66.0071 163.453 65.908 163.453H64.4717H61.7972H60.3113C60.2618 163.453 60.1627 163.453 60.1132 163.453C59.4693 163.651 59.3207 163.849 59.1226 164.493C59.0731 164.542 59.0731 164.642 59.0731 164.691V166.127V168.851V170.783C59.0731 171.179 58.7264 171.526 58.2807 171.526H57.6368C57.5377 171.526 57.4882 171.575 57.3892 171.575C56.7948 171.774 51.5967 171.972 51.3986 172.566C51.3986 172.665 51.3986 172.715 51.3986 172.814V174.25V176.974V178.41C51.3986 178.46 51.3986 178.559 51.3986 178.609C51.5967 179.252 51.7948 179.45 52.3892 179.599C52.4882 179.649 52.5377 179.649 52.6368 179.649H54.0731H56.7972H59.4717H60.908C61.0071 179.649 61.1061 179.649 61.1557 179.599C61.7995 179.45 61.9481 179.252 62.1462 178.609C62.1958 178.559 62.1958 178.46 62.1958 178.41V176.974V174.25L67.1958 172.318C67.1958 171.922 67.5425 171.526 67.9882 171.526H68.7311C69.4741 171.328 69.6722 171.179 69.8703 170.535C69.8703 170.436 69.8703 170.387 69.8703 170.288ZM71.0094 166.127H71.8019C72.2476 166.127 72.5943 166.474 72.5943 166.92V168.851V170.783C72.5943 171.179 72.2476 171.526 71.8019 171.526H71.158C71.059 171.526 71.0094 171.575 70.9104 171.575C70.2665 171.774 65.1179 171.972 64.9198 172.566C64.9198 172.665 64.8703 172.715 64.8703 172.814V174.25V176.974V178.856C64.8703 179.302 64.5236 179.649 64.0778 179.649H63.3349C62.592 179.847 62.3939 179.995 62.1958 180.689C62.1958 180.738 62.1958 180.837 62.1958 180.887V181.58C62.1958 182.026 61.8491 182.373 61.4033 182.373H59.4717H56.7972H54.0731H52.1415C51.7453 182.373 51.3986 182.026 51.3986 181.58V180.887C51.3986 180.837 51.3491 180.738 51.3491 180.689C51.1509 179.995 50.9528 179.847 50.2099 179.649H50.2594H49.8137C49.1203 179.847 48.9222 179.995 48.7241 180.689C48.6745 180.738 48.6745 180.837 48.6745 180.887V182.373V185.047V187.771V190.446V193.17V195.101C48.6745 195.498 48.3278 195.844 47.8821 195.844H46.7429C46.3467 195.844 46 195.498 46 195.101V193.17V190.446V187.771V185.047V182.373V179.649V177.717C46 177.321 46.3467 176.974 46.7429 176.974H47.4363C47.4858 176.974 47.5849 176.925 47.6344 176.925C48.2783 176.726 48.4764 176.528 48.625 175.934C48.6745 175.835 48.6745 175.785 48.6745 175.686V174.25L53.6745 172.318C53.6745 171.922 54.0212 171.526 54.467 171.526H55.2594C55.2594 171.526 55.2594 171.526 55.2099 171.526C55.9528 171.328 56.1509 171.179 56.3491 170.535C56.3491 170.436 56.3986 170.387 56.3986 170.288V168.851V166.127V164.691C56.3986 164.642 56.3491 164.542 56.3491 164.493C56.1509 163.8 55.9528 163.651 55.2099 163.453C55.2594 163.453 55.2594 163.453 55.2594 163.453H54.467C54.0212 163.453 53.6745 163.106 53.6745 162.66V161.521C53.6745 161.075 54.0212 160.729 54.467 160.729H55.6061C56.0024 160.729 56.3986 161.075 56.3986 161.521V162.215C56.3986 162.264 56.3986 162.363 56.3986 162.413C56.5967 163.057 56.7948 163.205 57.3892 163.403C57.4882 163.453 57.5377 163.453 57.6368 163.453H57.934C58.6769 163.255 58.8255 163.057 59.0236 162.413C59.0731 162.363 59.0731 162.264 59.0731 162.165V161.521C59.0731 161.075 59.4198 160.729 59.8656 160.729H61.7972H64.4717H66.4033C66.8491 160.729 67.1958 161.075 67.1958 161.521V162.165C67.1958 162.264 67.1958 162.363 67.1958 162.413C67.3939 163.057 67.592 163.255 68.3349 163.453H69.0778C69.5236 163.453 69.8703 163.8 69.8703 164.245V164.889C69.8703 164.988 69.9198 165.038 69.9198 165.087C70.1179 165.781 70.316 165.929 71.0094 166.127ZM78.6554 180.045H81.3795H82.8158C82.8653 180.045 82.9644 180.045 83.0139 179.995C83.6578 179.797 83.8559 179.649 84.054 179.005C84.054 178.955 84.054 178.856 84.054 178.807V177.321V174.646V173.21C84.054 173.111 84.054 173.061 84.054 172.962C83.8559 172.318 88.6578 172.17 88.0139 171.972C87.9644 171.922 87.8653 171.922 87.8158 171.922H86.3795H83.6554H80.9809H79.495C79.4455 171.922 79.3464 171.922 79.2969 171.972C78.653 172.17 73.4549 172.318 73.3063 172.962C73.2568 173.061 73.2568 173.111 73.2568 173.21V174.646V177.321V178.807C73.2568 178.856 73.2568 178.955 73.3063 179.005C73.4549 179.649 73.653 179.797 74.2969 179.995C74.3464 180.045 74.4455 180.045 74.495 180.045H75.9809H78.6554ZM89.4526 179.005C89.4526 178.955 89.4526 178.856 89.4526 178.807V178.113C89.4526 177.667 89.7993 177.321 90.245 177.321H91.3842C91.8299 177.321 92.1766 177.667 92.1766 178.113V179.252C92.1766 179.698 91.8299 180.045 91.3842 180.045H90.5917C89.8983 180.243 89.7002 180.392 89.5021 181.085C89.5021 181.134 89.4526 181.234 89.4526 181.283V181.976C89.4526 182.373 89.1059 182.719 88.6601 182.719H87.5705C87.1247 182.719 86.778 182.373 86.778 181.976V181.283C86.778 181.234 86.778 181.134 86.7285 181.085C86.5304 180.392 86.3323 180.243 85.6389 180.045H85.1931C84.4997 180.243 84.3016 180.392 84.1035 181.085C84.054 181.134 84.054 181.234 84.054 181.283V181.976C84.054 182.373 83.7073 182.719 83.2615 182.719H81.3795H78.6554H75.9809H74.0493C73.6035 182.719 73.2568 182.373 73.2568 181.976V181.283C73.2568 181.234 73.2568 181.134 73.2073 181.085C73.0092 180.392 72.8606 180.243 72.1177 180.045H71.3252C70.929 180.045 70.5823 179.698 70.5823 179.252V177.321V174.646V172.715C70.5823 172.269 75.929 171.922 76.3252 171.922H77.0186C77.0681 171.922 77.1672 171.922 77.2167 171.922C77.8606 171.724 78.0587 171.526 78.2073 170.882C78.2568 170.833 78.2568 170.734 78.2568 170.684V170.04C78.2568 169.594 78.6035 169.248 79.0493 169.248H80.9809H83.6554H86.3795H88.2615C88.7073 169.248 89.054 169.594 89.054 170.04V170.684C89.054 170.734 89.054 170.833 89.1035 170.882C89.3016 171.526 89.4502 171.724 90.0941 171.922C90.1931 171.922 90.2427 171.922 90.3417 171.922H90.4903C90.5894 171.922 90.6389 171.922 90.7379 171.922C91.3818 171.724 91.5304 171.526 91.7285 170.882C91.778 170.833 91.778 170.734 91.778 170.684V169.248V166.524V165.087C91.778 164.988 91.778 164.939 91.7285 164.84C91.5304 164.245 91.3818 164.047 90.7379 163.849C90.6389 163.849 90.5894 163.849 90.4903 163.849H89.054H86.3795H83.6554H82.2191C82.12 163.849 82.0705 163.849 81.9714 163.849C81.3771 164.047 81.179 164.245 80.9809 164.84C80.9809 164.939 80.9809 164.988 80.9809 165.087V165.731C80.9809 166.177 80.5846 166.524 80.1884 166.524H79.0493C78.6035 166.524 78.2568 166.177 78.2568 165.731V164.592C78.2568 164.196 78.6035 163.849 79.0493 163.849H79.6931C79.7922 163.849 79.8417 163.8 79.9408 163.8C80.5846 163.601 80.7332 163.453 80.9313 162.809C80.9313 162.71 80.9809 162.66 80.9809 162.561V161.917C80.9809 161.472 81.3276 161.125 81.7238 161.125H83.6554H86.3795H89.054H90.9856C91.4313 161.125 91.778 161.472 91.778 161.917V162.561C91.778 162.66 91.778 162.71 91.778 162.809C91.9762 163.453 92.1743 163.601 92.8181 163.8C92.8677 163.8 92.9667 163.849 93.0162 163.849H93.6601C94.1059 163.849 94.4526 164.196 94.4526 164.592V166.524V169.248V171.13C94.4526 171.575 94.1059 171.922 93.6601 171.922H93.0162C92.9667 171.922 92.8677 171.922 92.8181 171.972C92.1743 172.17 86.9762 172.318 86.778 172.962C86.778 173.061 86.778 173.111 86.778 173.21V174.646V177.321V178.807C86.778 178.856 86.778 178.955 86.778 179.005C86.9762 179.649 87.1743 179.797 87.8181 179.995C87.8677 180.045 87.9667 180.045 88.0162 180.045H88.2144C88.3134 180.045 88.3629 180.045 88.462 179.995C89.0563 179.797 89.2545 179.649 89.4526 179.005ZM117.499 163.849H118.242C118.688 163.849 119.035 164.196 119.035 164.592V165.731C119.035 166.177 118.688 166.524 118.242 166.524H117.153C116.707 166.524 116.36 166.177 116.36 165.731V165.087C116.36 164.988 116.36 164.939 116.311 164.84C116.113 164.245 115.964 164.047 115.32 163.849C115.271 163.849 115.172 163.849 115.122 163.849H113.636H110.962H109.476C109.426 163.849 109.327 163.849 109.278 163.849C108.634 164.047 108.485 164.245 108.287 164.84C108.238 164.939 108.238 164.988 108.238 165.087V166.524V169.248V171.13C108.238 171.575 107.891 171.922 107.445 171.922H106.801C106.702 171.922 106.653 171.922 106.554 171.972C105.959 172.17 100.761 172.318 100.563 172.962C100.563 173.012 100.563 173.111 100.563 173.21V174.646V176.528C100.563 176.974 100.167 177.321 99.7707 177.321H99.0773C99.0278 177.321 98.9287 177.321 98.8792 177.37C98.2353 177.568 98.0372 177.717 97.8886 178.361C97.8391 178.46 97.8391 178.509 97.8391 178.609V180.045V181.976C97.8391 182.373 97.4924 182.719 97.0466 182.719H95.9075C95.5113 182.719 95.1646 182.373 95.1646 181.976V180.045V178.113C95.1646 177.667 95.5113 177.321 95.9075 177.321H96.7C97.4429 177.123 97.5915 176.974 97.7896 176.281C97.8391 176.231 97.8391 176.132 97.8391 176.083V174.646V172.715C97.8391 172.269 103.186 171.922 103.632 171.922H104.275C104.374 171.922 104.424 171.922 104.523 171.922C105.167 171.724 105.315 171.526 105.514 170.882C105.514 170.833 105.563 170.734 105.563 170.684V169.248V166.524V165.087C105.563 164.988 105.514 164.939 105.514 164.84C105.315 164.245 105.167 164.047 104.523 163.849C104.424 163.849 104.374 163.849 104.275 163.849H103.632C103.186 163.849 102.839 163.453 102.839 163.057V161.917C102.839 161.472 103.186 161.125 103.632 161.125H104.771C105.167 161.125 105.563 161.472 105.563 161.917V162.561C105.563 162.66 105.563 162.71 105.563 162.809C105.761 163.453 105.959 163.601 106.702 163.849H107.098C107.841 163.601 108.04 163.453 108.188 162.809C108.238 162.71 108.238 162.66 108.238 162.561V161.917C108.238 161.472 108.584 161.125 109.03 161.125H110.962H113.636H115.568C116.014 161.125 116.36 161.472 116.36 161.917V162.561C116.36 162.66 116.36 162.71 116.36 162.809C116.558 163.453 116.757 163.601 117.499 163.849ZM121.581 180.045H124.305H125.741C125.79 180.045 125.89 180.045 125.939 179.995C126.583 179.797 126.781 179.649 126.979 179.005C126.979 178.955 126.979 178.856 126.979 178.807V177.321V174.646V173.21C126.979 173.111 126.979 173.061 126.979 172.962C126.781 172.318 131.583 172.17 130.939 171.972C130.89 171.922 130.79 171.922 130.741 171.922H129.305H126.581H123.906H122.42C122.371 171.922 122.272 171.922 122.222 171.972C121.578 172.17 116.38 172.318 116.231 172.962C116.182 173.061 116.182 173.111 116.182 173.21V174.646V177.321V178.807C116.182 178.856 116.182 178.955 116.231 179.005C116.38 179.649 116.578 179.797 117.222 179.995C117.272 180.045 117.371 180.045 117.42 180.045H118.906H121.581ZM132.378 179.005C132.378 178.955 132.378 178.856 132.378 178.807V178.113C132.378 177.667 132.724 177.321 133.17 177.321H134.309C134.755 177.321 135.102 177.667 135.102 178.113V179.252C135.102 179.698 134.755 180.045 134.309 180.045H133.517C132.823 180.243 132.625 180.392 132.427 181.085C132.427 181.134 132.378 181.234 132.378 181.283V181.976C132.378 182.373 132.031 182.719 131.585 182.719H130.496C130.05 182.719 129.703 182.373 129.703 181.976V181.283C129.703 181.234 129.703 181.134 129.654 181.085C129.456 180.392 129.258 180.243 128.564 180.045H128.118C127.425 180.243 127.227 180.392 127.029 181.085C126.979 181.134 126.979 181.234 126.979 181.283V181.976C126.979 182.373 126.632 182.719 126.187 182.719H124.305H121.581H118.906H116.974C116.529 182.719 116.182 182.373 116.182 181.976V181.283C116.182 181.234 116.182 181.134 116.132 181.085C115.934 180.392 115.786 180.243 115.043 180.045H114.25C113.854 180.045 113.507 179.698 113.507 179.252V177.321V174.646V172.715C113.507 172.269 118.854 171.922 119.25 171.922H119.944C119.993 171.922 120.092 171.922 120.142 171.922C120.786 171.724 120.984 171.526 121.132 170.882C121.182 170.833 121.182 170.734 121.182 170.684V170.04C121.182 169.594 121.529 169.248 121.974 169.248H123.906H126.581H129.305H131.187C131.632 169.248 131.979 169.594 131.979 170.04V170.684C131.979 170.734 131.979 170.833 132.029 170.882C132.227 171.526 132.375 171.724 133.019 171.922C133.118 171.922 133.168 171.922 133.267 171.922H133.415C133.514 171.922 133.564 171.922 133.663 171.922C134.307 171.724 134.456 171.526 134.654 170.882C134.703 170.833 134.703 170.734 134.703 170.684V169.248V166.524V165.087C134.703 164.988 134.703 164.939 134.654 164.84C134.456 164.245 134.307 164.047 133.663 163.849C133.564 163.849 133.514 163.849 133.415 163.849H131.979H129.305H126.581H125.144C125.045 163.849 124.996 163.849 124.897 163.849C124.302 164.047 124.104 164.245 123.906 164.84C123.906 164.939 123.906 164.988 123.906 165.087V165.731C123.906 166.177 123.51 166.524 123.114 166.524H121.974C121.529 166.524 121.182 166.177 121.182 165.731V164.592C121.182 164.196 121.529 163.849 121.974 163.849H122.618C122.717 163.849 122.767 163.8 122.866 163.8C123.51 163.601 123.658 163.453 123.856 162.809C123.856 162.71 123.906 162.66 123.906 162.561V161.917C123.906 161.472 124.253 161.125 124.649 161.125H126.581H129.305H131.979H133.911C134.356 161.125 134.703 161.472 134.703 161.917V162.561C134.703 162.66 134.703 162.71 134.703 162.809C134.901 163.453 135.099 163.601 135.743 163.8C135.793 163.8 135.892 163.849 135.941 163.849H136.585C137.031 163.849 137.378 164.196 137.378 164.592V166.524V169.248V171.13C137.378 171.575 137.031 171.922 136.585 171.922H135.941C135.892 171.922 135.793 171.922 135.743 171.972C135.099 172.17 129.901 172.318 129.703 172.962C129.703 173.061 129.703 173.111 129.703 173.21V174.646V177.321V178.807C129.703 178.856 129.703 178.955 129.703 179.005C129.901 179.649 130.099 179.797 130.743 179.995C130.793 180.045 130.892 180.045 130.941 180.045H131.14C131.239 180.045 131.288 180.045 131.387 179.995C131.981 179.797 132.18 179.649 132.378 179.005ZM160.425 163.849H161.168C161.613 163.849 161.96 164.196 161.96 164.592V165.731C161.96 166.177 161.613 166.524 161.168 166.524H160.078C159.632 166.524 159.285 166.177 159.285 165.731V165.087C159.285 164.988 159.285 164.939 159.236 164.84C159.038 164.245 158.889 164.047 158.245 163.849C158.196 163.849 158.097 163.849 158.047 163.849H156.561H153.887H152.401C152.352 163.849 152.252 163.849 152.203 163.849C151.559 164.047 151.41 164.245 151.212 164.84C151.163 164.939 151.163 164.988 151.163 165.087V165.731C151.163 166.177 150.816 166.524 150.37 166.524H149.727C149.628 166.524 149.578 166.524 149.479 166.573C148.885 166.771 148.686 166.92 148.488 167.564C148.488 167.613 148.488 167.712 148.488 167.762V167.96C148.488 168.059 148.488 168.109 148.488 168.208C148.686 168.851 148.885 169 149.479 169.198C149.578 169.198 149.628 169.248 149.727 169.248H151.163H153.887H155.769C156.215 169.248 156.561 169.594 156.561 169.991V170.684C156.561 170.734 156.561 170.833 156.611 170.882C156.809 171.526 156.958 171.724 157.602 171.922C157.701 171.922 157.75 171.922 157.849 171.922H158.493C158.939 171.922 154.285 172.269 154.285 172.715V174.646V176.528C154.285 176.974 153.939 177.321 153.493 177.321H152.8C152.75 177.321 152.651 177.321 152.602 177.37C151.958 177.568 151.809 177.717 151.611 178.361C151.561 178.46 151.561 178.509 151.561 178.609V179.252C151.561 179.698 151.215 180.045 150.769 180.045H150.125C150.026 180.045 149.977 180.045 149.877 180.045C149.283 180.243 149.085 180.441 148.887 181.085C148.887 181.134 148.887 181.234 148.887 181.283V181.976C148.887 182.373 148.54 182.719 148.094 182.719H146.163H143.488H141.557C141.111 182.719 140.764 182.373 140.764 181.976V181.283C140.764 181.234 140.764 181.134 140.715 181.085C140.566 180.441 140.368 180.243 139.724 180.045C139.675 180.045 139.576 180.045 139.526 180.045H138.833C138.436 180.045 138.09 179.698 138.09 179.252V178.113C138.09 177.667 138.436 177.321 138.833 177.321H139.972C140.418 177.321 140.764 177.667 140.764 178.113V178.757C140.764 178.856 140.764 178.906 140.814 179.005C141.012 179.649 141.21 179.847 141.903 180.045H143.488H146.163H147.748C148.441 179.847 148.639 179.649 148.837 179.005C148.837 178.906 148.887 178.856 148.887 178.757V178.113C148.887 177.667 149.234 177.321 149.679 177.321H150.422C151.165 177.123 151.363 176.974 151.561 176.281C151.561 176.231 151.561 176.132 151.561 176.083V174.646V173.21C151.561 173.111 151.561 173.012 151.561 172.962C151.363 172.318 156.165 172.17 155.521 171.972C155.472 171.922 155.373 171.922 155.323 171.922H153.887H151.163H149.231C148.835 171.922 148.488 171.575 148.488 171.13V170.486C148.488 170.387 148.439 170.337 148.439 170.238C148.241 169.644 148.092 169.446 147.448 169.248C147.349 169.248 147.3 169.248 147.201 169.248H146.557C146.111 169.248 145.764 168.901 145.764 168.455V167.316C145.764 166.87 146.111 166.524 146.557 166.524H147.201C147.3 166.524 147.349 166.524 147.448 166.474C148.092 166.325 148.241 166.127 148.439 165.484C148.439 165.434 148.488 165.335 148.488 165.285V164.592C148.488 164.196 148.835 163.849 149.231 163.849H150.024C150.767 163.601 150.915 163.453 151.113 162.809C151.163 162.71 151.163 162.66 151.163 162.561V161.917C151.163 161.472 151.51 161.125 151.955 161.125H153.887H156.561H158.493C158.939 161.125 159.285 161.472 159.285 161.917V162.561C159.285 162.66 159.285 162.71 159.285 162.809C159.484 163.453 159.682 163.601 160.425 163.849ZM183.834 162.958C183.834 163.057 183.883 163.106 183.883 163.205C184.081 163.8 184.23 163.998 184.874 164.196C184.973 164.196 185.022 164.196 185.121 164.196H185.765C186.211 164.196 186.558 164.542 186.558 164.988V166.92V169.594V171.526C186.558 171.972 186.211 172.318 185.765 172.318H185.121C185.022 172.318 179.973 172.318 179.874 172.368C179.23 172.517 179.081 172.715 178.883 173.359C178.883 173.408 178.834 173.507 178.834 173.557V175.042V176.925C178.834 177.37 178.487 177.717 178.041 177.717H177.397C177.348 177.717 177.249 177.717 177.199 177.767C176.555 177.965 176.357 178.113 176.159 178.757C176.159 178.807 176.159 178.906 176.159 178.955V180.441V182.323C176.159 182.769 175.813 183.116 175.367 183.116H174.228C173.782 183.116 173.435 182.769 173.435 182.323V180.441V178.509C173.435 178.064 173.782 177.717 174.228 177.717H174.871C174.971 177.717 175.02 177.717 175.119 177.667C175.763 177.519 175.912 177.321 176.11 176.677C176.159 176.627 176.159 176.528 176.159 176.479V175.042V173.111C176.159 172.665 181.506 172.318 181.952 172.318H182.596C182.695 172.318 182.744 172.318 182.794 172.269C183.438 172.12 183.636 171.922 183.834 171.278C183.834 171.229 183.834 171.13 183.834 171.08V169.594V166.92V165.484C183.834 165.384 183.834 165.335 183.834 165.236C183.636 164.592 183.438 164.443 182.794 164.245C182.744 164.245 182.695 164.196 182.596 164.196H181.159H178.435H175.761H174.275C174.225 164.196 174.126 164.245 174.077 164.245C173.433 164.443 173.284 164.592 173.086 165.236C173.037 165.335 173.037 165.384 173.037 165.484V166.92V169.594V171.526C173.037 171.972 172.69 172.318 172.244 172.318H171.6C171.501 172.318 166.452 172.318 166.353 172.368C165.758 172.517 165.56 172.715 165.362 173.359C165.362 173.408 165.362 173.507 165.362 173.557V175.042V176.925C165.362 177.37 164.966 177.717 164.57 177.717H163.876C163.827 177.717 163.728 177.717 163.678 177.767C163.034 177.965 162.836 178.113 162.688 178.757C162.638 178.807 162.638 178.906 162.638 178.955V180.441V182.323C162.638 182.769 162.291 183.116 161.846 183.116H160.706C160.31 183.116 159.963 182.769 159.963 182.323V180.441V178.509C159.963 178.064 160.31 177.717 160.706 177.717H161.4C161.449 177.717 161.548 177.717 161.598 177.667C162.242 177.519 162.44 177.321 162.588 176.677C162.638 176.627 162.638 176.528 162.638 176.479V175.042V173.111C162.638 172.665 167.985 172.318 168.43 172.318H169.074C169.173 172.318 169.223 172.318 169.322 172.269C169.966 172.12 170.114 171.922 170.313 171.278C170.313 171.229 170.362 171.13 170.362 171.08V169.594V166.92V164.196V161.521V158.797V156.123V154.686C170.362 154.587 170.313 154.538 170.313 154.439C170.114 153.795 169.966 153.646 169.322 153.448C169.223 153.399 169.173 153.399 169.074 153.399H168.43C167.985 153.399 167.638 153.052 167.638 152.606V151.517C167.638 151.071 167.985 150.724 168.43 150.724H169.074C169.173 150.724 169.223 150.675 169.322 150.675C169.966 150.476 170.114 150.328 170.313 149.684C170.313 149.585 170.362 149.535 170.362 149.436V148.792C170.362 148.347 170.709 148 171.105 148H172.244C172.69 148 173.037 148.347 173.037 148.792V150.724V153.399V156.123V158.797V160.283C173.037 160.333 173.037 160.432 173.086 160.481C173.284 161.125 173.433 161.274 174.077 161.472C174.126 161.521 174.225 161.521 174.275 161.521H175.761H178.435H181.159H183.041C183.487 161.521 183.834 161.868 183.834 162.314V162.958ZM208.416 163.651V161.719C208.416 161.274 208.763 160.927 209.208 160.927H210.348C210.793 160.927 211.14 161.274 211.14 161.719V163.651V165.533C211.14 165.979 210.793 166.325 210.348 166.325H209.704C209.605 166.325 209.555 166.325 209.456 166.375C208.812 166.573 208.664 166.722 208.466 167.366C208.466 167.465 208.416 167.514 208.416 167.613V169.05V170.932C208.416 171.377 208.069 171.724 207.624 171.724H206.881C206.138 171.922 200.94 172.12 200.741 172.764C200.741 172.863 200.741 172.913 200.741 173.012V174.448V177.123V178.609C200.741 178.658 200.741 178.757 200.741 178.807C200.94 179.45 201.138 179.649 201.782 179.797C201.831 179.847 201.93 179.847 201.98 179.847H202.178C202.277 179.847 202.326 179.847 202.376 179.797C203.02 179.649 203.218 179.45 203.416 178.807C203.416 178.757 203.416 178.658 203.416 178.609V177.915C203.416 177.469 203.763 177.123 204.208 177.123H205.348C205.793 177.123 206.14 177.469 206.14 177.915V179.054C206.14 179.5 205.793 179.847 205.348 179.847H204.704C204.605 179.847 204.555 179.847 204.456 179.896C203.812 180.045 203.664 180.243 203.466 180.887C203.466 180.936 203.416 181.035 203.416 181.085V181.778C203.416 182.175 203.069 182.521 202.624 182.521H201.534C201.088 182.521 200.741 182.175 200.741 181.778V181.085C200.741 181.035 200.741 180.936 200.692 180.887C200.494 180.243 200.345 180.045 199.701 179.896C199.602 179.847 199.553 179.847 199.454 179.847H199.305C199.206 179.847 199.157 179.847 199.058 179.896C198.414 180.045 198.265 180.243 198.067 180.887C198.017 180.936 198.017 181.035 198.017 181.085V181.778C198.017 182.175 197.671 182.521 197.225 182.521H195.343H192.619H189.944H188.013C187.567 182.521 187.22 182.175 187.22 181.778V181.085C187.22 181.035 187.22 180.936 187.171 180.887C187.022 180.243 186.824 180.045 186.18 179.896C186.131 179.847 186.032 179.847 185.982 179.847H185.289C184.892 179.847 184.546 179.5 184.546 179.054V177.123V175.241C184.546 174.795 184.892 174.448 185.289 174.448H185.982C186.032 174.448 186.131 174.448 186.18 174.399C186.824 174.2 187.022 174.052 187.171 173.408C187.22 173.359 187.22 173.259 187.22 173.21L192.22 171.724V169.05V167.118C192.22 166.672 192.567 166.325 193.013 166.325H193.805C193.805 166.325 193.805 166.325 193.756 166.325C194.499 166.127 194.697 165.979 194.895 165.285C194.895 165.236 194.944 165.137 194.944 165.087V163.651V161.719C194.944 161.274 195.291 160.927 195.687 160.927H196.826C197.272 160.927 197.619 161.274 197.619 161.719V163.651V165.533C197.619 165.979 197.272 166.325 196.826 166.325H196.183C196.083 166.325 196.034 166.325 195.935 166.375C195.341 166.573 195.142 166.722 194.944 167.366C194.944 167.465 194.944 167.514 194.944 167.613V169.05V171.724L189.944 173.656C189.944 174.101 189.598 174.448 189.152 174.448H188.359C187.666 174.646 187.468 174.795 187.27 175.488C187.22 175.538 187.22 175.637 187.22 175.686V177.123V178.609C187.22 178.658 187.22 178.757 187.27 178.807C187.418 179.45 187.616 179.649 188.26 179.797C188.31 179.847 188.409 179.847 188.458 179.847H189.944H192.619H195.343H196.779C196.829 179.847 196.928 179.847 196.977 179.797C197.621 179.649 197.819 179.45 198.017 178.807C198.017 178.757 198.017 178.658 198.017 178.609V177.123V174.448V172.517C198.017 172.071 203.364 171.724 203.81 171.724H204.454C204.553 171.724 204.602 171.724 204.701 171.724C205.345 171.526 205.494 171.328 205.692 170.684C205.741 170.634 205.741 170.535 205.741 170.486V169.05V167.118C205.741 166.672 206.088 166.325 206.534 166.325H207.277C208.02 166.127 208.218 165.979 208.416 165.285C208.416 165.236 208.416 165.137 208.416 165.087V163.651ZM225.321 163.601C225.371 163.601 225.47 163.651 225.519 163.651H227.005H228.887C229.333 163.651 229.68 163.998 229.68 164.394V165.533C229.68 165.979 229.333 166.325 228.887 166.325H227.005H225.519C225.47 166.325 225.371 166.325 225.321 166.375C224.677 166.573 224.529 166.722 224.33 167.366C224.281 167.465 224.281 167.514 224.281 167.613V168.257C224.281 168.703 223.934 169.05 223.488 169.05H222.845C222.746 169.05 222.696 169.05 222.597 169.05C222.003 169.248 221.805 169.446 221.606 170.09C221.606 170.139 221.606 170.238 221.606 170.288V171.724L216.606 174.448V177.123V178.609C216.606 178.658 216.606 178.757 216.606 178.807C216.805 179.45 217.003 179.649 217.597 179.797C217.696 179.847 217.746 179.847 217.845 179.847H219.281H220.717C220.816 179.847 220.866 179.847 220.965 179.797C221.609 179.649 221.757 179.45 221.955 178.807C221.955 178.757 222.005 178.658 222.005 178.609V177.915C222.005 177.469 222.352 177.123 222.797 177.123H223.887C224.333 177.123 224.68 177.469 224.68 177.915V179.054C224.68 179.5 224.333 179.847 223.887 179.847H223.243C223.194 179.847 223.095 179.847 223.045 179.896C222.401 180.045 222.203 180.243 222.005 180.887C222.005 180.936 222.005 181.035 222.005 181.085V181.778C222.005 182.175 221.658 182.521 221.213 182.521H219.281H217.349C216.953 182.521 216.606 182.175 216.606 181.778V181.085C216.606 181.035 216.557 180.936 216.557 180.887C216.359 180.243 216.21 180.045 215.566 179.896C215.467 179.847 215.418 179.847 215.319 179.847H214.675C214.229 179.847 213.882 179.5 213.882 179.054V177.123V174.448L218.882 171.724V169.842C218.882 169.396 219.229 169.05 219.675 169.05H220.319C220.418 169.05 220.467 169.05 220.566 169C221.21 168.802 221.359 168.653 221.557 168.009C221.557 167.91 221.606 167.861 221.606 167.762V167.118C221.606 166.672 221.953 166.325 222.349 166.325H223.043C223.092 166.325 223.191 166.325 223.241 166.325C223.885 166.127 224.083 165.929 224.231 165.285C224.281 165.236 224.281 165.137 224.281 165.087V164.889C224.281 164.79 224.281 164.741 224.231 164.691C224.083 163.998 223.885 163.849 223.142 163.651H221.606H218.882H216.951C216.555 163.651 216.208 163.304 216.208 162.859V161.719C216.208 161.274 216.555 160.927 216.951 160.927H218.882H220.319C220.418 160.927 220.467 160.927 220.566 160.877C221.21 160.729 221.359 160.531 221.557 159.887C221.557 159.837 221.606 159.738 221.606 159.689V158.252V156.321C221.606 155.875 221.953 155.528 222.349 155.528H223.488C223.934 155.528 224.281 155.875 224.281 156.321V158.252V160.927V162.363C224.281 162.462 224.281 162.512 224.33 162.611C224.529 163.255 224.677 163.403 225.321 163.601Z" fill="#EF7C05"/>
<path d="M65.1613 89.4042L64.8616 87.9994L64.562 86.5947C64.5414 86.4978 64.531 86.4494 64.5104 86.3525C64.1823 85.7641 63.9576 85.6601 63.335 85.5904C63.2381 85.611 63.1793 85.5729 63.0824 85.5936L62.4527 85.7279C62.0168 85.8209 61.6054 85.5541 61.5227 85.1666L61.3781 84.4885C61.3678 84.44 61.3471 84.3432 61.2883 84.3051C60.9603 83.7167 60.7736 83.5539 60.1026 83.4945C60.0541 83.5048 59.9573 83.5255 59.8604 83.5461L58.4557 83.8458L55.84 84.4037L54.3868 84.7136C54.3384 84.7239 54.2415 84.7446 54.1931 84.7549C53.6047 85.083 53.5007 85.3078 53.4413 85.9788C53.4031 86.0376 53.4238 86.1344 53.4341 86.1829L53.7338 87.5876L54.302 90.2517L54.7049 92.1408C54.7876 92.5283 54.5208 92.9397 54.0849 93.0327L53.4552 93.167C53.3583 93.1877 53.3202 93.2465 53.2233 93.2671C52.6834 93.5849 52.531 93.8199 52.4612 94.4425C52.4818 94.5394 52.4922 94.5879 52.5128 94.6847L52.8125 96.0895L53.3807 98.7536L53.6803 100.158C53.6906 100.207 53.7113 100.304 53.7216 100.352C54.0497 100.94 54.2848 101.093 54.897 101.114C55.0043 101.142 55.0527 101.132 55.1496 101.111L56.5543 100.811L59.2184 100.243L61.8341 99.6852L63.2388 99.3856C63.3357 99.3649 63.4326 99.3443 63.4707 99.2855C64.0694 99.0059 64.1734 98.7811 64.2328 98.1101C64.271 98.0513 64.2503 97.9545 64.24 97.906L63.9403 96.5013L63.3721 93.8372L62.9692 91.9481C62.8865 91.5605 63.1429 91.1007 63.5789 91.0077L64.3055 90.8527C64.9907 90.504 65.1535 90.3174 65.2129 89.6463C65.1923 89.5495 65.1819 89.501 65.1613 89.4042ZM65.4075 85.0977L66.1825 84.9324C66.6185 84.8394 67.0299 85.1061 67.1228 85.5421L67.5258 87.4312L67.9287 89.3203C68.0114 89.7078 67.7446 90.1192 67.3087 90.2122L66.679 90.3465C66.5821 90.3672 66.544 90.4259 66.4471 90.4466C65.8587 90.7747 65.7547 90.9994 65.685 91.622C65.7056 91.7189 65.6675 91.7777 65.6882 91.8745L65.9878 93.2793L66.556 95.9434L66.9486 97.7841C67.0416 98.22 66.7749 98.6314 66.3389 98.7244L65.6123 98.8794C64.9271 99.2281 64.7643 99.4147 64.7152 100.134C64.7255 100.183 64.7462 100.28 64.7565 100.328L64.9012 101.006C64.9942 101.442 64.7274 101.853 64.2915 101.946L62.4024 102.349L59.7867 102.907L57.1225 103.475L55.2334 103.878C54.8459 103.961 54.4345 103.694 54.3415 103.258L54.1969 102.58C54.1866 102.532 54.1175 102.445 54.1071 102.397C53.7687 101.76 53.544 101.656 52.7761 101.617L52.8245 101.607L52.3886 101.7C51.7518 102.038 51.589 102.225 51.5399 102.944C51.5018 103.003 51.5224 103.1 51.5328 103.148L51.8427 104.602L52.4006 107.217L52.9689 109.881L53.5268 112.497L54.095 115.161L54.4979 117.05C54.5806 117.438 54.3138 117.849 53.8779 117.942L52.7638 118.18C52.3763 118.263 51.9649 117.996 51.8823 117.608L51.4793 115.719L50.9111 113.055L50.3532 110.439L49.7849 107.775L49.227 105.16L48.6588 102.495L48.2559 100.606C48.1732 100.219 48.4399 99.8074 48.8275 99.7248L49.5056 99.5801C49.554 99.5698 49.6406 99.5007 49.689 99.4904C50.2774 99.1623 50.4298 98.9272 50.4512 98.3149C50.4789 98.2077 50.4686 98.1593 50.4479 98.0624L50.1483 96.6577L49.7454 94.7686C49.6627 94.3811 49.9192 93.9212 50.3551 93.8283L51.1301 93.663C51.1301 93.663 51.1301 93.663 51.0817 93.6733C51.7669 93.3246 51.9297 93.1379 51.9891 92.4669C51.9685 92.37 52.0066 92.3112 51.9859 92.2144L51.6863 90.8096L51.1181 88.1455L50.8185 86.7408C50.8081 86.6923 50.739 86.6058 50.7287 86.5574C50.3903 85.9205 50.1655 85.8166 49.3976 85.7778C49.4461 85.7674 49.4461 85.7674 49.4461 85.7674L48.6711 85.9327C48.2351 86.0257 47.8237 85.759 47.7307 85.323L47.4931 84.2089C47.4001 83.773 47.6669 83.3616 48.1028 83.2686L49.2169 83.031C49.6044 82.9483 50.0642 83.2048 50.1572 83.6407L50.3019 84.3188C50.3122 84.3673 50.3329 84.4642 50.3432 84.5126C50.6713 85.101 50.896 85.205 51.5186 85.2747C51.6258 85.3025 51.6743 85.2922 51.7711 85.2715L52.0618 85.2095C52.747 84.8608 52.851 84.6361 52.9104 83.965C52.9486 83.9063 52.9279 83.8094 52.9072 83.7125L52.7729 83.0828C52.6799 82.6468 52.9467 82.2355 53.3826 82.1425L55.2717 81.7395L57.8874 81.1816L59.7765 80.7787C60.2125 80.6857 60.6239 80.9525 60.7169 81.3884L60.8512 82.0181C60.8718 82.115 60.8925 82.2119 60.9028 82.2603C61.2309 82.8487 61.466 83.0011 62.2339 83.0399L62.9605 82.8849C63.3964 82.7919 63.8078 83.0587 63.9008 83.4946L64.0351 84.1243C64.0558 84.2212 64.1145 84.2593 64.1249 84.3078C64.4633 84.9446 64.688 85.0486 65.4075 85.0977ZM80.6784 96.071L83.3426 95.5028L84.7473 95.2031C84.7957 95.1928 84.8926 95.1721 84.9307 95.1134C85.5191 94.7853 85.6819 94.5987 85.7413 93.9276C85.731 93.8792 85.7103 93.7823 85.7 93.7339L85.39 92.2807L84.8321 89.665L84.5325 88.2603C84.5118 88.1634 84.5015 88.115 84.4808 88.0181C84.1528 87.4297 83.928 87.3257 83.257 87.2663C83.1982 87.2282 83.1014 87.2489 83.0529 87.2592L81.6482 87.5588L78.9841 88.127L76.3684 88.685L74.9152 88.9949C74.8668 89.0052 74.7699 89.0259 74.7318 89.0847C74.1434 89.4127 73.9806 89.5994 73.9696 90.2601C73.9419 90.3673 73.9522 90.4157 73.9729 90.5126L74.2725 91.9173L74.8304 94.533L75.1403 95.9862C75.1507 96.0346 75.1713 96.1315 75.2301 96.1696C75.5097 96.7683 75.7345 96.8723 76.4055 96.9317C76.4643 96.9699 76.5612 96.9492 76.6096 96.9389L78.0628 96.6289L80.6784 96.071ZM91.0211 92.8015C91.0108 92.7531 90.9901 92.6562 90.9798 92.6077L90.8352 91.9296C90.7422 91.4936 91.0089 91.0823 91.4449 90.9893L92.559 90.7516C92.9949 90.6587 93.4063 90.9254 93.4993 91.3614L93.7369 92.4754C93.8299 92.9114 93.5631 93.3228 93.1272 93.4158L92.3522 93.5811C91.7154 93.9195 91.5526 94.1061 91.5035 94.8256C91.5138 94.874 91.486 94.9812 91.4964 95.0297L91.641 95.7078C91.7237 96.0953 91.4569 96.5067 91.021 96.5997L89.9553 96.827C89.5194 96.92 89.108 96.6532 89.0253 96.2657L88.8807 95.5876C88.8704 95.5391 88.8497 95.4423 88.7909 95.4042C88.4525 94.7673 88.2278 94.6634 87.5083 94.6142L87.0724 94.7072C86.4355 95.0456 86.2728 95.2323 86.2237 95.9517C86.1856 96.0105 86.2062 96.1074 86.2166 96.1558L86.3612 96.834C86.4439 97.2215 86.1771 97.6329 85.7412 97.7258L83.9005 98.1185L81.2364 98.6867L78.6207 99.2446L76.7316 99.6475C76.2956 99.7405 75.8842 99.4738 75.8016 99.0863L75.6569 98.4081C75.6466 98.3597 75.6259 98.2628 75.5672 98.2247C75.2288 97.5879 75.0524 97.4736 74.2845 97.4348L73.5095 97.6001C73.122 97.6827 72.7106 97.416 72.6176 96.98L72.2147 95.0909L71.6568 92.4752L71.2539 90.5861C71.1609 90.1502 71.4276 89.7388 71.8151 89.6561L72.4933 89.5115C72.5417 89.5012 72.6386 89.4805 72.687 89.4702C73.2754 89.1421 73.4278 88.907 73.4388 88.2463C73.4769 88.1875 73.4563 88.0907 73.4459 88.0422L73.3116 87.4125C73.2187 86.9766 73.4854 86.5652 73.9214 86.4722L75.8105 86.0693L78.4262 85.5114L81.0903 84.9431L82.931 84.5505C83.3669 84.4575 83.7783 84.7243 83.8713 85.1602L84.0056 85.7899C84.0159 85.8384 84.0366 85.9352 84.0954 85.9734C84.4234 86.5617 84.6101 86.7245 85.2811 86.7839C85.378 86.7633 85.4264 86.7529 85.5233 86.7323L85.6686 86.7013C85.7655 86.6806 85.8139 86.6703 85.9108 86.6496C86.4992 86.3216 86.6032 86.0968 86.6626 85.4258C86.7007 85.367 86.6801 85.2701 86.6697 85.2217L86.3701 83.817L85.8019 81.1528L85.5022 79.7481C85.4816 79.6512 85.4713 79.6028 85.4021 79.5163C85.0844 78.9763 84.8978 78.8136 84.2267 78.7541C84.1299 78.7748 84.0814 78.7851 83.9845 78.8058L82.5798 79.1054L79.9641 79.6633L77.3 80.2315L75.8953 80.5312C75.7984 80.5518 75.75 80.5621 75.6531 80.5828C75.1131 80.9005 74.9607 81.1356 74.8909 81.7582C74.9116 81.8551 74.9219 81.9035 74.9426 82.0004L75.0769 82.6301C75.1699 83.0661 74.8547 83.4878 74.4672 83.5704L73.3531 83.8081C72.9172 83.9011 72.5058 83.6343 72.4128 83.1984L72.1752 82.0843C72.0925 81.6968 72.3593 81.2854 72.7952 81.1924L73.4249 81.0581C73.5218 81.0374 73.5599 80.9786 73.6568 80.958C74.2451 80.6299 74.3595 80.4536 74.4189 79.7826C74.3982 79.6857 74.4364 79.6269 74.4157 79.53L74.2814 78.9003C74.1884 78.4644 74.4551 78.053 74.8427 77.9703L76.7318 77.5674L79.3959 76.9992L82.0116 76.4413L83.9007 76.0383C84.3366 75.9453 84.748 76.2121 84.841 76.648L84.9753 77.2777C84.996 77.3746 85.0063 77.4231 85.027 77.5199C85.3551 78.1083 85.5798 78.2123 86.2508 78.2717C86.2993 78.2614 86.4065 78.2892 86.4549 78.2789L87.0846 78.1445C87.5206 78.0516 87.932 78.3183 88.0146 78.7058L88.4176 80.5949L88.9858 83.2591L89.3784 85.0997C89.4714 85.5357 89.2046 85.9471 88.7687 86.0401L88.139 86.1744C88.0905 86.1847 87.9937 86.2054 87.9556 86.2641C87.3672 86.5922 87.2044 86.7788 87.145 87.4499C87.1656 87.5468 87.176 87.5952 87.1966 87.6921L87.4963 89.0968L88.0542 91.7125L88.3641 93.1656C88.3744 93.2141 88.3951 93.311 88.4054 93.3594C88.7335 93.9478 88.9583 94.0518 89.6293 94.1112C89.6881 94.1493 89.7849 94.1287 89.8334 94.1183L90.0271 94.077C90.124 94.0563 90.1724 94.046 90.259 93.9769C90.7989 93.6592 90.9617 93.4725 91.0211 92.8015ZM110.4 73.1716L111.126 73.0167C111.562 72.9237 111.973 73.1904 112.056 73.5779L112.294 74.692C112.387 75.128 112.12 75.5394 111.684 75.6324L110.618 75.8597C110.182 75.9526 109.771 75.6859 109.678 75.2499L109.544 74.6202C109.523 74.5234 109.513 74.4749 109.444 74.3884C109.126 73.8484 108.939 73.6857 108.268 73.6262C108.22 73.6366 108.123 73.6572 108.074 73.6676L106.621 73.9775L104.006 74.5354L102.552 74.8454C102.504 74.8557 102.407 74.8764 102.359 74.8867C101.77 75.2148 101.666 75.4395 101.597 76.0621C101.569 76.1693 101.579 76.2177 101.6 76.3146L101.899 77.7193L102.468 80.3835L102.86 82.2241C102.953 82.6601 102.686 83.0715 102.251 83.1645L101.621 83.2988C101.524 83.3194 101.476 83.3298 101.389 83.3989C100.849 83.7166 100.686 83.9033 100.627 84.5743C100.637 84.6227 100.658 84.7196 100.678 84.8165L100.978 86.2212L101.371 88.0619C101.464 88.4978 101.149 88.9196 100.761 89.0022L100.083 89.1468C100.034 89.1572 99.9375 89.1778 99.8994 89.2366C99.3111 89.5647 99.1483 89.7513 99.1373 90.412C99.1095 90.5192 99.1198 90.5677 99.1405 90.6645L99.4401 92.0693L99.8431 93.9584C99.9257 94.3459 99.659 94.7573 99.223 94.8503L98.1089 95.0879C97.7214 95.1705 97.31 94.9038 97.2274 94.5163L96.8244 92.6272L96.4215 90.7381C96.3285 90.3021 96.5953 89.8907 96.9828 89.8081L97.7578 89.6428C98.4431 89.294 98.5574 89.1177 98.6065 88.3983C98.6446 88.3395 98.6239 88.2426 98.6136 88.1942L98.314 86.7894L97.911 84.9003C97.8181 84.4644 98.0848 84.053 98.5208 83.96L99.1505 83.8257C99.2473 83.805 99.2958 83.7947 99.3927 83.774C99.981 83.446 100.085 83.2212 100.144 82.5502C100.134 82.5018 100.162 82.3945 100.152 82.3461L99.852 80.9414L99.2837 78.2773L98.9841 76.8725C98.9634 76.7757 98.9047 76.7375 98.884 76.6407C98.5663 76.1007 98.3796 75.938 97.7086 75.8785C97.6117 75.8992 97.5633 75.9095 97.4664 75.9302L96.8367 76.0645C96.4008 76.1575 95.979 75.8423 95.8964 75.4548L95.6587 74.3407C95.5658 73.9047 95.8325 73.4934 96.2685 73.4004L97.3826 73.1627C97.7701 73.0801 98.2299 73.3365 98.3229 73.7725L98.4572 74.4022C98.4779 74.499 98.4882 74.5475 98.5088 74.6444C98.8369 75.2327 99.0617 75.3367 99.8399 75.4239L100.227 75.3413C100.902 74.9441 101.065 74.7575 101.076 74.0968C101.104 73.9896 101.094 73.9411 101.073 73.8442L100.939 73.2145C100.846 72.7786 101.112 72.3672 101.548 72.2742L103.437 71.8713L106.053 71.3134L107.942 70.9104C108.378 70.8175 108.79 71.0842 108.883 71.5202L109.017 72.1499C109.037 72.2467 109.048 72.2952 109.068 72.3921C109.397 72.9804 109.621 73.0844 110.4 73.1716ZM122.659 87.1168L125.323 86.5485L126.728 86.2489C126.777 86.2386 126.873 86.2179 126.912 86.1592C127.5 85.8311 127.663 85.6445 127.722 84.9734C127.712 84.925 127.691 84.8281 127.681 84.7797L127.371 83.3265L126.813 80.7108L126.513 79.3061C126.493 79.2092 126.482 79.1608 126.462 79.0639C126.134 78.4755 125.909 78.3715 125.238 78.3121C125.179 78.274 125.082 78.2946 125.034 78.305L123.629 78.6046L120.965 79.1728L118.349 79.7307L116.896 80.0407C116.848 80.051 116.751 80.0717 116.713 80.1305C116.124 80.4585 115.962 80.6452 115.95 81.3059C115.923 81.4131 115.933 81.4615 115.954 81.5584L116.253 82.9631L116.811 85.5788L117.121 87.032C117.132 87.0804 117.152 87.1773 117.211 87.2154C117.491 87.8141 117.715 87.9181 118.386 87.9775C118.445 88.0156 118.542 87.995 118.59 87.9846L120.044 87.6747L122.659 87.1168ZM133.002 83.8473C132.992 83.7988 132.971 83.702 132.961 83.6535L132.816 82.9754C132.723 82.5394 132.99 82.128 133.426 82.0351L134.54 81.7974C134.976 81.7044 135.387 81.9712 135.48 82.4071L135.718 83.5212C135.811 83.9572 135.544 84.3686 135.108 84.4616L134.333 84.6269C133.696 84.9653 133.533 85.1519 133.484 85.8714C133.495 85.9198 133.467 86.027 133.477 86.0755L133.622 86.7536C133.705 87.1411 133.438 87.5525 133.002 87.6455L131.936 87.8728C131.5 87.9658 131.089 87.699 131.006 87.3115L130.862 86.6334C130.851 86.5849 130.831 86.488 130.772 86.4499C130.433 85.8131 130.209 85.7091 129.489 85.66L129.053 85.753C128.416 86.0914 128.254 86.278 128.205 86.9975C128.166 87.0563 128.187 87.1532 128.197 87.2016L128.342 87.8797C128.425 88.2673 128.158 88.6786 127.722 88.7716L125.881 89.1642L123.217 89.7325L120.602 90.2904L118.712 90.6933C118.276 90.7863 117.865 90.5196 117.782 90.132L117.638 89.4539C117.627 89.4055 117.607 89.3086 117.548 89.2705C117.21 88.6337 117.033 88.5193 116.265 88.4806L115.49 88.6459C115.103 88.7285 114.691 88.4618 114.598 88.0258L114.196 86.1367L113.638 83.521L113.235 81.6319C113.142 81.196 113.408 80.7846 113.796 80.7019L114.474 80.5573C114.523 80.5469 114.619 80.5263 114.668 80.5159C115.256 80.1879 115.409 79.9528 115.42 79.2921C115.458 79.2333 115.437 79.1365 115.427 79.088L115.292 78.4583C115.2 78.0224 115.466 77.611 115.902 77.518L117.791 77.115L120.407 76.5571L123.071 75.9889L124.912 75.5963C125.348 75.5033 125.759 75.7701 125.852 76.206L125.986 76.8357C125.997 76.8842 126.017 76.981 126.076 77.0191C126.404 77.6075 126.591 77.7703 127.262 77.8297C127.359 77.8091 127.407 77.7987 127.504 77.7781L127.649 77.7471C127.746 77.7264 127.795 77.7161 127.892 77.6954C128.48 77.3673 128.584 77.1426 128.643 76.4716C128.682 76.4128 128.661 76.3159 128.651 76.2675L128.351 74.8628L127.783 72.1986L127.483 70.7939C127.462 70.697 127.452 70.6486 127.383 70.562C127.065 70.0221 126.879 69.8593 126.208 69.7999C126.111 69.8206 126.062 69.8309 125.965 69.8516L124.561 70.1512L121.945 70.7091L119.281 71.2773L117.876 71.5769C117.779 71.5976 117.731 71.6079 117.634 71.6286C117.094 71.9463 116.942 72.1814 116.872 72.804C116.892 72.9009 116.903 72.9493 116.923 73.0462L117.058 73.6759C117.151 74.1118 116.836 74.5336 116.448 74.6162L115.334 74.8539C114.898 74.9468 114.487 74.6801 114.394 74.2441L114.156 73.13C114.073 72.7425 114.34 72.3311 114.776 72.2382L115.406 72.1039C115.503 72.0832 115.541 72.0244 115.638 72.0038C116.226 71.6757 116.34 71.4994 116.4 70.8283C116.379 70.7315 116.417 70.6727 116.397 70.5758L116.262 69.9461C116.169 69.5102 116.436 69.0988 116.824 69.0161L118.713 68.6132L121.377 68.045L123.992 67.487L125.882 67.0841C126.317 66.9911 126.729 67.2579 126.822 67.6938L126.956 68.3235C126.977 68.4204 126.987 68.4688 127.008 68.5657C127.336 69.1541 127.561 69.2581 128.232 69.3175C128.28 69.3072 128.387 69.335 128.436 69.3246L129.065 69.1903C129.501 69.0973 129.913 69.3641 129.995 69.7516L130.398 71.6407L130.967 74.3048L131.359 76.1455C131.452 76.5815 131.185 76.9929 130.75 77.0858L130.12 77.2202C130.071 77.2305 129.975 77.2511 129.936 77.3099C129.348 77.638 129.185 77.8246 129.126 78.4957C129.146 78.5925 129.157 78.641 129.177 78.7379L129.477 80.1426L130.035 82.7583L130.345 84.2114C130.355 84.2599 130.376 84.3567 130.386 84.4052C130.714 84.9936 130.939 85.0975 131.61 85.157C131.669 85.1951 131.766 85.1744 131.814 85.1641L132.008 85.1228C132.105 85.1021 132.153 85.0918 132.24 85.0227C132.78 84.7049 132.943 84.5183 133.002 83.8473ZM152.38 64.2174L153.107 64.0624C153.543 63.9695 153.954 64.2362 154.037 64.6237L154.275 65.7378C154.368 66.1738 154.101 66.5852 153.665 66.6781L152.599 66.9054C152.163 66.9984 151.752 66.7317 151.659 66.2957L151.525 65.666C151.504 65.5691 151.494 65.5207 151.425 65.4342C151.107 64.8942 150.92 64.7315 150.249 64.672C150.201 64.6823 150.104 64.703 150.055 64.7133L148.602 65.0233L145.986 65.5812L144.533 65.8911C144.485 65.9015 144.388 65.9221 144.34 65.9325C143.751 66.2605 143.647 66.4853 143.577 67.1079C143.55 67.2151 143.56 67.2635 143.581 67.3604L143.715 67.9901C143.808 68.4261 143.541 68.8375 143.105 68.9304L142.476 69.0647C142.379 69.0854 142.33 69.0957 142.244 69.1648C141.704 69.4826 141.541 69.6692 141.482 70.3403C141.492 70.3887 141.513 70.4856 141.523 70.534L141.564 70.7278C141.585 70.8246 141.595 70.8731 141.616 70.97C141.944 71.5583 142.169 71.6623 142.791 71.7321C142.888 71.7114 142.947 71.7495 143.044 71.7289L144.449 71.4293L147.113 70.861L148.953 70.4684C149.389 70.3754 149.801 70.6422 149.883 71.0297L150.028 71.7078C150.038 71.7563 150.059 71.8532 150.118 71.8913C150.446 72.4796 150.632 72.6424 151.303 72.7018C151.4 72.6812 151.449 72.6708 151.546 72.6502L152.175 72.5159C152.611 72.4229 153.023 72.6896 153.116 73.1256L153.519 75.0147L153.911 76.8554C154.004 77.2913 153.737 77.7027 153.301 77.7957L152.623 77.9403C152.575 77.9507 152.478 77.9713 152.44 78.0301C151.852 78.3582 151.737 78.5345 151.678 79.2055C151.65 79.3127 151.66 79.3612 151.681 79.458L151.815 80.0877C151.908 80.5237 151.642 80.9351 151.206 81.0281L150.576 81.1624C150.479 81.183 150.431 81.1934 150.334 81.214C149.794 81.5318 149.641 81.7668 149.582 82.4379C149.592 82.4863 149.613 82.5832 149.623 82.6316L149.768 83.3098C149.851 83.6973 149.584 84.1087 149.148 84.2017L147.259 84.6046L144.643 85.1625L142.754 85.5654C142.318 85.6584 141.907 85.3917 141.824 85.0042L141.679 84.326C141.669 84.2776 141.648 84.1807 141.59 84.1426C141.31 83.5439 141.075 83.3915 140.404 83.332C140.355 83.3423 140.258 83.363 140.21 83.3733L139.532 83.518C139.144 83.6006 138.733 83.3339 138.64 82.8979L138.402 81.7838C138.309 81.3479 138.576 80.9365 138.964 80.8539L140.078 80.6162C140.514 80.5232 140.925 80.79 141.018 81.2259L141.152 81.8556C141.173 81.9525 141.183 82.001 141.252 82.0875C141.581 82.6759 141.816 82.8283 142.535 82.8774L144.085 82.5468L146.701 81.9889L148.251 81.6583C148.888 81.3199 149.04 81.0848 149.1 80.4138C149.079 80.3169 149.117 80.2581 149.096 80.1613L148.962 79.5316C148.869 79.0956 149.136 78.6842 149.572 78.5912L150.298 78.4363C150.984 78.0875 151.146 77.9009 151.195 77.1814C151.185 77.133 151.164 77.0361 151.154 76.9877L150.854 75.5829L150.555 74.1782C150.534 74.0813 150.514 73.9845 150.503 73.936C150.175 73.3476 149.95 73.2436 149.279 73.1842C149.221 73.1461 149.124 73.1668 149.075 73.1771L147.671 73.4767L145.006 74.045L143.117 74.4479C142.73 74.5305 142.318 74.2638 142.225 73.8278L142.091 73.1981C142.07 73.1013 142.012 73.0632 141.991 72.9663C141.673 72.4263 141.487 72.2636 140.816 72.2041C140.719 72.2248 140.67 72.2351 140.573 72.2558L139.944 72.3901C139.508 72.4831 139.096 72.2163 139.003 71.7804L138.766 70.6663C138.673 70.2303 138.94 69.819 139.375 69.726L140.005 69.5917C140.102 69.571 140.15 69.5607 140.237 69.4916C140.836 69.2119 140.94 68.9872 140.999 68.3162C140.989 68.2677 141.017 68.1605 141.006 68.1121L140.862 67.4339C140.779 67.0464 141.046 66.635 141.433 66.5524L142.208 66.3871C142.883 65.9899 142.998 65.8136 143.057 65.1426C143.085 65.0353 143.074 64.9869 143.054 64.89L142.919 64.2603C142.826 63.8244 143.093 63.413 143.529 63.32L145.418 62.9171L148.034 62.3592L149.923 61.9562C150.359 61.8632 150.77 62.13 150.863 62.5659L150.998 63.1956C151.018 63.2925 151.029 63.341 151.049 63.4378C151.377 64.0262 151.602 64.1302 152.38 64.2174ZM175.089 58.4624C175.109 58.5593 175.168 58.5974 175.189 58.6942C175.506 59.2342 175.693 59.3969 176.364 59.4564C176.461 59.4357 176.509 59.4254 176.606 59.4047L177.236 59.2704C177.672 59.1774 178.083 59.4442 178.176 59.8801L178.579 61.7692L179.137 64.3849L179.54 66.274C179.633 66.71 179.366 67.1214 178.93 67.2144L178.301 67.3487C178.204 67.3693 178.155 67.3797 178.069 67.4488C177.47 67.7284 177.366 67.9531 177.307 68.6242C177.317 68.6726 177.289 68.7798 177.3 68.8283L177.609 70.2814L178.002 72.1221C178.095 72.558 177.828 72.9694 177.392 73.0624L176.763 73.1967C176.714 73.2071 176.617 73.2277 176.579 73.2865C175.991 73.6146 175.828 73.8012 175.769 74.4722C175.779 74.5207 175.8 74.6176 175.81 74.666L176.12 76.1192L176.513 77.9598C176.605 78.3958 176.339 78.8072 175.903 78.9002L174.789 79.1378C174.353 79.2308 173.941 78.964 173.848 78.5281L173.456 76.6874L173.053 74.7983C172.96 74.3623 173.227 73.9509 173.663 73.858L174.292 73.7236C174.389 73.703 174.438 73.6927 174.524 73.6236C175.123 73.3439 175.227 73.1192 175.286 72.4481C175.324 72.3894 175.304 72.2925 175.293 72.2441L174.994 70.8393L174.591 68.9502C174.498 68.5143 174.765 68.1029 175.201 68.0099L175.83 67.8756C175.927 67.8549 175.976 67.8446 176.014 67.7858C176.612 67.5062 176.765 67.2711 176.824 66.6001C176.814 66.5516 176.793 66.4548 176.783 66.4063L176.473 64.9532L175.915 62.3375L175.615 60.9328C175.595 60.8359 175.584 60.7874 175.564 60.6906C175.236 60.1022 175.011 59.9982 174.34 59.9387C174.292 59.9491 174.233 59.911 174.136 59.9316L172.731 60.2313L170.067 60.7995L167.451 61.3574L165.998 61.6674C165.95 61.6777 165.863 61.7468 165.815 61.7571C165.226 62.0852 165.112 62.2615 165.053 62.9325C165.025 63.0397 165.035 63.0882 165.056 63.185L165.355 64.5898L165.913 67.2055L166.316 69.0946C166.409 69.5305 166.143 69.9419 165.707 70.0349L165.077 70.1692C164.98 70.1899 164.932 70.2002 164.845 70.2693C164.295 70.5386 164.142 70.7737 164.083 71.4447C164.093 71.4932 164.114 71.59 164.124 71.6385L164.434 73.0916L164.827 74.9323C164.92 75.3683 164.605 75.79 164.217 75.8726L163.539 76.0173C163.49 76.0276 163.394 76.0483 163.355 76.107C162.767 76.4351 162.604 76.6217 162.593 77.2824C162.555 77.3412 162.576 77.4381 162.586 77.4865L162.896 78.9397L163.289 80.7804C163.382 81.2163 163.115 81.6277 162.679 81.7207L161.565 81.9583C161.177 82.041 160.766 81.7742 160.673 81.3383L160.28 79.4976L159.878 77.6085C159.785 77.1725 160.051 76.7611 160.439 76.6785L161.117 76.5339C161.165 76.5235 161.262 76.5029 161.3 76.4441C161.899 76.1645 162.051 75.9294 162.062 75.2687C162.101 75.2099 162.08 75.113 162.07 75.0646L161.77 73.6599L161.367 71.7708C161.274 71.3348 161.541 70.9234 161.977 70.8304L162.606 70.6961C162.703 70.6755 162.752 70.6651 162.838 70.596C163.437 70.3164 163.541 70.0916 163.6 69.4206C163.59 69.3722 163.618 69.265 163.608 69.2165L163.298 67.7634L162.74 65.1477L162.171 62.4836L161.614 59.8679L161.045 57.2037L160.487 54.588L160.188 53.1833C160.167 53.0864 160.108 53.0483 160.088 52.9515C159.76 52.3631 159.583 52.2488 158.912 52.1893C158.805 52.1615 158.757 52.1719 158.66 52.1925L158.03 52.3268C157.594 52.4198 157.183 52.1531 157.09 51.7171L156.862 50.6515C156.769 50.2155 157.036 49.8041 157.472 49.7112L158.102 49.5768C158.199 49.5562 158.237 49.4974 158.334 49.4767C158.922 49.1487 159.036 48.9724 159.096 48.3013C159.075 48.2045 159.113 48.1457 159.093 48.0488L158.958 47.4191C158.865 46.9832 159.132 46.5718 159.52 46.4891L160.634 46.2515C161.07 46.1585 161.481 46.4252 161.574 46.8612L161.977 48.7503L162.535 51.366L163.103 54.0301L163.661 56.6458L163.971 58.099C163.981 58.1474 164.002 58.2443 164.061 58.2824C164.389 58.8708 164.565 58.9851 165.236 59.0445C165.295 59.0827 165.392 59.062 165.44 59.0517L166.893 58.7417L169.509 58.1838L172.173 57.6156L174.014 57.223C174.45 57.13 174.861 57.3967 174.954 57.8327L175.089 58.4624ZM199.275 54.0126L198.872 52.1235C198.779 51.6876 199.046 51.2762 199.481 51.1832L200.596 50.9456C201.031 50.8526 201.443 51.1193 201.536 51.5553L201.939 53.4444L202.331 55.2851C202.424 55.721 202.158 56.1324 201.722 56.2254L201.092 56.3597C200.995 56.3804 200.947 56.3907 200.86 56.4598C200.272 56.7879 200.157 56.9642 200.098 57.6352C200.119 57.7321 200.081 57.7909 200.101 57.8877L200.401 59.2925L200.793 61.1331C200.886 61.5691 200.62 61.9805 200.184 62.0735L199.457 62.2284C198.772 62.5772 198.619 62.8122 198.56 63.4833C198.581 63.5802 198.591 63.6286 198.612 63.7255L198.911 65.1302L199.469 67.7459L199.779 69.199C199.789 69.2475 199.81 69.3444 199.82 69.3928C200.149 69.9812 200.384 70.1336 201.044 70.1446C201.103 70.1827 201.2 70.1621 201.248 70.1517L201.442 70.1104C201.539 70.0897 201.587 70.0794 201.626 70.0206C202.224 69.741 202.377 69.5059 202.436 68.8349C202.426 68.7865 202.405 68.6896 202.395 68.6411L202.25 67.963C202.157 67.527 202.424 67.1157 202.86 67.0227L203.974 66.785C204.41 66.6921 204.821 66.9588 204.914 67.3948L205.152 68.5088C205.245 68.9448 204.978 69.3562 204.542 69.4492L203.913 69.5835C203.816 69.6041 203.767 69.6145 203.681 69.6836C203.082 69.9632 202.978 70.188 202.919 70.859C202.929 70.9074 202.901 71.0146 202.911 71.0631L203.056 71.7412C203.139 72.1287 202.872 72.5401 202.436 72.6331L201.37 72.8604C200.934 72.9534 200.523 72.6866 200.44 72.2991L200.296 71.621C200.285 71.5725 200.265 71.4757 200.206 71.4376C199.878 70.8492 199.691 70.6864 199.031 70.6754C198.923 70.6476 198.875 70.658 198.778 70.6786L198.633 70.7096C198.536 70.7303 198.487 70.7406 198.401 70.8097C197.802 71.0894 197.698 71.3141 197.639 71.9851C197.601 72.0439 197.621 72.1408 197.632 72.1892L197.776 72.8674C197.859 73.2549 197.592 73.6663 197.156 73.7592L195.316 74.1518L192.651 74.7201L190.036 75.278L188.147 75.6809C187.711 75.7739 187.299 75.5072 187.217 75.1197L187.072 74.4415C187.062 74.3931 187.041 74.2962 186.982 74.2581C186.703 73.6594 186.467 73.507 185.807 73.4959C185.748 73.4578 185.651 73.4785 185.603 73.4888L184.925 73.6335C184.537 73.7161 184.126 73.4494 184.033 73.0134L183.63 71.1243L183.237 69.2837C183.144 68.8477 183.411 68.4363 183.798 68.3537L184.477 68.209C184.525 68.1987 184.622 68.178 184.66 68.1193C185.248 67.7912 185.411 67.6045 185.422 66.9438C185.46 66.8851 185.44 66.7882 185.429 66.7398L185.119 65.2866L184.561 62.6709L184.158 60.7818C184.065 60.3458 184.332 59.9345 184.768 59.8415L185.543 59.6762C185.543 59.6762 185.543 59.6762 185.495 59.6865C186.18 59.3378 186.343 59.1511 186.392 58.4317C186.382 58.3832 186.409 58.276 186.399 58.2276L186.099 56.8228L185.696 54.9337C185.603 54.4978 185.87 54.0864 186.258 54.0037L187.372 53.7661C187.808 53.6731 188.219 53.9399 188.312 54.3758L188.715 56.2649L189.108 58.1056C189.201 58.5416 188.934 58.9529 188.498 59.0459L187.868 59.1802C187.771 59.2009 187.723 59.2112 187.636 59.2803C187.096 59.5981 186.934 59.7847 186.874 60.4557C186.895 60.5526 186.905 60.6011 186.926 60.6979L187.225 62.1027L187.783 64.7184L188.186 66.6075C188.279 67.0434 188.013 67.4548 187.577 67.5478L186.802 67.7131C186.165 68.0515 186.002 68.2381 185.953 68.9576C185.915 69.0164 185.935 69.1133 185.946 69.1617L186.245 70.5664L186.555 72.0196C186.566 72.068 186.586 72.1649 186.645 72.203C186.925 72.8017 187.16 72.9541 187.821 72.9651C187.879 73.0033 187.976 72.9826 188.025 72.9723L189.478 72.6623L192.093 72.1044L194.758 71.5362L196.162 71.2365C196.211 71.2262 196.308 71.2055 196.346 71.1468C196.944 70.8671 197.097 70.6321 197.156 69.961C197.146 69.9126 197.125 69.8157 197.115 69.7673L196.805 68.3141L196.247 65.6984L195.844 63.8093C195.751 63.3734 196.018 62.962 196.454 62.869L197.084 62.7347C197.181 62.714 197.229 62.7037 197.326 62.683C197.914 62.355 198.018 62.1302 198.078 61.4592C198.116 61.4004 198.095 61.3035 198.085 61.2551L197.785 59.8504L197.382 57.9613C197.289 57.5253 197.556 57.1139 197.992 57.0209L198.718 56.866C199.404 56.5172 199.567 56.3306 199.616 55.6111C199.605 55.5627 199.585 55.4658 199.574 55.4174L199.275 54.0126ZM215.797 50.4378C215.846 50.4275 215.953 50.4552 216.002 50.4449L217.455 50.135L219.295 49.7424C219.731 49.6494 220.143 49.9161 220.225 50.3036L220.463 51.4177C220.556 51.8537 220.289 52.2651 219.853 52.3581L218.013 52.7507L216.559 53.0606C216.511 53.0709 216.414 53.0916 216.376 53.1504C215.788 53.4784 215.673 53.6547 215.614 54.3258C215.586 54.433 215.596 54.4814 215.617 54.5783L215.751 55.208C215.844 55.644 215.578 56.0553 215.142 56.1483L214.512 56.2826C214.415 56.3033 214.367 56.3136 214.27 56.3343C213.73 56.652 213.577 56.8871 213.518 57.5581C213.528 57.6066 213.549 57.7035 213.559 57.7519L213.859 59.1566L214.427 61.8208L214.985 64.4364L215.295 65.8896C215.305 65.938 215.326 66.0349 215.336 66.0834C215.664 66.6717 215.9 66.8242 216.512 66.8455C216.619 66.8733 216.667 66.8629 216.764 66.8423L218.169 66.5427L219.574 66.2431C219.671 66.2224 219.719 66.2121 219.806 66.143C220.404 65.8633 220.508 65.6386 220.568 64.9675C220.557 64.9191 220.585 64.8119 220.575 64.7635L220.43 64.0853C220.337 63.6494 220.604 63.238 221.04 63.145L222.106 62.9177C222.542 62.8247 222.953 63.0915 223.046 63.5274L223.284 64.6415C223.377 65.0774 223.11 65.4888 222.674 65.5818L222.044 65.7161C221.996 65.7265 221.899 65.7471 221.861 65.8059C221.262 66.0855 221.11 66.3206 221.05 66.9916C221.06 67.0401 221.081 67.137 221.091 67.1854L221.236 67.8635C221.319 68.251 221.052 68.6624 220.616 68.7554L218.727 69.1584L216.838 69.5613C216.45 69.6439 216.039 69.3772 215.956 68.9897L215.812 68.3115C215.801 68.2631 215.732 68.1766 215.722 68.1281C215.394 67.5397 215.207 67.377 214.546 67.366C214.439 67.3382 214.391 67.3485 214.294 67.3692L213.664 67.5035C213.228 67.5965 212.817 67.3297 212.724 66.8938L212.321 65.0047L211.763 62.389L211.195 59.7249L210.802 57.8842C210.709 57.4482 210.976 57.0369 211.412 56.9439L212.042 56.8096C212.139 56.7889 212.187 56.7786 212.273 56.7095C212.862 56.3814 212.976 56.2051 213.036 55.5341C213.015 55.4372 213.053 55.3784 213.032 55.2815L212.898 54.6518C212.805 54.2159 213.072 53.8045 213.459 53.7218L214.138 53.5772C214.186 53.5669 214.283 53.5462 214.331 53.5359C214.92 53.2078 215.072 52.9727 215.083 52.312C215.121 52.2532 215.101 52.1564 215.09 52.1079L215.049 51.9142C215.028 51.8173 215.018 51.7689 214.959 51.7308C214.669 51.0836 214.444 50.9796 213.676 50.9408L212.175 51.2611L209.511 51.8294L207.622 52.2323C207.234 52.3149 206.823 52.0482 206.73 51.6122L206.492 50.4982C206.399 50.0622 206.666 49.6508 207.053 49.5682L208.943 49.1652L210.347 48.8656C210.444 48.8449 210.493 48.8346 210.579 48.7655C211.178 48.4859 211.282 48.2611 211.341 47.5901C211.331 47.5417 211.359 47.4345 211.348 47.386L211.049 45.9813L210.646 44.0922C210.553 43.6562 210.82 43.2448 211.207 43.1622L212.321 42.9246C212.757 42.8316 213.169 43.0983 213.262 43.5343L213.664 45.4234L214.222 48.0391L214.522 49.4438C214.543 49.5407 214.553 49.5891 214.622 49.6757C214.95 50.264 215.126 50.3784 215.797 50.4378Z" fill="#EF7C05"/>
<path d="M31 105L238 49" stroke="#001806" stroke-width="2" stroke-linecap="round"/>
</svg>
