<svg width="264" height="174" viewBox="0 0 264 174" fill="none" xmlns="http://www.w3.org/2000/svg">
<rect x="1" y="1" width="262" height="172" rx="24" stroke="#001806" stroke-width="2"/>
<path d="M53.72 73.28L53.16 73.28C53.12 73.28 53.04 73.28 53 73.32C52.48 73.44 52.32 73.6 52.2 74.12C52.16 74.16 52.16 74.24 52.16 74.28L52.16 75.48L52.16 77C52.16 77.36 51.88 77.64 51.52 77.64L50.6 77.64C50.28 77.64 50 77.36 50 77L50 75.48L50 73.92C50 73.56 50.28 73.28 50.6 73.28L51.16 73.28C51.2 73.28 51.28 73.28 51.32 73.24C51.84 73.12 52 72.96 52.12 72.44C52.16 72.4 52.16 72.32 52.16 72.28L52.16 71.08L52.16 69.56C52.16 69.2 52.44 68.92 52.8 68.92L53.32 68.92C53.4 68.92 53.44 68.92 53.52 68.88C54.04 68.72 54.16 68.6 54.32 68.08C54.32 68.04 54.36 67.96 54.36 67.92L54.36 66.72L54.36 65.56C54.36 65.52 54.32 65.44 54.32 65.4C54.16 64.88 54.04 64.72 53.52 64.56C53.44 64.56 53.4 64.56 53.32 64.56L52.8 64.56C52.44 64.56 52.16 64.28 52.16 63.92L52.16 63C52.16 62.64 52.44 62.36 52.8 62.36L53.44 62.36L53.4 62.36C54 62.2 54.16 62.08 54.32 61.52C54.32 61.48 54.36 61.4 54.36 61.36L54.36 60.84C54.36 60.48 54.64 60.2 54.96 60.2L55.88 60.2C56.24 60.2 56.52 60.48 56.52 60.84L56.52 62.36L56.52 64.56L56.52 66.72L56.52 68.28C56.52 68.64 56.24 68.92 55.88 68.92L55.36 68.92C55.28 68.92 55.24 68.92 55.16 68.96C54.68 69.08 54.52 69.24 54.36 69.76C54.36 69.8 54.36 69.88 54.36 69.92L54.36 71.08L54.36 72.64C54.36 73 54.04 73.28 53.72 73.28ZM55.88 55.84C56.24 55.84 56.52 56.12 56.52 56.44L56.52 57.36C56.52 57.72 56.24 58 55.88 58L54.96 58C54.64 58 54.36 57.72 54.36 57.36L54.36 56.44C54.36 56.12 54.64 55.84 54.96 55.84L55.88 55.84ZM75.6012 75L77.8012 75L78.9612 75C79.0012 75 79.0812 75 79.1212 74.96C79.6412 74.8 79.8012 74.68 79.9612 74.16C79.9612 74.12 79.9612 74.04 79.9612 74L79.9612 72.8L79.9612 70.64L79.9612 69.48C79.9612 69.4 79.9612 69.36 79.9612 69.28C79.8012 68.76 79.6412 68.64 79.1212 68.48C79.0812 68.44 79.0012 68.44 78.9612 68.44L77.8012 68.44L75.6012 68.44L73.4412 68.44L72.2412 68.44C72.2012 68.44 72.1212 68.44 72.0812 68.48C71.5612 68.64 71.4012 68.76 71.2812 69.28C71.2412 69.36 71.2412 69.4 71.2412 69.48L71.2412 70.64L71.2412 72.8L71.2412 74C71.2412 74.04 71.2412 74.12 71.2812 74.16C71.4012 74.68 71.5612 74.8 72.0812 74.96C72.1212 75 72.2012 75 72.2412 75L73.4412 75L75.6012 75ZM84.3212 74.16C84.3212 74.12 84.3212 74.04 84.3212 74L84.3212 73.44C84.3212 73.08 84.6012 72.8 84.9612 72.8L85.8812 72.8C86.2413 72.8 86.5213 73.08 86.5213 73.44L86.5213 74.36C86.5213 74.72 86.2413 75 85.8812 75L85.2412 75C84.6812 75.16 84.5212 75.28 84.3613 75.84C84.3613 75.88 84.3212 75.96 84.3212 76L84.3212 76.56C84.3212 76.88 84.0412 77.16 83.6812 77.16L82.8013 77.16C82.4413 77.16 82.1613 76.88 82.1613 76.56L82.1613 76C82.1613 75.96 82.1613 75.88 82.1212 75.84C81.9613 75.28 81.8012 75.16 81.2413 75L80.8812 75C80.3212 75.16 80.1612 75.28 80.0012 75.84C79.9612 75.88 79.9612 75.96 79.9612 76L79.9612 76.56C79.9612 76.88 79.6812 77.16 79.3212 77.16L77.8012 77.16L75.6012 77.16L73.4412 77.16L71.8812 77.16C71.5212 77.16 71.2412 76.88 71.2412 76.56L71.2412 76C71.2412 75.96 71.2412 75.88 71.2012 75.84C71.0412 75.28 70.9212 75.16 70.3212 75L69.6812 75C69.3612 75 69.0812 74.72 69.0812 74.36L69.0812 72.8L69.0812 70.64L69.0812 69.08C69.0812 68.72 69.3612 68.44 69.6812 68.44L70.2412 68.44C70.2812 68.44 70.3612 68.44 70.4012 68.44C70.9212 68.28 71.0812 68.12 71.2012 67.6C71.2412 67.56 71.2412 67.48 71.2412 67.44L71.2412 66.92C71.2412 66.56 71.5212 66.28 71.8812 66.28L73.4412 66.28L75.6012 66.28L77.8012 66.28L79.3212 66.28C79.6812 66.28 79.9612 66.56 79.9612 66.92L79.9612 67.44C79.9612 67.48 79.9612 67.56 80.0012 67.6C80.1612 68.12 80.2812 68.28 80.8012 68.44C80.8812 68.44 80.9212 68.44 81.0012 68.44L81.1213 68.44C81.2012 68.44 81.2413 68.44 81.3213 68.44C81.8412 68.28 81.9613 68.12 82.1212 67.6C82.1613 67.56 82.1613 67.48 82.1613 67.44L82.1613 66.28L82.1613 64.08L82.1613 62.92C82.1613 62.84 82.1613 62.8 82.1212 62.72C81.9613 62.24 81.8412 62.08 81.3213 61.92C81.2413 61.92 81.2012 61.92 81.1213 61.92L79.9612 61.92L77.8012 61.92L75.6012 61.92L74.4412 61.92C74.3612 61.92 74.3212 61.92 74.2412 61.92C73.7612 62.08 73.6012 62.24 73.4412 62.72C73.4412 62.8 73.4412 62.84 73.4412 62.92L73.4412 63.44C73.4412 63.8 73.1212 64.08 72.8012 64.08L71.8812 64.08C71.5212 64.08 71.2412 63.8 71.2412 63.44L71.2412 62.52C71.2412 62.2 71.5212 61.92 71.8812 61.92L72.4012 61.92C72.4812 61.92 72.5212 61.88 72.6012 61.88C73.1212 61.72 73.2412 61.6 73.4012 61.08C73.4012 61 73.4412 60.96 73.4412 60.88L73.4412 60.36C73.4412 60 73.7212 59.72 74.0412 59.72L75.6012 59.72L77.8012 59.72L79.9612 59.72L81.5213 59.72C81.8813 59.72 82.1613 60 82.1613 60.36L82.1613 60.88C82.1613 60.96 82.1613 61 82.1613 61.08C82.3213 61.6 82.4812 61.72 83.0013 61.88C83.0412 61.88 83.1212 61.92 83.1613 61.92L83.6812 61.92C84.0412 61.92 84.3212 62.2 84.3212 62.52L84.3212 64.08L84.3212 66.28L84.3212 67.8C84.3212 68.16 84.0412 68.44 83.6812 68.44L83.1613 68.44C83.1212 68.44 83.0412 68.44 83.0013 68.48C82.4812 68.64 82.3213 68.76 82.1613 69.28C82.1613 69.36 82.1613 69.4 82.1613 69.48L82.1613 70.64L82.1613 72.8L82.1613 74C82.1613 74.04 82.1613 74.12 82.1613 74.16C82.3213 74.68 82.4812 74.8 83.0013 74.96C83.0412 75 83.1212 75 83.1613 75L83.3212 75C83.4012 75 83.4413 75 83.5213 74.96C84.0013 74.8 84.1612 74.68 84.3212 74.16ZM110.734 60.88C110.734 60.96 110.734 61 110.774 61.08C110.894 61.56 111.054 61.72 111.574 61.88C111.614 61.88 111.694 61.92 111.734 61.92L112.294 61.92C112.614 61.92 112.934 62.2 112.934 62.52L112.934 64.08L112.934 66.28L112.934 67.8C112.934 68.16 112.614 68.44 112.294 68.44L111.734 68.44C111.694 68.44 111.614 68.44 111.574 68.48C111.054 68.64 110.894 68.76 110.774 69.28C110.734 69.32 110.734 69.4 110.734 69.48L110.734 70.64L110.734 72.16C110.734 72.52 110.454 72.8 110.094 72.8L109.574 72.8C109.494 72.8 109.454 72.84 109.374 72.84C108.854 73 108.734 73.12 108.574 73.64C108.574 73.72 108.534 73.76 108.534 73.84L108.534 75L108.534 76.56C108.534 76.88 108.254 77.16 107.934 77.16L107.014 77.16C106.654 77.16 106.374 76.88 106.374 76.56L106.374 75L106.374 73.44C106.374 73.08 106.654 72.8 107.014 72.8L107.614 72.8C108.214 72.64 108.374 72.52 108.534 71.96C108.534 71.92 108.534 71.84 108.534 71.8L108.534 70.64L108.534 69.08C108.534 68.72 108.854 68.44 109.174 68.44L109.814 68.44C110.374 68.28 110.534 68.16 110.694 67.6C110.734 67.56 110.734 67.48 110.734 67.44L110.734 66.28L110.734 64.08L110.734 62.92C110.734 62.84 110.734 62.8 110.694 62.72C110.574 62.24 110.414 62.08 109.894 61.92C109.854 61.92 109.774 61.92 109.734 61.92L108.534 61.92L106.374 61.92L105.214 61.92C105.134 61.92 105.094 61.92 105.014 61.92C104.494 62.08 104.374 62.24 104.214 62.72C104.214 62.8 104.174 62.84 104.174 62.92L104.174 64.08L104.174 66.28L104.174 67.8C104.174 68.16 103.894 68.44 103.534 68.44L103.014 68.44C102.974 68.44 102.894 68.44 102.854 68.48C102.334 68.64 102.174 68.76 102.014 69.28C102.014 69.32 102.014 69.4 102.014 69.48L102.014 70.64L102.014 72.16C102.014 72.52 101.734 72.8 101.374 72.8L100.854 72.8C100.774 72.8 100.734 72.84 100.654 72.84C100.134 73 100.014 73.12 99.8544 73.64C99.8144 73.72 99.8144 73.76 99.8144 73.84L99.8144 75L99.8144 76.56C99.8144 76.88 99.5344 77.16 99.1744 77.16L98.2944 77.16C97.9344 77.16 97.6544 76.88 97.6544 76.56L97.6544 75L97.6544 73.44C97.6544 73.08 97.9344 72.8 98.2944 72.8L98.8144 72.8C98.8544 72.8 98.9344 72.8 98.9744 72.8C99.4944 72.64 99.6544 72.48 99.8144 71.96C99.8144 71.92 99.8144 71.84 99.8144 71.8L99.8144 70.64L99.8144 69.08C99.8144 68.72 100.094 68.44 100.454 68.44L101.094 68.44C101.654 68.28 101.814 68.16 101.974 67.6C102.014 67.56 102.014 67.48 102.014 67.44L102.014 66.28L102.014 64.08L102.014 62.92C102.014 62.84 102.014 62.8 101.974 62.72C101.814 62.24 101.694 62.08 101.174 61.92C101.094 61.92 101.054 61.92 100.974 61.92L99.8144 61.92L97.6544 61.92L96.4544 61.92C96.4144 61.92 96.3344 61.92 96.2944 61.92C95.7744 62.08 95.6544 62.24 95.4944 62.72C95.4544 62.8 95.4544 62.84 95.4544 62.92L95.4544 64.08L95.4544 66.28L95.4544 67.8C95.4544 68.16 95.1744 68.44 94.8144 68.44L94.2944 68.44C94.2144 68.44 94.1744 68.44 94.0944 68.48C93.6144 68.64 93.4544 68.76 93.2944 69.28C93.2944 69.36 93.2944 69.4 93.2944 69.48L93.2944 70.64L93.2944 72.16C93.2944 72.52 92.9744 72.8 92.6544 72.8L92.0944 72.8C92.0544 72.8 91.9744 72.84 91.9344 72.84C91.4144 73 91.2544 73.12 91.1344 73.64C91.0944 73.72 91.0944 73.76 91.0944 73.84L91.0944 75L91.0944 76.56C91.0944 76.88 90.8144 77.16 90.4544 77.16L89.5344 77.16C89.2144 77.16 88.9344 76.88 88.9344 76.56L88.9344 75L88.9344 73.44C88.9344 73.08 89.2144 72.8 89.5344 72.8L90.0944 72.8C90.1344 72.8 90.2144 72.8 90.2544 72.8C90.7744 72.64 90.9344 72.48 91.0544 71.96C91.0944 71.92 91.0944 71.84 91.0944 71.8L91.0944 70.64L91.0944 69.08C91.0944 68.72 91.3744 68.44 91.7344 68.44L92.2544 68.44C92.3344 68.44 92.3744 68.44 92.4544 68.44C92.9744 68.28 93.0944 68.12 93.2544 67.6C93.2544 67.56 93.2944 67.48 93.2944 67.44L93.2944 66.28L93.2944 64.08L93.2944 62.92C93.2944 62.84 93.2544 62.8 93.2544 62.72C93.0944 62.24 92.9744 62.08 92.4544 61.92C92.3744 61.92 92.3344 61.92 92.2544 61.92L91.7344 61.92C91.3744 61.92 91.0944 61.6 91.0944 61.28L91.0944 60.36C91.0944 60 91.3744 59.72 91.7344 59.72L92.6544 59.72C92.9744 59.72 93.2944 60 93.2944 60.36L93.2944 60.88C93.2944 60.96 93.2944 61 93.2944 61.08C93.4544 61.56 93.6144 61.72 94.0944 61.88C94.1744 61.88 94.2144 61.92 94.2944 61.92L94.4544 61.92C94.4944 61.92 94.5744 61.88 94.6144 61.88C95.1344 61.72 95.2944 61.56 95.4144 61.08C95.4544 61 95.4544 60.96 95.4544 60.88L95.4544 60.36C95.4544 60 95.7344 59.72 96.0944 59.72L97.6544 59.72L99.8144 59.72L101.374 59.72C101.734 59.72 102.014 60 102.014 60.36L102.014 60.88C102.014 60.96 102.014 61 102.014 61.08C102.174 61.56 102.334 61.72 102.854 61.88C102.894 61.88 102.974 61.92 103.014 61.92L103.174 61.92C103.254 61.92 103.294 61.88 103.334 61.88C103.854 61.72 104.014 61.56 104.174 61.08C104.174 61 104.174 60.96 104.174 60.88L104.174 60.36C104.174 60 104.454 59.72 104.814 59.72L106.374 59.72L108.534 59.72L110.094 59.72C110.454 59.72 110.734 60 110.734 60.36L110.734 60.88ZM139.477 61.92L140.077 61.92C140.437 61.92 140.717 62.2 140.717 62.52L140.717 63.44C140.717 63.8 140.437 64.08 140.077 64.08L139.197 64.08C138.837 64.08 138.557 63.8 138.557 63.44L138.557 62.92C138.557 62.84 138.557 62.8 138.517 62.72C138.357 62.24 138.237 62.08 137.717 61.92C137.677 61.92 137.597 61.92 137.557 61.92L136.357 61.92L134.197 61.92L132.997 61.92C132.957 61.92 132.877 61.92 132.837 61.92C132.317 62.08 132.197 62.24 132.037 62.72C131.997 62.8 131.997 62.84 131.997 62.92L131.997 63.44C131.997 63.8 131.717 64.08 131.357 64.08L130.837 64.08C130.757 64.08 130.717 64.08 130.637 64.12C130.157 64.28 129.997 64.4 129.837 64.92C129.837 64.96 129.837 65.04 129.837 65.08L129.837 65.24C129.837 65.32 129.837 65.36 129.837 65.44C129.997 65.96 130.157 66.08 130.637 66.24C130.717 66.24 130.757 66.28 130.837 66.28L131.997 66.28L134.197 66.28L135.717 66.28C136.077 66.28 136.357 66.56 136.357 66.88L136.357 67.44C136.357 67.48 136.357 67.56 136.397 67.6C136.557 68.12 136.677 68.28 137.197 68.44C137.277 68.44 137.317 68.44 137.397 68.44L137.917 68.44C138.277 68.44 138.557 68.72 138.557 69.08L138.557 70.64L138.557 72.16C138.557 72.52 138.277 72.8 137.917 72.8L137.357 72.8C137.317 72.8 137.237 72.8 137.197 72.84C136.677 73 136.557 73.12 136.397 73.64C136.357 73.72 136.357 73.76 136.357 73.84L136.357 74.36C136.357 74.72 136.077 75 135.717 75L135.197 75C135.117 75 135.077 75 134.997 75C134.517 75.16 134.357 75.32 134.197 75.84C134.197 75.88 134.197 75.96 134.197 76L134.197 76.56C134.197 76.88 133.917 77.16 133.557 77.16L131.997 77.16L129.837 77.16L128.277 77.16C127.917 77.16 127.637 76.88 127.637 76.56L127.637 76C127.637 75.96 127.637 75.88 127.597 75.84C127.477 75.32 127.317 75.16 126.797 75C126.757 75 126.677 75 126.637 75L126.077 75C125.757 75 125.477 74.72 125.477 74.36L125.477 73.44C125.477 73.08 125.757 72.8 126.077 72.8L126.997 72.8C127.357 72.8 127.637 73.08 127.637 73.44L127.637 73.96C127.637 74.04 127.637 74.08 127.677 74.16C127.837 74.68 127.997 74.84 128.557 75L129.837 75L131.997 75L133.277 75C133.837 74.84 133.997 74.68 134.157 74.16C134.157 74.08 134.197 74.04 134.197 73.96L134.197 73.44C134.197 73.08 134.477 72.8 134.837 72.8L135.437 72.8C136.037 72.64 136.197 72.52 136.357 71.96C136.357 71.92 136.357 71.84 136.357 71.8L136.357 70.64L136.357 69.48C136.357 69.4 136.357 69.32 136.357 69.28C136.197 68.76 136.037 68.64 135.517 68.48C135.477 68.44 135.397 68.44 135.357 68.44L134.197 68.44L131.997 68.44L130.437 68.44C130.117 68.44 129.837 68.16 129.837 67.8L129.837 67.28C129.837 67.2 129.797 67.16 129.797 67.08C129.637 66.6 129.517 66.44 128.997 66.28C128.917 66.28 128.877 66.28 128.797 66.28L128.277 66.28C127.917 66.28 127.637 66 127.637 65.64L127.637 64.72C127.637 64.36 127.917 64.08 128.277 64.08L128.797 64.08C128.877 64.08 128.917 64.08 128.997 64.04C129.517 63.92 129.637 63.76 129.797 63.24C129.797 63.2 129.837 63.12 129.837 63.08L129.837 62.52C129.837 62.2 130.117 61.92 130.437 61.92L131.077 61.92C131.677 61.72 131.797 61.6 131.957 61.08C131.997 61 131.997 60.96 131.997 60.88L131.997 60.36C131.997 60 132.277 59.72 132.637 59.72L134.197 59.72L136.357 59.72L137.917 59.72C138.277 59.72 138.557 60 138.557 60.36L138.557 60.88C138.557 60.96 138.557 61 138.557 61.08C138.717 61.6 138.877 61.72 139.477 61.92ZM158.382 61.76L158.382 60.2C158.382 59.84 158.662 59.56 159.022 59.56L159.942 59.56C160.302 59.56 160.582 59.84 160.582 60.2L160.582 61.76L160.582 63.28C160.582 63.64 160.302 63.92 159.942 63.92L159.422 63.92C159.342 63.92 159.302 63.92 159.222 63.96C158.702 64.12 158.582 64.24 158.422 64.76C158.422 64.84 158.382 64.88 158.382 64.96L158.382 66.12L158.382 67.64C158.382 68 158.102 68.28 157.742 68.28L157.142 68.28C156.542 68.44 156.382 68.6 156.222 69.12C156.222 69.2 156.222 69.24 156.222 69.32L156.222 70.48L156.222 72.64L156.222 73.84C156.222 73.88 156.222 73.96 156.222 74C156.382 74.52 156.542 74.68 157.062 74.8C157.102 74.84 157.182 74.84 157.222 74.84L157.382 74.84C157.462 74.84 157.502 74.84 157.542 74.8C158.062 74.68 158.222 74.52 158.382 74C158.382 73.96 158.382 73.88 158.382 73.84L158.382 73.28C158.382 72.92 158.662 72.64 159.022 72.64L159.942 72.64C160.302 72.64 160.582 72.92 160.582 73.28L160.582 74.2C160.582 74.56 160.302 74.84 159.942 74.84L159.422 74.84C159.342 74.84 159.302 74.84 159.222 74.88C158.702 75 158.582 75.16 158.422 75.68C158.422 75.72 158.382 75.8 158.382 75.84L158.382 76.4C158.382 76.72 158.102 77 157.742 77L156.862 77C156.502 77 156.222 76.72 156.222 76.4L156.222 75.84C156.222 75.8 156.222 75.72 156.182 75.68C156.022 75.16 155.902 75 155.382 74.88C155.302 74.84 155.262 74.84 155.182 74.84L155.062 74.84C154.982 74.84 154.942 74.84 154.862 74.88C154.342 75 154.222 75.16 154.062 75.68C154.022 75.72 154.022 75.8 154.022 75.84L154.022 76.4C154.022 76.72 153.742 77 153.382 77L151.862 77L149.662 77L147.502 77L145.942 77C145.582 77 145.302 76.72 145.302 76.4L145.302 75.84C145.302 75.8 145.302 75.72 145.262 75.68C145.142 75.16 144.982 75 144.462 74.88C144.422 74.84 144.342 74.84 144.302 74.84L143.742 74.84C143.422 74.84 143.142 74.56 143.142 74.2L143.142 72.64L143.142 71.12C143.142 70.76 143.422 70.48 143.742 70.48L144.302 70.48C144.342 70.48 144.422 70.48 144.462 70.44C144.982 70.28 145.142 70.16 145.262 69.64C145.302 69.6 145.302 69.52 145.302 69.48L145.302 68.28L145.302 66.12L145.302 64.56C145.302 64.2 145.582 63.92 145.942 63.92L146.582 63.92C146.582 63.92 146.582 63.92 146.542 63.92C147.142 63.76 147.302 63.64 147.462 63.08C147.462 63.04 147.502 62.96 147.502 62.92L147.502 61.76L147.502 60.2C147.502 59.84 147.782 59.56 148.102 59.56L149.022 59.56C149.382 59.56 149.662 59.84 149.662 60.2L149.662 61.76L149.662 63.28C149.662 63.64 149.382 63.92 149.022 63.92L148.502 63.92C148.422 63.92 148.382 63.92 148.302 63.96C147.822 64.12 147.662 64.24 147.502 64.76C147.502 64.84 147.502 64.88 147.502 64.96L147.502 66.12L147.502 68.28L147.502 69.84C147.502 70.2 147.222 70.48 146.862 70.48L146.222 70.48C145.662 70.64 145.502 70.76 145.342 71.32C145.302 71.36 145.302 71.44 145.302 71.48L145.302 72.64L145.302 73.84C145.302 73.88 145.302 73.96 145.342 74C145.462 74.52 145.622 74.68 146.142 74.8C146.182 74.84 146.262 74.84 146.302 74.84L147.502 74.84L149.662 74.84L151.862 74.84L153.022 74.84C153.062 74.84 153.142 74.84 153.182 74.8C153.702 74.68 153.862 74.52 154.022 74C154.022 73.96 154.022 73.88 154.022 73.84L154.022 72.64L154.022 70.48L154.022 68.92C154.022 68.56 154.302 68.28 154.662 68.28L155.182 68.28C155.262 68.28 155.302 68.28 155.382 68.28C155.902 68.12 156.022 67.96 156.182 67.44C156.222 67.4 156.222 67.32 156.222 67.28L156.222 66.12L156.222 64.56C156.222 64.2 156.502 63.92 156.862 63.92L157.462 63.92C158.062 63.76 158.222 63.64 158.382 63.08C158.382 63.04 158.382 62.96 158.382 62.92L158.382 61.76ZM179.915 67.12L179.915 65.96L179.915 64.8C179.915 64.72 179.915 64.68 179.915 64.6C179.755 64.08 179.595 63.96 179.115 63.8C179.035 63.8 178.995 63.76 178.915 63.76L178.395 63.76C178.035 63.76 177.755 63.48 177.755 63.16L177.755 62.6C177.755 62.56 177.755 62.48 177.715 62.44C177.555 61.92 177.435 61.76 176.915 61.6C176.875 61.6 176.795 61.6 176.715 61.6L175.555 61.6L173.395 61.6L172.195 61.6C172.155 61.6 172.075 61.6 172.035 61.6C171.515 61.76 171.395 61.92 171.235 62.44C171.195 62.48 171.195 62.56 171.195 62.6L171.195 63.76L171.195 65.96L171.195 67.52C171.195 67.84 170.915 68.12 170.555 68.12L170.035 68.12C169.955 68.12 169.915 68.16 169.835 68.16C169.355 68.32 169.195 68.48 169.035 68.96C169.035 69.04 169.035 69.08 169.035 69.16L169.035 70.32L169.035 72.52L169.035 73.68C169.035 73.72 169.035 73.8 169.035 73.84C169.195 74.36 169.355 74.52 169.835 74.64C169.915 74.68 169.955 74.68 170.035 74.68L171.195 74.68L173.395 74.68L175.555 74.68L176.715 74.68C176.795 74.68 176.875 74.68 176.915 74.64C177.435 74.52 177.555 74.36 177.715 73.84C177.755 73.8 177.755 73.72 177.755 73.68L177.755 72.52L177.755 70.32L177.755 68.76C177.755 68.44 178.035 68.12 178.395 68.12L178.995 68.12C179.595 67.96 179.755 67.84 179.915 67.32C179.915 67.24 179.915 67.2 179.915 67.12ZM180.835 63.76L181.475 63.76C181.835 63.76 182.115 64.04 182.115 64.4L182.115 65.96L182.115 67.52C182.115 67.84 181.835 68.12 181.475 68.12L180.955 68.12C180.875 68.12 180.835 68.16 180.755 68.16C180.235 68.32 180.115 68.48 179.955 68.96C179.955 69.04 179.915 69.08 179.915 69.16L179.915 70.32L179.915 72.52L179.915 74.04C179.915 74.4 179.635 74.68 179.275 74.68L178.675 74.68C178.075 74.84 177.915 74.96 177.755 75.52C177.755 75.56 177.755 75.64 177.755 75.68L177.755 76.24C177.755 76.6 177.475 76.88 177.115 76.88L175.555 76.88L173.395 76.88L171.195 76.88L169.635 76.88C169.315 76.88 169.035 76.6 169.035 76.24L169.035 75.68C169.035 75.64 168.995 75.56 168.995 75.52C168.835 74.96 168.675 74.84 168.075 74.68L168.115 74.68L167.755 74.68C167.195 74.84 167.035 74.96 166.875 75.52C166.835 75.56 166.835 75.64 166.835 75.68L166.835 76.88L166.835 79.04L166.835 81.24L166.835 83.4L166.835 85.6L166.835 87.16C166.835 87.48 166.555 87.76 166.195 87.76L165.275 87.76C164.955 87.76 164.675 87.48 164.675 87.16L164.675 85.6L164.675 83.4L164.675 81.24L164.675 79.04L164.675 76.88L164.675 74.68L164.675 73.12C164.675 72.8 164.955 72.52 165.275 72.52L165.835 72.52C165.875 72.52 165.955 72.48 165.995 72.48C166.515 72.32 166.675 72.16 166.795 71.68C166.835 71.6 166.835 71.56 166.835 71.48L166.835 70.32L166.835 68.76C166.835 68.44 167.115 68.12 167.475 68.12L168.115 68.12C168.115 68.12 168.115 68.12 168.075 68.12C168.675 67.96 168.835 67.84 168.995 67.32C168.995 67.24 169.035 67.2 169.035 67.12L169.035 65.96L169.035 63.76L169.035 62.6C169.035 62.56 168.995 62.48 168.995 62.44C168.835 61.88 168.675 61.76 168.075 61.6C168.115 61.6 168.115 61.6 168.115 61.6L167.475 61.6C167.115 61.6 166.835 61.32 166.835 60.96L166.835 60.04C166.835 59.68 167.115 59.4 167.475 59.4L168.395 59.4C168.715 59.4 169.035 59.68 169.035 60.04L169.035 60.6C169.035 60.64 169.035 60.72 169.035 60.76C169.195 61.28 169.355 61.4 169.835 61.56C169.915 61.6 169.955 61.6 170.035 61.6L170.275 61.6C170.875 61.44 170.995 61.28 171.155 60.76C171.195 60.72 171.195 60.64 171.195 60.56L171.195 60.04C171.195 59.68 171.475 59.4 171.835 59.4L173.395 59.4L175.555 59.4L177.115 59.4C177.475 59.4 177.755 59.68 177.755 60.04L177.755 60.56C177.755 60.64 177.755 60.72 177.755 60.76C177.915 61.28 178.075 61.44 178.675 61.6L179.275 61.6C179.635 61.6 179.915 61.88 179.915 62.24L179.915 62.76C179.915 62.84 179.955 62.88 179.955 62.92C180.115 63.48 180.275 63.6 180.835 63.76ZM197.608 66.28L197.608 64.08L197.608 62.92C197.608 62.84 197.608 62.8 197.568 62.72C197.408 62.2 197.248 62.08 196.688 61.92L195.408 61.92L193.248 61.92L191.048 61.92L189.808 61.92C189.208 62.08 189.048 62.2 188.888 62.72C188.888 62.8 188.888 62.84 188.888 62.92L188.888 64.08L188.888 66.28L188.888 67.44C188.888 67.48 188.888 67.56 188.888 67.6C189.048 68.12 189.208 68.28 189.688 68.44C189.768 68.44 189.808 68.44 189.888 68.44L191.048 68.44L193.248 68.44L195.408 68.44L196.568 68.44C196.648 68.44 196.688 68.44 196.768 68.44C197.288 68.28 197.408 68.12 197.568 67.6C197.608 67.56 197.608 67.48 197.608 67.44L197.608 66.28ZM197.608 60.88C197.608 60.96 197.608 61 197.608 61.08C197.768 61.6 197.928 61.72 198.448 61.88C198.488 61.88 198.568 61.92 198.608 61.92L199.128 61.92C199.488 61.92 199.768 62.2 199.768 62.52L199.768 64.08L199.768 66.28L199.768 67.8C199.768 68.16 199.488 68.44 199.128 68.44L198.608 68.44C198.568 68.44 198.488 68.44 198.448 68.48C197.928 68.64 197.768 68.76 197.608 69.28C197.608 69.36 197.608 69.4 197.608 69.48L197.608 70C197.608 70.36 197.328 70.64 196.968 70.64L195.408 70.64L193.248 70.64L191.048 70.64L189.488 70.64C189.168 70.64 188.888 70.36 188.888 70L188.888 69.48C188.888 69.4 188.848 69.36 188.848 69.28C188.688 68.76 188.528 68.6 187.928 68.44C187.968 68.44 187.968 68.44 187.968 68.44L187.608 68.44C187.048 68.6 186.888 68.76 186.728 69.28C186.688 69.36 186.688 69.4 186.688 69.48L186.688 70.64L186.688 72.8L186.688 74C186.688 74.04 186.688 74.12 186.728 74.16C186.848 74.68 187.008 74.8 187.528 74.96C187.568 75 187.648 75 187.688 75L188.888 75L191.048 75L193.248 75L194.408 75C194.448 75 194.528 75 194.568 74.96C195.088 74.8 195.248 74.68 195.408 74.16C195.408 74.12 195.408 74.04 195.408 74L195.408 73.44C195.408 73.08 195.688 72.8 196.048 72.8L196.968 72.8C197.328 72.8 197.608 73.08 197.608 73.44L197.608 74.36C197.608 74.72 197.328 75 196.968 75L196.448 75C196.368 75 196.328 75 196.248 75.04C195.728 75.16 195.608 75.32 195.448 75.84C195.408 75.88 195.408 75.96 195.408 76L195.408 76.56C195.408 76.88 195.128 77.16 194.768 77.16L193.248 77.16L191.048 77.16L188.888 77.16L187.328 77.16C186.968 77.16 186.688 76.88 186.688 76.56L186.688 76C186.688 75.96 186.688 75.88 186.648 75.84C186.528 75.32 186.368 75.16 185.848 75.04C185.808 75 185.728 75 185.688 75L185.128 75C184.808 75 184.528 74.72 184.528 74.36L184.528 72.8L184.528 70.64L184.528 69.08C184.528 68.72 184.808 68.44 185.128 68.44L185.688 68.44C185.728 68.44 185.808 68.44 185.848 68.44C186.368 68.28 186.528 68.12 186.648 67.6C186.688 67.56 186.688 67.48 186.688 67.44L186.688 66.28L186.688 64.08L186.688 62.52C186.688 62.2 186.968 61.92 187.328 61.92L187.848 61.92C187.928 61.92 187.968 61.88 188.048 61.88C188.568 61.72 188.688 61.6 188.848 61.08C188.848 61 188.888 60.96 188.888 60.88L188.888 60.36C188.888 60 189.168 59.72 189.488 59.72L191.048 59.72L193.248 59.72L195.408 59.72L196.968 59.72C197.328 59.72 197.608 60 197.608 60.36L197.608 60.88ZM216.194 61.92L216.794 61.92C217.154 61.92 217.434 62.2 217.434 62.52L217.434 63.44C217.434 63.8 217.154 64.08 216.794 64.08L215.914 64.08C215.554 64.08 215.274 63.8 215.274 63.44L215.274 62.92C215.274 62.84 215.274 62.8 215.234 62.72C215.074 62.24 214.954 62.08 214.434 61.92C214.394 61.92 214.314 61.92 214.274 61.92L213.074 61.92L210.914 61.92L209.714 61.92C209.674 61.92 209.594 61.92 209.554 61.92C209.034 62.08 208.914 62.24 208.754 62.72C208.714 62.8 208.714 62.84 208.714 62.92L208.714 64.08L208.714 66.28L208.714 67.8C208.714 68.16 208.434 68.44 208.074 68.44L207.554 68.44C207.474 68.44 207.434 68.44 207.354 68.48C206.874 68.64 206.714 68.76 206.554 69.28C206.554 69.32 206.554 69.4 206.554 69.48L206.554 70.64L206.554 72.16C206.554 72.52 206.234 72.8 205.914 72.8L205.354 72.8C205.314 72.8 205.234 72.8 205.194 72.84C204.674 73 204.514 73.12 204.394 73.64C204.354 73.72 204.354 73.76 204.354 73.84L204.354 75L204.354 76.56C204.354 76.88 204.074 77.16 203.714 77.16L202.794 77.16C202.474 77.16 202.194 76.88 202.194 76.56L202.194 75L202.194 73.44C202.194 73.08 202.474 72.8 202.794 72.8L203.434 72.8C204.034 72.64 204.154 72.52 204.314 71.96C204.354 71.92 204.354 71.84 204.354 71.8L204.354 70.64L204.354 69.08C204.354 68.72 204.634 68.44 204.994 68.44L205.514 68.44C205.594 68.44 205.634 68.44 205.714 68.44C206.234 68.28 206.354 68.12 206.514 67.6C206.514 67.56 206.554 67.48 206.554 67.44L206.554 66.28L206.554 64.08L206.554 62.92C206.554 62.84 206.514 62.8 206.514 62.72C206.354 62.24 206.234 62.08 205.714 61.92C205.634 61.92 205.594 61.92 205.514 61.92L204.994 61.92C204.634 61.92 204.354 61.6 204.354 61.28L204.354 60.36C204.354 60 204.634 59.72 204.994 59.72L205.914 59.72C206.234 59.72 206.554 60 206.554 60.36L206.554 60.88C206.554 60.96 206.554 61 206.554 61.08C206.714 61.6 206.874 61.72 207.474 61.92L207.794 61.92C208.394 61.72 208.554 61.6 208.674 61.08C208.714 61 208.714 60.96 208.714 60.88L208.714 60.36C208.714 60 208.994 59.72 209.354 59.72L210.914 59.72L213.074 59.72L214.634 59.72C214.994 59.72 215.274 60 215.274 60.36L215.274 60.88C215.274 60.96 215.274 61 215.274 61.08C215.434 61.6 215.594 61.72 216.194 61.92Z" fill="#EF7C05"/>
<path d="M34.9375 67.5583L229.055 72.1777" stroke="#001806" stroke-width="2" stroke-linecap="round"/>
<path d="M45.696 134V128H46.824L49.176 131.96L51.528 128H52.656V134H51.696V129.392L49.512 133.112H48.852L46.656 129.392V134H45.696ZM60.4715 134V128H61.4315V134H60.4715ZM57.4595 131.312H54.9755V133.064H57.4595C57.7635 133.064 58.0155 132.984 58.2155 132.824C58.4155 132.656 58.5155 132.452 58.5155 132.212C58.5155 131.956 58.4155 131.744 58.2155 131.576C58.0155 131.4 57.7635 131.312 57.4595 131.312ZM57.5795 130.4C58.1155 130.4 58.5635 130.576 58.9235 130.928C59.2915 131.28 59.4755 131.712 59.4755 132.224C59.4755 132.728 59.2915 133.152 58.9235 133.496C58.5635 133.832 58.1155 134 57.5795 134H54.0155V128H54.9755V130.4H57.5795ZM66.0515 134V128H67.0115V130.532H70.7555V128H71.7155V134H70.7555V131.444H67.0115V134H66.0515ZM78.1344 130.544C78.0864 129.984 77.8584 129.532 77.4504 129.188C77.0424 128.844 76.5504 128.672 75.9744 128.672C75.4224 128.672 74.9464 128.844 74.5464 129.188C74.1544 129.524 73.9224 129.976 73.8504 130.544H78.1344ZM73.8504 131.42C73.9224 131.988 74.1624 132.444 74.5704 132.788C74.9784 133.132 75.4624 133.304 76.0224 133.304C76.4544 133.304 76.8464 133.204 77.1984 133.004C77.5504 132.796 77.8144 132.512 77.9904 132.152L78.8784 132.5C78.6144 133.028 78.2264 133.448 77.7144 133.76C77.2104 134.064 76.6504 134.216 76.0344 134.216C75.1384 134.216 74.3824 133.912 73.7664 133.304C73.1584 132.688 72.8544 131.916 72.8544 130.988C72.8544 130.06 73.1544 129.292 73.7544 128.684C74.3544 128.068 75.0904 127.76 75.9624 127.76C76.8424 127.76 77.5864 128.06 78.1944 128.66C78.8024 129.252 79.1064 130 79.1064 130.904C79.1064 131.048 79.0864 131.22 79.0464 131.42H73.8504ZM88.6373 128V134H87.6773V128.912H84.4373V134H83.4773V128H88.6373ZM95.4163 134H94.4563V129.2L91.1563 134H90.0163V128H90.9763V132.68L94.2643 128H95.4163V134ZM105.489 134H96.8015V128H97.7615V133.088H100.665V128H101.625V133.088H104.529V128H105.489V134ZM111.92 130.544C111.872 129.984 111.644 129.532 111.236 129.188C110.828 128.844 110.336 128.672 109.76 128.672C109.208 128.672 108.732 128.844 108.332 129.188C107.94 129.524 107.708 129.976 107.636 130.544H111.92ZM107.636 131.42C107.708 131.988 107.948 132.444 108.356 132.788C108.764 133.132 109.248 133.304 109.808 133.304C110.24 133.304 110.632 133.204 110.984 133.004C111.336 132.796 111.6 132.512 111.776 132.152L112.664 132.5C112.4 133.028 112.012 133.448 111.5 133.76C110.996 134.064 110.436 134.216 109.82 134.216C108.924 134.216 108.168 133.912 107.552 133.304C106.944 132.688 106.64 131.916 106.64 130.988C106.64 130.06 106.94 129.292 107.54 128.684C108.14 128.068 108.876 127.76 109.748 127.76C110.628 127.76 111.372 128.06 111.98 128.66C112.588 129.252 112.892 130 112.892 130.904C112.892 131.048 112.872 131.22 112.832 131.42H107.636ZM114.028 134V128H115.156L117.508 131.96L119.86 128H120.988V134H120.028V129.392L117.844 133.112H117.184L114.988 129.392V134H114.028ZM45.696 151V145H46.656V147.532H50.4V145H51.36V151H50.4V148.444H46.656V151H45.696ZM56.387 148.228L54.671 148.432C53.863 148.536 53.459 148.844 53.459 149.356C53.459 149.628 53.571 149.848 53.795 150.016C54.019 150.176 54.319 150.256 54.695 150.256C55.207 150.256 55.615 150.104 55.919 149.8C56.231 149.496 56.387 149.096 56.387 148.6H56.807C56.807 149.328 56.583 149.932 56.135 150.412C55.687 150.892 55.127 151.132 54.455 151.132C53.887 151.132 53.415 150.972 53.039 150.652C52.671 150.324 52.487 149.904 52.487 149.392C52.495 148.904 52.671 148.5 53.015 148.18C53.367 147.86 53.851 147.664 54.467 147.592L56.387 147.376V147.136C56.387 146.768 56.243 146.448 55.955 146.176C55.675 145.904 55.331 145.768 54.923 145.768C54.555 145.768 54.227 145.868 53.939 146.068C53.659 146.268 53.483 146.528 53.411 146.848L52.499 146.56C52.659 146.056 52.955 145.648 53.387 145.336C53.827 145.024 54.323 144.868 54.875 144.868C55.547 144.868 56.127 145.084 56.615 145.516C57.103 145.94 57.347 146.448 57.347 147.04V151H56.387V148.228ZM65.6096 148.228L63.8936 148.432C63.0856 148.536 62.6816 148.844 62.6816 149.356C62.6816 149.628 62.7936 149.848 63.0176 150.016C63.2416 150.176 63.5416 150.256 63.9176 150.256C64.4296 150.256 64.8376 150.104 65.1416 149.8C65.4536 149.496 65.6096 149.096 65.6096 148.6H66.0296C66.0296 149.328 65.8056 149.932 65.3576 150.412C64.9096 150.892 64.3496 151.132 63.6776 151.132C63.1096 151.132 62.6376 150.972 62.2616 150.652C61.8936 150.324 61.7096 149.904 61.7096 149.392C61.7176 148.904 61.8936 148.5 62.2376 148.18C62.5896 147.86 63.0736 147.664 63.6896 147.592L65.6096 147.376V147.136C65.6096 146.768 65.4656 146.448 65.1776 146.176C64.8976 145.904 64.5536 145.768 64.1456 145.768C63.7776 145.768 63.4496 145.868 63.1616 146.068C62.8816 146.268 62.7056 146.528 62.6336 146.848L61.7216 146.56C61.8816 146.056 62.1776 145.648 62.6096 145.336C63.0496 145.024 63.5456 144.868 64.0976 144.868C64.7696 144.868 65.3496 145.084 65.8376 145.516C66.3256 145.94 66.5696 146.448 66.5696 147.04V151H65.6096V148.228ZM67.9499 151V145H68.9099V147.532H72.6539V145H73.6139V151H72.6539V148.444H68.9099V151H67.9499ZM74.9929 151V145H79.0369V145.912H75.9529V151H74.9929ZM80.1366 150.064C80.4726 150.064 80.7326 149.96 80.9166 149.752C81.1006 149.536 81.1926 149.264 81.1926 148.936V145H85.4526V151H84.4926V145.936H82.1526V149.092C82.1526 149.612 81.9766 150.06 81.6246 150.436C81.2726 150.812 80.8166 151 80.2566 151H79.8846V150.064H80.1366ZM92.2288 151H91.2688V146.2L87.9688 151H86.8288V145H87.7888V149.68L91.0768 145H92.2288V151ZM96.338 144.088C95.786 144.088 95.318 143.908 94.934 143.548C94.55 143.18 94.358 142.74 94.358 142.228H95.162C95.162 142.548 95.274 142.812 95.498 143.02C95.722 143.228 96.006 143.332 96.35 143.332C96.702 143.332 96.998 143.224 97.238 143.008C97.486 142.792 97.61 142.532 97.61 142.228H98.414C98.414 142.724 98.206 143.16 97.79 143.536C97.382 143.904 96.898 144.088 96.338 144.088ZM99.014 151H98.054V146.2L94.754 151H93.614V145H94.574V149.68L97.862 145H99.014V151ZM101.767 146.344C101.335 146.768 101.119 147.316 101.119 147.988C101.119 148.66 101.335 149.212 101.767 149.644C102.199 150.068 102.727 150.28 103.351 150.28C103.799 150.28 104.203 150.172 104.563 149.956C104.923 149.74 105.199 149.436 105.391 149.044L106.267 149.44C106.003 149.984 105.611 150.416 105.091 150.736C104.571 151.056 103.991 151.216 103.351 151.216C102.455 151.216 101.699 150.912 101.083 150.304C100.467 149.696 100.159 148.924 100.159 147.988C100.159 147.052 100.467 146.28 101.083 145.672C101.699 145.064 102.455 144.76 103.351 144.76C103.999 144.76 104.587 144.924 105.115 145.252C105.643 145.58 106.035 146.028 106.291 146.596L105.415 146.992C105.231 146.584 104.955 146.268 104.587 146.044C104.219 145.812 103.807 145.696 103.351 145.696C102.727 145.696 102.199 145.912 101.767 146.344ZM107.43 151V145H108.39V147.52H108.702L111.15 145H112.398L109.542 148L112.398 151H111.15L108.702 148.516H108.39V151H107.43ZM114.822 146.344C114.382 146.768 114.162 147.316 114.162 147.988C114.162 148.66 114.382 149.212 114.822 149.644C115.27 150.068 115.814 150.28 116.454 150.28C117.094 150.28 117.634 150.068 118.074 149.644C118.522 149.212 118.746 148.66 118.746 147.988C118.746 147.316 118.522 146.768 118.074 146.344C117.634 145.912 117.094 145.696 116.454 145.696C115.814 145.696 115.27 145.912 114.822 146.344ZM114.138 150.304C113.514 149.696 113.202 148.924 113.202 147.988C113.202 147.052 113.514 146.28 114.138 145.672C114.77 145.064 115.542 144.76 116.454 144.76C117.366 144.76 118.134 145.064 118.758 145.672C119.39 146.28 119.706 147.052 119.706 147.988C119.706 148.924 119.39 149.696 118.758 150.304C118.134 150.912 117.366 151.216 116.454 151.216C115.542 151.216 114.77 150.912 114.138 150.304ZM120.86 151V145H121.988L124.34 148.96L126.692 145H127.82V151H126.86V146.392L124.676 150.112H124.016L121.82 146.392V151H120.86ZM130.128 148.624H129.228L129.168 142.6H130.188L130.128 148.624ZM128.916 150.376C128.916 150.16 128.988 149.98 129.132 149.836C129.276 149.684 129.456 149.608 129.672 149.608C129.896 149.608 130.08 149.684 130.224 149.836C130.376 149.98 130.452 150.16 130.452 150.376C130.452 150.6 130.38 150.784 130.236 150.928C130.092 151.072 129.908 151.144 129.684 151.144C129.468 151.144 129.284 151.072 129.132 150.928C128.988 150.784 128.916 150.6 128.916 150.376ZM132.46 148.624H131.56L131.5 142.6H132.52L132.46 148.624ZM131.248 150.376C131.248 150.16 131.32 149.98 131.464 149.836C131.608 149.684 131.788 149.608 132.004 149.608C132.228 149.608 132.412 149.684 132.556 149.836C132.708 149.98 132.784 150.16 132.784 150.376C132.784 150.6 132.712 150.784 132.568 150.928C132.424 151.072 132.24 151.144 132.016 151.144C131.8 151.144 131.616 151.072 131.464 150.928C131.32 150.784 131.248 150.6 131.248 150.376Z" fill="#001806"/>
</svg>
