<svg width="736" height="132" viewBox="0 0 736 132" fill="none" xmlns="http://www.w3.org/2000/svg">
<path d="M2.42716 131.223C1.36282 131.223 0.5 130.36 0.5 129.296L0.5 20.6039C0.5 19.5396 1.36282 18.6768 2.42716 18.6768L118.338 18.6768C119.403 18.6768 120.265 19.5396 120.265 20.6039V129.296C120.265 130.36 119.403 131.223 118.338 131.223H108.317C107.253 131.223 106.39 130.36 106.39 129.296V33.2461C106.39 32.1817 105.527 31.3189 104.463 31.3189L16.3027 31.3189C15.2383 31.3189 14.3755 32.1817 14.3755 33.2461V129.296C14.3755 130.36 13.5127 131.223 12.4484 131.223H2.42716ZM145.952 131.223C143.793 131.223 142.868 129.835 143.331 127.831L171.082 21.2977C171.544 19.6018 172.624 18.6768 174.474 18.6768H187.578C189.428 18.6768 190.508 19.6018 190.97 21.2977L218.567 127.831C219.03 129.835 218.105 131.223 215.946 131.223H208.238C206.387 131.223 205.308 130.298 204.846 128.602L198.062 101.313H163.99L157.206 128.602C156.744 130.298 155.665 131.223 153.815 131.223H145.952ZM166.765 89.5961H195.133L186.499 54.9073C184.803 48.2779 183.57 42.5735 182.645 38.2567C182.028 35.3274 179.87 35.3274 179.253 38.2567C178.328 42.5735 177.095 48.2779 175.399 54.7531L166.765 89.5961ZM244.408 131.223C242.404 131.223 241.325 130.144 241.325 128.139V21.7602C241.325 19.756 242.404 18.6768 244.408 18.6768L296.458 18.6768C317.426 18.6768 330.839 31.6272 330.839 51.8238C330.839 72.0204 317.426 84.971 296.458 84.971H255.2V128.139C255.2 130.144 254.121 131.223 252.117 131.223H244.408ZM255.2 72.483H296.458C308.638 72.483 316.501 64.466 316.501 51.8238C316.501 39.1817 308.638 31.1647 296.458 31.1647L258.284 31.1647C256.28 31.1647 255.2 32.2439 255.2 34.2482V72.483ZM330.839 131.223C328.68 131.223 327.755 129.835 328.218 127.831L355.969 21.2977C356.431 19.6018 357.511 18.6768 359.361 18.6768H372.465C374.315 18.6768 375.395 19.6018 375.857 21.2977L403.454 127.831C403.916 129.835 402.991 131.223 400.833 131.223H393.124C391.274 131.223 390.195 130.298 389.733 128.602L382.949 101.313H348.877L342.093 128.602C341.631 130.298 340.552 131.223 338.702 131.223H330.839ZM351.652 89.5961H380.02L371.386 54.9073C369.69 48.2779 368.457 42.5735 367.532 38.2567C366.915 35.3274 364.757 35.3274 364.14 38.2567C363.215 42.5735 361.982 48.2779 360.286 54.7531L351.652 89.5961ZM423.508 131.223C422.445 131.223 421.584 130.363 421.581 129.301L421.283 20.6092C421.28 19.5428 422.144 18.6768 423.21 18.6768H432.455C433.519 18.6768 434.382 19.5396 434.382 20.6039V117.27C434.382 118.334 435.245 119.197 436.309 119.197H450.802C451.866 119.197 452.729 118.334 452.729 117.27V20.6039C452.729 19.5396 453.592 18.6768 454.656 18.6768H462.21C463.275 18.6768 464.138 19.5396 464.138 20.6039V117.27C464.138 118.334 465 119.197 466.065 119.197L534.965 119.197C536.029 119.197 536.892 118.335 536.892 117.27V20.604C536.892 19.5397 537.755 18.6769 538.819 18.6769H547.915C548.979 18.6769 549.842 19.5397 549.842 20.604V129.296C549.842 130.36 548.979 131.223 547.915 131.223L458.433 131.223H423.508ZM591.303 131.223C589.946 131.223 589.014 129.857 589.509 128.593L599.611 102.792C599.789 102.337 599.788 101.832 599.607 101.378L567.79 21.3158C567.287 20.0505 568.219 18.6769 569.581 18.6769H580.504C581.312 18.6769 582.035 19.1813 582.313 19.9402L602.046 73.7165C602.614 75.2526 603.138 76.7742 603.616 78.2469C604.299 80.3518 609.043 80.2782 609.644 78.1485C610.05 76.7065 610.499 75.2184 610.988 73.7165L628.288 20.0131C628.544 19.2168 629.285 18.6769 630.122 18.6769H641.084C642.419 18.6769 643.35 20.0013 642.897 21.2572L603.739 129.949C603.463 130.713 602.738 131.223 601.926 131.223H591.303ZM693.873 131.223C691.869 131.223 690.79 130.144 690.79 128.139V31.319H663.039C661.035 31.319 659.956 30.2398 659.956 28.2356V21.7603C659.956 19.7561 661.035 18.6769 663.039 18.6769L732.417 18.6769C734.421 18.6769 735.5 19.7561 735.5 21.7603V28.2356C735.5 30.2398 734.421 31.319 732.417 31.319L704.666 31.319V128.139C704.666 130.144 703.586 131.223 701.582 131.223H693.873Z" fill="#0D0D0D"/>
<path d="M2.42716 131.223C1.36282 131.223 0.5 130.36 0.5 129.296L0.5 20.6039C0.5 19.5396 1.36282 18.6768 2.42716 18.6768L118.338 18.6768C119.403 18.6768 120.265 19.5396 120.265 20.6039V129.296C120.265 130.36 119.403 131.223 118.338 131.223H108.317C107.253 131.223 106.39 130.36 106.39 129.296V33.2461C106.39 32.1817 105.527 31.3189 104.463 31.3189L16.3027 31.3189C15.2383 31.3189 14.3755 32.1817 14.3755 33.2461V129.296C14.3755 130.36 13.5127 131.223 12.4484 131.223H2.42716ZM145.952 131.223C143.793 131.223 142.868 129.835 143.331 127.831L171.082 21.2977C171.544 19.6018 172.624 18.6768 174.474 18.6768H187.578C189.428 18.6768 190.508 19.6018 190.97 21.2977L218.567 127.831C219.03 129.835 218.105 131.223 215.946 131.223H208.238C206.387 131.223 205.308 130.298 204.846 128.602L198.062 101.313H163.99L157.206 128.602C156.744 130.298 155.665 131.223 153.815 131.223H145.952ZM166.765 89.5961H195.133L186.499 54.9073C184.803 48.2779 183.57 42.5735 182.645 38.2567C182.028 35.3274 179.87 35.3274 179.253 38.2567C178.328 42.5735 177.095 48.2779 175.399 54.7531L166.765 89.5961ZM244.408 131.223C242.404 131.223 241.325 130.144 241.325 128.139V21.7602C241.325 19.756 242.404 18.6768 244.408 18.6768L296.458 18.6768C317.426 18.6768 330.839 31.6272 330.839 51.8238C330.839 72.0204 317.426 84.971 296.458 84.971H255.2V128.139C255.2 130.144 254.121 131.223 252.117 131.223H244.408ZM255.2 72.483H296.458C308.638 72.483 316.501 64.466 316.501 51.8238C316.501 39.1817 308.638 31.1647 296.458 31.1647L258.284 31.1647C256.28 31.1647 255.2 32.2439 255.2 34.2482V72.483ZM330.839 131.223C328.68 131.223 327.755 129.835 328.218 127.831L355.969 21.2977C356.431 19.6018 357.511 18.6768 359.361 18.6768H372.465C374.315 18.6768 375.395 19.6018 375.857 21.2977L403.454 127.831C403.916 129.835 402.991 131.223 400.833 131.223H393.124C391.274 131.223 390.195 130.298 389.733 128.602L382.949 101.313H348.877L342.093 128.602C341.631 130.298 340.552 131.223 338.702 131.223H330.839ZM351.652 89.5961H380.02L371.386 54.9073C369.69 48.2779 368.457 42.5735 367.532 38.2567C366.915 35.3274 364.757 35.3274 364.14 38.2567C363.215 42.5735 361.982 48.2779 360.286 54.7531L351.652 89.5961ZM423.508 131.223C422.445 131.223 421.584 130.363 421.581 129.301L421.283 20.6092C421.28 19.5428 422.144 18.6768 423.21 18.6768H432.455C433.519 18.6768 434.382 19.5396 434.382 20.6039V117.27C434.382 118.334 435.245 119.197 436.309 119.197H450.802C451.866 119.197 452.729 118.334 452.729 117.27V20.6039C452.729 19.5396 453.592 18.6768 454.656 18.6768H462.21C463.275 18.6768 464.138 19.5396 464.138 20.6039V117.27C464.138 118.334 465 119.197 466.065 119.197L534.965 119.197C536.029 119.197 536.892 118.335 536.892 117.27V20.604C536.892 19.5397 537.755 18.6769 538.819 18.6769H547.915C548.979 18.6769 549.842 19.5397 549.842 20.604V129.296C549.842 130.36 548.979 131.223 547.915 131.223L458.433 131.223H423.508ZM591.303 131.223C589.946 131.223 589.014 129.857 589.509 128.593L599.611 102.792C599.789 102.337 599.788 101.832 599.607 101.378L567.79 21.3158C567.287 20.0505 568.219 18.6769 569.581 18.6769H580.504C581.312 18.6769 582.035 19.1813 582.313 19.9402L602.046 73.7165C602.614 75.2526 603.138 76.7742 603.616 78.2469C604.299 80.3518 609.043 80.2782 609.644 78.1485C610.05 76.7065 610.499 75.2184 610.988 73.7165L628.288 20.0131C628.544 19.2168 629.285 18.6769 630.122 18.6769H641.084C642.419 18.6769 643.35 20.0013 642.897 21.2572L603.739 129.949C603.463 130.713 602.738 131.223 601.926 131.223H591.303ZM693.873 131.223C691.869 131.223 690.79 130.144 690.79 128.139V31.319H663.039C661.035 31.319 659.956 30.2398 659.956 28.2356V21.7603C659.956 19.7561 661.035 18.6769 663.039 18.6769L732.417 18.6769C734.421 18.6769 735.5 19.7561 735.5 21.7603V28.2356C735.5 30.2398 734.421 31.319 732.417 31.319L704.666 31.319V128.139C704.666 130.144 703.586 131.223 701.582 131.223H693.873Z" fill="black" fill-opacity="0.2"/>
<path d="M2.42716 131.223C1.36282 131.223 0.5 130.36 0.5 129.296L0.5 20.6039C0.5 19.5396 1.36282 18.6768 2.42716 18.6768L118.338 18.6768C119.403 18.6768 120.265 19.5396 120.265 20.6039V129.296C120.265 130.36 119.403 131.223 118.338 131.223H108.317C107.253 131.223 106.39 130.36 106.39 129.296V33.2461C106.39 32.1817 105.527 31.3189 104.463 31.3189L16.3027 31.3189C15.2383 31.3189 14.3755 32.1817 14.3755 33.2461V129.296C14.3755 130.36 13.5127 131.223 12.4484 131.223H2.42716ZM145.952 131.223C143.793 131.223 142.868 129.835 143.331 127.831L171.082 21.2977C171.544 19.6018 172.624 18.6768 174.474 18.6768H187.578C189.428 18.6768 190.508 19.6018 190.97 21.2977L218.567 127.831C219.03 129.835 218.105 131.223 215.946 131.223H208.238C206.387 131.223 205.308 130.298 204.846 128.602L198.062 101.313H163.99L157.206 128.602C156.744 130.298 155.665 131.223 153.815 131.223H145.952ZM166.765 89.5961H195.133L186.499 54.9073C184.803 48.2779 183.57 42.5735 182.645 38.2567C182.028 35.3274 179.87 35.3274 179.253 38.2567C178.328 42.5735 177.095 48.2779 175.399 54.7531L166.765 89.5961ZM244.408 131.223C242.404 131.223 241.325 130.144 241.325 128.139V21.7602C241.325 19.756 242.404 18.6768 244.408 18.6768L296.458 18.6768C317.426 18.6768 330.839 31.6272 330.839 51.8238C330.839 72.0204 317.426 84.971 296.458 84.971H255.2V128.139C255.2 130.144 254.121 131.223 252.117 131.223H244.408ZM255.2 72.483H296.458C308.638 72.483 316.501 64.466 316.501 51.8238C316.501 39.1817 308.638 31.1647 296.458 31.1647L258.284 31.1647C256.28 31.1647 255.2 32.2439 255.2 34.2482V72.483ZM330.839 131.223C328.68 131.223 327.755 129.835 328.218 127.831L355.969 21.2977C356.431 19.6018 357.511 18.6768 359.361 18.6768H372.465C374.315 18.6768 375.395 19.6018 375.857 21.2977L403.454 127.831C403.916 129.835 402.991 131.223 400.833 131.223H393.124C391.274 131.223 390.195 130.298 389.733 128.602L382.949 101.313H348.877L342.093 128.602C341.631 130.298 340.552 131.223 338.702 131.223H330.839ZM351.652 89.5961H380.02L371.386 54.9073C369.69 48.2779 368.457 42.5735 367.532 38.2567C366.915 35.3274 364.757 35.3274 364.14 38.2567C363.215 42.5735 361.982 48.2779 360.286 54.7531L351.652 89.5961ZM423.508 131.223C422.445 131.223 421.584 130.363 421.581 129.301L421.283 20.6092C421.28 19.5428 422.144 18.6768 423.21 18.6768H432.455C433.519 18.6768 434.382 19.5396 434.382 20.6039V117.27C434.382 118.334 435.245 119.197 436.309 119.197H450.802C451.866 119.197 452.729 118.334 452.729 117.27V20.6039C452.729 19.5396 453.592 18.6768 454.656 18.6768H462.21C463.275 18.6768 464.138 19.5396 464.138 20.6039V117.27C464.138 118.334 465 119.197 466.065 119.197L534.965 119.197C536.029 119.197 536.892 118.335 536.892 117.27V20.604C536.892 19.5397 537.755 18.6769 538.819 18.6769H547.915C548.979 18.6769 549.842 19.5397 549.842 20.604V129.296C549.842 130.36 548.979 131.223 547.915 131.223L458.433 131.223H423.508ZM591.303 131.223C589.946 131.223 589.014 129.857 589.509 128.593L599.611 102.792C599.789 102.337 599.788 101.832 599.607 101.378L567.79 21.3158C567.287 20.0505 568.219 18.6769 569.581 18.6769H580.504C581.312 18.6769 582.035 19.1813 582.313 19.9402L602.046 73.7165C602.614 75.2526 603.138 76.7742 603.616 78.2469C604.299 80.3518 609.043 80.2782 609.644 78.1485C610.05 76.7065 610.499 75.2184 610.988 73.7165L628.288 20.0131C628.544 19.2168 629.285 18.6769 630.122 18.6769H641.084C642.419 18.6769 643.35 20.0013 642.897 21.2572L603.739 129.949C603.463 130.713 602.738 131.223 601.926 131.223H591.303ZM693.873 131.223C691.869 131.223 690.79 130.144 690.79 128.139V31.319H663.039C661.035 31.319 659.956 30.2398 659.956 28.2356V21.7603C659.956 19.7561 661.035 18.6769 663.039 18.6769L732.417 18.6769C734.421 18.6769 735.5 19.7561 735.5 21.7603V28.2356C735.5 30.2398 734.421 31.319 732.417 31.319L704.666 31.319V128.139C704.666 130.144 703.586 131.223 701.582 131.223H693.873Z" fill="black" fill-opacity="0.2"/>
</svg>
