<svg width="522" height="260" viewBox="0 0 522 260" fill="none" xmlns="http://www.w3.org/2000/svg">
<g clip-path="url(#clip0_1720_8087)">
<rect y="0.381622" width="29.1782" height="259.413" rx="2.27955" fill="#F4762E" fill-opacity="0.5"/>
<rect x="32.8254" y="0.381622" width="29.1782" height="259.413" rx="2.27955" fill="#F4762E" fill-opacity="0.5"/>
<rect x="65.6509" y="0.381622" width="29.1782" height="259.413" rx="2.27955" fill="#F4762E" fill-opacity="0.5"/>
<rect x="98.4766" y="0.381622" width="29.1782" height="259.413" rx="2.27955" fill="#F4762E" fill-opacity="0.5"/>
<rect x="131.302" y="0.381622" width="29.1782" height="259.413" rx="2.27955" fill="#F4762E" fill-opacity="0.5"/>
<rect x="164.127" y="0.381622" width="29.1782" height="259.413" rx="2.27955" fill="#F4762E" fill-opacity="0.5"/>
<rect x="196.953" y="0.381622" width="29.1782" height="259.413" rx="2.27955" fill="#F4762E" fill-opacity="0.5"/>
<rect x="229.779" y="0.381622" width="29.1782" height="259.413" rx="2.27955" fill="#F4762E" fill-opacity="0.5"/>
<rect x="262.604" y="0.381622" width="29.1782" height="259.413" rx="2.27955" fill="#F4762E" fill-opacity="0.5"/>
<rect x="295.43" y="0.381622" width="29.1782" height="259.413" rx="2.27955" fill="#F4762E" fill-opacity="0.5"/>
<rect x="328.255" y="0.381622" width="29.1782" height="259.413" rx="2.27955" fill="#F4762E" fill-opacity="0.5"/>
<rect x="361.081" y="0.381622" width="29.1782" height="259.413" rx="2.27955" fill="#F4762E" fill-opacity="0.5"/>
<rect x="393.906" y="0.381622" width="29.1782" height="259.413" rx="2.27955" fill="#F4762E" fill-opacity="0.5"/>
<rect x="426.732" y="0.381622" width="29.1782" height="259.413" rx="2.27955" fill="#F4762E" fill-opacity="0.5"/>
<rect x="459.557" y="0.381622" width="29.1782" height="259.413" rx="2.27955" fill="#F4762E" fill-opacity="0.5"/>
<rect x="492.383" y="0.381622" width="29.1782" height="259.413" rx="2.27955" fill="#F4762E" fill-opacity="0.5"/>
</g>
<defs>
<clipPath id="clip0_1720_8087">
<rect y="0.381622" width="521.561" height="259.413" rx="2.27955" fill="white"/>
</clipPath>
</defs>
</svg>
