<svg width="209" height="130" viewBox="0 0 209 130" fill="none" xmlns="http://www.w3.org/2000/svg">
<path d="M0.547994 37.5369C0.245345 37.5369 0 37.2916 0 36.9889L0 6.08193C0 5.77928 0.245345 5.53394 0.547994 5.53394L33.5078 5.53394C33.8104 5.53394 34.0557 5.77928 34.0557 6.08193V36.9889C34.0557 37.2916 33.8104 37.5369 33.5078 37.5369H30.6582C30.3555 37.5369 30.1102 37.2916 30.1102 36.9889V9.67678C30.1102 9.37413 29.8648 9.12879 29.5622 9.12879H4.49355C4.1909 9.12879 3.94556 9.37413 3.94556 9.67678V36.9889C3.94556 37.2916 3.70021 37.5369 3.39756 37.5369H0.547994ZM41.3598 37.5369C40.746 37.5369 40.483 37.1423 40.6145 36.5724L48.5056 6.27921C48.6371 5.79697 48.944 5.53394 49.4701 5.53394H53.1964C53.7225 5.53394 54.0294 5.79697 54.1609 6.27921L62.0082 36.5724C62.1397 37.1423 61.8767 37.5369 61.2629 37.5369H59.0709C58.5449 37.5369 58.238 37.2739 58.1065 36.7916L56.1775 29.032L46.489 29.032L44.5601 36.7916C44.4285 37.2739 44.1217 37.5369 43.5956 37.5369H41.3598ZM47.2781 25.7002L55.3446 25.7002L52.8896 15.8363C52.4073 13.9511 52.0566 12.3291 51.7936 11.1016C51.6182 10.2686 51.0045 10.2686 50.8291 11.1016C50.5661 12.3291 50.2154 13.9511 49.7331 15.7924L47.2781 25.7002ZM69.3562 37.5369C68.7863 37.5369 68.4795 37.23 68.4795 36.6601V6.41073C68.4795 5.84081 68.7863 5.53394 69.3562 5.53394H84.1568C90.119 5.53394 93.9331 9.21646 93.9331 14.9595C93.9331 20.7025 90.119 24.385 84.1568 24.385H72.425V36.6601C72.425 37.23 72.1181 37.5369 71.5482 37.5369H69.3562ZM72.425 20.834L84.1568 20.834C87.6202 20.834 89.856 18.5543 89.856 14.9595C89.856 11.3646 87.6202 9.08495 84.1568 9.08495L73.3018 9.08495C72.7319 9.08495 72.425 9.39183 72.425 9.96174V20.834ZM93.9331 37.5369C93.3193 37.5369 93.0563 37.1423 93.1878 36.5724L101.079 6.27921C101.21 5.79697 101.517 5.53394 102.043 5.53394H105.77C106.296 5.53394 106.603 5.79697 106.734 6.27921L114.581 36.5724C114.713 37.1423 114.45 37.5369 113.836 37.5369H111.644C111.118 37.5369 110.811 37.2739 110.68 36.7916L108.751 29.032H99.0623L97.1333 36.7916C97.0018 37.2739 96.6949 37.5369 96.1689 37.5369H93.9331ZM99.8514 25.7002H107.918L105.463 15.8363C104.981 13.9511 104.63 12.3291 104.367 11.1016C104.191 10.2686 103.578 10.2686 103.402 11.1016C103.139 12.3291 102.789 13.9511 102.306 15.7924L99.8514 25.7002Z" fill="#0D0D0D"/>
<path d="M0.547994 37.5369C0.245345 37.5369 0 37.2916 0 36.9889L0 6.08193C0 5.77928 0.245345 5.53394 0.547994 5.53394L33.5078 5.53394C33.8104 5.53394 34.0557 5.77928 34.0557 6.08193V36.9889C34.0557 37.2916 33.8104 37.5369 33.5078 37.5369H30.6582C30.3555 37.5369 30.1102 37.2916 30.1102 36.9889V9.67678C30.1102 9.37413 29.8648 9.12879 29.5622 9.12879H4.49355C4.1909 9.12879 3.94556 9.37413 3.94556 9.67678V36.9889C3.94556 37.2916 3.70021 37.5369 3.39756 37.5369H0.547994ZM41.3598 37.5369C40.746 37.5369 40.483 37.1423 40.6145 36.5724L48.5056 6.27921C48.6371 5.79697 48.944 5.53394 49.4701 5.53394H53.1964C53.7225 5.53394 54.0294 5.79697 54.1609 6.27921L62.0082 36.5724C62.1397 37.1423 61.8767 37.5369 61.2629 37.5369H59.0709C58.5449 37.5369 58.238 37.2739 58.1065 36.7916L56.1775 29.032L46.489 29.032L44.5601 36.7916C44.4285 37.2739 44.1217 37.5369 43.5956 37.5369H41.3598ZM47.2781 25.7002L55.3446 25.7002L52.8896 15.8363C52.4073 13.9511 52.0566 12.3291 51.7936 11.1016C51.6182 10.2686 51.0045 10.2686 50.8291 11.1016C50.5661 12.3291 50.2154 13.9511 49.7331 15.7924L47.2781 25.7002ZM69.3562 37.5369C68.7863 37.5369 68.4795 37.23 68.4795 36.6601V6.41073C68.4795 5.84081 68.7863 5.53394 69.3562 5.53394H84.1568C90.119 5.53394 93.9331 9.21646 93.9331 14.9595C93.9331 20.7025 90.119 24.385 84.1568 24.385H72.425V36.6601C72.425 37.23 72.1181 37.5369 71.5482 37.5369H69.3562ZM72.425 20.834L84.1568 20.834C87.6202 20.834 89.856 18.5543 89.856 14.9595C89.856 11.3646 87.6202 9.08495 84.1568 9.08495L73.3018 9.08495C72.7319 9.08495 72.425 9.39183 72.425 9.96174V20.834ZM93.9331 37.5369C93.3193 37.5369 93.0563 37.1423 93.1878 36.5724L101.079 6.27921C101.21 5.79697 101.517 5.53394 102.043 5.53394H105.77C106.296 5.53394 106.603 5.79697 106.734 6.27921L114.581 36.5724C114.713 37.1423 114.45 37.5369 113.836 37.5369H111.644C111.118 37.5369 110.811 37.2739 110.68 36.7916L108.751 29.032H99.0623L97.1333 36.7916C97.0018 37.2739 96.6949 37.5369 96.1689 37.5369H93.9331ZM99.8514 25.7002H107.918L105.463 15.8363C104.981 13.9511 104.63 12.3291 104.367 11.1016C104.191 10.2686 103.578 10.2686 103.402 11.1016C103.139 12.3291 102.789 13.9511 102.306 15.7924L99.8514 25.7002Z" fill="black" fill-opacity="0.2"/>
<path d="M0.547994 37.5369C0.245345 37.5369 0 37.2916 0 36.9889L0 6.08193C0 5.77928 0.245345 5.53394 0.547994 5.53394L33.5078 5.53394C33.8104 5.53394 34.0557 5.77928 34.0557 6.08193V36.9889C34.0557 37.2916 33.8104 37.5369 33.5078 37.5369H30.6582C30.3555 37.5369 30.1102 37.2916 30.1102 36.9889V9.67678C30.1102 9.37413 29.8648 9.12879 29.5622 9.12879H4.49355C4.1909 9.12879 3.94556 9.37413 3.94556 9.67678V36.9889C3.94556 37.2916 3.70021 37.5369 3.39756 37.5369H0.547994ZM41.3598 37.5369C40.746 37.5369 40.483 37.1423 40.6145 36.5724L48.5056 6.27921C48.6371 5.79697 48.944 5.53394 49.4701 5.53394H53.1964C53.7225 5.53394 54.0294 5.79697 54.1609 6.27921L62.0082 36.5724C62.1397 37.1423 61.8767 37.5369 61.2629 37.5369H59.0709C58.5449 37.5369 58.238 37.2739 58.1065 36.7916L56.1775 29.032L46.489 29.032L44.5601 36.7916C44.4285 37.2739 44.1217 37.5369 43.5956 37.5369H41.3598ZM47.2781 25.7002L55.3446 25.7002L52.8896 15.8363C52.4073 13.9511 52.0566 12.3291 51.7936 11.1016C51.6182 10.2686 51.0045 10.2686 50.8291 11.1016C50.5661 12.3291 50.2154 13.9511 49.7331 15.7924L47.2781 25.7002ZM69.3562 37.5369C68.7863 37.5369 68.4795 37.23 68.4795 36.6601V6.41073C68.4795 5.84081 68.7863 5.53394 69.3562 5.53394H84.1568C90.119 5.53394 93.9331 9.21646 93.9331 14.9595C93.9331 20.7025 90.119 24.385 84.1568 24.385H72.425V36.6601C72.425 37.23 72.1181 37.5369 71.5482 37.5369H69.3562ZM72.425 20.834L84.1568 20.834C87.6202 20.834 89.856 18.5543 89.856 14.9595C89.856 11.3646 87.6202 9.08495 84.1568 9.08495L73.3018 9.08495C72.7319 9.08495 72.425 9.39183 72.425 9.96174V20.834ZM93.9331 37.5369C93.3193 37.5369 93.0563 37.1423 93.1878 36.5724L101.079 6.27921C101.21 5.79697 101.517 5.53394 102.043 5.53394H105.77C106.296 5.53394 106.603 5.79697 106.734 6.27921L114.581 36.5724C114.713 37.1423 114.45 37.5369 113.836 37.5369H111.644C111.118 37.5369 110.811 37.2739 110.68 36.7916L108.751 29.032H99.0623L97.1333 36.7916C97.0018 37.2739 96.6949 37.5369 96.1689 37.5369H93.9331ZM99.8514 25.7002H107.918L105.463 15.8363C104.981 13.9511 104.63 12.3291 104.367 11.1016C104.191 10.2686 103.578 10.2686 103.402 11.1016C103.139 12.3291 102.789 13.9511 102.306 15.7924L99.8514 25.7002Z" fill="black" fill-opacity="0.2"/>
<path d="M117.002 5.77264L117.086 36.6796C117.087 36.9817 117.332 37.2261 117.634 37.2261H127.565L153.01 37.2261C153.313 37.2261 153.558 36.9808 153.558 36.6781V5.77117C153.558 5.46853 153.313 5.22318 153.01 5.22318H150.423C150.121 5.22318 149.875 5.46853 149.875 5.77117V33.2587C149.875 33.5613 149.63 33.8066 149.327 33.8066L129.735 33.8066C129.433 33.8066 129.187 33.5613 129.187 33.2586V5.77114C129.187 5.46849 128.942 5.22314 128.639 5.22314H126.491C126.189 5.22314 125.943 5.46849 125.943 5.77114V33.2586C125.943 33.5613 125.698 33.8066 125.395 33.8066H121.274C120.972 33.8066 120.726 33.5613 120.726 33.2586V5.77114C120.726 5.46849 120.481 5.22314 120.178 5.22314H117.549C117.246 5.22314 117.001 5.46941 117.002 5.77264Z" fill="#F4762E"/>
<path d="M167.71 29.1417L164.837 36.4784C164.696 36.8378 164.961 37.2261 165.347 37.2261H168.368C168.599 37.2261 168.805 37.0812 168.884 36.8639L180.018 5.95691C180.147 5.59979 179.882 5.22318 179.503 5.22318H176.386C176.148 5.22318 175.937 5.3767 175.864 5.60315L170.945 20.8739C170.806 21.301 170.678 21.7242 170.563 22.1342C170.392 22.7398 169.043 22.7607 168.849 22.1622C168.713 21.7434 168.564 21.3107 168.402 20.8739L162.791 5.5824C162.712 5.36662 162.507 5.22318 162.277 5.22318H159.17C158.783 5.22318 158.518 5.61376 158.661 5.97356L167.709 28.7396C167.76 28.8686 167.76 29.0124 167.71 29.1417Z" fill="#F4762E"/>
<path d="M193.637 36.3493C193.637 36.9193 193.944 37.2261 194.514 37.2261H196.706C197.276 37.2261 197.582 36.9193 197.582 36.3493V8.81803H205.474C206.043 8.81803 206.35 8.51116 206.35 7.94124V6.09997C206.35 5.53006 206.043 5.22318 205.474 5.22318H185.746C185.176 5.22318 184.869 5.53006 184.869 6.09997V7.94124C184.869 8.51116 185.176 8.81803 185.746 8.81803L193.637 8.81803V36.3493Z" fill="#F4762E"/>
<path d="M0.547994 86.8507C0.245345 86.8507 0 86.6054 0 86.3028L0 55.3958C0 55.0931 0.245345 54.8478 0.547994 54.8478H33.5078C33.8104 54.8478 34.0557 55.0931 34.0557 55.3958V86.3027C34.0557 86.6054 33.8104 86.8507 33.5078 86.8507H30.6582C30.3555 86.8507 30.1102 86.6054 30.1102 86.3028V58.9906C30.1102 58.688 29.8648 58.4426 29.5622 58.4426H4.49355C4.1909 58.4426 3.94556 58.688 3.94556 58.9906V86.3028C3.94556 86.6054 3.70021 86.8507 3.39756 86.8507H0.547994ZM41.3598 86.8507C40.746 86.8507 40.483 86.4562 40.6145 85.8863L48.5056 55.5931C48.6371 55.1108 48.944 54.8478 49.4701 54.8478H53.1964C53.7225 54.8478 54.0294 55.1108 54.1609 55.5931L62.0082 85.8863C62.1397 86.4562 61.8767 86.8507 61.2629 86.8507H59.0709C58.5449 86.8507 58.238 86.5877 58.1065 86.1055L56.1775 78.3458H46.489L44.5601 86.1055C44.4285 86.5877 44.1217 86.8507 43.5956 86.8507H41.3598ZM47.2781 75.014H55.3446L52.8896 65.1501C52.4073 63.265 52.0566 61.6429 51.7936 60.4154C51.6182 59.5825 51.0045 59.5825 50.8291 60.4154C50.5661 61.6429 50.2154 63.265 49.7331 65.1063L47.2781 75.014ZM69.3562 86.8507C68.7863 86.8507 68.4795 86.5439 68.4795 85.974V55.7246C68.4795 55.1547 68.7863 54.8478 69.3562 54.8478H84.1568C90.119 54.8478 93.9331 58.5303 93.9331 64.2733C93.9331 70.0163 90.119 73.6988 84.1568 73.6988H72.425V85.974C72.425 86.5439 72.1181 86.8507 71.5482 86.8507H69.3562ZM72.425 70.1478H84.1568C87.6202 70.1478 89.856 67.8682 89.856 64.2733C89.856 60.6784 87.6202 58.3988 84.1568 58.3988H73.3018C72.7319 58.3988 72.425 58.7057 72.425 59.2756V70.1478ZM93.9331 86.8507C93.3193 86.8507 93.0563 86.4562 93.1878 85.8863L101.079 55.5931C101.21 55.1108 101.517 54.8478 102.043 54.8478H105.77C106.296 54.8478 106.603 55.1108 106.734 55.5931L114.581 85.8863C114.713 86.4562 114.45 86.8507 113.836 86.8507H111.644C111.118 86.8507 110.811 86.5877 110.68 86.1055L108.751 78.3458H99.0623L97.1333 86.1055C97.0018 86.5877 96.6949 86.8507 96.1689 86.8507H93.9331ZM99.8514 75.014H107.918L105.463 65.1501C104.981 63.265 104.63 61.6429 104.367 60.4154C104.191 59.5825 103.578 59.5825 103.402 60.4154C103.139 61.6429 102.789 63.265 102.306 65.1063L99.8514 75.014Z" fill="#F4762E"/>
<path d="M117.002 55.7726L117.086 86.6796C117.087 86.9817 117.332 87.2261 117.634 87.2261H127.565L153.01 87.2261C153.313 87.2261 153.558 86.9808 153.558 86.6781V55.7712C153.558 55.4685 153.313 55.2232 153.01 55.2232H150.423C150.121 55.2232 149.875 55.4685 149.875 55.7712V83.2587C149.875 83.5613 149.63 83.8066 149.327 83.8066L129.735 83.8066C129.433 83.8066 129.187 83.5613 129.187 83.2586V55.7711C129.187 55.4685 128.942 55.2231 128.639 55.2231H126.491C126.189 55.2231 125.943 55.4685 125.943 55.7711V83.2586C125.943 83.5613 125.698 83.8066 125.395 83.8066H121.274C120.972 83.8066 120.726 83.5613 120.726 83.2586V55.7711C120.726 55.4685 120.481 55.2231 120.178 55.2231H117.549C117.246 55.2231 117.001 55.4694 117.002 55.7726Z" fill="#0D0D0D"/>
<path d="M117.002 55.7726L117.086 86.6796C117.087 86.9817 117.332 87.2261 117.634 87.2261H127.565L153.01 87.2261C153.313 87.2261 153.558 86.9808 153.558 86.6781V55.7712C153.558 55.4685 153.313 55.2232 153.01 55.2232H150.423C150.121 55.2232 149.875 55.4685 149.875 55.7712V83.2587C149.875 83.5613 149.63 83.8066 149.327 83.8066L129.735 83.8066C129.433 83.8066 129.187 83.5613 129.187 83.2586V55.7711C129.187 55.4685 128.942 55.2231 128.639 55.2231H126.491C126.189 55.2231 125.943 55.4685 125.943 55.7711V83.2586C125.943 83.5613 125.698 83.8066 125.395 83.8066H121.274C120.972 83.8066 120.726 83.5613 120.726 83.2586V55.7711C120.726 55.4685 120.481 55.2231 120.178 55.2231H117.549C117.246 55.2231 117.001 55.4694 117.002 55.7726Z" fill="black" fill-opacity="0.2"/>
<path d="M117.002 55.7726L117.086 86.6796C117.087 86.9817 117.332 87.2261 117.634 87.2261H127.565L153.01 87.2261C153.313 87.2261 153.558 86.9808 153.558 86.6781V55.7712C153.558 55.4685 153.313 55.2232 153.01 55.2232H150.423C150.121 55.2232 149.875 55.4685 149.875 55.7712V83.2587C149.875 83.5613 149.63 83.8066 149.327 83.8066L129.735 83.8066C129.433 83.8066 129.187 83.5613 129.187 83.2586V55.7711C129.187 55.4685 128.942 55.2231 128.639 55.2231H126.491C126.189 55.2231 125.943 55.4685 125.943 55.7711V83.2586C125.943 83.5613 125.698 83.8066 125.395 83.8066H121.274C120.972 83.8066 120.726 83.5613 120.726 83.2586V55.7711C120.726 55.4685 120.481 55.2231 120.178 55.2231H117.549C117.246 55.2231 117.001 55.4694 117.002 55.7726Z" fill="black" fill-opacity="0.2"/>
<path d="M167.71 79.1417L164.837 86.4784C164.696 86.8378 164.961 87.2261 165.347 87.2261H168.368C168.599 87.2261 168.805 87.0812 168.884 86.8639L180.018 55.9569C180.147 55.5998 179.882 55.2232 179.503 55.2232H176.386C176.148 55.2232 175.937 55.3767 175.864 55.6032L170.945 70.8739C170.806 71.301 170.678 71.7242 170.563 72.1342C170.392 72.7398 169.043 72.7607 168.849 72.1622C168.713 71.7434 168.564 71.3107 168.402 70.8739L162.791 55.5824C162.712 55.3666 162.507 55.2232 162.277 55.2232H159.17C158.783 55.2232 158.518 55.6138 158.661 55.9736L167.709 78.7396C167.76 78.8686 167.76 79.0124 167.71 79.1417Z" fill="#0D0D0D"/>
<path d="M167.71 79.1417L164.837 86.4784C164.696 86.8378 164.961 87.2261 165.347 87.2261H168.368C168.599 87.2261 168.805 87.0812 168.884 86.8639L180.018 55.9569C180.147 55.5998 179.882 55.2232 179.503 55.2232H176.386C176.148 55.2232 175.937 55.3767 175.864 55.6032L170.945 70.8739C170.806 71.301 170.678 71.7242 170.563 72.1342C170.392 72.7398 169.043 72.7607 168.849 72.1622C168.713 71.7434 168.564 71.3107 168.402 70.8739L162.791 55.5824C162.712 55.3666 162.507 55.2232 162.277 55.2232H159.17C158.783 55.2232 158.518 55.6138 158.661 55.9736L167.709 78.7396C167.76 78.8686 167.76 79.0124 167.71 79.1417Z" fill="black" fill-opacity="0.2"/>
<path d="M167.71 79.1417L164.837 86.4784C164.696 86.8378 164.961 87.2261 165.347 87.2261H168.368C168.599 87.2261 168.805 87.0812 168.884 86.8639L180.018 55.9569C180.147 55.5998 179.882 55.2232 179.503 55.2232H176.386C176.148 55.2232 175.937 55.3767 175.864 55.6032L170.945 70.8739C170.806 71.301 170.678 71.7242 170.563 72.1342C170.392 72.7398 169.043 72.7607 168.849 72.1622C168.713 71.7434 168.564 71.3107 168.402 70.8739L162.791 55.5824C162.712 55.3666 162.507 55.2232 162.277 55.2232H159.17C158.783 55.2232 158.518 55.6138 158.661 55.9736L167.709 78.7396C167.76 78.8686 167.76 79.0124 167.71 79.1417Z" fill="black" fill-opacity="0.2"/>
<path d="M193.637 86.3493C193.637 86.9193 193.944 87.2261 194.514 87.2261H196.706C197.276 87.2261 197.582 86.9193 197.582 86.3493V58.818H205.474C206.043 58.818 206.35 58.5112 206.35 57.9412V56.1C206.35 55.5301 206.043 55.2232 205.474 55.2232H185.746C185.176 55.2232 184.869 55.5301 184.869 56.1V57.9412C184.869 58.5112 185.176 58.818 185.746 58.818H193.637V86.3493Z" fill="#0D0D0D"/>
<path d="M193.637 86.3493C193.637 86.9193 193.944 87.2261 194.514 87.2261H196.706C197.276 87.2261 197.582 86.9193 197.582 86.3493V58.818H205.474C206.043 58.818 206.35 58.5112 206.35 57.9412V56.1C206.35 55.5301 206.043 55.2232 205.474 55.2232H185.746C185.176 55.2232 184.869 55.5301 184.869 56.1V57.9412C184.869 58.5112 185.176 58.818 185.746 58.818H193.637V86.3493Z" fill="black" fill-opacity="0.2"/>
<path d="M193.637 86.3493C193.637 86.9193 193.944 87.2261 194.514 87.2261H196.706C197.276 87.2261 197.582 86.9193 197.582 86.3493V58.818H205.474C206.043 58.818 206.35 58.5112 206.35 57.9412V56.1C206.35 55.5301 206.043 55.2232 205.474 55.2232H185.746C185.176 55.2232 184.869 55.5301 184.869 56.1V57.9412C184.869 58.5112 185.176 58.818 185.746 58.818H193.637V86.3493Z" fill="black" fill-opacity="0.2"/>
<rect x="91" y="102.851" width="27" height="27" rx="13.5" fill="#E67770"/>
<path d="M110.399 108.277L98.6 124.424" stroke="#FAFAFA" stroke-width="2.07137"/>
<path d="M98.6011 108.277L110.4 124.424" stroke="#FAFAFA" stroke-width="2.07137"/>
</svg>
