<svg width="388" height="153" viewBox="0 0 388 153" fill="none" xmlns="http://www.w3.org/2000/svg">
<g clip-path="url(#clip0_1720_535)">
<path d="M35.3819 101.566C35.0309 101.566 34.7463 101.274 34.7463 100.913V51.5484C34.7463 51.1874 35.0309 50.8948 35.3819 50.8948H86.5448C86.8958 50.8948 87.1804 51.1874 87.1804 51.5484V100.913C87.1804 101.274 86.8958 101.566 86.5448 101.566H81.7412C81.3902 101.566 81.1056 101.274 81.1056 100.913V57.2403C81.1056 56.8793 80.821 56.5867 80.47 56.5867H41.4567C41.1057 56.5867 40.8211 56.8793 40.8211 57.2403V100.913C40.8211 101.274 40.5366 101.566 40.1855 101.566H35.3819ZM98.4261 101.566C97.4811 101.566 97.0761 100.942 97.2786 100.039L109.428 52.0748C109.631 51.3113 110.103 50.8948 110.913 50.8948H116.65C117.46 50.8948 117.933 51.3113 118.135 52.0748L130.217 100.039C130.42 100.942 130.015 101.566 129.07 101.566H125.695C124.885 101.566 124.413 101.15 124.21 100.386L121.24 88.1002H106.323L103.353 100.386C103.151 101.15 102.678 101.566 101.868 101.566H98.4261ZM107.538 82.8248H119.958L116.178 67.2069C115.435 64.2221 114.895 61.6538 114.491 59.7102C114.221 58.3914 113.276 58.3914 113.006 59.7102C112.601 61.6538 112.061 64.2221 111.318 67.1374L107.538 82.8248ZM141.531 101.566C140.653 101.566 140.181 101.08 140.181 100.178V52.283C140.181 51.3807 140.653 50.8948 141.531 50.8948H164.319C173.498 50.8948 179.371 56.7255 179.371 65.8186C179.371 74.9117 173.498 80.7424 164.319 80.7424H146.256V100.178C146.256 101.08 145.783 101.566 144.906 101.566H141.531ZM146.256 75.12H164.319C169.651 75.12 173.093 71.5105 173.093 65.8186C173.093 60.1267 169.651 56.5172 164.319 56.5172H147.606C146.728 56.5172 146.256 57.0031 146.256 57.9055V75.12ZM179.371 101.566C178.426 101.566 178.021 100.942 178.223 100.039L190.373 52.0748C190.575 51.3113 191.048 50.8948 191.858 50.8948H197.595C198.405 50.8948 198.877 51.3113 199.08 52.0748L211.162 100.039C211.365 100.942 210.96 101.566 210.015 101.566H206.64C205.83 101.566 205.357 101.15 205.155 100.386L202.185 88.1002H187.268L184.298 100.386C184.095 101.15 183.623 101.566 182.813 101.566H179.371ZM188.483 82.8248H200.902L197.123 67.2069C196.38 64.2221 195.84 61.6538 195.435 59.7102C195.165 58.3914 194.22 58.3914 193.95 59.7102C193.545 61.6538 193.005 64.2221 192.263 67.1374L188.483 82.8248Z" fill="#0D0D0D"/>
<path d="M35.3819 101.566C35.0309 101.566 34.7463 101.274 34.7463 100.913V51.5484C34.7463 51.1874 35.0309 50.8948 35.3819 50.8948H86.5448C86.8958 50.8948 87.1804 51.1874 87.1804 51.5484V100.913C87.1804 101.274 86.8958 101.566 86.5448 101.566H81.7412C81.3902 101.566 81.1056 101.274 81.1056 100.913V57.2403C81.1056 56.8793 80.821 56.5867 80.47 56.5867H41.4567C41.1057 56.5867 40.8211 56.8793 40.8211 57.2403V100.913C40.8211 101.274 40.5366 101.566 40.1855 101.566H35.3819ZM98.4261 101.566C97.4811 101.566 97.0761 100.942 97.2786 100.039L109.428 52.0748C109.631 51.3113 110.103 50.8948 110.913 50.8948H116.65C117.46 50.8948 117.933 51.3113 118.135 52.0748L130.217 100.039C130.42 100.942 130.015 101.566 129.07 101.566H125.695C124.885 101.566 124.413 101.15 124.21 100.386L121.24 88.1002H106.323L103.353 100.386C103.151 101.15 102.678 101.566 101.868 101.566H98.4261ZM107.538 82.8248H119.958L116.178 67.2069C115.435 64.2221 114.895 61.6538 114.491 59.7102C114.221 58.3914 113.276 58.3914 113.006 59.7102C112.601 61.6538 112.061 64.2221 111.318 67.1374L107.538 82.8248ZM141.531 101.566C140.653 101.566 140.181 101.08 140.181 100.178V52.283C140.181 51.3807 140.653 50.8948 141.531 50.8948H164.319C173.498 50.8948 179.371 56.7255 179.371 65.8186C179.371 74.9117 173.498 80.7424 164.319 80.7424H146.256V100.178C146.256 101.08 145.783 101.566 144.906 101.566H141.531ZM146.256 75.12H164.319C169.651 75.12 173.093 71.5105 173.093 65.8186C173.093 60.1267 169.651 56.5172 164.319 56.5172H147.606C146.728 56.5172 146.256 57.0031 146.256 57.9055V75.12ZM179.371 101.566C178.426 101.566 178.021 100.942 178.223 100.039L190.373 52.0748C190.575 51.3113 191.048 50.8948 191.858 50.8948H197.595C198.405 50.8948 198.877 51.3113 199.08 52.0748L211.162 100.039C211.365 100.942 210.96 101.566 210.015 101.566H206.64C205.83 101.566 205.357 101.15 205.155 100.386L202.185 88.1002H187.268L184.298 100.386C184.095 101.15 183.623 101.566 182.813 101.566H179.371ZM188.483 82.8248H200.902L197.123 67.2069C196.38 64.2221 195.84 61.6538 195.435 59.7102C195.165 58.3914 194.22 58.3914 193.95 59.7102C193.545 61.6538 193.005 64.2221 192.263 67.1374L188.483 82.8248Z" fill="black" fill-opacity="0.2"/>
<path d="M35.3819 101.566C35.0309 101.566 34.7463 101.274 34.7463 100.913V51.5484C34.7463 51.1874 35.0309 50.8948 35.3819 50.8948H86.5448C86.8958 50.8948 87.1804 51.1874 87.1804 51.5484V100.913C87.1804 101.274 86.8958 101.566 86.5448 101.566H81.7412C81.3902 101.566 81.1056 101.274 81.1056 100.913V57.2403C81.1056 56.8793 80.821 56.5867 80.47 56.5867H41.4567C41.1057 56.5867 40.8211 56.8793 40.8211 57.2403V100.913C40.8211 101.274 40.5366 101.566 40.1855 101.566H35.3819ZM98.4261 101.566C97.4811 101.566 97.0761 100.942 97.2786 100.039L109.428 52.0748C109.631 51.3113 110.103 50.8948 110.913 50.8948H116.65C117.46 50.8948 117.933 51.3113 118.135 52.0748L130.217 100.039C130.42 100.942 130.015 101.566 129.07 101.566H125.695C124.885 101.566 124.413 101.15 124.21 100.386L121.24 88.1002H106.323L103.353 100.386C103.151 101.15 102.678 101.566 101.868 101.566H98.4261ZM107.538 82.8248H119.958L116.178 67.2069C115.435 64.2221 114.895 61.6538 114.491 59.7102C114.221 58.3914 113.276 58.3914 113.006 59.7102C112.601 61.6538 112.061 64.2221 111.318 67.1374L107.538 82.8248ZM141.531 101.566C140.653 101.566 140.181 101.08 140.181 100.178V52.283C140.181 51.3807 140.653 50.8948 141.531 50.8948H164.319C173.498 50.8948 179.371 56.7255 179.371 65.8186C179.371 74.9117 173.498 80.7424 164.319 80.7424H146.256V100.178C146.256 101.08 145.783 101.566 144.906 101.566H141.531ZM146.256 75.12H164.319C169.651 75.12 173.093 71.5105 173.093 65.8186C173.093 60.1267 169.651 56.5172 164.319 56.5172H147.606C146.728 56.5172 146.256 57.0031 146.256 57.9055V75.12ZM179.371 101.566C178.426 101.566 178.021 100.942 178.223 100.039L190.373 52.0748C190.575 51.3113 191.048 50.8948 191.858 50.8948H197.595C198.405 50.8948 198.877 51.3113 199.08 52.0748L211.162 100.039C211.365 100.942 210.96 101.566 210.015 101.566H206.64C205.83 101.566 205.357 101.15 205.155 100.386L202.185 88.1002H187.268L184.298 100.386C184.095 101.15 183.623 101.566 182.813 101.566H179.371ZM188.483 82.8248H200.902L197.123 67.2069C196.38 64.2221 195.84 61.6538 195.435 59.7102C195.165 58.3914 194.22 58.3914 193.95 59.7102C193.545 61.6538 193.005 64.2221 192.263 67.1374L188.483 82.8248Z" fill="black" fill-opacity="0.2"/>
<path d="M214.239 51.5502L214.371 100.915C214.372 101.275 214.656 101.566 215.006 101.566L269.888 101.566C270.239 101.566 270.524 101.274 270.524 100.913V51.5485C270.524 51.1875 270.239 50.8948 269.888 50.8948H265.49C265.139 50.8948 264.854 51.1875 264.854 51.5485V95.4986C264.854 95.8596 264.57 96.1522 264.219 96.1522L233.637 96.1521C233.286 96.1521 233.002 95.8595 233.002 95.4985V51.5484C233.002 51.1874 232.717 50.8948 232.366 50.8948H228.643C228.292 50.8948 228.007 51.1874 228.007 51.5484V95.4985C228.007 95.8595 227.722 96.1521 227.371 96.1521H220.61C220.259 96.1521 219.975 95.8595 219.975 95.4985V51.5484C219.975 51.1874 219.69 50.8948 219.339 50.8948H214.875C214.523 50.8948 214.238 51.1885 214.239 51.5502Z" fill="#0D0D0D"/>
<path d="M214.239 51.5502L214.371 100.915C214.372 101.275 214.656 101.566 215.006 101.566L269.888 101.566C270.239 101.566 270.524 101.274 270.524 100.913V51.5485C270.524 51.1875 270.239 50.8948 269.888 50.8948H265.49C265.139 50.8948 264.854 51.1875 264.854 51.5485V95.4986C264.854 95.8596 264.57 96.1522 264.219 96.1522L233.637 96.1521C233.286 96.1521 233.002 95.8595 233.002 95.4985V51.5484C233.002 51.1874 232.717 50.8948 232.366 50.8948H228.643C228.292 50.8948 228.007 51.1874 228.007 51.5484V95.4985C228.007 95.8595 227.722 96.1521 227.371 96.1521H220.61C220.259 96.1521 219.975 95.8595 219.975 95.4985V51.5484C219.975 51.1874 219.69 50.8948 219.339 50.8948H214.875C214.523 50.8948 214.238 51.1885 214.239 51.5502Z" fill="black" fill-opacity="0.2"/>
<path d="M214.239 51.5502L214.371 100.915C214.372 101.275 214.656 101.566 215.006 101.566L269.888 101.566C270.239 101.566 270.524 101.274 270.524 100.913V51.5485C270.524 51.1875 270.239 50.8948 269.888 50.8948H265.49C265.139 50.8948 264.854 51.1875 264.854 51.5485V95.4986C264.854 95.8596 264.57 96.1522 264.219 96.1522L233.637 96.1521C233.286 96.1521 233.002 95.8595 233.002 95.4985V51.5484C233.002 51.1874 232.717 50.8948 232.366 50.8948H228.643C228.292 50.8948 228.007 51.1874 228.007 51.5484V95.4985C228.007 95.8595 227.722 96.1521 227.371 96.1521H220.61C220.259 96.1521 219.975 95.8595 219.975 95.4985V51.5484C219.975 51.1874 219.69 50.8948 219.339 50.8948H214.875C214.523 50.8948 214.238 51.1885 214.239 51.5502Z" fill="black" fill-opacity="0.2"/>
<path d="M292.343 88.6874L287.779 100.674C287.616 101.103 287.923 101.566 288.371 101.566H293.473C293.741 101.566 293.98 101.394 294.071 101.134L311.364 51.77C311.514 51.344 311.207 50.8948 310.766 50.8948H305.519C305.243 50.8948 304.999 51.0779 304.914 51.3481L297.294 75.6753C296.924 76.8434 296.608 77.9928 296.346 79.0489C296.165 79.7762 294.685 79.7977 294.478 79.078C294.171 78.0139 293.803 76.8541 293.379 75.6753L284.69 51.3233C284.598 51.0659 284.36 50.8948 284.093 50.8948H278.859C278.41 50.8948 278.102 51.3607 278.268 51.7899L292.342 88.2077C292.401 88.3617 292.402 88.5331 292.343 88.6874Z" fill="#0D0D0D"/>
<path d="M292.343 88.6874L287.779 100.674C287.616 101.103 287.923 101.566 288.371 101.566H293.473C293.741 101.566 293.98 101.394 294.071 101.134L311.364 51.77C311.514 51.344 311.207 50.8948 310.766 50.8948H305.519C305.243 50.8948 304.999 51.0779 304.914 51.3481L297.294 75.6753C296.924 76.8434 296.608 77.9928 296.346 79.0489C296.165 79.7762 294.685 79.7977 294.478 79.078C294.171 78.0139 293.803 76.8541 293.379 75.6753L284.69 51.3233C284.598 51.0659 284.36 50.8948 284.093 50.8948H278.859C278.41 50.8948 278.102 51.3607 278.268 51.7899L292.342 88.2077C292.401 88.3617 292.402 88.5331 292.343 88.6874Z" fill="black" fill-opacity="0.2"/>
<path d="M292.343 88.6874L287.779 100.674C287.616 101.103 287.923 101.566 288.371 101.566H293.473C293.741 101.566 293.98 101.394 294.071 101.134L311.364 51.77C311.514 51.344 311.207 50.8948 310.766 50.8948H305.519C305.243 50.8948 304.999 51.0779 304.914 51.3481L297.294 75.6753C296.924 76.8434 296.608 77.9928 296.346 79.0489C296.165 79.7762 294.685 79.7977 294.478 79.078C294.171 78.0139 293.803 76.8541 293.379 75.6753L284.69 51.3233C284.598 51.0659 284.36 50.8948 284.093 50.8948H278.859C278.41 50.8948 278.102 51.3607 278.268 51.7899L292.342 88.2077C292.401 88.3617 292.402 88.5331 292.343 88.6874Z" fill="black" fill-opacity="0.2"/>
<path d="M332.232 100.178C332.232 101.081 332.704 101.566 333.582 101.566H336.957C337.834 101.566 338.307 101.081 338.307 100.178V56.5867H350.456C351.334 56.5867 351.806 56.1008 351.806 55.1984V52.2831C351.806 51.3807 351.334 50.8948 350.456 50.8948H320.082C319.205 50.8948 318.732 51.3807 318.732 52.2831V55.1984C318.732 56.1008 319.205 56.5867 320.082 56.5867H332.232V100.178Z" fill="#0D0D0D"/>
<path d="M332.232 100.178C332.232 101.081 332.704 101.566 333.582 101.566H336.957C337.834 101.566 338.307 101.081 338.307 100.178V56.5867H350.456C351.334 56.5867 351.806 56.1008 351.806 55.1984V52.2831C351.806 51.3807 351.334 50.8948 350.456 50.8948H320.082C319.205 50.8948 318.732 51.3807 318.732 52.2831V55.1984C318.732 56.1008 319.205 56.5867 320.082 56.5867H332.232V100.178Z" fill="black" fill-opacity="0.2"/>
<path d="M332.232 100.178C332.232 101.081 332.704 101.566 333.582 101.566H336.957C337.834 101.566 338.307 101.081 338.307 100.178V56.5867H350.456C351.334 56.5867 351.806 56.1008 351.806 55.1984V52.2831C351.806 51.3807 351.334 50.8948 350.456 50.8948H320.082C319.205 50.8948 318.732 51.3807 318.732 52.2831V55.1984C318.732 56.1008 319.205 56.5867 320.082 56.5867H332.232V100.178Z" fill="black" fill-opacity="0.2"/>
<path d="M35.3819 101.566C35.0309 101.566 34.7463 101.274 34.7463 100.913V51.5484C34.7463 51.1874 35.0309 50.8948 35.3819 50.8948H86.5448C86.8958 50.8948 87.1804 51.1874 87.1804 51.5484V100.913C87.1804 101.274 86.8958 101.566 86.5448 101.566H81.7412C81.3902 101.566 81.1056 101.274 81.1056 100.913V57.2403C81.1056 56.8793 80.821 56.5867 80.47 56.5867H41.4567C41.1057 56.5867 40.8211 56.8793 40.8211 57.2403V100.913C40.8211 101.274 40.5366 101.566 40.1855 101.566H35.3819ZM98.4261 101.566C97.4811 101.566 97.0761 100.942 97.2786 100.039L109.428 52.0748C109.631 51.3113 110.103 50.8948 110.913 50.8948H116.65C117.46 50.8948 117.933 51.3113 118.135 52.0748L130.217 100.039C130.42 100.942 130.015 101.566 129.07 101.566H125.695C124.885 101.566 124.413 101.15 124.21 100.386L121.24 88.1002H106.323L103.353 100.386C103.151 101.15 102.678 101.566 101.868 101.566H98.4261ZM107.538 82.8248H119.958L116.178 67.2069C115.435 64.2221 114.895 61.6538 114.491 59.7102C114.221 58.3914 113.276 58.3914 113.006 59.7102C112.601 61.6538 112.061 64.2221 111.318 67.1374L107.538 82.8248ZM141.531 101.566C140.653 101.566 140.181 101.08 140.181 100.178V52.283C140.181 51.3807 140.653 50.8948 141.531 50.8948H164.319C173.498 50.8948 179.371 56.7255 179.371 65.8186C179.371 74.9117 173.498 80.7424 164.319 80.7424H146.256V100.178C146.256 101.08 145.783 101.566 144.906 101.566H141.531ZM146.256 75.12H164.319C169.651 75.12 173.093 71.5105 173.093 65.8186C173.093 60.1267 169.651 56.5172 164.319 56.5172H147.606C146.728 56.5172 146.256 57.0031 146.256 57.9055V75.12ZM179.371 101.566C178.426 101.566 178.021 100.942 178.223 100.039L190.373 52.0748C190.575 51.3113 191.048 50.8948 191.858 50.8948H197.595C198.405 50.8948 198.877 51.3113 199.08 52.0748L211.162 100.039C211.365 100.942 210.96 101.566 210.015 101.566H206.64C205.83 101.566 205.357 101.15 205.155 100.386L202.185 88.1002H187.268L184.298 100.386C184.095 101.15 183.623 101.566 182.813 101.566H179.371ZM188.483 82.8248H200.902L197.123 67.2069C196.38 64.2221 195.84 61.6538 195.435 59.7102C195.165 58.3914 194.22 58.3914 193.95 59.7102C193.545 61.6538 193.005 64.2221 192.263 67.1374L188.483 82.8248Z" fill="#0D0D0D"/>
<path d="M35.3819 101.566C35.0309 101.566 34.7463 101.274 34.7463 100.913V51.5484C34.7463 51.1874 35.0309 50.8948 35.3819 50.8948H86.5448C86.8958 50.8948 87.1804 51.1874 87.1804 51.5484V100.913C87.1804 101.274 86.8958 101.566 86.5448 101.566H81.7412C81.3902 101.566 81.1056 101.274 81.1056 100.913V57.2403C81.1056 56.8793 80.821 56.5867 80.47 56.5867H41.4567C41.1057 56.5867 40.8211 56.8793 40.8211 57.2403V100.913C40.8211 101.274 40.5366 101.566 40.1855 101.566H35.3819ZM98.4261 101.566C97.4811 101.566 97.0761 100.942 97.2786 100.039L109.428 52.0748C109.631 51.3113 110.103 50.8948 110.913 50.8948H116.65C117.46 50.8948 117.933 51.3113 118.135 52.0748L130.217 100.039C130.42 100.942 130.015 101.566 129.07 101.566H125.695C124.885 101.566 124.413 101.15 124.21 100.386L121.24 88.1002H106.323L103.353 100.386C103.151 101.15 102.678 101.566 101.868 101.566H98.4261ZM107.538 82.8248H119.958L116.178 67.2069C115.435 64.2221 114.895 61.6538 114.491 59.7102C114.221 58.3914 113.276 58.3914 113.006 59.7102C112.601 61.6538 112.061 64.2221 111.318 67.1374L107.538 82.8248ZM141.531 101.566C140.653 101.566 140.181 101.08 140.181 100.178V52.283C140.181 51.3807 140.653 50.8948 141.531 50.8948H164.319C173.498 50.8948 179.371 56.7255 179.371 65.8186C179.371 74.9117 173.498 80.7424 164.319 80.7424H146.256V100.178C146.256 101.08 145.783 101.566 144.906 101.566H141.531ZM146.256 75.12H164.319C169.651 75.12 173.093 71.5105 173.093 65.8186C173.093 60.1267 169.651 56.5172 164.319 56.5172H147.606C146.728 56.5172 146.256 57.0031 146.256 57.9055V75.12ZM179.371 101.566C178.426 101.566 178.021 100.942 178.223 100.039L190.373 52.0748C190.575 51.3113 191.048 50.8948 191.858 50.8948H197.595C198.405 50.8948 198.877 51.3113 199.08 52.0748L211.162 100.039C211.365 100.942 210.96 101.566 210.015 101.566H206.64C205.83 101.566 205.357 101.15 205.155 100.386L202.185 88.1002H187.268L184.298 100.386C184.095 101.15 183.623 101.566 182.813 101.566H179.371ZM188.483 82.8248H200.902L197.123 67.2069C196.38 64.2221 195.84 61.6538 195.435 59.7102C195.165 58.3914 194.22 58.3914 193.95 59.7102C193.545 61.6538 193.005 64.2221 192.263 67.1374L188.483 82.8248Z" fill="black" fill-opacity="0.2"/>
<path d="M35.3819 101.566C35.0309 101.566 34.7463 101.274 34.7463 100.913V51.5484C34.7463 51.1874 35.0309 50.8948 35.3819 50.8948H86.5448C86.8958 50.8948 87.1804 51.1874 87.1804 51.5484V100.913C87.1804 101.274 86.8958 101.566 86.5448 101.566H81.7412C81.3902 101.566 81.1056 101.274 81.1056 100.913V57.2403C81.1056 56.8793 80.821 56.5867 80.47 56.5867H41.4567C41.1057 56.5867 40.8211 56.8793 40.8211 57.2403V100.913C40.8211 101.274 40.5366 101.566 40.1855 101.566H35.3819ZM98.4261 101.566C97.4811 101.566 97.0761 100.942 97.2786 100.039L109.428 52.0748C109.631 51.3113 110.103 50.8948 110.913 50.8948H116.65C117.46 50.8948 117.933 51.3113 118.135 52.0748L130.217 100.039C130.42 100.942 130.015 101.566 129.07 101.566H125.695C124.885 101.566 124.413 101.15 124.21 100.386L121.24 88.1002H106.323L103.353 100.386C103.151 101.15 102.678 101.566 101.868 101.566H98.4261ZM107.538 82.8248H119.958L116.178 67.2069C115.435 64.2221 114.895 61.6538 114.491 59.7102C114.221 58.3914 113.276 58.3914 113.006 59.7102C112.601 61.6538 112.061 64.2221 111.318 67.1374L107.538 82.8248ZM141.531 101.566C140.653 101.566 140.181 101.08 140.181 100.178V52.283C140.181 51.3807 140.653 50.8948 141.531 50.8948H164.319C173.498 50.8948 179.371 56.7255 179.371 65.8186C179.371 74.9117 173.498 80.7424 164.319 80.7424H146.256V100.178C146.256 101.08 145.783 101.566 144.906 101.566H141.531ZM146.256 75.12H164.319C169.651 75.12 173.093 71.5105 173.093 65.8186C173.093 60.1267 169.651 56.5172 164.319 56.5172H147.606C146.728 56.5172 146.256 57.0031 146.256 57.9055V75.12ZM179.371 101.566C178.426 101.566 178.021 100.942 178.223 100.039L190.373 52.0748C190.575 51.3113 191.048 50.8948 191.858 50.8948H197.595C198.405 50.8948 198.877 51.3113 199.08 52.0748L211.162 100.039C211.365 100.942 210.96 101.566 210.015 101.566H206.64C205.83 101.566 205.357 101.15 205.155 100.386L202.185 88.1002H187.268L184.298 100.386C184.095 101.15 183.623 101.566 182.813 101.566H179.371ZM188.483 82.8248H200.902L197.123 67.2069C196.38 64.2221 195.84 61.6538 195.435 59.7102C195.165 58.3914 194.22 58.3914 193.95 59.7102C193.545 61.6538 193.005 64.2221 192.263 67.1374L188.483 82.8248Z" fill="black" fill-opacity="0.2"/>
<path d="M214.239 51.5502L214.371 100.915C214.372 101.275 214.656 101.566 215.006 101.566L269.888 101.566C270.239 101.566 270.524 101.274 270.524 100.913V51.5485C270.524 51.1875 270.239 50.8948 269.888 50.8948H265.49C265.139 50.8948 264.854 51.1875 264.854 51.5485V95.4986C264.854 95.8596 264.57 96.1522 264.219 96.1522L233.637 96.1521C233.286 96.1521 233.002 95.8595 233.002 95.4985V51.5484C233.002 51.1874 232.717 50.8948 232.366 50.8948H228.643C228.292 50.8948 228.007 51.1874 228.007 51.5484V95.4985C228.007 95.8595 227.722 96.1521 227.371 96.1521H220.61C220.259 96.1521 219.975 95.8595 219.975 95.4985V51.5484C219.975 51.1874 219.69 50.8948 219.339 50.8948H214.875C214.523 50.8948 214.238 51.1885 214.239 51.5502Z" fill="#0D0D0D"/>
<path d="M214.239 51.5502L214.371 100.915C214.372 101.275 214.656 101.566 215.006 101.566L269.888 101.566C270.239 101.566 270.524 101.274 270.524 100.913V51.5485C270.524 51.1875 270.239 50.8948 269.888 50.8948H265.49C265.139 50.8948 264.854 51.1875 264.854 51.5485V95.4986C264.854 95.8596 264.57 96.1522 264.219 96.1522L233.637 96.1521C233.286 96.1521 233.002 95.8595 233.002 95.4985V51.5484C233.002 51.1874 232.717 50.8948 232.366 50.8948H228.643C228.292 50.8948 228.007 51.1874 228.007 51.5484V95.4985C228.007 95.8595 227.722 96.1521 227.371 96.1521H220.61C220.259 96.1521 219.975 95.8595 219.975 95.4985V51.5484C219.975 51.1874 219.69 50.8948 219.339 50.8948H214.875C214.523 50.8948 214.238 51.1885 214.239 51.5502Z" fill="black" fill-opacity="0.2"/>
<path d="M214.239 51.5502L214.371 100.915C214.372 101.275 214.656 101.566 215.006 101.566L269.888 101.566C270.239 101.566 270.524 101.274 270.524 100.913V51.5485C270.524 51.1875 270.239 50.8948 269.888 50.8948H265.49C265.139 50.8948 264.854 51.1875 264.854 51.5485V95.4986C264.854 95.8596 264.57 96.1522 264.219 96.1522L233.637 96.1521C233.286 96.1521 233.002 95.8595 233.002 95.4985V51.5484C233.002 51.1874 232.717 50.8948 232.366 50.8948H228.643C228.292 50.8948 228.007 51.1874 228.007 51.5484V95.4985C228.007 95.8595 227.722 96.1521 227.371 96.1521H220.61C220.259 96.1521 219.975 95.8595 219.975 95.4985V51.5484C219.975 51.1874 219.69 50.8948 219.339 50.8948H214.875C214.523 50.8948 214.238 51.1885 214.239 51.5502Z" fill="black" fill-opacity="0.2"/>
<path d="M292.343 88.6874L287.779 100.674C287.616 101.103 287.923 101.566 288.371 101.566H293.473C293.741 101.566 293.98 101.394 294.071 101.134L311.364 51.77C311.514 51.344 311.207 50.8948 310.766 50.8948H305.519C305.243 50.8948 304.999 51.0779 304.914 51.3481L297.294 75.6753C296.924 76.8434 296.608 77.9928 296.346 79.0489C296.165 79.7762 294.685 79.7977 294.478 79.078C294.171 78.0139 293.803 76.8541 293.379 75.6753L284.69 51.3233C284.598 51.0659 284.36 50.8948 284.093 50.8948H278.859C278.41 50.8948 278.102 51.3607 278.268 51.7899L292.342 88.2077C292.401 88.3617 292.402 88.5331 292.343 88.6874Z" fill="#0D0D0D"/>
<path d="M292.343 88.6874L287.779 100.674C287.616 101.103 287.923 101.566 288.371 101.566H293.473C293.741 101.566 293.98 101.394 294.071 101.134L311.364 51.77C311.514 51.344 311.207 50.8948 310.766 50.8948H305.519C305.243 50.8948 304.999 51.0779 304.914 51.3481L297.294 75.6753C296.924 76.8434 296.608 77.9928 296.346 79.0489C296.165 79.7762 294.685 79.7977 294.478 79.078C294.171 78.0139 293.803 76.8541 293.379 75.6753L284.69 51.3233C284.598 51.0659 284.36 50.8948 284.093 50.8948H278.859C278.41 50.8948 278.102 51.3607 278.268 51.7899L292.342 88.2077C292.401 88.3617 292.402 88.5331 292.343 88.6874Z" fill="black" fill-opacity="0.2"/>
<path d="M292.343 88.6874L287.779 100.674C287.616 101.103 287.923 101.566 288.371 101.566H293.473C293.741 101.566 293.98 101.394 294.071 101.134L311.364 51.77C311.514 51.344 311.207 50.8948 310.766 50.8948H305.519C305.243 50.8948 304.999 51.0779 304.914 51.3481L297.294 75.6753C296.924 76.8434 296.608 77.9928 296.346 79.0489C296.165 79.7762 294.685 79.7977 294.478 79.078C294.171 78.0139 293.803 76.8541 293.379 75.6753L284.69 51.3233C284.598 51.0659 284.36 50.8948 284.093 50.8948H278.859C278.41 50.8948 278.102 51.3607 278.268 51.7899L292.342 88.2077C292.401 88.3617 292.402 88.5331 292.343 88.6874Z" fill="black" fill-opacity="0.2"/>
<path d="M332.232 100.178C332.232 101.081 332.704 101.566 333.582 101.566H336.957C337.834 101.566 338.307 101.081 338.307 100.178V56.5867H350.456C351.334 56.5867 351.806 56.1008 351.806 55.1984V52.2831C351.806 51.3807 351.334 50.8948 350.456 50.8948H320.082C319.205 50.8948 318.732 51.3807 318.732 52.2831V55.1984C318.732 56.1008 319.205 56.5867 320.082 56.5867H332.232V100.178Z" fill="#0D0D0D"/>
<path d="M332.232 100.178C332.232 101.081 332.704 101.566 333.582 101.566H336.957C337.834 101.566 338.307 101.081 338.307 100.178V56.5867H350.456C351.334 56.5867 351.806 56.1008 351.806 55.1984V52.2831C351.806 51.3807 351.334 50.8948 350.456 50.8948H320.082C319.205 50.8948 318.732 51.3807 318.732 52.2831V55.1984C318.732 56.1008 319.205 56.5867 320.082 56.5867H332.232V100.178Z" fill="black" fill-opacity="0.2"/>
<path d="M332.232 100.178C332.232 101.081 332.704 101.566 333.582 101.566H336.957C337.834 101.566 338.307 101.081 338.307 100.178V56.5867H350.456C351.334 56.5867 351.806 56.1008 351.806 55.1984V52.2831C351.806 51.3807 351.334 50.8948 350.456 50.8948H320.082C319.205 50.8948 318.732 51.3807 318.732 52.2831V55.1984C318.732 56.1008 319.205 56.5867 320.082 56.5867H332.232V100.178Z" fill="black" fill-opacity="0.2"/>
<path d="M35.3819 101.566C35.0309 101.566 34.7463 101.274 34.7463 100.913V51.5484C34.7463 51.1874 35.0309 50.8948 35.3819 50.8948H86.5448C86.8958 50.8948 87.1804 51.1874 87.1804 51.5484V100.913C87.1804 101.274 86.8958 101.566 86.5448 101.566H81.7412C81.3902 101.566 81.1056 101.274 81.1056 100.913V57.2403C81.1056 56.8793 80.821 56.5867 80.47 56.5867H41.4567C41.1057 56.5867 40.8211 56.8793 40.8211 57.2403V100.913C40.8211 101.274 40.5366 101.566 40.1855 101.566H35.3819ZM98.4261 101.566C97.4811 101.566 97.0761 100.942 97.2786 100.039L109.428 52.0748C109.631 51.3113 110.103 50.8948 110.913 50.8948H116.65C117.46 50.8948 117.933 51.3113 118.135 52.0748L130.217 100.039C130.42 100.942 130.015 101.566 129.07 101.566H125.695C124.885 101.566 124.413 101.15 124.21 100.386L121.24 88.1002H106.323L103.353 100.386C103.151 101.15 102.678 101.566 101.868 101.566H98.4261ZM107.538 82.8248H119.958L116.178 67.2069C115.435 64.2221 114.895 61.6538 114.491 59.7102C114.221 58.3914 113.276 58.3914 113.006 59.7102C112.601 61.6538 112.061 64.2221 111.318 67.1374L107.538 82.8248ZM141.531 101.566C140.653 101.566 140.181 101.08 140.181 100.178V52.283C140.181 51.3807 140.653 50.8948 141.531 50.8948H164.319C173.498 50.8948 179.371 56.7255 179.371 65.8186C179.371 74.9117 173.498 80.7424 164.319 80.7424H146.256V100.178C146.256 101.08 145.783 101.566 144.906 101.566H141.531ZM146.256 75.12H164.319C169.651 75.12 173.093 71.5105 173.093 65.8186C173.093 60.1267 169.651 56.5172 164.319 56.5172H147.606C146.728 56.5172 146.256 57.0031 146.256 57.9055V75.12ZM179.371 101.566C178.426 101.566 178.021 100.942 178.223 100.039L190.373 52.0748C190.575 51.3113 191.048 50.8948 191.858 50.8948H197.595C198.405 50.8948 198.877 51.3113 199.08 52.0748L211.162 100.039C211.365 100.942 210.96 101.566 210.015 101.566H206.64C205.83 101.566 205.357 101.15 205.155 100.386L202.185 88.1002H187.268L184.298 100.386C184.095 101.15 183.623 101.566 182.813 101.566H179.371ZM188.483 82.8248H200.902L197.123 67.2069C196.38 64.2221 195.84 61.6538 195.435 59.7102C195.165 58.3914 194.22 58.3914 193.95 59.7102C193.545 61.6538 193.005 64.2221 192.263 67.1374L188.483 82.8248Z" fill="#0D0D0D"/>
<path d="M35.3819 101.566C35.0309 101.566 34.7463 101.274 34.7463 100.913V51.5484C34.7463 51.1874 35.0309 50.8948 35.3819 50.8948H86.5448C86.8958 50.8948 87.1804 51.1874 87.1804 51.5484V100.913C87.1804 101.274 86.8958 101.566 86.5448 101.566H81.7412C81.3902 101.566 81.1056 101.274 81.1056 100.913V57.2403C81.1056 56.8793 80.821 56.5867 80.47 56.5867H41.4567C41.1057 56.5867 40.8211 56.8793 40.8211 57.2403V100.913C40.8211 101.274 40.5366 101.566 40.1855 101.566H35.3819ZM98.4261 101.566C97.4811 101.566 97.0761 100.942 97.2786 100.039L109.428 52.0748C109.631 51.3113 110.103 50.8948 110.913 50.8948H116.65C117.46 50.8948 117.933 51.3113 118.135 52.0748L130.217 100.039C130.42 100.942 130.015 101.566 129.07 101.566H125.695C124.885 101.566 124.413 101.15 124.21 100.386L121.24 88.1002H106.323L103.353 100.386C103.151 101.15 102.678 101.566 101.868 101.566H98.4261ZM107.538 82.8248H119.958L116.178 67.2069C115.435 64.2221 114.895 61.6538 114.491 59.7102C114.221 58.3914 113.276 58.3914 113.006 59.7102C112.601 61.6538 112.061 64.2221 111.318 67.1374L107.538 82.8248ZM141.531 101.566C140.653 101.566 140.181 101.08 140.181 100.178V52.283C140.181 51.3807 140.653 50.8948 141.531 50.8948H164.319C173.498 50.8948 179.371 56.7255 179.371 65.8186C179.371 74.9117 173.498 80.7424 164.319 80.7424H146.256V100.178C146.256 101.08 145.783 101.566 144.906 101.566H141.531ZM146.256 75.12H164.319C169.651 75.12 173.093 71.5105 173.093 65.8186C173.093 60.1267 169.651 56.5172 164.319 56.5172H147.606C146.728 56.5172 146.256 57.0031 146.256 57.9055V75.12ZM179.371 101.566C178.426 101.566 178.021 100.942 178.223 100.039L190.373 52.0748C190.575 51.3113 191.048 50.8948 191.858 50.8948H197.595C198.405 50.8948 198.877 51.3113 199.08 52.0748L211.162 100.039C211.365 100.942 210.96 101.566 210.015 101.566H206.64C205.83 101.566 205.357 101.15 205.155 100.386L202.185 88.1002H187.268L184.298 100.386C184.095 101.15 183.623 101.566 182.813 101.566H179.371ZM188.483 82.8248H200.902L197.123 67.2069C196.38 64.2221 195.84 61.6538 195.435 59.7102C195.165 58.3914 194.22 58.3914 193.95 59.7102C193.545 61.6538 193.005 64.2221 192.263 67.1374L188.483 82.8248Z" fill="black" fill-opacity="0.2"/>
<path d="M35.3819 101.566C35.0309 101.566 34.7463 101.274 34.7463 100.913V51.5484C34.7463 51.1874 35.0309 50.8948 35.3819 50.8948H86.5448C86.8958 50.8948 87.1804 51.1874 87.1804 51.5484V100.913C87.1804 101.274 86.8958 101.566 86.5448 101.566H81.7412C81.3902 101.566 81.1056 101.274 81.1056 100.913V57.2403C81.1056 56.8793 80.821 56.5867 80.47 56.5867H41.4567C41.1057 56.5867 40.8211 56.8793 40.8211 57.2403V100.913C40.8211 101.274 40.5366 101.566 40.1855 101.566H35.3819ZM98.4261 101.566C97.4811 101.566 97.0761 100.942 97.2786 100.039L109.428 52.0748C109.631 51.3113 110.103 50.8948 110.913 50.8948H116.65C117.46 50.8948 117.933 51.3113 118.135 52.0748L130.217 100.039C130.42 100.942 130.015 101.566 129.07 101.566H125.695C124.885 101.566 124.413 101.15 124.21 100.386L121.24 88.1002H106.323L103.353 100.386C103.151 101.15 102.678 101.566 101.868 101.566H98.4261ZM107.538 82.8248H119.958L116.178 67.2069C115.435 64.2221 114.895 61.6538 114.491 59.7102C114.221 58.3914 113.276 58.3914 113.006 59.7102C112.601 61.6538 112.061 64.2221 111.318 67.1374L107.538 82.8248ZM141.531 101.566C140.653 101.566 140.181 101.08 140.181 100.178V52.283C140.181 51.3807 140.653 50.8948 141.531 50.8948H164.319C173.498 50.8948 179.371 56.7255 179.371 65.8186C179.371 74.9117 173.498 80.7424 164.319 80.7424H146.256V100.178C146.256 101.08 145.783 101.566 144.906 101.566H141.531ZM146.256 75.12H164.319C169.651 75.12 173.093 71.5105 173.093 65.8186C173.093 60.1267 169.651 56.5172 164.319 56.5172H147.606C146.728 56.5172 146.256 57.0031 146.256 57.9055V75.12ZM179.371 101.566C178.426 101.566 178.021 100.942 178.223 100.039L190.373 52.0748C190.575 51.3113 191.048 50.8948 191.858 50.8948H197.595C198.405 50.8948 198.877 51.3113 199.08 52.0748L211.162 100.039C211.365 100.942 210.96 101.566 210.015 101.566H206.64C205.83 101.566 205.357 101.15 205.155 100.386L202.185 88.1002H187.268L184.298 100.386C184.095 101.15 183.623 101.566 182.813 101.566H179.371ZM188.483 82.8248H200.902L197.123 67.2069C196.38 64.2221 195.84 61.6538 195.435 59.7102C195.165 58.3914 194.22 58.3914 193.95 59.7102C193.545 61.6538 193.005 64.2221 192.263 67.1374L188.483 82.8248Z" fill="black" fill-opacity="0.2"/>
<path d="M214.239 51.5502L214.371 100.915C214.372 101.275 214.656 101.566 215.006 101.566L269.888 101.566C270.239 101.566 270.524 101.274 270.524 100.913V51.5485C270.524 51.1875 270.239 50.8948 269.888 50.8948H265.49C265.139 50.8948 264.854 51.1875 264.854 51.5485V95.4986C264.854 95.8596 264.57 96.1522 264.219 96.1522L233.637 96.1521C233.286 96.1521 233.002 95.8595 233.002 95.4985V51.5484C233.002 51.1874 232.717 50.8948 232.366 50.8948H228.643C228.292 50.8948 228.007 51.1874 228.007 51.5484V95.4985C228.007 95.8595 227.722 96.1521 227.371 96.1521H220.61C220.259 96.1521 219.975 95.8595 219.975 95.4985V51.5484C219.975 51.1874 219.69 50.8948 219.339 50.8948H214.875C214.523 50.8948 214.238 51.1885 214.239 51.5502Z" fill="#0D0D0D"/>
<path d="M214.239 51.5502L214.371 100.915C214.372 101.275 214.656 101.566 215.006 101.566L269.888 101.566C270.239 101.566 270.524 101.274 270.524 100.913V51.5485C270.524 51.1875 270.239 50.8948 269.888 50.8948H265.49C265.139 50.8948 264.854 51.1875 264.854 51.5485V95.4986C264.854 95.8596 264.57 96.1522 264.219 96.1522L233.637 96.1521C233.286 96.1521 233.002 95.8595 233.002 95.4985V51.5484C233.002 51.1874 232.717 50.8948 232.366 50.8948H228.643C228.292 50.8948 228.007 51.1874 228.007 51.5484V95.4985C228.007 95.8595 227.722 96.1521 227.371 96.1521H220.61C220.259 96.1521 219.975 95.8595 219.975 95.4985V51.5484C219.975 51.1874 219.69 50.8948 219.339 50.8948H214.875C214.523 50.8948 214.238 51.1885 214.239 51.5502Z" fill="black" fill-opacity="0.2"/>
<path d="M214.239 51.5502L214.371 100.915C214.372 101.275 214.656 101.566 215.006 101.566L269.888 101.566C270.239 101.566 270.524 101.274 270.524 100.913V51.5485C270.524 51.1875 270.239 50.8948 269.888 50.8948H265.49C265.139 50.8948 264.854 51.1875 264.854 51.5485V95.4986C264.854 95.8596 264.57 96.1522 264.219 96.1522L233.637 96.1521C233.286 96.1521 233.002 95.8595 233.002 95.4985V51.5484C233.002 51.1874 232.717 50.8948 232.366 50.8948H228.643C228.292 50.8948 228.007 51.1874 228.007 51.5484V95.4985C228.007 95.8595 227.722 96.1521 227.371 96.1521H220.61C220.259 96.1521 219.975 95.8595 219.975 95.4985V51.5484C219.975 51.1874 219.69 50.8948 219.339 50.8948H214.875C214.523 50.8948 214.238 51.1885 214.239 51.5502Z" fill="black" fill-opacity="0.2"/>
<path d="M292.343 88.6874L287.779 100.674C287.616 101.103 287.923 101.566 288.371 101.566H293.473C293.741 101.566 293.98 101.394 294.071 101.134L311.364 51.77C311.514 51.344 311.207 50.8948 310.766 50.8948H305.519C305.243 50.8948 304.999 51.0779 304.914 51.3481L297.294 75.6753C296.924 76.8434 296.608 77.9928 296.346 79.0489C296.165 79.7762 294.685 79.7977 294.478 79.078C294.171 78.0139 293.803 76.8541 293.379 75.6753L284.69 51.3233C284.598 51.0659 284.36 50.8948 284.093 50.8948H278.859C278.41 50.8948 278.102 51.3607 278.268 51.7899L292.342 88.2077C292.401 88.3617 292.402 88.5331 292.343 88.6874Z" fill="#0D0D0D"/>
<path d="M292.343 88.6874L287.779 100.674C287.616 101.103 287.923 101.566 288.371 101.566H293.473C293.741 101.566 293.98 101.394 294.071 101.134L311.364 51.77C311.514 51.344 311.207 50.8948 310.766 50.8948H305.519C305.243 50.8948 304.999 51.0779 304.914 51.3481L297.294 75.6753C296.924 76.8434 296.608 77.9928 296.346 79.0489C296.165 79.7762 294.685 79.7977 294.478 79.078C294.171 78.0139 293.803 76.8541 293.379 75.6753L284.69 51.3233C284.598 51.0659 284.36 50.8948 284.093 50.8948H278.859C278.41 50.8948 278.102 51.3607 278.268 51.7899L292.342 88.2077C292.401 88.3617 292.402 88.5331 292.343 88.6874Z" fill="black" fill-opacity="0.2"/>
<path d="M292.343 88.6874L287.779 100.674C287.616 101.103 287.923 101.566 288.371 101.566H293.473C293.741 101.566 293.98 101.394 294.071 101.134L311.364 51.77C311.514 51.344 311.207 50.8948 310.766 50.8948H305.519C305.243 50.8948 304.999 51.0779 304.914 51.3481L297.294 75.6753C296.924 76.8434 296.608 77.9928 296.346 79.0489C296.165 79.7762 294.685 79.7977 294.478 79.078C294.171 78.0139 293.803 76.8541 293.379 75.6753L284.69 51.3233C284.598 51.0659 284.36 50.8948 284.093 50.8948H278.859C278.41 50.8948 278.102 51.3607 278.268 51.7899L292.342 88.2077C292.401 88.3617 292.402 88.5331 292.343 88.6874Z" fill="black" fill-opacity="0.2"/>
<path d="M332.232 100.178C332.232 101.081 332.704 101.566 333.582 101.566H336.957C337.834 101.566 338.307 101.081 338.307 100.178V56.5867H350.456C351.334 56.5867 351.806 56.1008 351.806 55.1984V52.2831C351.806 51.3807 351.334 50.8948 350.456 50.8948H320.082C319.205 50.8948 318.732 51.3807 318.732 52.2831V55.1984C318.732 56.1008 319.205 56.5867 320.082 56.5867H332.232V100.178Z" fill="#0D0D0D"/>
<path d="M332.232 100.178C332.232 101.081 332.704 101.566 333.582 101.566H336.957C337.834 101.566 338.307 101.081 338.307 100.178V56.5867H350.456C351.334 56.5867 351.806 56.1008 351.806 55.1984V52.2831C351.806 51.3807 351.334 50.8948 350.456 50.8948H320.082C319.205 50.8948 318.732 51.3807 318.732 52.2831V55.1984C318.732 56.1008 319.205 56.5867 320.082 56.5867H332.232V100.178Z" fill="black" fill-opacity="0.2"/>
<path d="M332.232 100.178C332.232 101.081 332.704 101.566 333.582 101.566H336.957C337.834 101.566 338.307 101.081 338.307 100.178V56.5867H350.456C351.334 56.5867 351.806 56.1008 351.806 55.1984V52.2831C351.806 51.3807 351.334 50.8948 350.456 50.8948H320.082C319.205 50.8948 318.732 51.3807 318.732 52.2831V55.1984C318.732 56.1008 319.205 56.5867 320.082 56.5867H332.232V100.178Z" fill="black" fill-opacity="0.2"/>
<path d="M1.26026 152.238C0.266515 152.238 -0.159376 151.613 0.0535696 150.711L12.8303 102.746C13.0432 101.983 13.5401 101.566 14.3919 101.566H20.4254C21.2771 101.566 21.774 101.983 21.987 102.746L34.6927 150.711C34.9056 151.613 34.4798 152.238 33.486 152.238H29.9369C29.0851 152.238 28.5883 151.822 28.3753 151.058L25.2521 138.772H9.56513L6.44193 151.058C6.22899 151.822 5.73212 152.238 4.88033 152.238H1.26026ZM10.8428 133.496H23.9035L19.9285 117.879C19.1477 114.894 18.5798 112.325 18.1539 110.382C17.87 109.063 16.8763 109.063 16.5923 110.382C16.1664 112.325 15.5986 114.894 14.8178 117.809L10.8428 133.496Z" fill="#CFCFCF"/>
<path d="M353.067 152.238C352.073 152.238 351.647 151.613 351.86 150.711L364.637 102.746C364.85 101.983 365.347 101.566 366.199 101.566H372.232C373.084 101.566 373.581 101.983 373.794 102.746L386.499 150.711C386.712 151.613 386.286 152.238 385.293 152.238H381.744C380.892 152.238 380.395 151.822 380.182 151.058L377.059 138.772H361.372L358.249 151.058C358.036 151.822 357.539 152.238 356.687 152.238H353.067ZM362.649 133.496H375.71L371.735 117.879C370.954 114.894 370.386 112.325 369.961 110.382C369.677 109.063 368.683 109.063 368.399 110.382C367.973 112.325 367.405 114.894 366.624 117.809L362.649 133.496Z" fill="#CFCFCF"/>
<path d="M353.067 50.8948C352.073 50.8948 351.647 50.2701 351.86 49.3677L364.637 1.40317C364.85 0.639623 365.347 0.223145 366.199 0.223145H372.232C373.084 0.223145 373.581 0.639623 373.794 1.40317L386.499 49.3677C386.712 50.2701 386.286 50.8948 385.293 50.8948H381.744C380.892 50.8948 380.395 50.4783 380.182 49.7148L377.059 37.4286H361.372L358.249 49.7148C358.036 50.4783 357.539 50.8948 356.687 50.8948H353.067ZM362.649 32.1532H375.71L371.735 16.5352C370.954 13.5505 370.386 10.9822 369.961 9.03862C369.677 7.71977 368.683 7.71977 368.399 9.03862C367.973 10.9822 367.405 13.5505 366.624 16.4658L362.649 32.1532Z" fill="#CFCFCF"/>
<path d="M1.26026 50.8948C0.266515 50.8948 -0.159376 50.2701 0.0535696 49.3677L12.8303 1.40317C13.0432 0.639623 13.5401 0.223145 14.3919 0.223145H20.4254C21.2771 0.223145 21.774 0.639623 21.987 1.40317L34.6927 49.3677C34.9056 50.2701 34.4797 50.8948 33.486 50.8948H29.9369C29.0851 50.8948 28.5883 50.4783 28.3753 49.7148L25.2521 37.4286H9.56513L6.44193 49.7148C6.22899 50.4783 5.73212 50.8948 4.88033 50.8948H1.26026ZM10.8428 32.1532H23.9035L19.9285 16.5352C19.1477 13.5505 18.5798 10.9822 18.1539 9.03862C17.87 7.71977 16.8763 7.71977 16.5923 9.03862C16.1664 10.9822 15.5986 13.5505 14.8178 16.4658L10.8428 32.1532Z" fill="#CFCFCF"/>
<path d="M388 101.566H0" stroke="#F4762E" stroke-width="0.723881"/>
<path d="M388 50.8948H0" stroke="#F4762E" stroke-width="0.723881"/>
<path d="M34.7463 0.223116L34.7463 152.238" stroke="#F4762E" stroke-width="0.723881"/>
<path d="M351.807 0.223116L351.807 152.238" stroke="#F4762E" stroke-width="0.723881"/>
</g>
<rect x="0.36194" y="0.585085" width="387.276" height="151.291" stroke="#F4762E" stroke-width="0.723881"/>
<defs>
<clipPath id="clip0_1720_535">
<rect y="0.223145" width="388" height="152.015" fill="white"/>
</clipPath>
</defs>
</svg>
