<svg width="115" height="129" viewBox="0 0 115 129" fill="none" xmlns="http://www.w3.org/2000/svg">
<path d="M0.547994 35.5369C0.245345 35.5369 0 35.2916 0 34.9889L0 4.08193C0 3.77928 0.245345 3.53394 0.547994 3.53394L33.5078 3.53394C33.8104 3.53394 34.0557 3.77928 34.0557 4.08193V34.9889C34.0557 35.2916 33.8104 35.5369 33.5078 35.5369H30.6582C30.3555 35.5369 30.1102 35.2916 30.1102 34.9889V7.67678C30.1102 7.37413 29.8648 7.12879 29.5622 7.12879L4.49355 7.12879C4.1909 7.12879 3.94556 7.37413 3.94556 7.67678V34.9889C3.94556 35.2916 3.70021 35.5369 3.39756 35.5369H0.547994ZM41.3598 35.5369C40.746 35.5369 40.483 35.1423 40.6145 34.5724L48.5056 4.27921C48.6371 3.79697 48.944 3.53394 49.4701 3.53394H53.1964C53.7225 3.53394 54.0294 3.79697 54.1609 4.27921L62.0082 34.5724C62.1397 35.1423 61.8767 35.5369 61.2629 35.5369H59.0709C58.5449 35.5369 58.238 35.2739 58.1065 34.7916L56.1775 27.032L46.489 27.032L44.5601 34.7916C44.4285 35.2739 44.1217 35.5369 43.5956 35.5369H41.3598ZM47.2781 23.7002L55.3446 23.7002L52.8896 13.8363C52.4073 11.9511 52.0566 10.3291 51.7936 9.10157C51.6182 8.26862 51.0045 8.26862 50.8291 9.10157C50.5661 10.3291 50.2154 11.9511 49.7331 13.7924L47.2781 23.7002ZM69.3562 35.5369C68.7863 35.5369 68.4795 35.23 68.4795 34.6601V4.41073C68.4795 3.84081 68.7863 3.53394 69.3562 3.53394L84.1568 3.53394C90.119 3.53394 93.9331 7.21646 93.9331 12.9595C93.9331 18.7025 90.119 22.385 84.1568 22.385H72.425V34.6601C72.425 35.23 72.1181 35.5369 71.5482 35.5369H69.3562ZM72.425 18.834L84.1568 18.834C87.6202 18.834 89.856 16.5543 89.856 12.9595C89.856 9.36461 87.6202 7.08495 84.1568 7.08495L73.3018 7.08495C72.7319 7.08495 72.425 7.39183 72.425 7.96174V18.834ZM93.9331 35.5369C93.3193 35.5369 93.0563 35.1423 93.1878 34.5724L101.079 4.27921C101.21 3.79697 101.517 3.53394 102.043 3.53394H105.77C106.296 3.53394 106.603 3.79697 106.734 4.27921L114.581 34.5724C114.713 35.1423 114.45 35.5369 113.836 35.5369H111.644C111.118 35.5369 110.811 35.2739 110.68 34.7916L108.751 27.032H99.0623L97.1333 34.7916C97.0018 35.2739 96.6949 35.5369 96.1689 35.5369H93.9331ZM99.8514 23.7002H107.918L105.463 13.8363C104.981 11.9511 104.63 10.3291 104.367 9.10157C104.191 8.26862 103.578 8.26862 103.402 9.10157C103.139 10.3291 102.789 11.9511 102.306 13.7924L99.8514 23.7002Z" fill="#0D0D0D"/>
<path d="M0.547994 35.5369C0.245345 35.5369 0 35.2916 0 34.9889L0 4.08193C0 3.77928 0.245345 3.53394 0.547994 3.53394L33.5078 3.53394C33.8104 3.53394 34.0557 3.77928 34.0557 4.08193V34.9889C34.0557 35.2916 33.8104 35.5369 33.5078 35.5369H30.6582C30.3555 35.5369 30.1102 35.2916 30.1102 34.9889V7.67678C30.1102 7.37413 29.8648 7.12879 29.5622 7.12879L4.49355 7.12879C4.1909 7.12879 3.94556 7.37413 3.94556 7.67678V34.9889C3.94556 35.2916 3.70021 35.5369 3.39756 35.5369H0.547994ZM41.3598 35.5369C40.746 35.5369 40.483 35.1423 40.6145 34.5724L48.5056 4.27921C48.6371 3.79697 48.944 3.53394 49.4701 3.53394H53.1964C53.7225 3.53394 54.0294 3.79697 54.1609 4.27921L62.0082 34.5724C62.1397 35.1423 61.8767 35.5369 61.2629 35.5369H59.0709C58.5449 35.5369 58.238 35.2739 58.1065 34.7916L56.1775 27.032L46.489 27.032L44.5601 34.7916C44.4285 35.2739 44.1217 35.5369 43.5956 35.5369H41.3598ZM47.2781 23.7002L55.3446 23.7002L52.8896 13.8363C52.4073 11.9511 52.0566 10.3291 51.7936 9.10157C51.6182 8.26862 51.0045 8.26862 50.8291 9.10157C50.5661 10.3291 50.2154 11.9511 49.7331 13.7924L47.2781 23.7002ZM69.3562 35.5369C68.7863 35.5369 68.4795 35.23 68.4795 34.6601V4.41073C68.4795 3.84081 68.7863 3.53394 69.3562 3.53394L84.1568 3.53394C90.119 3.53394 93.9331 7.21646 93.9331 12.9595C93.9331 18.7025 90.119 22.385 84.1568 22.385H72.425V34.6601C72.425 35.23 72.1181 35.5369 71.5482 35.5369H69.3562ZM72.425 18.834L84.1568 18.834C87.6202 18.834 89.856 16.5543 89.856 12.9595C89.856 9.36461 87.6202 7.08495 84.1568 7.08495L73.3018 7.08495C72.7319 7.08495 72.425 7.39183 72.425 7.96174V18.834ZM93.9331 35.5369C93.3193 35.5369 93.0563 35.1423 93.1878 34.5724L101.079 4.27921C101.21 3.79697 101.517 3.53394 102.043 3.53394H105.77C106.296 3.53394 106.603 3.79697 106.734 4.27921L114.581 34.5724C114.713 35.1423 114.45 35.5369 113.836 35.5369H111.644C111.118 35.5369 110.811 35.2739 110.68 34.7916L108.751 27.032H99.0623L97.1333 34.7916C97.0018 35.2739 96.6949 35.5369 96.1689 35.5369H93.9331ZM99.8514 23.7002H107.918L105.463 13.8363C104.981 11.9511 104.63 10.3291 104.367 9.10157C104.191 8.26862 103.578 8.26862 103.402 9.10157C103.139 10.3291 102.789 11.9511 102.306 13.7924L99.8514 23.7002Z" fill="black" fill-opacity="0.2"/>
<path d="M0.547994 35.5369C0.245345 35.5369 0 35.2916 0 34.9889L0 4.08193C0 3.77928 0.245345 3.53394 0.547994 3.53394L33.5078 3.53394C33.8104 3.53394 34.0557 3.77928 34.0557 4.08193V34.9889C34.0557 35.2916 33.8104 35.5369 33.5078 35.5369H30.6582C30.3555 35.5369 30.1102 35.2916 30.1102 34.9889V7.67678C30.1102 7.37413 29.8648 7.12879 29.5622 7.12879L4.49355 7.12879C4.1909 7.12879 3.94556 7.37413 3.94556 7.67678V34.9889C3.94556 35.2916 3.70021 35.5369 3.39756 35.5369H0.547994ZM41.3598 35.5369C40.746 35.5369 40.483 35.1423 40.6145 34.5724L48.5056 4.27921C48.6371 3.79697 48.944 3.53394 49.4701 3.53394H53.1964C53.7225 3.53394 54.0294 3.79697 54.1609 4.27921L62.0082 34.5724C62.1397 35.1423 61.8767 35.5369 61.2629 35.5369H59.0709C58.5449 35.5369 58.238 35.2739 58.1065 34.7916L56.1775 27.032L46.489 27.032L44.5601 34.7916C44.4285 35.2739 44.1217 35.5369 43.5956 35.5369H41.3598ZM47.2781 23.7002L55.3446 23.7002L52.8896 13.8363C52.4073 11.9511 52.0566 10.3291 51.7936 9.10157C51.6182 8.26862 51.0045 8.26862 50.8291 9.10157C50.5661 10.3291 50.2154 11.9511 49.7331 13.7924L47.2781 23.7002ZM69.3562 35.5369C68.7863 35.5369 68.4795 35.23 68.4795 34.6601V4.41073C68.4795 3.84081 68.7863 3.53394 69.3562 3.53394L84.1568 3.53394C90.119 3.53394 93.9331 7.21646 93.9331 12.9595C93.9331 18.7025 90.119 22.385 84.1568 22.385H72.425V34.6601C72.425 35.23 72.1181 35.5369 71.5482 35.5369H69.3562ZM72.425 18.834L84.1568 18.834C87.6202 18.834 89.856 16.5543 89.856 12.9595C89.856 9.36461 87.6202 7.08495 84.1568 7.08495L73.3018 7.08495C72.7319 7.08495 72.425 7.39183 72.425 7.96174V18.834ZM93.9331 35.5369C93.3193 35.5369 93.0563 35.1423 93.1878 34.5724L101.079 4.27921C101.21 3.79697 101.517 3.53394 102.043 3.53394H105.77C106.296 3.53394 106.603 3.79697 106.734 4.27921L114.581 34.5724C114.713 35.1423 114.45 35.5369 113.836 35.5369H111.644C111.118 35.5369 110.811 35.2739 110.68 34.7916L108.751 27.032H99.0623L97.1333 34.7916C97.0018 35.2739 96.6949 35.5369 96.1689 35.5369H93.9331ZM99.8514 23.7002H107.918L105.463 13.8363C104.981 11.9511 104.63 10.3291 104.367 9.10157C104.191 8.26862 103.578 8.26862 103.402 9.10157C103.139 10.3291 102.789 11.9511 102.306 13.7924L99.8514 23.7002Z" fill="black" fill-opacity="0.2"/>
<path d="M12.0015 55.0864L12.0862 85.9933C12.087 86.2954 12.3321 86.5398 12.6342 86.5398H22.5653L48.0099 86.5399C48.3125 86.5399 48.5579 86.2945 48.5579 85.9919V55.0849C48.5579 54.7822 48.3125 54.5369 48.0099 54.5369H45.4233C45.1207 54.5369 44.8753 54.7822 44.8753 55.0849V82.5724C44.8753 82.875 44.63 83.1204 44.3274 83.1204L24.7354 83.1203C24.4327 83.1203 24.1874 82.875 24.1874 82.5723V55.0849C24.1874 54.7822 23.942 54.5369 23.6394 54.5369H21.4913C21.1886 54.5369 20.9433 54.7822 20.9433 55.0849V82.5723C20.9433 82.875 20.6979 83.1203 20.3953 83.1203H16.2744C15.9717 83.1203 15.7264 82.875 15.7264 82.5723V55.0849C15.7264 54.7822 15.481 54.5369 15.1784 54.5369H12.5495C12.2463 54.5369 12.0007 54.7831 12.0015 55.0864Z" fill="#0D0D0D"/>
<path d="M12.0015 55.0864L12.0862 85.9933C12.087 86.2954 12.3321 86.5398 12.6342 86.5398H22.5653L48.0099 86.5399C48.3125 86.5399 48.5579 86.2945 48.5579 85.9919V55.0849C48.5579 54.7822 48.3125 54.5369 48.0099 54.5369H45.4233C45.1207 54.5369 44.8753 54.7822 44.8753 55.0849V82.5724C44.8753 82.875 44.63 83.1204 44.3274 83.1204L24.7354 83.1203C24.4327 83.1203 24.1874 82.875 24.1874 82.5723V55.0849C24.1874 54.7822 23.942 54.5369 23.6394 54.5369H21.4913C21.1886 54.5369 20.9433 54.7822 20.9433 55.0849V82.5723C20.9433 82.875 20.6979 83.1203 20.3953 83.1203H16.2744C15.9717 83.1203 15.7264 82.875 15.7264 82.5723V55.0849C15.7264 54.7822 15.481 54.5369 15.1784 54.5369H12.5495C12.2463 54.5369 12.0007 54.7831 12.0015 55.0864Z" fill="black" fill-opacity="0.2"/>
<path d="M12.0015 55.0864L12.0862 85.9933C12.087 86.2954 12.3321 86.5398 12.6342 86.5398H22.5653L48.0099 86.5399C48.3125 86.5399 48.5579 86.2945 48.5579 85.9919V55.0849C48.5579 54.7822 48.3125 54.5369 48.0099 54.5369H45.4233C45.1207 54.5369 44.8753 54.7822 44.8753 55.0849V82.5724C44.8753 82.875 44.63 83.1204 44.3274 83.1204L24.7354 83.1203C24.4327 83.1203 24.1874 82.875 24.1874 82.5723V55.0849C24.1874 54.7822 23.942 54.5369 23.6394 54.5369H21.4913C21.1886 54.5369 20.9433 54.7822 20.9433 55.0849V82.5723C20.9433 82.875 20.6979 83.1203 20.3953 83.1203H16.2744C15.9717 83.1203 15.7264 82.875 15.7264 82.5723V55.0849C15.7264 54.7822 15.481 54.5369 15.1784 54.5369H12.5495C12.2463 54.5369 12.0007 54.7831 12.0015 55.0864Z" fill="black" fill-opacity="0.2"/>
<path d="M62.7097 78.4555L59.8372 85.7921C59.6965 86.1515 59.9615 86.5399 60.3475 86.5399H63.368C63.599 86.5399 63.8052 86.395 63.8835 86.1776L75.0185 55.2706C75.1471 54.9135 74.8825 54.5369 74.5029 54.5369H71.3857C71.1478 54.5369 70.9371 54.6904 70.8641 54.9169L65.945 70.1877C65.8057 70.6147 65.6783 71.0379 65.5626 71.4479C65.3918 72.0535 64.0428 72.0744 63.8486 71.4759C63.7128 71.0571 63.5637 70.6245 63.4023 70.1877L57.7911 54.8961C57.7119 54.6803 57.5065 54.5369 57.2767 54.5369H54.1705C53.7833 54.5369 53.5183 54.9275 53.6612 55.2873L62.7087 78.0533C62.76 78.1824 62.7604 78.3261 62.7097 78.4555Z" fill="#0D0D0D"/>
<path d="M62.7097 78.4555L59.8372 85.7921C59.6965 86.1515 59.9615 86.5399 60.3475 86.5399H63.368C63.599 86.5399 63.8052 86.395 63.8835 86.1776L75.0185 55.2706C75.1471 54.9135 74.8825 54.5369 74.5029 54.5369H71.3857C71.1478 54.5369 70.9371 54.6904 70.8641 54.9169L65.945 70.1877C65.8057 70.6147 65.6783 71.0379 65.5626 71.4479C65.3918 72.0535 64.0428 72.0744 63.8486 71.4759C63.7128 71.0571 63.5637 70.6245 63.4023 70.1877L57.7911 54.8961C57.7119 54.6803 57.5065 54.5369 57.2767 54.5369H54.1705C53.7833 54.5369 53.5183 54.9275 53.6612 55.2873L62.7087 78.0533C62.76 78.1824 62.7604 78.3261 62.7097 78.4555Z" fill="black" fill-opacity="0.2"/>
<path d="M62.7097 78.4555L59.8372 85.7921C59.6965 86.1515 59.9615 86.5399 60.3475 86.5399H63.368C63.599 86.5399 63.8052 86.395 63.8835 86.1776L75.0185 55.2706C75.1471 54.9135 74.8825 54.5369 74.5029 54.5369H71.3857C71.1478 54.5369 70.9371 54.6904 70.8641 54.9169L65.945 70.1877C65.8057 70.6147 65.6783 71.0379 65.5626 71.4479C65.3918 72.0535 64.0428 72.0744 63.8486 71.4759C63.7128 71.0571 63.5637 70.6245 63.4023 70.1877L57.7911 54.8961C57.7119 54.6803 57.5065 54.5369 57.2767 54.5369H54.1705C53.7833 54.5369 53.5183 54.9275 53.6612 55.2873L62.7087 78.0533C62.76 78.1824 62.7604 78.3261 62.7097 78.4555Z" fill="black" fill-opacity="0.2"/>
<path d="M88.6369 85.6631C88.6369 86.233 88.9437 86.5399 89.5137 86.5399H91.7056C92.2756 86.5399 92.5824 86.233 92.5824 85.6631V58.1318H100.474C101.043 58.1318 101.35 57.8249 101.35 57.255V55.4137C101.35 54.8438 101.043 54.5369 100.474 54.5369H80.7458C80.1758 54.5369 79.869 54.8438 79.869 55.4137V57.255C79.869 57.8249 80.1758 58.1318 80.7458 58.1318H88.6369V85.6631Z" fill="#0D0D0D"/>
<path d="M88.6369 85.6631C88.6369 86.233 88.9437 86.5399 89.5137 86.5399H91.7056C92.2756 86.5399 92.5824 86.233 92.5824 85.6631V58.1318H100.474C101.043 58.1318 101.35 57.8249 101.35 57.255V55.4137C101.35 54.8438 101.043 54.5369 100.474 54.5369H80.7458C80.1758 54.5369 79.869 54.8438 79.869 55.4137V57.255C79.869 57.8249 80.1758 58.1318 80.7458 58.1318H88.6369V85.6631Z" fill="black" fill-opacity="0.2"/>
<path d="M88.6369 85.6631C88.6369 86.233 88.9437 86.5399 89.5137 86.5399H91.7056C92.2756 86.5399 92.5824 86.233 92.5824 85.6631V58.1318H100.474C101.043 58.1318 101.35 57.8249 101.35 57.255V55.4137C101.35 54.8438 101.043 54.5369 100.474 54.5369H80.7458C80.1758 54.5369 79.869 54.8438 79.869 55.4137V57.255C79.869 57.8249 80.1758 58.1318 80.7458 58.1318H88.6369V85.6631Z" fill="black" fill-opacity="0.2"/>
<rect x="44" y="101.851" width="27" height="27" rx="13.5" fill="#E67770"/>
<path d="M63.3989 107.277L51.6 123.424" stroke="#FAFAFA" stroke-width="2.07137"/>
<path d="M51.6011 107.277L63.4 123.424" stroke="#FAFAFA" stroke-width="2.07137"/>
</svg>
